%TF.GenerationSoftware,KiCad,Pcbnew,(5.0.0)*%
%TF.CreationDate,2019-04-29T14:38:46+02:00*%
%TF.ProjectId,Amalga_100,416D616C67615F3130302E6B69636164,rev?*%
%TF.SameCoordinates,Original*%
%TF.FileFunction,Legend,Bot*%
%TF.FilePolarity,Positive*%
%FSLAX46Y46*%
G04 Gerber Fmt 4.6, Leading zero omitted, Abs format (unit mm)*
G04 Created by KiCad (PCBNEW (5.0.0)) date 04/29/19 14:38:46*
%MOMM*%
%LPD*%
G01*
G04 APERTURE LIST*
%ADD10C,0.120000*%
%ADD11C,0.150000*%
%ADD12R,2.400000X2.400000*%
%ADD13R,7.400000X7.400000*%
%ADD14R,6.600000X3.100000*%
%ADD15O,2.100000X2.100000*%
%ADD16R,2.100000X2.100000*%
%ADD17C,3.400000*%
%ADD18C,1.800000*%
%ADD19R,1.800000X1.800000*%
%ADD20C,3.600000*%
%ADD21C,5.900000*%
%ADD22C,4.400000*%
%ADD23R,4.400000X4.400000*%
%ADD24C,10.400000*%
%ADD25C,1.300000*%
%ADD26C,2.000000*%
%ADD27C,2.900000*%
%ADD28C,0.100000*%
%ADD29C,1.375000*%
%ADD30C,2.200000*%
%ADD31C,1.900000*%
%ADD32O,1.900000X3.400000*%
%ADD33R,1.900000X3.400000*%
%ADD34R,2.250000X2.250000*%
%ADD35C,2.250000*%
%ADD36R,1.000000X1.950000*%
%ADD37R,2.900000X2.200000*%
%ADD38R,2.200000X4.000000*%
%ADD39O,2.200000X4.000000*%
G04 APERTURE END LIST*
D10*
X215050000Y-65400000D02*
X215400000Y-65400000D01*
X215400000Y-65400000D02*
X215400000Y-63900000D01*
X210400000Y-65400000D02*
X213600000Y-65400000D01*
X208600000Y-63900000D02*
X208600000Y-65400000D01*
X208600000Y-65400000D02*
X209000000Y-65400000D01*
D11*
X80250000Y-92750000D02*
X80250000Y-80250000D01*
X80250000Y-80250000D02*
X72750000Y-80250000D01*
X72750000Y-80250000D02*
X72750000Y-92750000D01*
X72750000Y-92750000D02*
X80250000Y-92750000D01*
X157150000Y-92750000D02*
X157150000Y-80250000D01*
X157150000Y-80250000D02*
X149650000Y-80250000D01*
X149650000Y-80250000D02*
X149650000Y-92750000D01*
X149650000Y-92750000D02*
X157150000Y-92750000D01*
X234150000Y-92250000D02*
X234150000Y-79750000D01*
X234150000Y-79750000D02*
X226650000Y-79750000D01*
X226650000Y-79750000D02*
X226650000Y-92250000D01*
X226650000Y-92250000D02*
X234150000Y-92250000D01*
X149100000Y-27250000D02*
G75*
G02X149100000Y-29250000I0J-1000000D01*
G01*
X169100000Y-29250000D02*
G75*
G02X169100000Y-27250000I0J1000000D01*
G01*
X169100000Y-21500000D02*
G75*
G02X169100000Y-17500000I0J2000000D01*
G01*
X149100000Y-17500000D02*
G75*
G02X149100000Y-21500000I0J-2000000D01*
G01*
X149100000Y-39500000D02*
X169100000Y-39500000D01*
X149100000Y-13500000D02*
X149100000Y-39500000D01*
X169100000Y-13500000D02*
X149100000Y-13500000D01*
X169100000Y-39500000D02*
X169100000Y-13500000D01*
D10*
X127819204Y-45715112D02*
X128184888Y-46080796D01*
X126815112Y-46719204D02*
X127180796Y-47084888D01*
X277290000Y-52534252D02*
X277290000Y-55365748D01*
X282510000Y-52534252D02*
X282510000Y-55365748D01*
X270290000Y-52534252D02*
X270290000Y-55365748D01*
X275510000Y-52534252D02*
X275510000Y-55365748D01*
X261510000Y-52534252D02*
X261510000Y-55365748D01*
X256290000Y-52534252D02*
X256290000Y-55365748D01*
X172096079Y-144210000D02*
X171578923Y-144210000D01*
X172096079Y-142790000D02*
X171578923Y-142790000D01*
X165610000Y-135741422D02*
X165610000Y-136258578D01*
X164190000Y-135741422D02*
X164190000Y-136258578D01*
D11*
X225000000Y-87750000D02*
G75*
G02X225000000Y-85750000I0J1000000D01*
G01*
X205000000Y-85750000D02*
G75*
G02X205000000Y-87750000I0J-1000000D01*
G01*
X205000000Y-93500000D02*
G75*
G02X205000000Y-97500000I0J-2000000D01*
G01*
X225000000Y-97500000D02*
G75*
G02X225000000Y-93500000I0J2000000D01*
G01*
X225000000Y-75500000D02*
X205000000Y-75500000D01*
X225000000Y-101500000D02*
X225000000Y-75500000D01*
X205000000Y-101500000D02*
X225000000Y-101500000D01*
X205000000Y-75500000D02*
X205000000Y-101500000D01*
D10*
X131980000Y-65400000D02*
X132380000Y-65400000D01*
X131980000Y-63900000D02*
X131980000Y-65400000D01*
X133780000Y-65400000D02*
X136980000Y-65400000D01*
X138780000Y-65400000D02*
X138780000Y-63900000D01*
X138430000Y-65400000D02*
X138780000Y-65400000D01*
D11*
X125675000Y-76775000D02*
X125625000Y-76775000D01*
X125675000Y-72625000D02*
X125530000Y-72625000D01*
X120525000Y-72625000D02*
X120670000Y-72625000D01*
X120525000Y-76775000D02*
X120670000Y-76775000D01*
X125675000Y-76775000D02*
X125675000Y-72625000D01*
X120525000Y-76775000D02*
X120525000Y-72625000D01*
X125625000Y-76775000D02*
X125625000Y-78175000D01*
D10*
X48800000Y-67850000D02*
X48800000Y-71150000D01*
X48800000Y-71150000D02*
X43400000Y-71150000D01*
X48800000Y-67850000D02*
X43400000Y-67850000D01*
X41890000Y-76741422D02*
X41890000Y-77258578D01*
X43310000Y-76741422D02*
X43310000Y-77258578D01*
X47221078Y-67210000D02*
X46703922Y-67210000D01*
X47221078Y-65790000D02*
X46703922Y-65790000D01*
X118890000Y-76303921D02*
X118890000Y-76821077D01*
X120310000Y-76303921D02*
X120310000Y-76821077D01*
X125800000Y-67350000D02*
X120400000Y-67350000D01*
X125800000Y-70650000D02*
X120400000Y-70650000D01*
X125800000Y-67350000D02*
X125800000Y-70650000D01*
X202800000Y-67350000D02*
X202800000Y-70650000D01*
X202800000Y-70650000D02*
X197400000Y-70650000D01*
X202800000Y-67350000D02*
X197400000Y-67350000D01*
D11*
X255400000Y-90250000D02*
G75*
G02X255400000Y-88250000I0J1000000D01*
G01*
X235400000Y-88250000D02*
G75*
G02X235400000Y-90250000I0J-1000000D01*
G01*
X235400000Y-96000000D02*
G75*
G02X235400000Y-100000000I0J-2000000D01*
G01*
X255400000Y-100000000D02*
G75*
G02X255400000Y-96000000I0J2000000D01*
G01*
X255400000Y-78000000D02*
X235400000Y-78000000D01*
X255400000Y-104000000D02*
X255400000Y-78000000D01*
X235400000Y-104000000D02*
X255400000Y-104000000D01*
X235400000Y-78000000D02*
X235400000Y-104000000D01*
X158450000Y-77900000D02*
X158450000Y-103900000D01*
X158450000Y-103900000D02*
X178450000Y-103900000D01*
X178450000Y-103900000D02*
X178450000Y-77900000D01*
X178450000Y-77900000D02*
X158450000Y-77900000D01*
X178450000Y-99900000D02*
G75*
G02X178450000Y-95900000I0J2000000D01*
G01*
X158450000Y-95900000D02*
G75*
G02X158450000Y-99900000I0J-2000000D01*
G01*
X158450000Y-88150000D02*
G75*
G02X158450000Y-90150000I0J-1000000D01*
G01*
X178450000Y-90150000D02*
G75*
G02X178450000Y-88150000I0J1000000D01*
G01*
X127910000Y-75460000D02*
X127910000Y-101460000D01*
X127910000Y-101460000D02*
X147910000Y-101460000D01*
X147910000Y-101460000D02*
X147910000Y-75460000D01*
X147910000Y-75460000D02*
X127910000Y-75460000D01*
X147910000Y-97460000D02*
G75*
G02X147910000Y-93460000I0J2000000D01*
G01*
X127910000Y-93460000D02*
G75*
G02X127910000Y-97460000I0J-2000000D01*
G01*
X127910000Y-85710000D02*
G75*
G02X127910000Y-87710000I0J-1000000D01*
G01*
X147910000Y-87710000D02*
G75*
G02X147910000Y-85710000I0J1000000D01*
G01*
X71000000Y-87750000D02*
G75*
G02X71000000Y-85750000I0J1000000D01*
G01*
X51000000Y-85750000D02*
G75*
G02X51000000Y-87750000I0J-1000000D01*
G01*
X51000000Y-93500000D02*
G75*
G02X51000000Y-97500000I0J-2000000D01*
G01*
X71000000Y-97500000D02*
G75*
G02X71000000Y-93500000I0J2000000D01*
G01*
X71000000Y-75500000D02*
X51000000Y-75500000D01*
X71000000Y-101500000D02*
X71000000Y-75500000D01*
X51000000Y-101500000D02*
X71000000Y-101500000D01*
X51000000Y-75500000D02*
X51000000Y-101500000D01*
D10*
X239700000Y-68800000D02*
X240100000Y-68800000D01*
X239700000Y-67300000D02*
X239700000Y-68800000D01*
X241500000Y-68800000D02*
X244700000Y-68800000D01*
X246500000Y-68800000D02*
X246500000Y-67300000D01*
X246150000Y-68800000D02*
X246500000Y-68800000D01*
D11*
X246440000Y-39500000D02*
X246440000Y-13500000D01*
X246440000Y-13500000D02*
X226440000Y-13500000D01*
X226440000Y-13500000D02*
X226440000Y-39500000D01*
X226440000Y-39500000D02*
X246440000Y-39500000D01*
X226440000Y-17500000D02*
G75*
G02X226440000Y-21500000I0J-2000000D01*
G01*
X246440000Y-21500000D02*
G75*
G02X246440000Y-17500000I0J2000000D01*
G01*
X246440000Y-29250000D02*
G75*
G02X246440000Y-27250000I0J1000000D01*
G01*
X226440000Y-27250000D02*
G75*
G02X226440000Y-29250000I0J-1000000D01*
G01*
X219800000Y-39500000D02*
X219800000Y-13500000D01*
X219800000Y-13500000D02*
X199800000Y-13500000D01*
X199800000Y-13500000D02*
X199800000Y-39500000D01*
X199800000Y-39500000D02*
X219800000Y-39500000D01*
X199800000Y-17500000D02*
G75*
G02X199800000Y-21500000I0J-2000000D01*
G01*
X219800000Y-21500000D02*
G75*
G02X219800000Y-17500000I0J2000000D01*
G01*
X219800000Y-29250000D02*
G75*
G02X219800000Y-27250000I0J1000000D01*
G01*
X199800000Y-27250000D02*
G75*
G02X199800000Y-29250000I0J-1000000D01*
G01*
X122700000Y-27250000D02*
G75*
G02X122700000Y-29250000I0J-1000000D01*
G01*
X142700000Y-29250000D02*
G75*
G02X142700000Y-27250000I0J1000000D01*
G01*
X142700000Y-21500000D02*
G75*
G02X142700000Y-17500000I0J2000000D01*
G01*
X122700000Y-17500000D02*
G75*
G02X122700000Y-21500000I0J-2000000D01*
G01*
X122700000Y-39500000D02*
X142700000Y-39500000D01*
X122700000Y-13500000D02*
X122700000Y-39500000D01*
X142700000Y-13500000D02*
X122700000Y-13500000D01*
X142700000Y-39500000D02*
X142700000Y-13500000D01*
X71600000Y-27350000D02*
G75*
G02X71600000Y-29350000I0J-1000000D01*
G01*
X91600000Y-29350000D02*
G75*
G02X91600000Y-27350000I0J1000000D01*
G01*
X91600000Y-21600000D02*
G75*
G02X91600000Y-17600000I0J2000000D01*
G01*
X71600000Y-17600000D02*
G75*
G02X71600000Y-21600000I0J-2000000D01*
G01*
X71600000Y-39600000D02*
X91600000Y-39600000D01*
X71600000Y-13600000D02*
X71600000Y-39600000D01*
X91600000Y-13600000D02*
X71600000Y-13600000D01*
X91600000Y-39600000D02*
X91600000Y-13600000D01*
D10*
X21510000Y-52684252D02*
X21510000Y-55515748D01*
X16290000Y-52684252D02*
X16290000Y-55515748D01*
X41510000Y-52684252D02*
X41510000Y-55515748D01*
X36290000Y-52684252D02*
X36290000Y-55515748D01*
X61250000Y-65375000D02*
X61600000Y-65375000D01*
X61600000Y-65375000D02*
X61600000Y-63875000D01*
X56600000Y-65375000D02*
X59800000Y-65375000D01*
X54800000Y-63875000D02*
X54800000Y-65375000D01*
X54800000Y-65375000D02*
X55200000Y-65375000D01*
X85780000Y-69000000D02*
X86180000Y-69000000D01*
X85780000Y-67500000D02*
X85780000Y-69000000D01*
X87580000Y-69000000D02*
X90780000Y-69000000D01*
X92580000Y-69000000D02*
X92580000Y-67500000D01*
X92230000Y-69000000D02*
X92580000Y-69000000D01*
D11*
X101810000Y-90200000D02*
G75*
G02X101810000Y-88200000I0J1000000D01*
G01*
X81810000Y-88200000D02*
G75*
G02X81810000Y-90200000I0J-1000000D01*
G01*
X81810000Y-95950000D02*
G75*
G02X81810000Y-99950000I0J-2000000D01*
G01*
X101810000Y-99950000D02*
G75*
G02X101810000Y-95950000I0J2000000D01*
G01*
X101810000Y-77950000D02*
X81810000Y-77950000D01*
X101810000Y-103950000D02*
X101810000Y-77950000D01*
X81810000Y-103950000D02*
X101810000Y-103950000D01*
X81810000Y-77950000D02*
X81810000Y-103950000D01*
X65500000Y-39500000D02*
X65500000Y-13500000D01*
X65500000Y-13500000D02*
X45500000Y-13500000D01*
X45500000Y-13500000D02*
X45500000Y-39500000D01*
X45500000Y-39500000D02*
X65500000Y-39500000D01*
X45500000Y-17500000D02*
G75*
G02X45500000Y-21500000I0J-2000000D01*
G01*
X65500000Y-21500000D02*
G75*
G02X65500000Y-17500000I0J2000000D01*
G01*
X65500000Y-29250000D02*
G75*
G02X65500000Y-27250000I0J1000000D01*
G01*
X45500000Y-27250000D02*
G75*
G02X45500000Y-29250000I0J-1000000D01*
G01*
D10*
X197310000Y-76341422D02*
X197310000Y-76858578D01*
X195890000Y-76341422D02*
X195890000Y-76858578D01*
X201350929Y-64935711D02*
X200833773Y-64935711D01*
X201350929Y-66355711D02*
X200833773Y-66355711D01*
X124458578Y-66710000D02*
X123941422Y-66710000D01*
X124458578Y-65290000D02*
X123941422Y-65290000D01*
X69271070Y-131086076D02*
X68753914Y-131086076D01*
X69271070Y-129666076D02*
X68753914Y-129666076D01*
X204141422Y-134610000D02*
X204658578Y-134610000D01*
X204141422Y-133190000D02*
X204658578Y-133190000D01*
X203215112Y-46619204D02*
X203580796Y-46984888D01*
X204219204Y-45615112D02*
X204584888Y-45980796D01*
X49415112Y-46619204D02*
X49780796Y-46984888D01*
X50419204Y-45615112D02*
X50784888Y-45980796D01*
X28510000Y-52684252D02*
X28510000Y-55515748D01*
X23290000Y-52684252D02*
X23290000Y-55515748D01*
X125510000Y-52634252D02*
X125510000Y-55465748D01*
X120290000Y-52634252D02*
X120290000Y-55465748D01*
X102290000Y-52484252D02*
X102290000Y-55315748D01*
X107510000Y-52484252D02*
X107510000Y-55315748D01*
X202710000Y-52684252D02*
X202710000Y-55515748D01*
X197490000Y-52684252D02*
X197490000Y-55515748D01*
X119510000Y-52634252D02*
X119510000Y-55465748D01*
X114290000Y-52634252D02*
X114290000Y-55465748D01*
X179290000Y-52484252D02*
X179290000Y-55315748D01*
X184510000Y-52484252D02*
X184510000Y-55315748D01*
X191290000Y-52684252D02*
X191290000Y-55515748D01*
X196510000Y-52684252D02*
X196510000Y-55515748D01*
X168950000Y-68825000D02*
X169300000Y-68825000D01*
X169300000Y-68825000D02*
X169300000Y-67325000D01*
X164300000Y-68825000D02*
X167500000Y-68825000D01*
X162500000Y-67325000D02*
X162500000Y-68825000D01*
X162500000Y-68825000D02*
X162900000Y-68825000D01*
D11*
X202617351Y-76720711D02*
X202617351Y-78120711D01*
X197517351Y-76720711D02*
X197517351Y-72570711D01*
X202667351Y-76720711D02*
X202667351Y-72570711D01*
X197517351Y-76720711D02*
X197662351Y-76720711D01*
X197517351Y-72570711D02*
X197662351Y-72570711D01*
X202667351Y-72570711D02*
X202522351Y-72570711D01*
X202667351Y-76720711D02*
X202617351Y-76720711D01*
X48617351Y-77220711D02*
X48617351Y-78620711D01*
X43517351Y-77220711D02*
X43517351Y-73070711D01*
X48667351Y-77220711D02*
X48667351Y-73070711D01*
X43517351Y-77220711D02*
X43662351Y-77220711D01*
X43517351Y-73070711D02*
X43662351Y-73070711D01*
X48667351Y-73070711D02*
X48522351Y-73070711D01*
X48667351Y-77220711D02*
X48617351Y-77220711D01*
D10*
X158720000Y-143651078D02*
X158720000Y-143133922D01*
X157300000Y-143651078D02*
X157300000Y-143133922D01*
X172158578Y-139290000D02*
X171641422Y-139290000D01*
X172158578Y-140710000D02*
X171641422Y-140710000D01*
X168810000Y-146721078D02*
X168810000Y-146203922D01*
X167390000Y-146721078D02*
X167390000Y-146203922D01*
X167190000Y-135741422D02*
X167190000Y-136258578D01*
X168610000Y-135741422D02*
X168610000Y-136258578D01*
X161641422Y-142790000D02*
X162158578Y-142790000D01*
X161641422Y-144210000D02*
X162158578Y-144210000D01*
D11*
X212914285Y-56152380D02*
X212914285Y-55152380D01*
X212676190Y-55152380D01*
X212533333Y-55200000D01*
X212438095Y-55295238D01*
X212390476Y-55390476D01*
X212342857Y-55580952D01*
X212342857Y-55723809D01*
X212390476Y-55914285D01*
X212438095Y-56009523D01*
X212533333Y-56104761D01*
X212676190Y-56152380D01*
X212914285Y-56152380D01*
X211390476Y-56152380D02*
X211961904Y-56152380D01*
X211676190Y-56152380D02*
X211676190Y-55152380D01*
X211771428Y-55295238D01*
X211866666Y-55390476D01*
X211961904Y-55438095D01*
X210438095Y-56152380D02*
X211009523Y-56152380D01*
X210723809Y-56152380D02*
X210723809Y-55152380D01*
X210819047Y-55295238D01*
X210914285Y-55390476D01*
X211009523Y-55438095D01*
X82202380Y-85857142D02*
X81726190Y-85523809D01*
X82202380Y-85285714D02*
X81202380Y-85285714D01*
X81202380Y-85666666D01*
X81250000Y-85761904D01*
X81297619Y-85809523D01*
X81392857Y-85857142D01*
X81535714Y-85857142D01*
X81630952Y-85809523D01*
X81678571Y-85761904D01*
X81726190Y-85666666D01*
X81726190Y-85285714D01*
X81535714Y-86714285D02*
X82202380Y-86714285D01*
X81154761Y-86476190D02*
X81869047Y-86238095D01*
X81869047Y-86857142D01*
X81202380Y-87142857D02*
X81202380Y-87809523D01*
X82202380Y-87380952D01*
X159102380Y-85857142D02*
X158626190Y-85523809D01*
X159102380Y-85285714D02*
X158102380Y-85285714D01*
X158102380Y-85666666D01*
X158150000Y-85761904D01*
X158197619Y-85809523D01*
X158292857Y-85857142D01*
X158435714Y-85857142D01*
X158530952Y-85809523D01*
X158578571Y-85761904D01*
X158626190Y-85666666D01*
X158626190Y-85285714D01*
X158435714Y-86714285D02*
X159102380Y-86714285D01*
X158054761Y-86476190D02*
X158769047Y-86238095D01*
X158769047Y-86857142D01*
X158102380Y-87714285D02*
X158102380Y-87238095D01*
X158578571Y-87190476D01*
X158530952Y-87238095D01*
X158483333Y-87333333D01*
X158483333Y-87571428D01*
X158530952Y-87666666D01*
X158578571Y-87714285D01*
X158673809Y-87761904D01*
X158911904Y-87761904D01*
X159007142Y-87714285D01*
X159054761Y-87666666D01*
X159102380Y-87571428D01*
X159102380Y-87333333D01*
X159054761Y-87238095D01*
X159007142Y-87190476D01*
X236102380Y-85357142D02*
X235626190Y-85023809D01*
X236102380Y-84785714D02*
X235102380Y-84785714D01*
X235102380Y-85166666D01*
X235150000Y-85261904D01*
X235197619Y-85309523D01*
X235292857Y-85357142D01*
X235435714Y-85357142D01*
X235530952Y-85309523D01*
X235578571Y-85261904D01*
X235626190Y-85166666D01*
X235626190Y-84785714D01*
X235435714Y-86214285D02*
X236102380Y-86214285D01*
X235054761Y-85976190D02*
X235769047Y-85738095D01*
X235769047Y-86357142D01*
X235530952Y-86880952D02*
X235483333Y-86785714D01*
X235435714Y-86738095D01*
X235340476Y-86690476D01*
X235292857Y-86690476D01*
X235197619Y-86738095D01*
X235150000Y-86785714D01*
X235102380Y-86880952D01*
X235102380Y-87071428D01*
X235150000Y-87166666D01*
X235197619Y-87214285D01*
X235292857Y-87261904D01*
X235340476Y-87261904D01*
X235435714Y-87214285D01*
X235483333Y-87166666D01*
X235530952Y-87071428D01*
X235530952Y-86880952D01*
X235578571Y-86785714D01*
X235626190Y-86738095D01*
X235721428Y-86690476D01*
X235911904Y-86690476D01*
X236007142Y-86738095D01*
X236054761Y-86785714D01*
X236102380Y-86880952D01*
X236102380Y-87071428D01*
X236054761Y-87166666D01*
X236007142Y-87214285D01*
X235911904Y-87261904D01*
X235721428Y-87261904D01*
X235626190Y-87214285D01*
X235578571Y-87166666D01*
X235530952Y-87071428D01*
X154638095Y-63952380D02*
X154638095Y-62952380D01*
X154257142Y-62952380D01*
X154161904Y-63000000D01*
X154114285Y-63047619D01*
X154066666Y-63142857D01*
X154066666Y-63285714D01*
X154114285Y-63380952D01*
X154161904Y-63428571D01*
X154257142Y-63476190D01*
X154638095Y-63476190D01*
X153209523Y-62952380D02*
X153400000Y-62952380D01*
X153495238Y-63000000D01*
X153542857Y-63047619D01*
X153638095Y-63190476D01*
X153685714Y-63380952D01*
X153685714Y-63761904D01*
X153638095Y-63857142D01*
X153590476Y-63904761D01*
X153495238Y-63952380D01*
X153304761Y-63952380D01*
X153209523Y-63904761D01*
X153161904Y-63857142D01*
X153114285Y-63761904D01*
X153114285Y-63523809D01*
X153161904Y-63428571D01*
X153209523Y-63380952D01*
X153304761Y-63333333D01*
X153495238Y-63333333D01*
X153590476Y-63380952D01*
X153638095Y-63428571D01*
X153685714Y-63523809D01*
X231638095Y-63952380D02*
X231638095Y-62952380D01*
X231257142Y-62952380D01*
X231161904Y-63000000D01*
X231114285Y-63047619D01*
X231066666Y-63142857D01*
X231066666Y-63285714D01*
X231114285Y-63380952D01*
X231161904Y-63428571D01*
X231257142Y-63476190D01*
X231638095Y-63476190D01*
X230161904Y-62952380D02*
X230638095Y-62952380D01*
X230685714Y-63428571D01*
X230638095Y-63380952D01*
X230542857Y-63333333D01*
X230304761Y-63333333D01*
X230209523Y-63380952D01*
X230161904Y-63428571D01*
X230114285Y-63523809D01*
X230114285Y-63761904D01*
X230161904Y-63857142D01*
X230209523Y-63904761D01*
X230304761Y-63952380D01*
X230542857Y-63952380D01*
X230638095Y-63904761D01*
X230685714Y-63857142D01*
X160695238Y-15147619D02*
X160790476Y-15100000D01*
X160885714Y-15004761D01*
X161028571Y-14861904D01*
X161123809Y-14814285D01*
X161219047Y-14814285D01*
X161171428Y-15052380D02*
X161266666Y-15004761D01*
X161361904Y-14909523D01*
X161409523Y-14719047D01*
X161409523Y-14385714D01*
X161361904Y-14195238D01*
X161266666Y-14100000D01*
X161171428Y-14052380D01*
X160980952Y-14052380D01*
X160885714Y-14100000D01*
X160790476Y-14195238D01*
X160742857Y-14385714D01*
X160742857Y-14719047D01*
X160790476Y-14909523D01*
X160885714Y-15004761D01*
X160980952Y-15052380D01*
X161171428Y-15052380D01*
X159838095Y-14052380D02*
X160314285Y-14052380D01*
X160361904Y-14528571D01*
X160314285Y-14480952D01*
X160219047Y-14433333D01*
X159980952Y-14433333D01*
X159885714Y-14480952D01*
X159838095Y-14528571D01*
X159790476Y-14623809D01*
X159790476Y-14861904D01*
X159838095Y-14957142D01*
X159885714Y-15004761D01*
X159980952Y-15052380D01*
X160219047Y-15052380D01*
X160314285Y-15004761D01*
X160361904Y-14957142D01*
X126467961Y-48341176D02*
X127040380Y-48240161D01*
X126872022Y-48745237D02*
X127579128Y-48038130D01*
X127309754Y-47768756D01*
X127208739Y-47735084D01*
X127141396Y-47735084D01*
X127040380Y-47768756D01*
X126939365Y-47869771D01*
X126905693Y-47970787D01*
X126905693Y-48038130D01*
X126939365Y-48139145D01*
X127208739Y-48408519D01*
X126838350Y-47432038D02*
X126838350Y-47364695D01*
X126804678Y-47263680D01*
X126636319Y-47095321D01*
X126535304Y-47061649D01*
X126467961Y-47061649D01*
X126366945Y-47095321D01*
X126299602Y-47162664D01*
X126232258Y-47297351D01*
X126232258Y-48105474D01*
X125794525Y-47667741D01*
X126164915Y-46758603D02*
X126164915Y-46691260D01*
X126131243Y-46590245D01*
X125962884Y-46421886D01*
X125861869Y-46388214D01*
X125794525Y-46388214D01*
X125693510Y-46421886D01*
X125626167Y-46489229D01*
X125558823Y-46623916D01*
X125558823Y-47432038D01*
X125121090Y-46994306D01*
X276607142Y-53307142D02*
X276654761Y-53259523D01*
X276702380Y-53116666D01*
X276702380Y-53021428D01*
X276654761Y-52878571D01*
X276559523Y-52783333D01*
X276464285Y-52735714D01*
X276273809Y-52688095D01*
X276130952Y-52688095D01*
X275940476Y-52735714D01*
X275845238Y-52783333D01*
X275750000Y-52878571D01*
X275702380Y-53021428D01*
X275702380Y-53116666D01*
X275750000Y-53259523D01*
X275797619Y-53307142D01*
X275702380Y-53640476D02*
X275702380Y-54307142D01*
X276702380Y-53878571D01*
X276130952Y-54830952D02*
X276083333Y-54735714D01*
X276035714Y-54688095D01*
X275940476Y-54640476D01*
X275892857Y-54640476D01*
X275797619Y-54688095D01*
X275750000Y-54735714D01*
X275702380Y-54830952D01*
X275702380Y-55021428D01*
X275750000Y-55116666D01*
X275797619Y-55164285D01*
X275892857Y-55211904D01*
X275940476Y-55211904D01*
X276035714Y-55164285D01*
X276083333Y-55116666D01*
X276130952Y-55021428D01*
X276130952Y-54830952D01*
X276178571Y-54735714D01*
X276226190Y-54688095D01*
X276321428Y-54640476D01*
X276511904Y-54640476D01*
X276607142Y-54688095D01*
X276654761Y-54735714D01*
X276702380Y-54830952D01*
X276702380Y-55021428D01*
X276654761Y-55116666D01*
X276607142Y-55164285D01*
X276511904Y-55211904D01*
X276321428Y-55211904D01*
X276226190Y-55164285D01*
X276178571Y-55116666D01*
X276130952Y-55021428D01*
X269607142Y-53307142D02*
X269654761Y-53259523D01*
X269702380Y-53116666D01*
X269702380Y-53021428D01*
X269654761Y-52878571D01*
X269559523Y-52783333D01*
X269464285Y-52735714D01*
X269273809Y-52688095D01*
X269130952Y-52688095D01*
X268940476Y-52735714D01*
X268845238Y-52783333D01*
X268750000Y-52878571D01*
X268702380Y-53021428D01*
X268702380Y-53116666D01*
X268750000Y-53259523D01*
X268797619Y-53307142D01*
X268702380Y-54164285D02*
X268702380Y-53973809D01*
X268750000Y-53878571D01*
X268797619Y-53830952D01*
X268940476Y-53735714D01*
X269130952Y-53688095D01*
X269511904Y-53688095D01*
X269607142Y-53735714D01*
X269654761Y-53783333D01*
X269702380Y-53878571D01*
X269702380Y-54069047D01*
X269654761Y-54164285D01*
X269607142Y-54211904D01*
X269511904Y-54259523D01*
X269273809Y-54259523D01*
X269178571Y-54211904D01*
X269130952Y-54164285D01*
X269083333Y-54069047D01*
X269083333Y-53878571D01*
X269130952Y-53783333D01*
X269178571Y-53735714D01*
X269273809Y-53688095D01*
X268702380Y-54592857D02*
X268702380Y-55211904D01*
X269083333Y-54878571D01*
X269083333Y-55021428D01*
X269130952Y-55116666D01*
X269178571Y-55164285D01*
X269273809Y-55211904D01*
X269511904Y-55211904D01*
X269607142Y-55164285D01*
X269654761Y-55116666D01*
X269702380Y-55021428D01*
X269702380Y-54735714D01*
X269654761Y-54640476D01*
X269607142Y-54592857D01*
X255607142Y-53307142D02*
X255654761Y-53259523D01*
X255702380Y-53116666D01*
X255702380Y-53021428D01*
X255654761Y-52878571D01*
X255559523Y-52783333D01*
X255464285Y-52735714D01*
X255273809Y-52688095D01*
X255130952Y-52688095D01*
X254940476Y-52735714D01*
X254845238Y-52783333D01*
X254750000Y-52878571D01*
X254702380Y-53021428D01*
X254702380Y-53116666D01*
X254750000Y-53259523D01*
X254797619Y-53307142D01*
X254702380Y-54164285D02*
X254702380Y-53973809D01*
X254750000Y-53878571D01*
X254797619Y-53830952D01*
X254940476Y-53735714D01*
X255130952Y-53688095D01*
X255511904Y-53688095D01*
X255607142Y-53735714D01*
X255654761Y-53783333D01*
X255702380Y-53878571D01*
X255702380Y-54069047D01*
X255654761Y-54164285D01*
X255607142Y-54211904D01*
X255511904Y-54259523D01*
X255273809Y-54259523D01*
X255178571Y-54211904D01*
X255130952Y-54164285D01*
X255083333Y-54069047D01*
X255083333Y-53878571D01*
X255130952Y-53783333D01*
X255178571Y-53735714D01*
X255273809Y-53688095D01*
X255702380Y-55211904D02*
X255702380Y-54640476D01*
X255702380Y-54926190D02*
X254702380Y-54926190D01*
X254845238Y-54830952D01*
X254940476Y-54735714D01*
X254988095Y-54640476D01*
X173842857Y-145657142D02*
X173890476Y-145704761D01*
X174033333Y-145752380D01*
X174128571Y-145752380D01*
X174271428Y-145704761D01*
X174366666Y-145609523D01*
X174414285Y-145514285D01*
X174461904Y-145323809D01*
X174461904Y-145180952D01*
X174414285Y-144990476D01*
X174366666Y-144895238D01*
X174271428Y-144800000D01*
X174128571Y-144752380D01*
X174033333Y-144752380D01*
X173890476Y-144800000D01*
X173842857Y-144847619D01*
X172985714Y-145085714D02*
X172985714Y-145752380D01*
X173223809Y-144704761D02*
X173461904Y-145419047D01*
X172842857Y-145419047D01*
X172509523Y-144847619D02*
X172461904Y-144800000D01*
X172366666Y-144752380D01*
X172128571Y-144752380D01*
X172033333Y-144800000D01*
X171985714Y-144847619D01*
X171938095Y-144942857D01*
X171938095Y-145038095D01*
X171985714Y-145180952D01*
X172557142Y-145752380D01*
X171938095Y-145752380D01*
X163142857Y-135757142D02*
X163190476Y-135804761D01*
X163333333Y-135852380D01*
X163428571Y-135852380D01*
X163571428Y-135804761D01*
X163666666Y-135709523D01*
X163714285Y-135614285D01*
X163761904Y-135423809D01*
X163761904Y-135280952D01*
X163714285Y-135090476D01*
X163666666Y-134995238D01*
X163571428Y-134900000D01*
X163428571Y-134852380D01*
X163333333Y-134852380D01*
X163190476Y-134900000D01*
X163142857Y-134947619D01*
X162761904Y-134947619D02*
X162714285Y-134900000D01*
X162619047Y-134852380D01*
X162380952Y-134852380D01*
X162285714Y-134900000D01*
X162238095Y-134947619D01*
X162190476Y-135042857D01*
X162190476Y-135138095D01*
X162238095Y-135280952D01*
X162809523Y-135852380D01*
X162190476Y-135852380D01*
X161333333Y-135185714D02*
X161333333Y-135852380D01*
X161571428Y-134804761D02*
X161809523Y-135519047D01*
X161190476Y-135519047D01*
X219295238Y-76947619D02*
X219390476Y-76900000D01*
X219485714Y-76804761D01*
X219628571Y-76661904D01*
X219723809Y-76614285D01*
X219819047Y-76614285D01*
X219771428Y-76852380D02*
X219866666Y-76804761D01*
X219961904Y-76709523D01*
X220009523Y-76519047D01*
X220009523Y-76185714D01*
X219961904Y-75995238D01*
X219866666Y-75900000D01*
X219771428Y-75852380D01*
X219580952Y-75852380D01*
X219485714Y-75900000D01*
X219390476Y-75995238D01*
X219342857Y-76185714D01*
X219342857Y-76519047D01*
X219390476Y-76709523D01*
X219485714Y-76804761D01*
X219580952Y-76852380D01*
X219771428Y-76852380D01*
X218485714Y-76185714D02*
X218485714Y-76852380D01*
X218723809Y-75804761D02*
X218961904Y-76519047D01*
X218342857Y-76519047D01*
X140382380Y-62485714D02*
X139382380Y-62485714D01*
X139382380Y-62723809D01*
X139430000Y-62866666D01*
X139525238Y-62961904D01*
X139620476Y-63009523D01*
X139810952Y-63057142D01*
X139953809Y-63057142D01*
X140144285Y-63009523D01*
X140239523Y-62961904D01*
X140334761Y-62866666D01*
X140382380Y-62723809D01*
X140382380Y-62485714D01*
X140382380Y-64009523D02*
X140382380Y-63438095D01*
X140382380Y-63723809D02*
X139382380Y-63723809D01*
X139525238Y-63628571D01*
X139620476Y-63533333D01*
X139668095Y-63438095D01*
X139382380Y-64342857D02*
X139382380Y-64961904D01*
X139763333Y-64628571D01*
X139763333Y-64771428D01*
X139810952Y-64866666D01*
X139858571Y-64914285D01*
X139953809Y-64961904D01*
X140191904Y-64961904D01*
X140287142Y-64914285D01*
X140334761Y-64866666D01*
X140382380Y-64771428D01*
X140382380Y-64485714D01*
X140334761Y-64390476D01*
X140287142Y-64342857D01*
X126052380Y-73938095D02*
X126861904Y-73938095D01*
X126957142Y-73985714D01*
X127004761Y-74033333D01*
X127052380Y-74128571D01*
X127052380Y-74319047D01*
X127004761Y-74414285D01*
X126957142Y-74461904D01*
X126861904Y-74509523D01*
X126052380Y-74509523D01*
X126480952Y-75128571D02*
X126433333Y-75033333D01*
X126385714Y-74985714D01*
X126290476Y-74938095D01*
X126242857Y-74938095D01*
X126147619Y-74985714D01*
X126100000Y-75033333D01*
X126052380Y-75128571D01*
X126052380Y-75319047D01*
X126100000Y-75414285D01*
X126147619Y-75461904D01*
X126242857Y-75509523D01*
X126290476Y-75509523D01*
X126385714Y-75461904D01*
X126433333Y-75414285D01*
X126480952Y-75319047D01*
X126480952Y-75128571D01*
X126528571Y-75033333D01*
X126576190Y-74985714D01*
X126671428Y-74938095D01*
X126861904Y-74938095D01*
X126957142Y-74985714D01*
X127004761Y-75033333D01*
X127052380Y-75128571D01*
X127052380Y-75319047D01*
X127004761Y-75414285D01*
X126957142Y-75461904D01*
X126861904Y-75509523D01*
X126671428Y-75509523D01*
X126576190Y-75461904D01*
X126528571Y-75414285D01*
X126480952Y-75319047D01*
X46614285Y-67452380D02*
X46614285Y-66452380D01*
X46376190Y-66452380D01*
X46233333Y-66500000D01*
X46138095Y-66595238D01*
X46090476Y-66690476D01*
X46042857Y-66880952D01*
X46042857Y-67023809D01*
X46090476Y-67214285D01*
X46138095Y-67309523D01*
X46233333Y-67404761D01*
X46376190Y-67452380D01*
X46614285Y-67452380D01*
X45090476Y-67452380D02*
X45661904Y-67452380D01*
X45376190Y-67452380D02*
X45376190Y-66452380D01*
X45471428Y-66595238D01*
X45566666Y-66690476D01*
X45661904Y-66738095D01*
X44614285Y-67452380D02*
X44423809Y-67452380D01*
X44328571Y-67404761D01*
X44280952Y-67357142D01*
X44185714Y-67214285D01*
X44138095Y-67023809D01*
X44138095Y-66642857D01*
X44185714Y-66547619D01*
X44233333Y-66500000D01*
X44328571Y-66452380D01*
X44519047Y-66452380D01*
X44614285Y-66500000D01*
X44661904Y-66547619D01*
X44709523Y-66642857D01*
X44709523Y-66880952D01*
X44661904Y-66976190D01*
X44614285Y-67023809D01*
X44519047Y-67071428D01*
X44328571Y-67071428D01*
X44233333Y-67023809D01*
X44185714Y-66976190D01*
X44138095Y-66880952D01*
X41307142Y-76357142D02*
X41354761Y-76309523D01*
X41402380Y-76166666D01*
X41402380Y-76071428D01*
X41354761Y-75928571D01*
X41259523Y-75833333D01*
X41164285Y-75785714D01*
X40973809Y-75738095D01*
X40830952Y-75738095D01*
X40640476Y-75785714D01*
X40545238Y-75833333D01*
X40450000Y-75928571D01*
X40402380Y-76071428D01*
X40402380Y-76166666D01*
X40450000Y-76309523D01*
X40497619Y-76357142D01*
X40402380Y-76690476D02*
X40402380Y-77309523D01*
X40783333Y-76976190D01*
X40783333Y-77119047D01*
X40830952Y-77214285D01*
X40878571Y-77261904D01*
X40973809Y-77309523D01*
X41211904Y-77309523D01*
X41307142Y-77261904D01*
X41354761Y-77214285D01*
X41402380Y-77119047D01*
X41402380Y-76833333D01*
X41354761Y-76738095D01*
X41307142Y-76690476D01*
X40402380Y-77928571D02*
X40402380Y-78023809D01*
X40450000Y-78119047D01*
X40497619Y-78166666D01*
X40592857Y-78214285D01*
X40783333Y-78261904D01*
X41021428Y-78261904D01*
X41211904Y-78214285D01*
X41307142Y-78166666D01*
X41354761Y-78119047D01*
X41402380Y-78023809D01*
X41402380Y-77928571D01*
X41354761Y-77833333D01*
X41307142Y-77785714D01*
X41211904Y-77738095D01*
X41021428Y-77690476D01*
X40783333Y-77690476D01*
X40592857Y-77738095D01*
X40497619Y-77785714D01*
X40450000Y-77833333D01*
X40402380Y-77928571D01*
X47605357Y-65207142D02*
X47652976Y-65254761D01*
X47795833Y-65302380D01*
X47891071Y-65302380D01*
X48033928Y-65254761D01*
X48129166Y-65159523D01*
X48176785Y-65064285D01*
X48224404Y-64873809D01*
X48224404Y-64730952D01*
X48176785Y-64540476D01*
X48129166Y-64445238D01*
X48033928Y-64350000D01*
X47891071Y-64302380D01*
X47795833Y-64302380D01*
X47652976Y-64350000D01*
X47605357Y-64397619D01*
X47272023Y-64302380D02*
X46652976Y-64302380D01*
X46986309Y-64683333D01*
X46843452Y-64683333D01*
X46748214Y-64730952D01*
X46700595Y-64778571D01*
X46652976Y-64873809D01*
X46652976Y-65111904D01*
X46700595Y-65207142D01*
X46748214Y-65254761D01*
X46843452Y-65302380D01*
X47129166Y-65302380D01*
X47224404Y-65254761D01*
X47272023Y-65207142D01*
X46319642Y-64302380D02*
X45700595Y-64302380D01*
X46033928Y-64683333D01*
X45891071Y-64683333D01*
X45795833Y-64730952D01*
X45748214Y-64778571D01*
X45700595Y-64873809D01*
X45700595Y-65111904D01*
X45748214Y-65207142D01*
X45795833Y-65254761D01*
X45891071Y-65302380D01*
X46176785Y-65302380D01*
X46272023Y-65254761D01*
X46319642Y-65207142D01*
X118307142Y-75919641D02*
X118354761Y-75872022D01*
X118402380Y-75729165D01*
X118402380Y-75633927D01*
X118354761Y-75491070D01*
X118259523Y-75395832D01*
X118164285Y-75348213D01*
X117973809Y-75300594D01*
X117830952Y-75300594D01*
X117640476Y-75348213D01*
X117545238Y-75395832D01*
X117450000Y-75491070D01*
X117402380Y-75633927D01*
X117402380Y-75729165D01*
X117450000Y-75872022D01*
X117497619Y-75919641D01*
X117497619Y-76300594D02*
X117450000Y-76348213D01*
X117402380Y-76443451D01*
X117402380Y-76681546D01*
X117450000Y-76776784D01*
X117497619Y-76824403D01*
X117592857Y-76872022D01*
X117688095Y-76872022D01*
X117830952Y-76824403D01*
X118402380Y-76252975D01*
X118402380Y-76872022D01*
X118402380Y-77348213D02*
X118402380Y-77538689D01*
X118354761Y-77633927D01*
X118307142Y-77681546D01*
X118164285Y-77776784D01*
X117973809Y-77824403D01*
X117592857Y-77824403D01*
X117497619Y-77776784D01*
X117450000Y-77729165D01*
X117402380Y-77633927D01*
X117402380Y-77443451D01*
X117450000Y-77348213D01*
X117497619Y-77300594D01*
X117592857Y-77252975D01*
X117830952Y-77252975D01*
X117926190Y-77300594D01*
X117973809Y-77348213D01*
X118021428Y-77443451D01*
X118021428Y-77633927D01*
X117973809Y-77729165D01*
X117926190Y-77776784D01*
X117830952Y-77824403D01*
X123614285Y-66952380D02*
X123614285Y-65952380D01*
X123376190Y-65952380D01*
X123233333Y-66000000D01*
X123138095Y-66095238D01*
X123090476Y-66190476D01*
X123042857Y-66380952D01*
X123042857Y-66523809D01*
X123090476Y-66714285D01*
X123138095Y-66809523D01*
X123233333Y-66904761D01*
X123376190Y-66952380D01*
X123614285Y-66952380D01*
X122090476Y-66952380D02*
X122661904Y-66952380D01*
X122376190Y-66952380D02*
X122376190Y-65952380D01*
X122471428Y-66095238D01*
X122566666Y-66190476D01*
X122661904Y-66238095D01*
X121519047Y-66380952D02*
X121614285Y-66333333D01*
X121661904Y-66285714D01*
X121709523Y-66190476D01*
X121709523Y-66142857D01*
X121661904Y-66047619D01*
X121614285Y-66000000D01*
X121519047Y-65952380D01*
X121328571Y-65952380D01*
X121233333Y-66000000D01*
X121185714Y-66047619D01*
X121138095Y-66142857D01*
X121138095Y-66190476D01*
X121185714Y-66285714D01*
X121233333Y-66333333D01*
X121328571Y-66380952D01*
X121519047Y-66380952D01*
X121614285Y-66428571D01*
X121661904Y-66476190D01*
X121709523Y-66571428D01*
X121709523Y-66761904D01*
X121661904Y-66857142D01*
X121614285Y-66904761D01*
X121519047Y-66952380D01*
X121328571Y-66952380D01*
X121233333Y-66904761D01*
X121185714Y-66857142D01*
X121138095Y-66761904D01*
X121138095Y-66571428D01*
X121185714Y-66476190D01*
X121233333Y-66428571D01*
X121328571Y-66380952D01*
X200138095Y-66952380D02*
X200138095Y-65952380D01*
X199900000Y-65952380D01*
X199757142Y-66000000D01*
X199661904Y-66095238D01*
X199614285Y-66190476D01*
X199566666Y-66380952D01*
X199566666Y-66523809D01*
X199614285Y-66714285D01*
X199661904Y-66809523D01*
X199757142Y-66904761D01*
X199900000Y-66952380D01*
X200138095Y-66952380D01*
X198709523Y-65952380D02*
X198900000Y-65952380D01*
X198995238Y-66000000D01*
X199042857Y-66047619D01*
X199138095Y-66190476D01*
X199185714Y-66380952D01*
X199185714Y-66761904D01*
X199138095Y-66857142D01*
X199090476Y-66904761D01*
X198995238Y-66952380D01*
X198804761Y-66952380D01*
X198709523Y-66904761D01*
X198661904Y-66857142D01*
X198614285Y-66761904D01*
X198614285Y-66523809D01*
X198661904Y-66428571D01*
X198709523Y-66380952D01*
X198804761Y-66333333D01*
X198995238Y-66333333D01*
X199090476Y-66380952D01*
X199138095Y-66428571D01*
X199185714Y-66523809D01*
X245495238Y-79547619D02*
X245590476Y-79500000D01*
X245685714Y-79404761D01*
X245828571Y-79261904D01*
X245923809Y-79214285D01*
X246019047Y-79214285D01*
X245971428Y-79452380D02*
X246066666Y-79404761D01*
X246161904Y-79309523D01*
X246209523Y-79119047D01*
X246209523Y-78785714D01*
X246161904Y-78595238D01*
X246066666Y-78500000D01*
X245971428Y-78452380D01*
X245780952Y-78452380D01*
X245685714Y-78500000D01*
X245590476Y-78595238D01*
X245542857Y-78785714D01*
X245542857Y-79119047D01*
X245590476Y-79309523D01*
X245685714Y-79404761D01*
X245780952Y-79452380D01*
X245971428Y-79452380D01*
X245161904Y-78547619D02*
X245114285Y-78500000D01*
X245019047Y-78452380D01*
X244780952Y-78452380D01*
X244685714Y-78500000D01*
X244638095Y-78547619D01*
X244590476Y-78642857D01*
X244590476Y-78738095D01*
X244638095Y-78880952D01*
X245209523Y-79452380D01*
X244590476Y-79452380D01*
X167345238Y-79947619D02*
X167440476Y-79900000D01*
X167535714Y-79804761D01*
X167678571Y-79661904D01*
X167773809Y-79614285D01*
X167869047Y-79614285D01*
X167821428Y-79852380D02*
X167916666Y-79804761D01*
X168011904Y-79709523D01*
X168059523Y-79519047D01*
X168059523Y-79185714D01*
X168011904Y-78995238D01*
X167916666Y-78900000D01*
X167821428Y-78852380D01*
X167630952Y-78852380D01*
X167535714Y-78900000D01*
X167440476Y-78995238D01*
X167392857Y-79185714D01*
X167392857Y-79519047D01*
X167440476Y-79709523D01*
X167535714Y-79804761D01*
X167630952Y-79852380D01*
X167821428Y-79852380D01*
X166535714Y-78852380D02*
X166726190Y-78852380D01*
X166821428Y-78900000D01*
X166869047Y-78947619D01*
X166964285Y-79090476D01*
X167011904Y-79280952D01*
X167011904Y-79661904D01*
X166964285Y-79757142D01*
X166916666Y-79804761D01*
X166821428Y-79852380D01*
X166630952Y-79852380D01*
X166535714Y-79804761D01*
X166488095Y-79757142D01*
X166440476Y-79661904D01*
X166440476Y-79423809D01*
X166488095Y-79328571D01*
X166535714Y-79280952D01*
X166630952Y-79233333D01*
X166821428Y-79233333D01*
X166916666Y-79280952D01*
X166964285Y-79328571D01*
X167011904Y-79423809D01*
X137665238Y-77307619D02*
X137760476Y-77260000D01*
X137855714Y-77164761D01*
X137998571Y-77021904D01*
X138093809Y-76974285D01*
X138189047Y-76974285D01*
X138141428Y-77212380D02*
X138236666Y-77164761D01*
X138331904Y-77069523D01*
X138379523Y-76879047D01*
X138379523Y-76545714D01*
X138331904Y-76355238D01*
X138236666Y-76260000D01*
X138141428Y-76212380D01*
X137950952Y-76212380D01*
X137855714Y-76260000D01*
X137760476Y-76355238D01*
X137712857Y-76545714D01*
X137712857Y-76879047D01*
X137760476Y-77069523D01*
X137855714Y-77164761D01*
X137950952Y-77212380D01*
X138141428Y-77212380D01*
X137141428Y-76640952D02*
X137236666Y-76593333D01*
X137284285Y-76545714D01*
X137331904Y-76450476D01*
X137331904Y-76402857D01*
X137284285Y-76307619D01*
X137236666Y-76260000D01*
X137141428Y-76212380D01*
X136950952Y-76212380D01*
X136855714Y-76260000D01*
X136808095Y-76307619D01*
X136760476Y-76402857D01*
X136760476Y-76450476D01*
X136808095Y-76545714D01*
X136855714Y-76593333D01*
X136950952Y-76640952D01*
X137141428Y-76640952D01*
X137236666Y-76688571D01*
X137284285Y-76736190D01*
X137331904Y-76831428D01*
X137331904Y-77021904D01*
X137284285Y-77117142D01*
X137236666Y-77164761D01*
X137141428Y-77212380D01*
X136950952Y-77212380D01*
X136855714Y-77164761D01*
X136808095Y-77117142D01*
X136760476Y-77021904D01*
X136760476Y-76831428D01*
X136808095Y-76736190D01*
X136855714Y-76688571D01*
X136950952Y-76640952D01*
X61171428Y-77147619D02*
X61266666Y-77100000D01*
X61361904Y-77004761D01*
X61504761Y-76861904D01*
X61600000Y-76814285D01*
X61695238Y-76814285D01*
X61647619Y-77052380D02*
X61742857Y-77004761D01*
X61838095Y-76909523D01*
X61885714Y-76719047D01*
X61885714Y-76385714D01*
X61838095Y-76195238D01*
X61742857Y-76100000D01*
X61647619Y-76052380D01*
X61457142Y-76052380D01*
X61361904Y-76100000D01*
X61266666Y-76195238D01*
X61219047Y-76385714D01*
X61219047Y-76719047D01*
X61266666Y-76909523D01*
X61361904Y-77004761D01*
X61457142Y-77052380D01*
X61647619Y-77052380D01*
X60266666Y-77052380D02*
X60838095Y-77052380D01*
X60552380Y-77052380D02*
X60552380Y-76052380D01*
X60647619Y-76195238D01*
X60742857Y-76290476D01*
X60838095Y-76338095D01*
X59647619Y-76052380D02*
X59552380Y-76052380D01*
X59457142Y-76100000D01*
X59409523Y-76147619D01*
X59361904Y-76242857D01*
X59314285Y-76433333D01*
X59314285Y-76671428D01*
X59361904Y-76861904D01*
X59409523Y-76957142D01*
X59457142Y-77004761D01*
X59552380Y-77052380D01*
X59647619Y-77052380D01*
X59742857Y-77004761D01*
X59790476Y-76957142D01*
X59838095Y-76861904D01*
X59885714Y-76671428D01*
X59885714Y-76433333D01*
X59838095Y-76242857D01*
X59790476Y-76147619D01*
X59742857Y-76100000D01*
X59647619Y-76052380D01*
X249238095Y-61252380D02*
X249238095Y-60252380D01*
X249000000Y-60252380D01*
X248857142Y-60300000D01*
X248761904Y-60395238D01*
X248714285Y-60490476D01*
X248666666Y-60680952D01*
X248666666Y-60823809D01*
X248714285Y-61014285D01*
X248761904Y-61109523D01*
X248857142Y-61204761D01*
X249000000Y-61252380D01*
X249238095Y-61252380D01*
X248333333Y-60252380D02*
X247666666Y-60252380D01*
X248095238Y-61252380D01*
X236495238Y-15297619D02*
X236590476Y-15250000D01*
X236685714Y-15154761D01*
X236828571Y-15011904D01*
X236923809Y-14964285D01*
X237019047Y-14964285D01*
X236971428Y-15202380D02*
X237066666Y-15154761D01*
X237161904Y-15059523D01*
X237209523Y-14869047D01*
X237209523Y-14535714D01*
X237161904Y-14345238D01*
X237066666Y-14250000D01*
X236971428Y-14202380D01*
X236780952Y-14202380D01*
X236685714Y-14250000D01*
X236590476Y-14345238D01*
X236542857Y-14535714D01*
X236542857Y-14869047D01*
X236590476Y-15059523D01*
X236685714Y-15154761D01*
X236780952Y-15202380D01*
X236971428Y-15202380D01*
X235590476Y-15202380D02*
X236161904Y-15202380D01*
X235876190Y-15202380D02*
X235876190Y-14202380D01*
X235971428Y-14345238D01*
X236066666Y-14440476D01*
X236161904Y-14488095D01*
X210305238Y-15397619D02*
X210400476Y-15350000D01*
X210495714Y-15254761D01*
X210638571Y-15111904D01*
X210733809Y-15064285D01*
X210829047Y-15064285D01*
X210781428Y-15302380D02*
X210876666Y-15254761D01*
X210971904Y-15159523D01*
X211019523Y-14969047D01*
X211019523Y-14635714D01*
X210971904Y-14445238D01*
X210876666Y-14350000D01*
X210781428Y-14302380D01*
X210590952Y-14302380D01*
X210495714Y-14350000D01*
X210400476Y-14445238D01*
X210352857Y-14635714D01*
X210352857Y-14969047D01*
X210400476Y-15159523D01*
X210495714Y-15254761D01*
X210590952Y-15302380D01*
X210781428Y-15302380D01*
X210019523Y-14302380D02*
X209400476Y-14302380D01*
X209733809Y-14683333D01*
X209590952Y-14683333D01*
X209495714Y-14730952D01*
X209448095Y-14778571D01*
X209400476Y-14873809D01*
X209400476Y-15111904D01*
X209448095Y-15207142D01*
X209495714Y-15254761D01*
X209590952Y-15302380D01*
X209876666Y-15302380D01*
X209971904Y-15254761D01*
X210019523Y-15207142D01*
X130845238Y-15147619D02*
X130940476Y-15100000D01*
X131035714Y-15004761D01*
X131178571Y-14861904D01*
X131273809Y-14814285D01*
X131369047Y-14814285D01*
X131321428Y-15052380D02*
X131416666Y-15004761D01*
X131511904Y-14909523D01*
X131559523Y-14719047D01*
X131559523Y-14385714D01*
X131511904Y-14195238D01*
X131416666Y-14100000D01*
X131321428Y-14052380D01*
X131130952Y-14052380D01*
X131035714Y-14100000D01*
X130940476Y-14195238D01*
X130892857Y-14385714D01*
X130892857Y-14719047D01*
X130940476Y-14909523D01*
X131035714Y-15004761D01*
X131130952Y-15052380D01*
X131321428Y-15052380D01*
X130559523Y-14052380D02*
X129892857Y-14052380D01*
X130321428Y-15052380D01*
X81645238Y-15047619D02*
X81740476Y-15000000D01*
X81835714Y-14904761D01*
X81978571Y-14761904D01*
X82073809Y-14714285D01*
X82169047Y-14714285D01*
X82121428Y-14952380D02*
X82216666Y-14904761D01*
X82311904Y-14809523D01*
X82359523Y-14619047D01*
X82359523Y-14285714D01*
X82311904Y-14095238D01*
X82216666Y-14000000D01*
X82121428Y-13952380D01*
X81930952Y-13952380D01*
X81835714Y-14000000D01*
X81740476Y-14095238D01*
X81692857Y-14285714D01*
X81692857Y-14619047D01*
X81740476Y-14809523D01*
X81835714Y-14904761D01*
X81930952Y-14952380D01*
X82121428Y-14952380D01*
X81216666Y-14952380D02*
X81026190Y-14952380D01*
X80930952Y-14904761D01*
X80883333Y-14857142D01*
X80788095Y-14714285D01*
X80740476Y-14523809D01*
X80740476Y-14142857D01*
X80788095Y-14047619D01*
X80835714Y-14000000D01*
X80930952Y-13952380D01*
X81121428Y-13952380D01*
X81216666Y-14000000D01*
X81264285Y-14047619D01*
X81311904Y-14142857D01*
X81311904Y-14380952D01*
X81264285Y-14476190D01*
X81216666Y-14523809D01*
X81121428Y-14571428D01*
X80930952Y-14571428D01*
X80835714Y-14523809D01*
X80788095Y-14476190D01*
X80740476Y-14380952D01*
X15607142Y-53457142D02*
X15654761Y-53409523D01*
X15702380Y-53266666D01*
X15702380Y-53171428D01*
X15654761Y-53028571D01*
X15559523Y-52933333D01*
X15464285Y-52885714D01*
X15273809Y-52838095D01*
X15130952Y-52838095D01*
X14940476Y-52885714D01*
X14845238Y-52933333D01*
X14750000Y-53028571D01*
X14702380Y-53171428D01*
X14702380Y-53266666D01*
X14750000Y-53409523D01*
X14797619Y-53457142D01*
X14702380Y-54361904D02*
X14702380Y-53885714D01*
X15178571Y-53838095D01*
X15130952Y-53885714D01*
X15083333Y-53980952D01*
X15083333Y-54219047D01*
X15130952Y-54314285D01*
X15178571Y-54361904D01*
X15273809Y-54409523D01*
X15511904Y-54409523D01*
X15607142Y-54361904D01*
X15654761Y-54314285D01*
X15702380Y-54219047D01*
X15702380Y-53980952D01*
X15654761Y-53885714D01*
X15607142Y-53838095D01*
X15130952Y-54980952D02*
X15083333Y-54885714D01*
X15035714Y-54838095D01*
X14940476Y-54790476D01*
X14892857Y-54790476D01*
X14797619Y-54838095D01*
X14750000Y-54885714D01*
X14702380Y-54980952D01*
X14702380Y-55171428D01*
X14750000Y-55266666D01*
X14797619Y-55314285D01*
X14892857Y-55361904D01*
X14940476Y-55361904D01*
X15035714Y-55314285D01*
X15083333Y-55266666D01*
X15130952Y-55171428D01*
X15130952Y-54980952D01*
X15178571Y-54885714D01*
X15226190Y-54838095D01*
X15321428Y-54790476D01*
X15511904Y-54790476D01*
X15607142Y-54838095D01*
X15654761Y-54885714D01*
X15702380Y-54980952D01*
X15702380Y-55171428D01*
X15654761Y-55266666D01*
X15607142Y-55314285D01*
X15511904Y-55361904D01*
X15321428Y-55361904D01*
X15226190Y-55314285D01*
X15178571Y-55266666D01*
X15130952Y-55171428D01*
X35607142Y-53457142D02*
X35654761Y-53409523D01*
X35702380Y-53266666D01*
X35702380Y-53171428D01*
X35654761Y-53028571D01*
X35559523Y-52933333D01*
X35464285Y-52885714D01*
X35273809Y-52838095D01*
X35130952Y-52838095D01*
X34940476Y-52885714D01*
X34845238Y-52933333D01*
X34750000Y-53028571D01*
X34702380Y-53171428D01*
X34702380Y-53266666D01*
X34750000Y-53409523D01*
X34797619Y-53457142D01*
X34702380Y-54361904D02*
X34702380Y-53885714D01*
X35178571Y-53838095D01*
X35130952Y-53885714D01*
X35083333Y-53980952D01*
X35083333Y-54219047D01*
X35130952Y-54314285D01*
X35178571Y-54361904D01*
X35273809Y-54409523D01*
X35511904Y-54409523D01*
X35607142Y-54361904D01*
X35654761Y-54314285D01*
X35702380Y-54219047D01*
X35702380Y-53980952D01*
X35654761Y-53885714D01*
X35607142Y-53838095D01*
X34702380Y-54742857D02*
X34702380Y-55409523D01*
X35702380Y-54980952D01*
X59114285Y-55702380D02*
X59114285Y-54702380D01*
X58876190Y-54702380D01*
X58733333Y-54750000D01*
X58638095Y-54845238D01*
X58590476Y-54940476D01*
X58542857Y-55130952D01*
X58542857Y-55273809D01*
X58590476Y-55464285D01*
X58638095Y-55559523D01*
X58733333Y-55654761D01*
X58876190Y-55702380D01*
X59114285Y-55702380D01*
X57590476Y-55702380D02*
X58161904Y-55702380D01*
X57876190Y-55702380D02*
X57876190Y-54702380D01*
X57971428Y-54845238D01*
X58066666Y-54940476D01*
X58161904Y-54988095D01*
X56685714Y-54702380D02*
X57161904Y-54702380D01*
X57209523Y-55178571D01*
X57161904Y-55130952D01*
X57066666Y-55083333D01*
X56828571Y-55083333D01*
X56733333Y-55130952D01*
X56685714Y-55178571D01*
X56638095Y-55273809D01*
X56638095Y-55511904D01*
X56685714Y-55607142D01*
X56733333Y-55654761D01*
X56828571Y-55702380D01*
X57066666Y-55702380D01*
X57161904Y-55654761D01*
X57209523Y-55607142D01*
X94182380Y-66085714D02*
X93182380Y-66085714D01*
X93182380Y-66323809D01*
X93230000Y-66466666D01*
X93325238Y-66561904D01*
X93420476Y-66609523D01*
X93610952Y-66657142D01*
X93753809Y-66657142D01*
X93944285Y-66609523D01*
X94039523Y-66561904D01*
X94134761Y-66466666D01*
X94182380Y-66323809D01*
X94182380Y-66085714D01*
X94182380Y-67609523D02*
X94182380Y-67038095D01*
X94182380Y-67323809D02*
X93182380Y-67323809D01*
X93325238Y-67228571D01*
X93420476Y-67133333D01*
X93468095Y-67038095D01*
X93182380Y-67942857D02*
X93182380Y-68609523D01*
X94182380Y-68180952D01*
X90381428Y-79397619D02*
X90476666Y-79350000D01*
X90571904Y-79254761D01*
X90714761Y-79111904D01*
X90810000Y-79064285D01*
X90905238Y-79064285D01*
X90857619Y-79302380D02*
X90952857Y-79254761D01*
X91048095Y-79159523D01*
X91095714Y-78969047D01*
X91095714Y-78635714D01*
X91048095Y-78445238D01*
X90952857Y-78350000D01*
X90857619Y-78302380D01*
X90667142Y-78302380D01*
X90571904Y-78350000D01*
X90476666Y-78445238D01*
X90429047Y-78635714D01*
X90429047Y-78969047D01*
X90476666Y-79159523D01*
X90571904Y-79254761D01*
X90667142Y-79302380D01*
X90857619Y-79302380D01*
X89476666Y-79302380D02*
X90048095Y-79302380D01*
X89762380Y-79302380D02*
X89762380Y-78302380D01*
X89857619Y-78445238D01*
X89952857Y-78540476D01*
X90048095Y-78588095D01*
X89095714Y-78397619D02*
X89048095Y-78350000D01*
X88952857Y-78302380D01*
X88714761Y-78302380D01*
X88619523Y-78350000D01*
X88571904Y-78397619D01*
X88524285Y-78492857D01*
X88524285Y-78588095D01*
X88571904Y-78730952D01*
X89143333Y-79302380D01*
X88524285Y-79302380D01*
X56071428Y-15097619D02*
X56166666Y-15050000D01*
X56261904Y-14954761D01*
X56404761Y-14811904D01*
X56500000Y-14764285D01*
X56595238Y-14764285D01*
X56547619Y-15002380D02*
X56642857Y-14954761D01*
X56738095Y-14859523D01*
X56785714Y-14669047D01*
X56785714Y-14335714D01*
X56738095Y-14145238D01*
X56642857Y-14050000D01*
X56547619Y-14002380D01*
X56357142Y-14002380D01*
X56261904Y-14050000D01*
X56166666Y-14145238D01*
X56119047Y-14335714D01*
X56119047Y-14669047D01*
X56166666Y-14859523D01*
X56261904Y-14954761D01*
X56357142Y-15002380D01*
X56547619Y-15002380D01*
X55166666Y-15002380D02*
X55738095Y-15002380D01*
X55452380Y-15002380D02*
X55452380Y-14002380D01*
X55547619Y-14145238D01*
X55642857Y-14240476D01*
X55738095Y-14288095D01*
X54214285Y-15002380D02*
X54785714Y-15002380D01*
X54500000Y-15002380D02*
X54500000Y-14002380D01*
X54595238Y-14145238D01*
X54690476Y-14240476D01*
X54785714Y-14288095D01*
X194442857Y-76894643D02*
X194490476Y-76942262D01*
X194633333Y-76989881D01*
X194728571Y-76989881D01*
X194871428Y-76942262D01*
X194966666Y-76847024D01*
X195014285Y-76751786D01*
X195061904Y-76561310D01*
X195061904Y-76418453D01*
X195014285Y-76227977D01*
X194966666Y-76132739D01*
X194871428Y-76037501D01*
X194728571Y-75989881D01*
X194633333Y-75989881D01*
X194490476Y-76037501D01*
X194442857Y-76085120D01*
X194061904Y-76085120D02*
X194014285Y-76037501D01*
X193919047Y-75989881D01*
X193680952Y-75989881D01*
X193585714Y-76037501D01*
X193538095Y-76085120D01*
X193490476Y-76180358D01*
X193490476Y-76275596D01*
X193538095Y-76418453D01*
X194109523Y-76989881D01*
X193490476Y-76989881D01*
X192919047Y-76418453D02*
X193014285Y-76370834D01*
X193061904Y-76323215D01*
X193109523Y-76227977D01*
X193109523Y-76180358D01*
X193061904Y-76085120D01*
X193014285Y-76037501D01*
X192919047Y-75989881D01*
X192728571Y-75989881D01*
X192633333Y-76037501D01*
X192585714Y-76085120D01*
X192538095Y-76180358D01*
X192538095Y-76227977D01*
X192585714Y-76323215D01*
X192633333Y-76370834D01*
X192728571Y-76418453D01*
X192919047Y-76418453D01*
X193014285Y-76466072D01*
X193061904Y-76513691D01*
X193109523Y-76608929D01*
X193109523Y-76799405D01*
X193061904Y-76894643D01*
X193014285Y-76942262D01*
X192919047Y-76989881D01*
X192728571Y-76989881D01*
X192633333Y-76942262D01*
X192585714Y-76894643D01*
X192538095Y-76799405D01*
X192538095Y-76608929D01*
X192585714Y-76513691D01*
X192633333Y-76466072D01*
X192728571Y-76418453D01*
X205042857Y-65857142D02*
X205090476Y-65904761D01*
X205233333Y-65952380D01*
X205328571Y-65952380D01*
X205471428Y-65904761D01*
X205566666Y-65809523D01*
X205614285Y-65714285D01*
X205661904Y-65523809D01*
X205661904Y-65380952D01*
X205614285Y-65190476D01*
X205566666Y-65095238D01*
X205471428Y-65000000D01*
X205328571Y-64952380D01*
X205233333Y-64952380D01*
X205090476Y-65000000D01*
X205042857Y-65047619D01*
X204709523Y-64952380D02*
X204090476Y-64952380D01*
X204423809Y-65333333D01*
X204280952Y-65333333D01*
X204185714Y-65380952D01*
X204138095Y-65428571D01*
X204090476Y-65523809D01*
X204090476Y-65761904D01*
X204138095Y-65857142D01*
X204185714Y-65904761D01*
X204280952Y-65952380D01*
X204566666Y-65952380D01*
X204661904Y-65904761D01*
X204709523Y-65857142D01*
X203138095Y-65952380D02*
X203709523Y-65952380D01*
X203423809Y-65952380D02*
X203423809Y-64952380D01*
X203519047Y-65095238D01*
X203614285Y-65190476D01*
X203709523Y-65238095D01*
X124842857Y-64707142D02*
X124890476Y-64754761D01*
X125033333Y-64802380D01*
X125128571Y-64802380D01*
X125271428Y-64754761D01*
X125366666Y-64659523D01*
X125414285Y-64564285D01*
X125461904Y-64373809D01*
X125461904Y-64230952D01*
X125414285Y-64040476D01*
X125366666Y-63945238D01*
X125271428Y-63850000D01*
X125128571Y-63802380D01*
X125033333Y-63802380D01*
X124890476Y-63850000D01*
X124842857Y-63897619D01*
X124509523Y-63802380D02*
X123890476Y-63802380D01*
X124223809Y-64183333D01*
X124080952Y-64183333D01*
X123985714Y-64230952D01*
X123938095Y-64278571D01*
X123890476Y-64373809D01*
X123890476Y-64611904D01*
X123938095Y-64707142D01*
X123985714Y-64754761D01*
X124080952Y-64802380D01*
X124366666Y-64802380D01*
X124461904Y-64754761D01*
X124509523Y-64707142D01*
X123509523Y-63897619D02*
X123461904Y-63850000D01*
X123366666Y-63802380D01*
X123128571Y-63802380D01*
X123033333Y-63850000D01*
X122985714Y-63897619D01*
X122938095Y-63992857D01*
X122938095Y-64088095D01*
X122985714Y-64230952D01*
X123557142Y-64802380D01*
X122938095Y-64802380D01*
X69179158Y-129083218D02*
X69226777Y-129130837D01*
X69369634Y-129178456D01*
X69464872Y-129178456D01*
X69607730Y-129130837D01*
X69702968Y-129035599D01*
X69750587Y-128940361D01*
X69798206Y-128749885D01*
X69798206Y-128607028D01*
X69750587Y-128416552D01*
X69702968Y-128321314D01*
X69607730Y-128226076D01*
X69464872Y-128178456D01*
X69369634Y-128178456D01*
X69226777Y-128226076D01*
X69179158Y-128273695D01*
X68322015Y-128511790D02*
X68322015Y-129178456D01*
X68560111Y-128130837D02*
X68798206Y-128845123D01*
X68179158Y-128845123D01*
X204616666Y-132507142D02*
X204664285Y-132554761D01*
X204807142Y-132602380D01*
X204902380Y-132602380D01*
X205045238Y-132554761D01*
X205140476Y-132459523D01*
X205188095Y-132364285D01*
X205235714Y-132173809D01*
X205235714Y-132030952D01*
X205188095Y-131840476D01*
X205140476Y-131745238D01*
X205045238Y-131650000D01*
X204902380Y-131602380D01*
X204807142Y-131602380D01*
X204664285Y-131650000D01*
X204616666Y-131697619D01*
X203711904Y-131602380D02*
X204188095Y-131602380D01*
X204235714Y-132078571D01*
X204188095Y-132030952D01*
X204092857Y-131983333D01*
X203854761Y-131983333D01*
X203759523Y-132030952D01*
X203711904Y-132078571D01*
X203664285Y-132173809D01*
X203664285Y-132411904D01*
X203711904Y-132507142D01*
X203759523Y-132554761D01*
X203854761Y-132602380D01*
X204092857Y-132602380D01*
X204188095Y-132554761D01*
X204235714Y-132507142D01*
X202867961Y-48241176D02*
X203440380Y-48140161D01*
X203272022Y-48645237D02*
X203979128Y-47938130D01*
X203709754Y-47668756D01*
X203608739Y-47635084D01*
X203541396Y-47635084D01*
X203440380Y-47668756D01*
X203339365Y-47769771D01*
X203305693Y-47870787D01*
X203305693Y-47938130D01*
X203339365Y-48039145D01*
X203608739Y-48308519D01*
X202194525Y-47567741D02*
X202598586Y-47971802D01*
X202396556Y-47769771D02*
X203103663Y-47062664D01*
X203069991Y-47231023D01*
X203069991Y-47365710D01*
X203103663Y-47466725D01*
X202295541Y-46254542D02*
X202430228Y-46389229D01*
X202463899Y-46490245D01*
X202463899Y-46557588D01*
X202430228Y-46725947D01*
X202329212Y-46894306D01*
X202059838Y-47163680D01*
X201958823Y-47197351D01*
X201891480Y-47197351D01*
X201790464Y-47163680D01*
X201655777Y-47028993D01*
X201622106Y-46927977D01*
X201622106Y-46860634D01*
X201655777Y-46759619D01*
X201824136Y-46591260D01*
X201925151Y-46557588D01*
X201992495Y-46557588D01*
X202093510Y-46591260D01*
X202228197Y-46725947D01*
X202261869Y-46826962D01*
X202261869Y-46894306D01*
X202228197Y-46995321D01*
X49067961Y-48241176D02*
X49640380Y-48140161D01*
X49472022Y-48645237D02*
X50179128Y-47938130D01*
X49909754Y-47668756D01*
X49808739Y-47635084D01*
X49741396Y-47635084D01*
X49640380Y-47668756D01*
X49539365Y-47769771D01*
X49505693Y-47870787D01*
X49505693Y-47938130D01*
X49539365Y-48039145D01*
X49808739Y-48308519D01*
X49438350Y-47332038D02*
X49438350Y-47264695D01*
X49404678Y-47163680D01*
X49236319Y-46995321D01*
X49135304Y-46961649D01*
X49067961Y-46961649D01*
X48966945Y-46995321D01*
X48899602Y-47062664D01*
X48832258Y-47197351D01*
X48832258Y-48005474D01*
X48394525Y-47567741D01*
X48394525Y-46759619D02*
X48495541Y-46793290D01*
X48562884Y-46793290D01*
X48663899Y-46759619D01*
X48697571Y-46725947D01*
X48731243Y-46624932D01*
X48731243Y-46557588D01*
X48697571Y-46456573D01*
X48562884Y-46321886D01*
X48461869Y-46288214D01*
X48394525Y-46288214D01*
X48293510Y-46321886D01*
X48259838Y-46355558D01*
X48226167Y-46456573D01*
X48226167Y-46523916D01*
X48259838Y-46624932D01*
X48394525Y-46759619D01*
X48428197Y-46860634D01*
X48428197Y-46927977D01*
X48394525Y-47028993D01*
X48259838Y-47163680D01*
X48158823Y-47197351D01*
X48091480Y-47197351D01*
X47990464Y-47163680D01*
X47855777Y-47028993D01*
X47822106Y-46927977D01*
X47822106Y-46860634D01*
X47855777Y-46759619D01*
X47990464Y-46624932D01*
X48091480Y-46591260D01*
X48158823Y-46591260D01*
X48259838Y-46624932D01*
X22607142Y-53457142D02*
X22654761Y-53409523D01*
X22702380Y-53266666D01*
X22702380Y-53171428D01*
X22654761Y-53028571D01*
X22559523Y-52933333D01*
X22464285Y-52885714D01*
X22273809Y-52838095D01*
X22130952Y-52838095D01*
X21940476Y-52885714D01*
X21845238Y-52933333D01*
X21750000Y-53028571D01*
X21702380Y-53171428D01*
X21702380Y-53266666D01*
X21750000Y-53409523D01*
X21797619Y-53457142D01*
X21702380Y-54361904D02*
X21702380Y-53885714D01*
X22178571Y-53838095D01*
X22130952Y-53885714D01*
X22083333Y-53980952D01*
X22083333Y-54219047D01*
X22130952Y-54314285D01*
X22178571Y-54361904D01*
X22273809Y-54409523D01*
X22511904Y-54409523D01*
X22607142Y-54361904D01*
X22654761Y-54314285D01*
X22702380Y-54219047D01*
X22702380Y-53980952D01*
X22654761Y-53885714D01*
X22607142Y-53838095D01*
X21702380Y-55266666D02*
X21702380Y-55076190D01*
X21750000Y-54980952D01*
X21797619Y-54933333D01*
X21940476Y-54838095D01*
X22130952Y-54790476D01*
X22511904Y-54790476D01*
X22607142Y-54838095D01*
X22654761Y-54885714D01*
X22702380Y-54980952D01*
X22702380Y-55171428D01*
X22654761Y-55266666D01*
X22607142Y-55314285D01*
X22511904Y-55361904D01*
X22273809Y-55361904D01*
X22178571Y-55314285D01*
X22130952Y-55266666D01*
X22083333Y-55171428D01*
X22083333Y-54980952D01*
X22130952Y-54885714D01*
X22178571Y-54838095D01*
X22273809Y-54790476D01*
X123442857Y-49757142D02*
X123490476Y-49804761D01*
X123633333Y-49852380D01*
X123728571Y-49852380D01*
X123871428Y-49804761D01*
X123966666Y-49709523D01*
X124014285Y-49614285D01*
X124061904Y-49423809D01*
X124061904Y-49280952D01*
X124014285Y-49090476D01*
X123966666Y-48995238D01*
X123871428Y-48900000D01*
X123728571Y-48852380D01*
X123633333Y-48852380D01*
X123490476Y-48900000D01*
X123442857Y-48947619D01*
X122538095Y-48852380D02*
X123014285Y-48852380D01*
X123061904Y-49328571D01*
X123014285Y-49280952D01*
X122919047Y-49233333D01*
X122680952Y-49233333D01*
X122585714Y-49280952D01*
X122538095Y-49328571D01*
X122490476Y-49423809D01*
X122490476Y-49661904D01*
X122538095Y-49757142D01*
X122585714Y-49804761D01*
X122680952Y-49852380D01*
X122919047Y-49852380D01*
X123014285Y-49804761D01*
X123061904Y-49757142D01*
X122109523Y-48947619D02*
X122061904Y-48900000D01*
X121966666Y-48852380D01*
X121728571Y-48852380D01*
X121633333Y-48900000D01*
X121585714Y-48947619D01*
X121538095Y-49042857D01*
X121538095Y-49138095D01*
X121585714Y-49280952D01*
X122157142Y-49852380D01*
X121538095Y-49852380D01*
X105542857Y-49857142D02*
X105590476Y-49904761D01*
X105733333Y-49952380D01*
X105828571Y-49952380D01*
X105971428Y-49904761D01*
X106066666Y-49809523D01*
X106114285Y-49714285D01*
X106161904Y-49523809D01*
X106161904Y-49380952D01*
X106114285Y-49190476D01*
X106066666Y-49095238D01*
X105971428Y-49000000D01*
X105828571Y-48952380D01*
X105733333Y-48952380D01*
X105590476Y-49000000D01*
X105542857Y-49047619D01*
X104638095Y-48952380D02*
X105114285Y-48952380D01*
X105161904Y-49428571D01*
X105114285Y-49380952D01*
X105019047Y-49333333D01*
X104780952Y-49333333D01*
X104685714Y-49380952D01*
X104638095Y-49428571D01*
X104590476Y-49523809D01*
X104590476Y-49761904D01*
X104638095Y-49857142D01*
X104685714Y-49904761D01*
X104780952Y-49952380D01*
X105019047Y-49952380D01*
X105114285Y-49904761D01*
X105161904Y-49857142D01*
X103733333Y-49285714D02*
X103733333Y-49952380D01*
X103971428Y-48904761D02*
X104209523Y-49619047D01*
X103590476Y-49619047D01*
X200742857Y-49857142D02*
X200790476Y-49904761D01*
X200933333Y-49952380D01*
X201028571Y-49952380D01*
X201171428Y-49904761D01*
X201266666Y-49809523D01*
X201314285Y-49714285D01*
X201361904Y-49523809D01*
X201361904Y-49380952D01*
X201314285Y-49190476D01*
X201266666Y-49095238D01*
X201171428Y-49000000D01*
X201028571Y-48952380D01*
X200933333Y-48952380D01*
X200790476Y-49000000D01*
X200742857Y-49047619D01*
X199838095Y-48952380D02*
X200314285Y-48952380D01*
X200361904Y-49428571D01*
X200314285Y-49380952D01*
X200219047Y-49333333D01*
X199980952Y-49333333D01*
X199885714Y-49380952D01*
X199838095Y-49428571D01*
X199790476Y-49523809D01*
X199790476Y-49761904D01*
X199838095Y-49857142D01*
X199885714Y-49904761D01*
X199980952Y-49952380D01*
X200219047Y-49952380D01*
X200314285Y-49904761D01*
X200361904Y-49857142D01*
X198885714Y-48952380D02*
X199361904Y-48952380D01*
X199409523Y-49428571D01*
X199361904Y-49380952D01*
X199266666Y-49333333D01*
X199028571Y-49333333D01*
X198933333Y-49380952D01*
X198885714Y-49428571D01*
X198838095Y-49523809D01*
X198838095Y-49761904D01*
X198885714Y-49857142D01*
X198933333Y-49904761D01*
X199028571Y-49952380D01*
X199266666Y-49952380D01*
X199361904Y-49904761D01*
X199409523Y-49857142D01*
X117842857Y-50007142D02*
X117890476Y-50054761D01*
X118033333Y-50102380D01*
X118128571Y-50102380D01*
X118271428Y-50054761D01*
X118366666Y-49959523D01*
X118414285Y-49864285D01*
X118461904Y-49673809D01*
X118461904Y-49530952D01*
X118414285Y-49340476D01*
X118366666Y-49245238D01*
X118271428Y-49150000D01*
X118128571Y-49102380D01*
X118033333Y-49102380D01*
X117890476Y-49150000D01*
X117842857Y-49197619D01*
X116985714Y-49102380D02*
X117176190Y-49102380D01*
X117271428Y-49150000D01*
X117319047Y-49197619D01*
X117414285Y-49340476D01*
X117461904Y-49530952D01*
X117461904Y-49911904D01*
X117414285Y-50007142D01*
X117366666Y-50054761D01*
X117271428Y-50102380D01*
X117080952Y-50102380D01*
X116985714Y-50054761D01*
X116938095Y-50007142D01*
X116890476Y-49911904D01*
X116890476Y-49673809D01*
X116938095Y-49578571D01*
X116985714Y-49530952D01*
X117080952Y-49483333D01*
X117271428Y-49483333D01*
X117366666Y-49530952D01*
X117414285Y-49578571D01*
X117461904Y-49673809D01*
X115985714Y-49102380D02*
X116461904Y-49102380D01*
X116509523Y-49578571D01*
X116461904Y-49530952D01*
X116366666Y-49483333D01*
X116128571Y-49483333D01*
X116033333Y-49530952D01*
X115985714Y-49578571D01*
X115938095Y-49673809D01*
X115938095Y-49911904D01*
X115985714Y-50007142D01*
X116033333Y-50054761D01*
X116128571Y-50102380D01*
X116366666Y-50102380D01*
X116461904Y-50054761D01*
X116509523Y-50007142D01*
X182442857Y-49557142D02*
X182490476Y-49604761D01*
X182633333Y-49652380D01*
X182728571Y-49652380D01*
X182871428Y-49604761D01*
X182966666Y-49509523D01*
X183014285Y-49414285D01*
X183061904Y-49223809D01*
X183061904Y-49080952D01*
X183014285Y-48890476D01*
X182966666Y-48795238D01*
X182871428Y-48700000D01*
X182728571Y-48652380D01*
X182633333Y-48652380D01*
X182490476Y-48700000D01*
X182442857Y-48747619D01*
X181585714Y-48652380D02*
X181776190Y-48652380D01*
X181871428Y-48700000D01*
X181919047Y-48747619D01*
X182014285Y-48890476D01*
X182061904Y-49080952D01*
X182061904Y-49461904D01*
X182014285Y-49557142D01*
X181966666Y-49604761D01*
X181871428Y-49652380D01*
X181680952Y-49652380D01*
X181585714Y-49604761D01*
X181538095Y-49557142D01*
X181490476Y-49461904D01*
X181490476Y-49223809D01*
X181538095Y-49128571D01*
X181585714Y-49080952D01*
X181680952Y-49033333D01*
X181871428Y-49033333D01*
X181966666Y-49080952D01*
X182014285Y-49128571D01*
X182061904Y-49223809D01*
X180633333Y-48652380D02*
X180823809Y-48652380D01*
X180919047Y-48700000D01*
X180966666Y-48747619D01*
X181061904Y-48890476D01*
X181109523Y-49080952D01*
X181109523Y-49461904D01*
X181061904Y-49557142D01*
X181014285Y-49604761D01*
X180919047Y-49652380D01*
X180728571Y-49652380D01*
X180633333Y-49604761D01*
X180585714Y-49557142D01*
X180538095Y-49461904D01*
X180538095Y-49223809D01*
X180585714Y-49128571D01*
X180633333Y-49080952D01*
X180728571Y-49033333D01*
X180919047Y-49033333D01*
X181014285Y-49080952D01*
X181061904Y-49128571D01*
X181109523Y-49223809D01*
X194542857Y-49857142D02*
X194590476Y-49904761D01*
X194733333Y-49952380D01*
X194828571Y-49952380D01*
X194971428Y-49904761D01*
X195066666Y-49809523D01*
X195114285Y-49714285D01*
X195161904Y-49523809D01*
X195161904Y-49380952D01*
X195114285Y-49190476D01*
X195066666Y-49095238D01*
X194971428Y-49000000D01*
X194828571Y-48952380D01*
X194733333Y-48952380D01*
X194590476Y-49000000D01*
X194542857Y-49047619D01*
X193685714Y-48952380D02*
X193876190Y-48952380D01*
X193971428Y-49000000D01*
X194019047Y-49047619D01*
X194114285Y-49190476D01*
X194161904Y-49380952D01*
X194161904Y-49761904D01*
X194114285Y-49857142D01*
X194066666Y-49904761D01*
X193971428Y-49952380D01*
X193780952Y-49952380D01*
X193685714Y-49904761D01*
X193638095Y-49857142D01*
X193590476Y-49761904D01*
X193590476Y-49523809D01*
X193638095Y-49428571D01*
X193685714Y-49380952D01*
X193780952Y-49333333D01*
X193971428Y-49333333D01*
X194066666Y-49380952D01*
X194114285Y-49428571D01*
X194161904Y-49523809D01*
X193257142Y-48952380D02*
X192590476Y-48952380D01*
X193019047Y-49952380D01*
X170902380Y-66386904D02*
X169902380Y-66386904D01*
X169902380Y-66625000D01*
X169950000Y-66767857D01*
X170045238Y-66863095D01*
X170140476Y-66910714D01*
X170330952Y-66958333D01*
X170473809Y-66958333D01*
X170664285Y-66910714D01*
X170759523Y-66863095D01*
X170854761Y-66767857D01*
X170902380Y-66625000D01*
X170902380Y-66386904D01*
X170902380Y-67434523D02*
X170902380Y-67625000D01*
X170854761Y-67720238D01*
X170807142Y-67767857D01*
X170664285Y-67863095D01*
X170473809Y-67910714D01*
X170092857Y-67910714D01*
X169997619Y-67863095D01*
X169950000Y-67815476D01*
X169902380Y-67720238D01*
X169902380Y-67529761D01*
X169950000Y-67434523D01*
X169997619Y-67386904D01*
X170092857Y-67339285D01*
X170330952Y-67339285D01*
X170426190Y-67386904D01*
X170473809Y-67434523D01*
X170521428Y-67529761D01*
X170521428Y-67720238D01*
X170473809Y-67815476D01*
X170426190Y-67863095D01*
X170330952Y-67910714D01*
X196861904Y-72652380D02*
X196861904Y-73461904D01*
X196814285Y-73557142D01*
X196766666Y-73604761D01*
X196671428Y-73652380D01*
X196480952Y-73652380D01*
X196385714Y-73604761D01*
X196338095Y-73557142D01*
X196290476Y-73461904D01*
X196290476Y-72652380D01*
X195909523Y-72652380D02*
X195242857Y-72652380D01*
X195671428Y-73652380D01*
X49044731Y-74383806D02*
X49854255Y-74383806D01*
X49949493Y-74431425D01*
X49997112Y-74479044D01*
X50044731Y-74574282D01*
X50044731Y-74764758D01*
X49997112Y-74859996D01*
X49949493Y-74907615D01*
X49854255Y-74955234D01*
X49044731Y-74955234D01*
X50044731Y-75479044D02*
X50044731Y-75669520D01*
X49997112Y-75764758D01*
X49949493Y-75812377D01*
X49806636Y-75907615D01*
X49616160Y-75955234D01*
X49235208Y-75955234D01*
X49139970Y-75907615D01*
X49092351Y-75859996D01*
X49044731Y-75764758D01*
X49044731Y-75574282D01*
X49092351Y-75479044D01*
X49139970Y-75431425D01*
X49235208Y-75383806D01*
X49473303Y-75383806D01*
X49568541Y-75431425D01*
X49616160Y-75479044D01*
X49663779Y-75574282D01*
X49663779Y-75764758D01*
X49616160Y-75859996D01*
X49568541Y-75907615D01*
X49473303Y-75955234D01*
X156142857Y-144657142D02*
X156190476Y-144704761D01*
X156333333Y-144752380D01*
X156428571Y-144752380D01*
X156571428Y-144704761D01*
X156666666Y-144609523D01*
X156714285Y-144514285D01*
X156761904Y-144323809D01*
X156761904Y-144180952D01*
X156714285Y-143990476D01*
X156666666Y-143895238D01*
X156571428Y-143800000D01*
X156428571Y-143752380D01*
X156333333Y-143752380D01*
X156190476Y-143800000D01*
X156142857Y-143847619D01*
X155190476Y-144752380D02*
X155761904Y-144752380D01*
X155476190Y-144752380D02*
X155476190Y-143752380D01*
X155571428Y-143895238D01*
X155666666Y-143990476D01*
X155761904Y-144038095D01*
X154714285Y-144752380D02*
X154523809Y-144752380D01*
X154428571Y-144704761D01*
X154380952Y-144657142D01*
X154285714Y-144514285D01*
X154238095Y-144323809D01*
X154238095Y-143942857D01*
X154285714Y-143847619D01*
X154333333Y-143800000D01*
X154428571Y-143752380D01*
X154619047Y-143752380D01*
X154714285Y-143800000D01*
X154761904Y-143847619D01*
X154809523Y-143942857D01*
X154809523Y-144180952D01*
X154761904Y-144276190D01*
X154714285Y-144323809D01*
X154619047Y-144371428D01*
X154428571Y-144371428D01*
X154333333Y-144323809D01*
X154285714Y-144276190D01*
X154238095Y-144180952D01*
X173842857Y-138657142D02*
X173890476Y-138704761D01*
X174033333Y-138752380D01*
X174128571Y-138752380D01*
X174271428Y-138704761D01*
X174366666Y-138609523D01*
X174414285Y-138514285D01*
X174461904Y-138323809D01*
X174461904Y-138180952D01*
X174414285Y-137990476D01*
X174366666Y-137895238D01*
X174271428Y-137800000D01*
X174128571Y-137752380D01*
X174033333Y-137752380D01*
X173890476Y-137800000D01*
X173842857Y-137847619D01*
X173461904Y-137847619D02*
X173414285Y-137800000D01*
X173319047Y-137752380D01*
X173080952Y-137752380D01*
X172985714Y-137800000D01*
X172938095Y-137847619D01*
X172890476Y-137942857D01*
X172890476Y-138038095D01*
X172938095Y-138180952D01*
X173509523Y-138752380D01*
X172890476Y-138752380D01*
X172271428Y-137752380D02*
X172176190Y-137752380D01*
X172080952Y-137800000D01*
X172033333Y-137847619D01*
X171985714Y-137942857D01*
X171938095Y-138133333D01*
X171938095Y-138371428D01*
X171985714Y-138561904D01*
X172033333Y-138657142D01*
X172080952Y-138704761D01*
X172176190Y-138752380D01*
X172271428Y-138752380D01*
X172366666Y-138704761D01*
X172414285Y-138657142D01*
X172461904Y-138561904D01*
X172509523Y-138371428D01*
X172509523Y-138133333D01*
X172461904Y-137942857D01*
X172414285Y-137847619D01*
X172366666Y-137800000D01*
X172271428Y-137752380D01*
X166242857Y-147457142D02*
X166290476Y-147504761D01*
X166433333Y-147552380D01*
X166528571Y-147552380D01*
X166671428Y-147504761D01*
X166766666Y-147409523D01*
X166814285Y-147314285D01*
X166861904Y-147123809D01*
X166861904Y-146980952D01*
X166814285Y-146790476D01*
X166766666Y-146695238D01*
X166671428Y-146600000D01*
X166528571Y-146552380D01*
X166433333Y-146552380D01*
X166290476Y-146600000D01*
X166242857Y-146647619D01*
X165861904Y-146647619D02*
X165814285Y-146600000D01*
X165719047Y-146552380D01*
X165480952Y-146552380D01*
X165385714Y-146600000D01*
X165338095Y-146647619D01*
X165290476Y-146742857D01*
X165290476Y-146838095D01*
X165338095Y-146980952D01*
X165909523Y-147552380D01*
X165290476Y-147552380D01*
X164957142Y-146552380D02*
X164338095Y-146552380D01*
X164671428Y-146933333D01*
X164528571Y-146933333D01*
X164433333Y-146980952D01*
X164385714Y-147028571D01*
X164338095Y-147123809D01*
X164338095Y-147361904D01*
X164385714Y-147457142D01*
X164433333Y-147504761D01*
X164528571Y-147552380D01*
X164814285Y-147552380D01*
X164909523Y-147504761D01*
X164957142Y-147457142D01*
X171042857Y-136257142D02*
X171090476Y-136304761D01*
X171233333Y-136352380D01*
X171328571Y-136352380D01*
X171471428Y-136304761D01*
X171566666Y-136209523D01*
X171614285Y-136114285D01*
X171661904Y-135923809D01*
X171661904Y-135780952D01*
X171614285Y-135590476D01*
X171566666Y-135495238D01*
X171471428Y-135400000D01*
X171328571Y-135352380D01*
X171233333Y-135352380D01*
X171090476Y-135400000D01*
X171042857Y-135447619D01*
X170661904Y-135447619D02*
X170614285Y-135400000D01*
X170519047Y-135352380D01*
X170280952Y-135352380D01*
X170185714Y-135400000D01*
X170138095Y-135447619D01*
X170090476Y-135542857D01*
X170090476Y-135638095D01*
X170138095Y-135780952D01*
X170709523Y-136352380D01*
X170090476Y-136352380D01*
X169185714Y-135352380D02*
X169661904Y-135352380D01*
X169709523Y-135828571D01*
X169661904Y-135780952D01*
X169566666Y-135733333D01*
X169328571Y-135733333D01*
X169233333Y-135780952D01*
X169185714Y-135828571D01*
X169138095Y-135923809D01*
X169138095Y-136161904D01*
X169185714Y-136257142D01*
X169233333Y-136304761D01*
X169328571Y-136352380D01*
X169566666Y-136352380D01*
X169661904Y-136304761D01*
X169709523Y-136257142D01*
X162342857Y-145957142D02*
X162390476Y-146004761D01*
X162533333Y-146052380D01*
X162628571Y-146052380D01*
X162771428Y-146004761D01*
X162866666Y-145909523D01*
X162914285Y-145814285D01*
X162961904Y-145623809D01*
X162961904Y-145480952D01*
X162914285Y-145290476D01*
X162866666Y-145195238D01*
X162771428Y-145100000D01*
X162628571Y-145052380D01*
X162533333Y-145052380D01*
X162390476Y-145100000D01*
X162342857Y-145147619D01*
X161961904Y-145147619D02*
X161914285Y-145100000D01*
X161819047Y-145052380D01*
X161580952Y-145052380D01*
X161485714Y-145100000D01*
X161438095Y-145147619D01*
X161390476Y-145242857D01*
X161390476Y-145338095D01*
X161438095Y-145480952D01*
X162009523Y-146052380D01*
X161390476Y-146052380D01*
X160533333Y-145052380D02*
X160723809Y-145052380D01*
X160819047Y-145100000D01*
X160866666Y-145147619D01*
X160961904Y-145290476D01*
X161009523Y-145480952D01*
X161009523Y-145861904D01*
X160961904Y-145957142D01*
X160914285Y-146004761D01*
X160819047Y-146052380D01*
X160628571Y-146052380D01*
X160533333Y-146004761D01*
X160485714Y-145957142D01*
X160438095Y-145861904D01*
X160438095Y-145623809D01*
X160485714Y-145528571D01*
X160533333Y-145480952D01*
X160628571Y-145433333D01*
X160819047Y-145433333D01*
X160914285Y-145480952D01*
X160961904Y-145528571D01*
X161009523Y-145623809D01*
%LPC*%
D12*
X214300000Y-67700000D03*
X209720000Y-67700000D03*
D13*
X212000000Y-60300000D03*
D14*
X76500000Y-82350000D03*
X76500000Y-90650000D03*
X153400000Y-82350000D03*
X153400000Y-90650000D03*
X230400000Y-81850000D03*
X230400000Y-90150000D03*
D15*
X163480000Y-154960000D03*
X163480000Y-157500000D03*
X160940000Y-154960000D03*
X160940000Y-157500000D03*
X158400000Y-154960000D03*
D16*
X158400000Y-157500000D03*
D17*
X228740000Y-164590000D03*
D18*
X228250000Y-159820000D03*
X228250000Y-157320000D03*
D19*
X231450000Y-159820000D03*
D17*
X228740000Y-152550000D03*
D18*
X231450000Y-157320000D03*
D20*
X40900000Y-95500000D03*
X263400000Y-95500000D03*
X190900000Y-95500000D03*
X114900000Y-95500000D03*
X253400000Y-19500000D03*
X184400000Y-19500000D03*
X103400000Y-19500000D03*
X40900000Y-19500000D03*
D21*
X277900000Y-162500000D03*
X277900000Y-17500000D03*
X19000000Y-17000000D03*
X19900000Y-162500000D03*
D22*
X110800000Y-60400000D03*
D23*
X110800000Y-50400000D03*
X32400000Y-50300000D03*
D22*
X32400000Y-60300000D03*
X187900000Y-60400000D03*
D23*
X187900000Y-50400000D03*
X265000000Y-50200000D03*
D22*
X265000000Y-60200000D03*
D24*
X25600000Y-82500000D03*
D25*
X29350000Y-82500000D03*
X28251650Y-85151650D03*
X25600000Y-86250000D03*
X22948350Y-85151650D03*
X21850000Y-82500000D03*
X22948350Y-79848350D03*
X25600000Y-78750000D03*
X28251650Y-79848350D03*
X28181650Y-23848350D03*
X25530000Y-22750000D03*
X22878350Y-23848350D03*
X21780000Y-26500000D03*
X22878350Y-29151650D03*
X25530000Y-30250000D03*
X28181650Y-29151650D03*
X29280000Y-26500000D03*
D24*
X25530000Y-26500000D03*
X76100000Y-57500000D03*
D25*
X72350000Y-57500000D03*
X73448350Y-54848350D03*
X76100000Y-53750000D03*
X78751650Y-54848350D03*
X79850000Y-57500000D03*
X78751650Y-60151650D03*
X76100000Y-61250000D03*
X73448350Y-60151650D03*
X156551650Y-60151650D03*
X153900000Y-61250000D03*
X151248350Y-60151650D03*
X150150000Y-57500000D03*
X151248350Y-54848350D03*
X153900000Y-53750000D03*
X156551650Y-54848350D03*
X157650000Y-57500000D03*
D24*
X153900000Y-57500000D03*
X230900000Y-57500000D03*
D25*
X234650000Y-57500000D03*
X233551650Y-54848350D03*
X230900000Y-53750000D03*
X228248350Y-54848350D03*
X227150000Y-57500000D03*
X228248350Y-60151650D03*
X230900000Y-61250000D03*
X233551650Y-60151650D03*
D26*
X30450000Y-105580000D03*
X27910000Y-105570000D03*
X25370000Y-105570000D03*
X22830000Y-105570000D03*
X20290000Y-105570000D03*
X20290000Y-103030000D03*
X22830000Y-103030000D03*
X25370000Y-103030000D03*
X27910000Y-103030000D03*
X30450000Y-103040000D03*
X30450000Y-100500000D03*
X25370000Y-100490000D03*
X22830000Y-100490000D03*
X20290000Y-103030000D03*
X30450000Y-100500000D03*
X27910000Y-100490000D03*
X25370000Y-100490000D03*
X22830000Y-100490000D03*
X20290000Y-100490000D03*
X30450000Y-97950000D03*
X27910000Y-97950000D03*
X25370000Y-97950000D03*
X22830000Y-97950000D03*
X20290000Y-97950000D03*
X30450000Y-95450000D03*
X27910000Y-95450000D03*
X25370000Y-95450000D03*
X22830000Y-95450000D03*
X20290000Y-95450000D03*
D27*
X164560000Y-43500000D03*
X159100000Y-43500000D03*
X153640000Y-43500000D03*
D28*
G36*
X128346866Y-46084422D02*
X128380235Y-46089372D01*
X128412958Y-46097569D01*
X128444720Y-46108933D01*
X128475216Y-46123357D01*
X128504150Y-46140699D01*
X128531246Y-46160795D01*
X128556241Y-46183449D01*
X129042377Y-46669585D01*
X129065031Y-46694580D01*
X129085127Y-46721676D01*
X129102469Y-46750610D01*
X129116893Y-46781106D01*
X129128257Y-46812868D01*
X129136454Y-46845591D01*
X129141404Y-46878960D01*
X129143059Y-46912653D01*
X129141404Y-46946346D01*
X129136454Y-46979715D01*
X129128257Y-47012438D01*
X129116893Y-47044200D01*
X129102469Y-47074696D01*
X129085127Y-47103630D01*
X129065031Y-47130726D01*
X129042377Y-47155721D01*
X128255721Y-47942377D01*
X128230726Y-47965031D01*
X128203630Y-47985127D01*
X128174696Y-48002469D01*
X128144200Y-48016893D01*
X128112438Y-48028257D01*
X128079715Y-48036454D01*
X128046346Y-48041404D01*
X128012653Y-48043059D01*
X127978960Y-48041404D01*
X127945591Y-48036454D01*
X127912868Y-48028257D01*
X127881106Y-48016893D01*
X127850610Y-48002469D01*
X127821676Y-47985127D01*
X127794580Y-47965031D01*
X127769585Y-47942377D01*
X127283449Y-47456241D01*
X127260795Y-47431246D01*
X127240699Y-47404150D01*
X127223357Y-47375216D01*
X127208933Y-47344720D01*
X127197569Y-47312958D01*
X127189372Y-47280235D01*
X127184422Y-47246866D01*
X127182767Y-47213173D01*
X127184422Y-47179480D01*
X127189372Y-47146111D01*
X127197569Y-47113388D01*
X127208933Y-47081626D01*
X127223357Y-47051130D01*
X127240699Y-47022196D01*
X127260795Y-46995100D01*
X127283449Y-46970105D01*
X128070105Y-46183449D01*
X128095100Y-46160795D01*
X128122196Y-46140699D01*
X128151130Y-46123357D01*
X128181626Y-46108933D01*
X128213388Y-46097569D01*
X128246111Y-46089372D01*
X128279480Y-46084422D01*
X128313173Y-46082767D01*
X128346866Y-46084422D01*
X128346866Y-46084422D01*
G37*
D29*
X128162913Y-47062913D03*
D28*
G36*
X127021040Y-44758596D02*
X127054409Y-44763546D01*
X127087132Y-44771743D01*
X127118894Y-44783107D01*
X127149390Y-44797531D01*
X127178324Y-44814873D01*
X127205420Y-44834969D01*
X127230415Y-44857623D01*
X127716551Y-45343759D01*
X127739205Y-45368754D01*
X127759301Y-45395850D01*
X127776643Y-45424784D01*
X127791067Y-45455280D01*
X127802431Y-45487042D01*
X127810628Y-45519765D01*
X127815578Y-45553134D01*
X127817233Y-45586827D01*
X127815578Y-45620520D01*
X127810628Y-45653889D01*
X127802431Y-45686612D01*
X127791067Y-45718374D01*
X127776643Y-45748870D01*
X127759301Y-45777804D01*
X127739205Y-45804900D01*
X127716551Y-45829895D01*
X126929895Y-46616551D01*
X126904900Y-46639205D01*
X126877804Y-46659301D01*
X126848870Y-46676643D01*
X126818374Y-46691067D01*
X126786612Y-46702431D01*
X126753889Y-46710628D01*
X126720520Y-46715578D01*
X126686827Y-46717233D01*
X126653134Y-46715578D01*
X126619765Y-46710628D01*
X126587042Y-46702431D01*
X126555280Y-46691067D01*
X126524784Y-46676643D01*
X126495850Y-46659301D01*
X126468754Y-46639205D01*
X126443759Y-46616551D01*
X125957623Y-46130415D01*
X125934969Y-46105420D01*
X125914873Y-46078324D01*
X125897531Y-46049390D01*
X125883107Y-46018894D01*
X125871743Y-45987132D01*
X125863546Y-45954409D01*
X125858596Y-45921040D01*
X125856941Y-45887347D01*
X125858596Y-45853654D01*
X125863546Y-45820285D01*
X125871743Y-45787562D01*
X125883107Y-45755800D01*
X125897531Y-45725304D01*
X125914873Y-45696370D01*
X125934969Y-45669274D01*
X125957623Y-45644279D01*
X126744279Y-44857623D01*
X126769274Y-44834969D01*
X126796370Y-44814873D01*
X126825304Y-44797531D01*
X126855800Y-44783107D01*
X126887562Y-44771743D01*
X126920285Y-44763546D01*
X126953654Y-44758596D01*
X126987347Y-44756941D01*
X127021040Y-44758596D01*
X127021040Y-44758596D01*
G37*
D29*
X126837087Y-45737087D03*
D28*
G36*
X282524395Y-50301471D02*
X282554056Y-50305871D01*
X282583143Y-50313157D01*
X282611376Y-50323259D01*
X282638483Y-50336080D01*
X282664202Y-50351495D01*
X282688287Y-50369358D01*
X282710505Y-50389495D01*
X282730642Y-50411713D01*
X282748505Y-50435798D01*
X282763920Y-50461517D01*
X282776741Y-50488624D01*
X282786843Y-50516857D01*
X282794129Y-50545944D01*
X282798529Y-50575605D01*
X282800000Y-50605555D01*
X282800000Y-52194445D01*
X282798529Y-52224395D01*
X282794129Y-52254056D01*
X282786843Y-52283143D01*
X282776741Y-52311376D01*
X282763920Y-52338483D01*
X282748505Y-52364202D01*
X282730642Y-52388287D01*
X282710505Y-52410505D01*
X282688287Y-52430642D01*
X282664202Y-52448505D01*
X282638483Y-52463920D01*
X282611376Y-52476741D01*
X282583143Y-52486843D01*
X282554056Y-52494129D01*
X282524395Y-52498529D01*
X282494445Y-52500000D01*
X277305555Y-52500000D01*
X277275605Y-52498529D01*
X277245944Y-52494129D01*
X277216857Y-52486843D01*
X277188624Y-52476741D01*
X277161517Y-52463920D01*
X277135798Y-52448505D01*
X277111713Y-52430642D01*
X277089495Y-52410505D01*
X277069358Y-52388287D01*
X277051495Y-52364202D01*
X277036080Y-52338483D01*
X277023259Y-52311376D01*
X277013157Y-52283143D01*
X277005871Y-52254056D01*
X277001471Y-52224395D01*
X277000000Y-52194445D01*
X277000000Y-50605555D01*
X277001471Y-50575605D01*
X277005871Y-50545944D01*
X277013157Y-50516857D01*
X277023259Y-50488624D01*
X277036080Y-50461517D01*
X277051495Y-50435798D01*
X277069358Y-50411713D01*
X277089495Y-50389495D01*
X277111713Y-50369358D01*
X277135798Y-50351495D01*
X277161517Y-50336080D01*
X277188624Y-50323259D01*
X277216857Y-50313157D01*
X277245944Y-50305871D01*
X277275605Y-50301471D01*
X277305555Y-50300000D01*
X282494445Y-50300000D01*
X282524395Y-50301471D01*
X282524395Y-50301471D01*
G37*
D30*
X279900000Y-51400000D03*
D28*
G36*
X282524395Y-55401471D02*
X282554056Y-55405871D01*
X282583143Y-55413157D01*
X282611376Y-55423259D01*
X282638483Y-55436080D01*
X282664202Y-55451495D01*
X282688287Y-55469358D01*
X282710505Y-55489495D01*
X282730642Y-55511713D01*
X282748505Y-55535798D01*
X282763920Y-55561517D01*
X282776741Y-55588624D01*
X282786843Y-55616857D01*
X282794129Y-55645944D01*
X282798529Y-55675605D01*
X282800000Y-55705555D01*
X282800000Y-57294445D01*
X282798529Y-57324395D01*
X282794129Y-57354056D01*
X282786843Y-57383143D01*
X282776741Y-57411376D01*
X282763920Y-57438483D01*
X282748505Y-57464202D01*
X282730642Y-57488287D01*
X282710505Y-57510505D01*
X282688287Y-57530642D01*
X282664202Y-57548505D01*
X282638483Y-57563920D01*
X282611376Y-57576741D01*
X282583143Y-57586843D01*
X282554056Y-57594129D01*
X282524395Y-57598529D01*
X282494445Y-57600000D01*
X277305555Y-57600000D01*
X277275605Y-57598529D01*
X277245944Y-57594129D01*
X277216857Y-57586843D01*
X277188624Y-57576741D01*
X277161517Y-57563920D01*
X277135798Y-57548505D01*
X277111713Y-57530642D01*
X277089495Y-57510505D01*
X277069358Y-57488287D01*
X277051495Y-57464202D01*
X277036080Y-57438483D01*
X277023259Y-57411376D01*
X277013157Y-57383143D01*
X277005871Y-57354056D01*
X277001471Y-57324395D01*
X277000000Y-57294445D01*
X277000000Y-55705555D01*
X277001471Y-55675605D01*
X277005871Y-55645944D01*
X277013157Y-55616857D01*
X277023259Y-55588624D01*
X277036080Y-55561517D01*
X277051495Y-55535798D01*
X277069358Y-55511713D01*
X277089495Y-55489495D01*
X277111713Y-55469358D01*
X277135798Y-55451495D01*
X277161517Y-55436080D01*
X277188624Y-55423259D01*
X277216857Y-55413157D01*
X277245944Y-55405871D01*
X277275605Y-55401471D01*
X277305555Y-55400000D01*
X282494445Y-55400000D01*
X282524395Y-55401471D01*
X282524395Y-55401471D01*
G37*
D30*
X279900000Y-56500000D03*
D28*
G36*
X275524395Y-50301471D02*
X275554056Y-50305871D01*
X275583143Y-50313157D01*
X275611376Y-50323259D01*
X275638483Y-50336080D01*
X275664202Y-50351495D01*
X275688287Y-50369358D01*
X275710505Y-50389495D01*
X275730642Y-50411713D01*
X275748505Y-50435798D01*
X275763920Y-50461517D01*
X275776741Y-50488624D01*
X275786843Y-50516857D01*
X275794129Y-50545944D01*
X275798529Y-50575605D01*
X275800000Y-50605555D01*
X275800000Y-52194445D01*
X275798529Y-52224395D01*
X275794129Y-52254056D01*
X275786843Y-52283143D01*
X275776741Y-52311376D01*
X275763920Y-52338483D01*
X275748505Y-52364202D01*
X275730642Y-52388287D01*
X275710505Y-52410505D01*
X275688287Y-52430642D01*
X275664202Y-52448505D01*
X275638483Y-52463920D01*
X275611376Y-52476741D01*
X275583143Y-52486843D01*
X275554056Y-52494129D01*
X275524395Y-52498529D01*
X275494445Y-52500000D01*
X270305555Y-52500000D01*
X270275605Y-52498529D01*
X270245944Y-52494129D01*
X270216857Y-52486843D01*
X270188624Y-52476741D01*
X270161517Y-52463920D01*
X270135798Y-52448505D01*
X270111713Y-52430642D01*
X270089495Y-52410505D01*
X270069358Y-52388287D01*
X270051495Y-52364202D01*
X270036080Y-52338483D01*
X270023259Y-52311376D01*
X270013157Y-52283143D01*
X270005871Y-52254056D01*
X270001471Y-52224395D01*
X270000000Y-52194445D01*
X270000000Y-50605555D01*
X270001471Y-50575605D01*
X270005871Y-50545944D01*
X270013157Y-50516857D01*
X270023259Y-50488624D01*
X270036080Y-50461517D01*
X270051495Y-50435798D01*
X270069358Y-50411713D01*
X270089495Y-50389495D01*
X270111713Y-50369358D01*
X270135798Y-50351495D01*
X270161517Y-50336080D01*
X270188624Y-50323259D01*
X270216857Y-50313157D01*
X270245944Y-50305871D01*
X270275605Y-50301471D01*
X270305555Y-50300000D01*
X275494445Y-50300000D01*
X275524395Y-50301471D01*
X275524395Y-50301471D01*
G37*
D30*
X272900000Y-51400000D03*
D28*
G36*
X275524395Y-55401471D02*
X275554056Y-55405871D01*
X275583143Y-55413157D01*
X275611376Y-55423259D01*
X275638483Y-55436080D01*
X275664202Y-55451495D01*
X275688287Y-55469358D01*
X275710505Y-55489495D01*
X275730642Y-55511713D01*
X275748505Y-55535798D01*
X275763920Y-55561517D01*
X275776741Y-55588624D01*
X275786843Y-55616857D01*
X275794129Y-55645944D01*
X275798529Y-55675605D01*
X275800000Y-55705555D01*
X275800000Y-57294445D01*
X275798529Y-57324395D01*
X275794129Y-57354056D01*
X275786843Y-57383143D01*
X275776741Y-57411376D01*
X275763920Y-57438483D01*
X275748505Y-57464202D01*
X275730642Y-57488287D01*
X275710505Y-57510505D01*
X275688287Y-57530642D01*
X275664202Y-57548505D01*
X275638483Y-57563920D01*
X275611376Y-57576741D01*
X275583143Y-57586843D01*
X275554056Y-57594129D01*
X275524395Y-57598529D01*
X275494445Y-57600000D01*
X270305555Y-57600000D01*
X270275605Y-57598529D01*
X270245944Y-57594129D01*
X270216857Y-57586843D01*
X270188624Y-57576741D01*
X270161517Y-57563920D01*
X270135798Y-57548505D01*
X270111713Y-57530642D01*
X270089495Y-57510505D01*
X270069358Y-57488287D01*
X270051495Y-57464202D01*
X270036080Y-57438483D01*
X270023259Y-57411376D01*
X270013157Y-57383143D01*
X270005871Y-57354056D01*
X270001471Y-57324395D01*
X270000000Y-57294445D01*
X270000000Y-55705555D01*
X270001471Y-55675605D01*
X270005871Y-55645944D01*
X270013157Y-55616857D01*
X270023259Y-55588624D01*
X270036080Y-55561517D01*
X270051495Y-55535798D01*
X270069358Y-55511713D01*
X270089495Y-55489495D01*
X270111713Y-55469358D01*
X270135798Y-55451495D01*
X270161517Y-55436080D01*
X270188624Y-55423259D01*
X270216857Y-55413157D01*
X270245944Y-55405871D01*
X270275605Y-55401471D01*
X270305555Y-55400000D01*
X275494445Y-55400000D01*
X275524395Y-55401471D01*
X275524395Y-55401471D01*
G37*
D30*
X272900000Y-56500000D03*
D28*
G36*
X261524395Y-55401471D02*
X261554056Y-55405871D01*
X261583143Y-55413157D01*
X261611376Y-55423259D01*
X261638483Y-55436080D01*
X261664202Y-55451495D01*
X261688287Y-55469358D01*
X261710505Y-55489495D01*
X261730642Y-55511713D01*
X261748505Y-55535798D01*
X261763920Y-55561517D01*
X261776741Y-55588624D01*
X261786843Y-55616857D01*
X261794129Y-55645944D01*
X261798529Y-55675605D01*
X261800000Y-55705555D01*
X261800000Y-57294445D01*
X261798529Y-57324395D01*
X261794129Y-57354056D01*
X261786843Y-57383143D01*
X261776741Y-57411376D01*
X261763920Y-57438483D01*
X261748505Y-57464202D01*
X261730642Y-57488287D01*
X261710505Y-57510505D01*
X261688287Y-57530642D01*
X261664202Y-57548505D01*
X261638483Y-57563920D01*
X261611376Y-57576741D01*
X261583143Y-57586843D01*
X261554056Y-57594129D01*
X261524395Y-57598529D01*
X261494445Y-57600000D01*
X256305555Y-57600000D01*
X256275605Y-57598529D01*
X256245944Y-57594129D01*
X256216857Y-57586843D01*
X256188624Y-57576741D01*
X256161517Y-57563920D01*
X256135798Y-57548505D01*
X256111713Y-57530642D01*
X256089495Y-57510505D01*
X256069358Y-57488287D01*
X256051495Y-57464202D01*
X256036080Y-57438483D01*
X256023259Y-57411376D01*
X256013157Y-57383143D01*
X256005871Y-57354056D01*
X256001471Y-57324395D01*
X256000000Y-57294445D01*
X256000000Y-55705555D01*
X256001471Y-55675605D01*
X256005871Y-55645944D01*
X256013157Y-55616857D01*
X256023259Y-55588624D01*
X256036080Y-55561517D01*
X256051495Y-55535798D01*
X256069358Y-55511713D01*
X256089495Y-55489495D01*
X256111713Y-55469358D01*
X256135798Y-55451495D01*
X256161517Y-55436080D01*
X256188624Y-55423259D01*
X256216857Y-55413157D01*
X256245944Y-55405871D01*
X256275605Y-55401471D01*
X256305555Y-55400000D01*
X261494445Y-55400000D01*
X261524395Y-55401471D01*
X261524395Y-55401471D01*
G37*
D30*
X258900000Y-56500000D03*
D28*
G36*
X261524395Y-50301471D02*
X261554056Y-50305871D01*
X261583143Y-50313157D01*
X261611376Y-50323259D01*
X261638483Y-50336080D01*
X261664202Y-50351495D01*
X261688287Y-50369358D01*
X261710505Y-50389495D01*
X261730642Y-50411713D01*
X261748505Y-50435798D01*
X261763920Y-50461517D01*
X261776741Y-50488624D01*
X261786843Y-50516857D01*
X261794129Y-50545944D01*
X261798529Y-50575605D01*
X261800000Y-50605555D01*
X261800000Y-52194445D01*
X261798529Y-52224395D01*
X261794129Y-52254056D01*
X261786843Y-52283143D01*
X261776741Y-52311376D01*
X261763920Y-52338483D01*
X261748505Y-52364202D01*
X261730642Y-52388287D01*
X261710505Y-52410505D01*
X261688287Y-52430642D01*
X261664202Y-52448505D01*
X261638483Y-52463920D01*
X261611376Y-52476741D01*
X261583143Y-52486843D01*
X261554056Y-52494129D01*
X261524395Y-52498529D01*
X261494445Y-52500000D01*
X256305555Y-52500000D01*
X256275605Y-52498529D01*
X256245944Y-52494129D01*
X256216857Y-52486843D01*
X256188624Y-52476741D01*
X256161517Y-52463920D01*
X256135798Y-52448505D01*
X256111713Y-52430642D01*
X256089495Y-52410505D01*
X256069358Y-52388287D01*
X256051495Y-52364202D01*
X256036080Y-52338483D01*
X256023259Y-52311376D01*
X256013157Y-52283143D01*
X256005871Y-52254056D01*
X256001471Y-52224395D01*
X256000000Y-52194445D01*
X256000000Y-50605555D01*
X256001471Y-50575605D01*
X256005871Y-50545944D01*
X256013157Y-50516857D01*
X256023259Y-50488624D01*
X256036080Y-50461517D01*
X256051495Y-50435798D01*
X256069358Y-50411713D01*
X256089495Y-50389495D01*
X256111713Y-50369358D01*
X256135798Y-50351495D01*
X256161517Y-50336080D01*
X256188624Y-50323259D01*
X256216857Y-50313157D01*
X256245944Y-50305871D01*
X256275605Y-50301471D01*
X256305555Y-50300000D01*
X261494445Y-50300000D01*
X261524395Y-50301471D01*
X261524395Y-50301471D01*
G37*
D30*
X258900000Y-51400000D03*
D31*
X180800000Y-140270000D03*
X180800000Y-145150000D03*
X88900000Y-128600000D03*
X84020000Y-128600000D03*
D28*
G36*
X171277444Y-142601655D02*
X171310813Y-142606605D01*
X171343536Y-142614802D01*
X171375298Y-142626166D01*
X171405794Y-142640590D01*
X171434728Y-142657932D01*
X171461824Y-142678028D01*
X171486819Y-142700682D01*
X171509473Y-142725677D01*
X171529569Y-142752773D01*
X171546911Y-142781707D01*
X171561335Y-142812203D01*
X171572699Y-142843965D01*
X171580896Y-142876688D01*
X171585846Y-142910057D01*
X171587501Y-142943750D01*
X171587501Y-144056250D01*
X171585846Y-144089943D01*
X171580896Y-144123312D01*
X171572699Y-144156035D01*
X171561335Y-144187797D01*
X171546911Y-144218293D01*
X171529569Y-144247227D01*
X171509473Y-144274323D01*
X171486819Y-144299318D01*
X171461824Y-144321972D01*
X171434728Y-144342068D01*
X171405794Y-144359410D01*
X171375298Y-144373834D01*
X171343536Y-144385198D01*
X171310813Y-144393395D01*
X171277444Y-144398345D01*
X171243751Y-144400000D01*
X170556251Y-144400000D01*
X170522558Y-144398345D01*
X170489189Y-144393395D01*
X170456466Y-144385198D01*
X170424704Y-144373834D01*
X170394208Y-144359410D01*
X170365274Y-144342068D01*
X170338178Y-144321972D01*
X170313183Y-144299318D01*
X170290529Y-144274323D01*
X170270433Y-144247227D01*
X170253091Y-144218293D01*
X170238667Y-144187797D01*
X170227303Y-144156035D01*
X170219106Y-144123312D01*
X170214156Y-144089943D01*
X170212501Y-144056250D01*
X170212501Y-142943750D01*
X170214156Y-142910057D01*
X170219106Y-142876688D01*
X170227303Y-142843965D01*
X170238667Y-142812203D01*
X170253091Y-142781707D01*
X170270433Y-142752773D01*
X170290529Y-142725677D01*
X170313183Y-142700682D01*
X170338178Y-142678028D01*
X170365274Y-142657932D01*
X170394208Y-142640590D01*
X170424704Y-142626166D01*
X170456466Y-142614802D01*
X170489189Y-142606605D01*
X170522558Y-142601655D01*
X170556251Y-142600000D01*
X171243751Y-142600000D01*
X171277444Y-142601655D01*
X171277444Y-142601655D01*
G37*
D29*
X170900001Y-143500000D03*
D28*
G36*
X173152444Y-142601655D02*
X173185813Y-142606605D01*
X173218536Y-142614802D01*
X173250298Y-142626166D01*
X173280794Y-142640590D01*
X173309728Y-142657932D01*
X173336824Y-142678028D01*
X173361819Y-142700682D01*
X173384473Y-142725677D01*
X173404569Y-142752773D01*
X173421911Y-142781707D01*
X173436335Y-142812203D01*
X173447699Y-142843965D01*
X173455896Y-142876688D01*
X173460846Y-142910057D01*
X173462501Y-142943750D01*
X173462501Y-144056250D01*
X173460846Y-144089943D01*
X173455896Y-144123312D01*
X173447699Y-144156035D01*
X173436335Y-144187797D01*
X173421911Y-144218293D01*
X173404569Y-144247227D01*
X173384473Y-144274323D01*
X173361819Y-144299318D01*
X173336824Y-144321972D01*
X173309728Y-144342068D01*
X173280794Y-144359410D01*
X173250298Y-144373834D01*
X173218536Y-144385198D01*
X173185813Y-144393395D01*
X173152444Y-144398345D01*
X173118751Y-144400000D01*
X172431251Y-144400000D01*
X172397558Y-144398345D01*
X172364189Y-144393395D01*
X172331466Y-144385198D01*
X172299704Y-144373834D01*
X172269208Y-144359410D01*
X172240274Y-144342068D01*
X172213178Y-144321972D01*
X172188183Y-144299318D01*
X172165529Y-144274323D01*
X172145433Y-144247227D01*
X172128091Y-144218293D01*
X172113667Y-144187797D01*
X172102303Y-144156035D01*
X172094106Y-144123312D01*
X172089156Y-144089943D01*
X172087501Y-144056250D01*
X172087501Y-142943750D01*
X172089156Y-142910057D01*
X172094106Y-142876688D01*
X172102303Y-142843965D01*
X172113667Y-142812203D01*
X172128091Y-142781707D01*
X172145433Y-142752773D01*
X172165529Y-142725677D01*
X172188183Y-142700682D01*
X172213178Y-142678028D01*
X172240274Y-142657932D01*
X172269208Y-142640590D01*
X172299704Y-142626166D01*
X172331466Y-142614802D01*
X172364189Y-142606605D01*
X172397558Y-142601655D01*
X172431251Y-142600000D01*
X173118751Y-142600000D01*
X173152444Y-142601655D01*
X173152444Y-142601655D01*
G37*
D29*
X172775001Y-143500000D03*
D28*
G36*
X165489943Y-136251655D02*
X165523312Y-136256605D01*
X165556035Y-136264802D01*
X165587797Y-136276166D01*
X165618293Y-136290590D01*
X165647227Y-136307932D01*
X165674323Y-136328028D01*
X165699318Y-136350682D01*
X165721972Y-136375677D01*
X165742068Y-136402773D01*
X165759410Y-136431707D01*
X165773834Y-136462203D01*
X165785198Y-136493965D01*
X165793395Y-136526688D01*
X165798345Y-136560057D01*
X165800000Y-136593750D01*
X165800000Y-137281250D01*
X165798345Y-137314943D01*
X165793395Y-137348312D01*
X165785198Y-137381035D01*
X165773834Y-137412797D01*
X165759410Y-137443293D01*
X165742068Y-137472227D01*
X165721972Y-137499323D01*
X165699318Y-137524318D01*
X165674323Y-137546972D01*
X165647227Y-137567068D01*
X165618293Y-137584410D01*
X165587797Y-137598834D01*
X165556035Y-137610198D01*
X165523312Y-137618395D01*
X165489943Y-137623345D01*
X165456250Y-137625000D01*
X164343750Y-137625000D01*
X164310057Y-137623345D01*
X164276688Y-137618395D01*
X164243965Y-137610198D01*
X164212203Y-137598834D01*
X164181707Y-137584410D01*
X164152773Y-137567068D01*
X164125677Y-137546972D01*
X164100682Y-137524318D01*
X164078028Y-137499323D01*
X164057932Y-137472227D01*
X164040590Y-137443293D01*
X164026166Y-137412797D01*
X164014802Y-137381035D01*
X164006605Y-137348312D01*
X164001655Y-137314943D01*
X164000000Y-137281250D01*
X164000000Y-136593750D01*
X164001655Y-136560057D01*
X164006605Y-136526688D01*
X164014802Y-136493965D01*
X164026166Y-136462203D01*
X164040590Y-136431707D01*
X164057932Y-136402773D01*
X164078028Y-136375677D01*
X164100682Y-136350682D01*
X164125677Y-136328028D01*
X164152773Y-136307932D01*
X164181707Y-136290590D01*
X164212203Y-136276166D01*
X164243965Y-136264802D01*
X164276688Y-136256605D01*
X164310057Y-136251655D01*
X164343750Y-136250000D01*
X165456250Y-136250000D01*
X165489943Y-136251655D01*
X165489943Y-136251655D01*
G37*
D29*
X164900000Y-136937500D03*
D28*
G36*
X165489943Y-134376655D02*
X165523312Y-134381605D01*
X165556035Y-134389802D01*
X165587797Y-134401166D01*
X165618293Y-134415590D01*
X165647227Y-134432932D01*
X165674323Y-134453028D01*
X165699318Y-134475682D01*
X165721972Y-134500677D01*
X165742068Y-134527773D01*
X165759410Y-134556707D01*
X165773834Y-134587203D01*
X165785198Y-134618965D01*
X165793395Y-134651688D01*
X165798345Y-134685057D01*
X165800000Y-134718750D01*
X165800000Y-135406250D01*
X165798345Y-135439943D01*
X165793395Y-135473312D01*
X165785198Y-135506035D01*
X165773834Y-135537797D01*
X165759410Y-135568293D01*
X165742068Y-135597227D01*
X165721972Y-135624323D01*
X165699318Y-135649318D01*
X165674323Y-135671972D01*
X165647227Y-135692068D01*
X165618293Y-135709410D01*
X165587797Y-135723834D01*
X165556035Y-135735198D01*
X165523312Y-135743395D01*
X165489943Y-135748345D01*
X165456250Y-135750000D01*
X164343750Y-135750000D01*
X164310057Y-135748345D01*
X164276688Y-135743395D01*
X164243965Y-135735198D01*
X164212203Y-135723834D01*
X164181707Y-135709410D01*
X164152773Y-135692068D01*
X164125677Y-135671972D01*
X164100682Y-135649318D01*
X164078028Y-135624323D01*
X164057932Y-135597227D01*
X164040590Y-135568293D01*
X164026166Y-135537797D01*
X164014802Y-135506035D01*
X164006605Y-135473312D01*
X164001655Y-135439943D01*
X164000000Y-135406250D01*
X164000000Y-134718750D01*
X164001655Y-134685057D01*
X164006605Y-134651688D01*
X164014802Y-134618965D01*
X164026166Y-134587203D01*
X164040590Y-134556707D01*
X164057932Y-134527773D01*
X164078028Y-134500677D01*
X164100682Y-134475682D01*
X164125677Y-134453028D01*
X164152773Y-134432932D01*
X164181707Y-134415590D01*
X164212203Y-134401166D01*
X164243965Y-134389802D01*
X164276688Y-134381605D01*
X164310057Y-134376655D01*
X164343750Y-134375000D01*
X165456250Y-134375000D01*
X165489943Y-134376655D01*
X165489943Y-134376655D01*
G37*
D29*
X164900000Y-135062500D03*
D32*
X69600000Y-160500000D03*
X64520000Y-160500000D03*
X59440000Y-160500000D03*
D33*
X56900000Y-160500000D03*
D34*
X20920000Y-146770000D03*
D35*
X18380000Y-146770000D03*
D22*
X19650000Y-115040000D03*
X19650000Y-155640000D03*
D35*
X20920000Y-144230000D03*
X18380000Y-144230000D03*
X20920000Y-139150000D03*
X18380000Y-139150000D03*
X20920000Y-136610000D03*
X18380000Y-136610000D03*
X20920000Y-134070000D03*
X18380000Y-134070000D03*
X20920000Y-131530000D03*
X18380000Y-131530000D03*
X20920000Y-128990000D03*
X18380000Y-128990000D03*
X20920000Y-126450000D03*
X18380000Y-126450000D03*
X20920000Y-123910000D03*
X18380000Y-123910000D03*
D27*
X209540000Y-71500000D03*
X215000000Y-71500000D03*
X220460000Y-71500000D03*
D13*
X135380000Y-60300000D03*
D12*
X133100000Y-67700000D03*
X137680000Y-67700000D03*
D36*
X125005000Y-77400000D03*
X123735000Y-77400000D03*
X122465000Y-77400000D03*
X121195000Y-77400000D03*
X121195000Y-72000000D03*
X122465000Y-72000000D03*
X123735000Y-72000000D03*
X125005000Y-72000000D03*
D37*
X47400000Y-69500000D03*
X43400000Y-69500000D03*
D28*
G36*
X43189943Y-75376655D02*
X43223312Y-75381605D01*
X43256035Y-75389802D01*
X43287797Y-75401166D01*
X43318293Y-75415590D01*
X43347227Y-75432932D01*
X43374323Y-75453028D01*
X43399318Y-75475682D01*
X43421972Y-75500677D01*
X43442068Y-75527773D01*
X43459410Y-75556707D01*
X43473834Y-75587203D01*
X43485198Y-75618965D01*
X43493395Y-75651688D01*
X43498345Y-75685057D01*
X43500000Y-75718750D01*
X43500000Y-76406250D01*
X43498345Y-76439943D01*
X43493395Y-76473312D01*
X43485198Y-76506035D01*
X43473834Y-76537797D01*
X43459410Y-76568293D01*
X43442068Y-76597227D01*
X43421972Y-76624323D01*
X43399318Y-76649318D01*
X43374323Y-76671972D01*
X43347227Y-76692068D01*
X43318293Y-76709410D01*
X43287797Y-76723834D01*
X43256035Y-76735198D01*
X43223312Y-76743395D01*
X43189943Y-76748345D01*
X43156250Y-76750000D01*
X42043750Y-76750000D01*
X42010057Y-76748345D01*
X41976688Y-76743395D01*
X41943965Y-76735198D01*
X41912203Y-76723834D01*
X41881707Y-76709410D01*
X41852773Y-76692068D01*
X41825677Y-76671972D01*
X41800682Y-76649318D01*
X41778028Y-76624323D01*
X41757932Y-76597227D01*
X41740590Y-76568293D01*
X41726166Y-76537797D01*
X41714802Y-76506035D01*
X41706605Y-76473312D01*
X41701655Y-76439943D01*
X41700000Y-76406250D01*
X41700000Y-75718750D01*
X41701655Y-75685057D01*
X41706605Y-75651688D01*
X41714802Y-75618965D01*
X41726166Y-75587203D01*
X41740590Y-75556707D01*
X41757932Y-75527773D01*
X41778028Y-75500677D01*
X41800682Y-75475682D01*
X41825677Y-75453028D01*
X41852773Y-75432932D01*
X41881707Y-75415590D01*
X41912203Y-75401166D01*
X41943965Y-75389802D01*
X41976688Y-75381605D01*
X42010057Y-75376655D01*
X42043750Y-75375000D01*
X43156250Y-75375000D01*
X43189943Y-75376655D01*
X43189943Y-75376655D01*
G37*
D29*
X42600000Y-76062500D03*
D28*
G36*
X43189943Y-77251655D02*
X43223312Y-77256605D01*
X43256035Y-77264802D01*
X43287797Y-77276166D01*
X43318293Y-77290590D01*
X43347227Y-77307932D01*
X43374323Y-77328028D01*
X43399318Y-77350682D01*
X43421972Y-77375677D01*
X43442068Y-77402773D01*
X43459410Y-77431707D01*
X43473834Y-77462203D01*
X43485198Y-77493965D01*
X43493395Y-77526688D01*
X43498345Y-77560057D01*
X43500000Y-77593750D01*
X43500000Y-78281250D01*
X43498345Y-78314943D01*
X43493395Y-78348312D01*
X43485198Y-78381035D01*
X43473834Y-78412797D01*
X43459410Y-78443293D01*
X43442068Y-78472227D01*
X43421972Y-78499323D01*
X43399318Y-78524318D01*
X43374323Y-78546972D01*
X43347227Y-78567068D01*
X43318293Y-78584410D01*
X43287797Y-78598834D01*
X43256035Y-78610198D01*
X43223312Y-78618395D01*
X43189943Y-78623345D01*
X43156250Y-78625000D01*
X42043750Y-78625000D01*
X42010057Y-78623345D01*
X41976688Y-78618395D01*
X41943965Y-78610198D01*
X41912203Y-78598834D01*
X41881707Y-78584410D01*
X41852773Y-78567068D01*
X41825677Y-78546972D01*
X41800682Y-78524318D01*
X41778028Y-78499323D01*
X41757932Y-78472227D01*
X41740590Y-78443293D01*
X41726166Y-78412797D01*
X41714802Y-78381035D01*
X41706605Y-78348312D01*
X41701655Y-78314943D01*
X41700000Y-78281250D01*
X41700000Y-77593750D01*
X41701655Y-77560057D01*
X41706605Y-77526688D01*
X41714802Y-77493965D01*
X41726166Y-77462203D01*
X41740590Y-77431707D01*
X41757932Y-77402773D01*
X41778028Y-77375677D01*
X41800682Y-77350682D01*
X41825677Y-77328028D01*
X41852773Y-77307932D01*
X41881707Y-77290590D01*
X41912203Y-77276166D01*
X41943965Y-77264802D01*
X41976688Y-77256605D01*
X42010057Y-77251655D01*
X42043750Y-77250000D01*
X43156250Y-77250000D01*
X43189943Y-77251655D01*
X43189943Y-77251655D01*
G37*
D29*
X42600000Y-77937500D03*
D28*
G36*
X46402443Y-65601655D02*
X46435812Y-65606605D01*
X46468535Y-65614802D01*
X46500297Y-65626166D01*
X46530793Y-65640590D01*
X46559727Y-65657932D01*
X46586823Y-65678028D01*
X46611818Y-65700682D01*
X46634472Y-65725677D01*
X46654568Y-65752773D01*
X46671910Y-65781707D01*
X46686334Y-65812203D01*
X46697698Y-65843965D01*
X46705895Y-65876688D01*
X46710845Y-65910057D01*
X46712500Y-65943750D01*
X46712500Y-67056250D01*
X46710845Y-67089943D01*
X46705895Y-67123312D01*
X46697698Y-67156035D01*
X46686334Y-67187797D01*
X46671910Y-67218293D01*
X46654568Y-67247227D01*
X46634472Y-67274323D01*
X46611818Y-67299318D01*
X46586823Y-67321972D01*
X46559727Y-67342068D01*
X46530793Y-67359410D01*
X46500297Y-67373834D01*
X46468535Y-67385198D01*
X46435812Y-67393395D01*
X46402443Y-67398345D01*
X46368750Y-67400000D01*
X45681250Y-67400000D01*
X45647557Y-67398345D01*
X45614188Y-67393395D01*
X45581465Y-67385198D01*
X45549703Y-67373834D01*
X45519207Y-67359410D01*
X45490273Y-67342068D01*
X45463177Y-67321972D01*
X45438182Y-67299318D01*
X45415528Y-67274323D01*
X45395432Y-67247227D01*
X45378090Y-67218293D01*
X45363666Y-67187797D01*
X45352302Y-67156035D01*
X45344105Y-67123312D01*
X45339155Y-67089943D01*
X45337500Y-67056250D01*
X45337500Y-65943750D01*
X45339155Y-65910057D01*
X45344105Y-65876688D01*
X45352302Y-65843965D01*
X45363666Y-65812203D01*
X45378090Y-65781707D01*
X45395432Y-65752773D01*
X45415528Y-65725677D01*
X45438182Y-65700682D01*
X45463177Y-65678028D01*
X45490273Y-65657932D01*
X45519207Y-65640590D01*
X45549703Y-65626166D01*
X45581465Y-65614802D01*
X45614188Y-65606605D01*
X45647557Y-65601655D01*
X45681250Y-65600000D01*
X46368750Y-65600000D01*
X46402443Y-65601655D01*
X46402443Y-65601655D01*
G37*
D29*
X46025000Y-66500000D03*
D28*
G36*
X48277443Y-65601655D02*
X48310812Y-65606605D01*
X48343535Y-65614802D01*
X48375297Y-65626166D01*
X48405793Y-65640590D01*
X48434727Y-65657932D01*
X48461823Y-65678028D01*
X48486818Y-65700682D01*
X48509472Y-65725677D01*
X48529568Y-65752773D01*
X48546910Y-65781707D01*
X48561334Y-65812203D01*
X48572698Y-65843965D01*
X48580895Y-65876688D01*
X48585845Y-65910057D01*
X48587500Y-65943750D01*
X48587500Y-67056250D01*
X48585845Y-67089943D01*
X48580895Y-67123312D01*
X48572698Y-67156035D01*
X48561334Y-67187797D01*
X48546910Y-67218293D01*
X48529568Y-67247227D01*
X48509472Y-67274323D01*
X48486818Y-67299318D01*
X48461823Y-67321972D01*
X48434727Y-67342068D01*
X48405793Y-67359410D01*
X48375297Y-67373834D01*
X48343535Y-67385198D01*
X48310812Y-67393395D01*
X48277443Y-67398345D01*
X48243750Y-67400000D01*
X47556250Y-67400000D01*
X47522557Y-67398345D01*
X47489188Y-67393395D01*
X47456465Y-67385198D01*
X47424703Y-67373834D01*
X47394207Y-67359410D01*
X47365273Y-67342068D01*
X47338177Y-67321972D01*
X47313182Y-67299318D01*
X47290528Y-67274323D01*
X47270432Y-67247227D01*
X47253090Y-67218293D01*
X47238666Y-67187797D01*
X47227302Y-67156035D01*
X47219105Y-67123312D01*
X47214155Y-67089943D01*
X47212500Y-67056250D01*
X47212500Y-65943750D01*
X47214155Y-65910057D01*
X47219105Y-65876688D01*
X47227302Y-65843965D01*
X47238666Y-65812203D01*
X47253090Y-65781707D01*
X47270432Y-65752773D01*
X47290528Y-65725677D01*
X47313182Y-65700682D01*
X47338177Y-65678028D01*
X47365273Y-65657932D01*
X47394207Y-65640590D01*
X47424703Y-65626166D01*
X47456465Y-65614802D01*
X47489188Y-65606605D01*
X47522557Y-65601655D01*
X47556250Y-65600000D01*
X48243750Y-65600000D01*
X48277443Y-65601655D01*
X48277443Y-65601655D01*
G37*
D29*
X47900000Y-66500000D03*
D28*
G36*
X120189943Y-74939154D02*
X120223312Y-74944104D01*
X120256035Y-74952301D01*
X120287797Y-74963665D01*
X120318293Y-74978089D01*
X120347227Y-74995431D01*
X120374323Y-75015527D01*
X120399318Y-75038181D01*
X120421972Y-75063176D01*
X120442068Y-75090272D01*
X120459410Y-75119206D01*
X120473834Y-75149702D01*
X120485198Y-75181464D01*
X120493395Y-75214187D01*
X120498345Y-75247556D01*
X120500000Y-75281249D01*
X120500000Y-75968749D01*
X120498345Y-76002442D01*
X120493395Y-76035811D01*
X120485198Y-76068534D01*
X120473834Y-76100296D01*
X120459410Y-76130792D01*
X120442068Y-76159726D01*
X120421972Y-76186822D01*
X120399318Y-76211817D01*
X120374323Y-76234471D01*
X120347227Y-76254567D01*
X120318293Y-76271909D01*
X120287797Y-76286333D01*
X120256035Y-76297697D01*
X120223312Y-76305894D01*
X120189943Y-76310844D01*
X120156250Y-76312499D01*
X119043750Y-76312499D01*
X119010057Y-76310844D01*
X118976688Y-76305894D01*
X118943965Y-76297697D01*
X118912203Y-76286333D01*
X118881707Y-76271909D01*
X118852773Y-76254567D01*
X118825677Y-76234471D01*
X118800682Y-76211817D01*
X118778028Y-76186822D01*
X118757932Y-76159726D01*
X118740590Y-76130792D01*
X118726166Y-76100296D01*
X118714802Y-76068534D01*
X118706605Y-76035811D01*
X118701655Y-76002442D01*
X118700000Y-75968749D01*
X118700000Y-75281249D01*
X118701655Y-75247556D01*
X118706605Y-75214187D01*
X118714802Y-75181464D01*
X118726166Y-75149702D01*
X118740590Y-75119206D01*
X118757932Y-75090272D01*
X118778028Y-75063176D01*
X118800682Y-75038181D01*
X118825677Y-75015527D01*
X118852773Y-74995431D01*
X118881707Y-74978089D01*
X118912203Y-74963665D01*
X118943965Y-74952301D01*
X118976688Y-74944104D01*
X119010057Y-74939154D01*
X119043750Y-74937499D01*
X120156250Y-74937499D01*
X120189943Y-74939154D01*
X120189943Y-74939154D01*
G37*
D29*
X119600000Y-75624999D03*
D28*
G36*
X120189943Y-76814154D02*
X120223312Y-76819104D01*
X120256035Y-76827301D01*
X120287797Y-76838665D01*
X120318293Y-76853089D01*
X120347227Y-76870431D01*
X120374323Y-76890527D01*
X120399318Y-76913181D01*
X120421972Y-76938176D01*
X120442068Y-76965272D01*
X120459410Y-76994206D01*
X120473834Y-77024702D01*
X120485198Y-77056464D01*
X120493395Y-77089187D01*
X120498345Y-77122556D01*
X120500000Y-77156249D01*
X120500000Y-77843749D01*
X120498345Y-77877442D01*
X120493395Y-77910811D01*
X120485198Y-77943534D01*
X120473834Y-77975296D01*
X120459410Y-78005792D01*
X120442068Y-78034726D01*
X120421972Y-78061822D01*
X120399318Y-78086817D01*
X120374323Y-78109471D01*
X120347227Y-78129567D01*
X120318293Y-78146909D01*
X120287797Y-78161333D01*
X120256035Y-78172697D01*
X120223312Y-78180894D01*
X120189943Y-78185844D01*
X120156250Y-78187499D01*
X119043750Y-78187499D01*
X119010057Y-78185844D01*
X118976688Y-78180894D01*
X118943965Y-78172697D01*
X118912203Y-78161333D01*
X118881707Y-78146909D01*
X118852773Y-78129567D01*
X118825677Y-78109471D01*
X118800682Y-78086817D01*
X118778028Y-78061822D01*
X118757932Y-78034726D01*
X118740590Y-78005792D01*
X118726166Y-77975296D01*
X118714802Y-77943534D01*
X118706605Y-77910811D01*
X118701655Y-77877442D01*
X118700000Y-77843749D01*
X118700000Y-77156249D01*
X118701655Y-77122556D01*
X118706605Y-77089187D01*
X118714802Y-77056464D01*
X118726166Y-77024702D01*
X118740590Y-76994206D01*
X118757932Y-76965272D01*
X118778028Y-76938176D01*
X118800682Y-76913181D01*
X118825677Y-76890527D01*
X118852773Y-76870431D01*
X118881707Y-76853089D01*
X118912203Y-76838665D01*
X118943965Y-76827301D01*
X118976688Y-76819104D01*
X119010057Y-76814154D01*
X119043750Y-76812499D01*
X120156250Y-76812499D01*
X120189943Y-76814154D01*
X120189943Y-76814154D01*
G37*
D29*
X119600000Y-77499999D03*
D37*
X120400000Y-69000000D03*
X124400000Y-69000000D03*
X201400000Y-69000000D03*
X197400000Y-69000000D03*
D27*
X239940000Y-74000000D03*
X245400000Y-74000000D03*
X250860000Y-74000000D03*
X173910000Y-73900000D03*
X168450000Y-73900000D03*
X162990000Y-73900000D03*
X143370000Y-71460000D03*
X137910000Y-71460000D03*
X132450000Y-71460000D03*
X55540000Y-71500000D03*
X61000000Y-71500000D03*
X66460000Y-71500000D03*
D13*
X243100000Y-63700000D03*
D12*
X240820000Y-71100000D03*
X245400000Y-71100000D03*
D27*
X230980000Y-43500000D03*
X236440000Y-43500000D03*
X241900000Y-43500000D03*
X204340000Y-43500000D03*
X209800000Y-43500000D03*
X215260000Y-43500000D03*
X138160000Y-43500000D03*
X132700000Y-43500000D03*
X127240000Y-43500000D03*
X87060000Y-43600000D03*
X81600000Y-43600000D03*
X76140000Y-43600000D03*
D28*
G36*
X21524395Y-55551471D02*
X21554056Y-55555871D01*
X21583143Y-55563157D01*
X21611376Y-55573259D01*
X21638483Y-55586080D01*
X21664202Y-55601495D01*
X21688287Y-55619358D01*
X21710505Y-55639495D01*
X21730642Y-55661713D01*
X21748505Y-55685798D01*
X21763920Y-55711517D01*
X21776741Y-55738624D01*
X21786843Y-55766857D01*
X21794129Y-55795944D01*
X21798529Y-55825605D01*
X21800000Y-55855555D01*
X21800000Y-57444445D01*
X21798529Y-57474395D01*
X21794129Y-57504056D01*
X21786843Y-57533143D01*
X21776741Y-57561376D01*
X21763920Y-57588483D01*
X21748505Y-57614202D01*
X21730642Y-57638287D01*
X21710505Y-57660505D01*
X21688287Y-57680642D01*
X21664202Y-57698505D01*
X21638483Y-57713920D01*
X21611376Y-57726741D01*
X21583143Y-57736843D01*
X21554056Y-57744129D01*
X21524395Y-57748529D01*
X21494445Y-57750000D01*
X16305555Y-57750000D01*
X16275605Y-57748529D01*
X16245944Y-57744129D01*
X16216857Y-57736843D01*
X16188624Y-57726741D01*
X16161517Y-57713920D01*
X16135798Y-57698505D01*
X16111713Y-57680642D01*
X16089495Y-57660505D01*
X16069358Y-57638287D01*
X16051495Y-57614202D01*
X16036080Y-57588483D01*
X16023259Y-57561376D01*
X16013157Y-57533143D01*
X16005871Y-57504056D01*
X16001471Y-57474395D01*
X16000000Y-57444445D01*
X16000000Y-55855555D01*
X16001471Y-55825605D01*
X16005871Y-55795944D01*
X16013157Y-55766857D01*
X16023259Y-55738624D01*
X16036080Y-55711517D01*
X16051495Y-55685798D01*
X16069358Y-55661713D01*
X16089495Y-55639495D01*
X16111713Y-55619358D01*
X16135798Y-55601495D01*
X16161517Y-55586080D01*
X16188624Y-55573259D01*
X16216857Y-55563157D01*
X16245944Y-55555871D01*
X16275605Y-55551471D01*
X16305555Y-55550000D01*
X21494445Y-55550000D01*
X21524395Y-55551471D01*
X21524395Y-55551471D01*
G37*
D30*
X18900000Y-56650000D03*
D28*
G36*
X21524395Y-50451471D02*
X21554056Y-50455871D01*
X21583143Y-50463157D01*
X21611376Y-50473259D01*
X21638483Y-50486080D01*
X21664202Y-50501495D01*
X21688287Y-50519358D01*
X21710505Y-50539495D01*
X21730642Y-50561713D01*
X21748505Y-50585798D01*
X21763920Y-50611517D01*
X21776741Y-50638624D01*
X21786843Y-50666857D01*
X21794129Y-50695944D01*
X21798529Y-50725605D01*
X21800000Y-50755555D01*
X21800000Y-52344445D01*
X21798529Y-52374395D01*
X21794129Y-52404056D01*
X21786843Y-52433143D01*
X21776741Y-52461376D01*
X21763920Y-52488483D01*
X21748505Y-52514202D01*
X21730642Y-52538287D01*
X21710505Y-52560505D01*
X21688287Y-52580642D01*
X21664202Y-52598505D01*
X21638483Y-52613920D01*
X21611376Y-52626741D01*
X21583143Y-52636843D01*
X21554056Y-52644129D01*
X21524395Y-52648529D01*
X21494445Y-52650000D01*
X16305555Y-52650000D01*
X16275605Y-52648529D01*
X16245944Y-52644129D01*
X16216857Y-52636843D01*
X16188624Y-52626741D01*
X16161517Y-52613920D01*
X16135798Y-52598505D01*
X16111713Y-52580642D01*
X16089495Y-52560505D01*
X16069358Y-52538287D01*
X16051495Y-52514202D01*
X16036080Y-52488483D01*
X16023259Y-52461376D01*
X16013157Y-52433143D01*
X16005871Y-52404056D01*
X16001471Y-52374395D01*
X16000000Y-52344445D01*
X16000000Y-50755555D01*
X16001471Y-50725605D01*
X16005871Y-50695944D01*
X16013157Y-50666857D01*
X16023259Y-50638624D01*
X16036080Y-50611517D01*
X16051495Y-50585798D01*
X16069358Y-50561713D01*
X16089495Y-50539495D01*
X16111713Y-50519358D01*
X16135798Y-50501495D01*
X16161517Y-50486080D01*
X16188624Y-50473259D01*
X16216857Y-50463157D01*
X16245944Y-50455871D01*
X16275605Y-50451471D01*
X16305555Y-50450000D01*
X21494445Y-50450000D01*
X21524395Y-50451471D01*
X21524395Y-50451471D01*
G37*
D30*
X18900000Y-51550000D03*
D28*
G36*
X41524395Y-55551471D02*
X41554056Y-55555871D01*
X41583143Y-55563157D01*
X41611376Y-55573259D01*
X41638483Y-55586080D01*
X41664202Y-55601495D01*
X41688287Y-55619358D01*
X41710505Y-55639495D01*
X41730642Y-55661713D01*
X41748505Y-55685798D01*
X41763920Y-55711517D01*
X41776741Y-55738624D01*
X41786843Y-55766857D01*
X41794129Y-55795944D01*
X41798529Y-55825605D01*
X41800000Y-55855555D01*
X41800000Y-57444445D01*
X41798529Y-57474395D01*
X41794129Y-57504056D01*
X41786843Y-57533143D01*
X41776741Y-57561376D01*
X41763920Y-57588483D01*
X41748505Y-57614202D01*
X41730642Y-57638287D01*
X41710505Y-57660505D01*
X41688287Y-57680642D01*
X41664202Y-57698505D01*
X41638483Y-57713920D01*
X41611376Y-57726741D01*
X41583143Y-57736843D01*
X41554056Y-57744129D01*
X41524395Y-57748529D01*
X41494445Y-57750000D01*
X36305555Y-57750000D01*
X36275605Y-57748529D01*
X36245944Y-57744129D01*
X36216857Y-57736843D01*
X36188624Y-57726741D01*
X36161517Y-57713920D01*
X36135798Y-57698505D01*
X36111713Y-57680642D01*
X36089495Y-57660505D01*
X36069358Y-57638287D01*
X36051495Y-57614202D01*
X36036080Y-57588483D01*
X36023259Y-57561376D01*
X36013157Y-57533143D01*
X36005871Y-57504056D01*
X36001471Y-57474395D01*
X36000000Y-57444445D01*
X36000000Y-55855555D01*
X36001471Y-55825605D01*
X36005871Y-55795944D01*
X36013157Y-55766857D01*
X36023259Y-55738624D01*
X36036080Y-55711517D01*
X36051495Y-55685798D01*
X36069358Y-55661713D01*
X36089495Y-55639495D01*
X36111713Y-55619358D01*
X36135798Y-55601495D01*
X36161517Y-55586080D01*
X36188624Y-55573259D01*
X36216857Y-55563157D01*
X36245944Y-55555871D01*
X36275605Y-55551471D01*
X36305555Y-55550000D01*
X41494445Y-55550000D01*
X41524395Y-55551471D01*
X41524395Y-55551471D01*
G37*
D30*
X38900000Y-56650000D03*
D28*
G36*
X41524395Y-50451471D02*
X41554056Y-50455871D01*
X41583143Y-50463157D01*
X41611376Y-50473259D01*
X41638483Y-50486080D01*
X41664202Y-50501495D01*
X41688287Y-50519358D01*
X41710505Y-50539495D01*
X41730642Y-50561713D01*
X41748505Y-50585798D01*
X41763920Y-50611517D01*
X41776741Y-50638624D01*
X41786843Y-50666857D01*
X41794129Y-50695944D01*
X41798529Y-50725605D01*
X41800000Y-50755555D01*
X41800000Y-52344445D01*
X41798529Y-52374395D01*
X41794129Y-52404056D01*
X41786843Y-52433143D01*
X41776741Y-52461376D01*
X41763920Y-52488483D01*
X41748505Y-52514202D01*
X41730642Y-52538287D01*
X41710505Y-52560505D01*
X41688287Y-52580642D01*
X41664202Y-52598505D01*
X41638483Y-52613920D01*
X41611376Y-52626741D01*
X41583143Y-52636843D01*
X41554056Y-52644129D01*
X41524395Y-52648529D01*
X41494445Y-52650000D01*
X36305555Y-52650000D01*
X36275605Y-52648529D01*
X36245944Y-52644129D01*
X36216857Y-52636843D01*
X36188624Y-52626741D01*
X36161517Y-52613920D01*
X36135798Y-52598505D01*
X36111713Y-52580642D01*
X36089495Y-52560505D01*
X36069358Y-52538287D01*
X36051495Y-52514202D01*
X36036080Y-52488483D01*
X36023259Y-52461376D01*
X36013157Y-52433143D01*
X36005871Y-52404056D01*
X36001471Y-52374395D01*
X36000000Y-52344445D01*
X36000000Y-50755555D01*
X36001471Y-50725605D01*
X36005871Y-50695944D01*
X36013157Y-50666857D01*
X36023259Y-50638624D01*
X36036080Y-50611517D01*
X36051495Y-50585798D01*
X36069358Y-50561713D01*
X36089495Y-50539495D01*
X36111713Y-50519358D01*
X36135798Y-50501495D01*
X36161517Y-50486080D01*
X36188624Y-50473259D01*
X36216857Y-50463157D01*
X36245944Y-50455871D01*
X36275605Y-50451471D01*
X36305555Y-50450000D01*
X41494445Y-50450000D01*
X41524395Y-50451471D01*
X41524395Y-50451471D01*
G37*
D30*
X38900000Y-51550000D03*
D12*
X60500000Y-67675000D03*
X55920000Y-67675000D03*
D13*
X58200000Y-60275000D03*
X89180000Y-63900000D03*
D12*
X86900000Y-71300000D03*
X91480000Y-71300000D03*
D27*
X86350000Y-73950000D03*
X91810000Y-73950000D03*
X97270000Y-73950000D03*
X50040000Y-43500000D03*
X55500000Y-43500000D03*
X60960000Y-43500000D03*
D28*
G36*
X197189943Y-76851655D02*
X197223312Y-76856605D01*
X197256035Y-76864802D01*
X197287797Y-76876166D01*
X197318293Y-76890590D01*
X197347227Y-76907932D01*
X197374323Y-76928028D01*
X197399318Y-76950682D01*
X197421972Y-76975677D01*
X197442068Y-77002773D01*
X197459410Y-77031707D01*
X197473834Y-77062203D01*
X197485198Y-77093965D01*
X197493395Y-77126688D01*
X197498345Y-77160057D01*
X197500000Y-77193750D01*
X197500000Y-77881250D01*
X197498345Y-77914943D01*
X197493395Y-77948312D01*
X197485198Y-77981035D01*
X197473834Y-78012797D01*
X197459410Y-78043293D01*
X197442068Y-78072227D01*
X197421972Y-78099323D01*
X197399318Y-78124318D01*
X197374323Y-78146972D01*
X197347227Y-78167068D01*
X197318293Y-78184410D01*
X197287797Y-78198834D01*
X197256035Y-78210198D01*
X197223312Y-78218395D01*
X197189943Y-78223345D01*
X197156250Y-78225000D01*
X196043750Y-78225000D01*
X196010057Y-78223345D01*
X195976688Y-78218395D01*
X195943965Y-78210198D01*
X195912203Y-78198834D01*
X195881707Y-78184410D01*
X195852773Y-78167068D01*
X195825677Y-78146972D01*
X195800682Y-78124318D01*
X195778028Y-78099323D01*
X195757932Y-78072227D01*
X195740590Y-78043293D01*
X195726166Y-78012797D01*
X195714802Y-77981035D01*
X195706605Y-77948312D01*
X195701655Y-77914943D01*
X195700000Y-77881250D01*
X195700000Y-77193750D01*
X195701655Y-77160057D01*
X195706605Y-77126688D01*
X195714802Y-77093965D01*
X195726166Y-77062203D01*
X195740590Y-77031707D01*
X195757932Y-77002773D01*
X195778028Y-76975677D01*
X195800682Y-76950682D01*
X195825677Y-76928028D01*
X195852773Y-76907932D01*
X195881707Y-76890590D01*
X195912203Y-76876166D01*
X195943965Y-76864802D01*
X195976688Y-76856605D01*
X196010057Y-76851655D01*
X196043750Y-76850000D01*
X197156250Y-76850000D01*
X197189943Y-76851655D01*
X197189943Y-76851655D01*
G37*
D29*
X196600000Y-77537500D03*
D28*
G36*
X197189943Y-74976655D02*
X197223312Y-74981605D01*
X197256035Y-74989802D01*
X197287797Y-75001166D01*
X197318293Y-75015590D01*
X197347227Y-75032932D01*
X197374323Y-75053028D01*
X197399318Y-75075682D01*
X197421972Y-75100677D01*
X197442068Y-75127773D01*
X197459410Y-75156707D01*
X197473834Y-75187203D01*
X197485198Y-75218965D01*
X197493395Y-75251688D01*
X197498345Y-75285057D01*
X197500000Y-75318750D01*
X197500000Y-76006250D01*
X197498345Y-76039943D01*
X197493395Y-76073312D01*
X197485198Y-76106035D01*
X197473834Y-76137797D01*
X197459410Y-76168293D01*
X197442068Y-76197227D01*
X197421972Y-76224323D01*
X197399318Y-76249318D01*
X197374323Y-76271972D01*
X197347227Y-76292068D01*
X197318293Y-76309410D01*
X197287797Y-76323834D01*
X197256035Y-76335198D01*
X197223312Y-76343395D01*
X197189943Y-76348345D01*
X197156250Y-76350000D01*
X196043750Y-76350000D01*
X196010057Y-76348345D01*
X195976688Y-76343395D01*
X195943965Y-76335198D01*
X195912203Y-76323834D01*
X195881707Y-76309410D01*
X195852773Y-76292068D01*
X195825677Y-76271972D01*
X195800682Y-76249318D01*
X195778028Y-76224323D01*
X195757932Y-76197227D01*
X195740590Y-76168293D01*
X195726166Y-76137797D01*
X195714802Y-76106035D01*
X195706605Y-76073312D01*
X195701655Y-76039943D01*
X195700000Y-76006250D01*
X195700000Y-75318750D01*
X195701655Y-75285057D01*
X195706605Y-75251688D01*
X195714802Y-75218965D01*
X195726166Y-75187203D01*
X195740590Y-75156707D01*
X195757932Y-75127773D01*
X195778028Y-75100677D01*
X195800682Y-75075682D01*
X195825677Y-75053028D01*
X195852773Y-75032932D01*
X195881707Y-75015590D01*
X195912203Y-75001166D01*
X195943965Y-74989802D01*
X195976688Y-74981605D01*
X196010057Y-74976655D01*
X196043750Y-74975000D01*
X197156250Y-74975000D01*
X197189943Y-74976655D01*
X197189943Y-74976655D01*
G37*
D29*
X196600000Y-75662500D03*
D28*
G36*
X202407294Y-64747366D02*
X202440663Y-64752316D01*
X202473386Y-64760513D01*
X202505148Y-64771877D01*
X202535644Y-64786301D01*
X202564578Y-64803643D01*
X202591674Y-64823739D01*
X202616669Y-64846393D01*
X202639323Y-64871388D01*
X202659419Y-64898484D01*
X202676761Y-64927418D01*
X202691185Y-64957914D01*
X202702549Y-64989676D01*
X202710746Y-65022399D01*
X202715696Y-65055768D01*
X202717351Y-65089461D01*
X202717351Y-66201961D01*
X202715696Y-66235654D01*
X202710746Y-66269023D01*
X202702549Y-66301746D01*
X202691185Y-66333508D01*
X202676761Y-66364004D01*
X202659419Y-66392938D01*
X202639323Y-66420034D01*
X202616669Y-66445029D01*
X202591674Y-66467683D01*
X202564578Y-66487779D01*
X202535644Y-66505121D01*
X202505148Y-66519545D01*
X202473386Y-66530909D01*
X202440663Y-66539106D01*
X202407294Y-66544056D01*
X202373601Y-66545711D01*
X201686101Y-66545711D01*
X201652408Y-66544056D01*
X201619039Y-66539106D01*
X201586316Y-66530909D01*
X201554554Y-66519545D01*
X201524058Y-66505121D01*
X201495124Y-66487779D01*
X201468028Y-66467683D01*
X201443033Y-66445029D01*
X201420379Y-66420034D01*
X201400283Y-66392938D01*
X201382941Y-66364004D01*
X201368517Y-66333508D01*
X201357153Y-66301746D01*
X201348956Y-66269023D01*
X201344006Y-66235654D01*
X201342351Y-66201961D01*
X201342351Y-65089461D01*
X201344006Y-65055768D01*
X201348956Y-65022399D01*
X201357153Y-64989676D01*
X201368517Y-64957914D01*
X201382941Y-64927418D01*
X201400283Y-64898484D01*
X201420379Y-64871388D01*
X201443033Y-64846393D01*
X201468028Y-64823739D01*
X201495124Y-64803643D01*
X201524058Y-64786301D01*
X201554554Y-64771877D01*
X201586316Y-64760513D01*
X201619039Y-64752316D01*
X201652408Y-64747366D01*
X201686101Y-64745711D01*
X202373601Y-64745711D01*
X202407294Y-64747366D01*
X202407294Y-64747366D01*
G37*
D29*
X202029851Y-65645711D03*
D28*
G36*
X200532294Y-64747366D02*
X200565663Y-64752316D01*
X200598386Y-64760513D01*
X200630148Y-64771877D01*
X200660644Y-64786301D01*
X200689578Y-64803643D01*
X200716674Y-64823739D01*
X200741669Y-64846393D01*
X200764323Y-64871388D01*
X200784419Y-64898484D01*
X200801761Y-64927418D01*
X200816185Y-64957914D01*
X200827549Y-64989676D01*
X200835746Y-65022399D01*
X200840696Y-65055768D01*
X200842351Y-65089461D01*
X200842351Y-66201961D01*
X200840696Y-66235654D01*
X200835746Y-66269023D01*
X200827549Y-66301746D01*
X200816185Y-66333508D01*
X200801761Y-66364004D01*
X200784419Y-66392938D01*
X200764323Y-66420034D01*
X200741669Y-66445029D01*
X200716674Y-66467683D01*
X200689578Y-66487779D01*
X200660644Y-66505121D01*
X200630148Y-66519545D01*
X200598386Y-66530909D01*
X200565663Y-66539106D01*
X200532294Y-66544056D01*
X200498601Y-66545711D01*
X199811101Y-66545711D01*
X199777408Y-66544056D01*
X199744039Y-66539106D01*
X199711316Y-66530909D01*
X199679554Y-66519545D01*
X199649058Y-66505121D01*
X199620124Y-66487779D01*
X199593028Y-66467683D01*
X199568033Y-66445029D01*
X199545379Y-66420034D01*
X199525283Y-66392938D01*
X199507941Y-66364004D01*
X199493517Y-66333508D01*
X199482153Y-66301746D01*
X199473956Y-66269023D01*
X199469006Y-66235654D01*
X199467351Y-66201961D01*
X199467351Y-65089461D01*
X199469006Y-65055768D01*
X199473956Y-65022399D01*
X199482153Y-64989676D01*
X199493517Y-64957914D01*
X199507941Y-64927418D01*
X199525283Y-64898484D01*
X199545379Y-64871388D01*
X199568033Y-64846393D01*
X199593028Y-64823739D01*
X199620124Y-64803643D01*
X199649058Y-64786301D01*
X199679554Y-64771877D01*
X199711316Y-64760513D01*
X199744039Y-64752316D01*
X199777408Y-64747366D01*
X199811101Y-64745711D01*
X200498601Y-64745711D01*
X200532294Y-64747366D01*
X200532294Y-64747366D01*
G37*
D29*
X200154851Y-65645711D03*
D28*
G36*
X123639943Y-65101655D02*
X123673312Y-65106605D01*
X123706035Y-65114802D01*
X123737797Y-65126166D01*
X123768293Y-65140590D01*
X123797227Y-65157932D01*
X123824323Y-65178028D01*
X123849318Y-65200682D01*
X123871972Y-65225677D01*
X123892068Y-65252773D01*
X123909410Y-65281707D01*
X123923834Y-65312203D01*
X123935198Y-65343965D01*
X123943395Y-65376688D01*
X123948345Y-65410057D01*
X123950000Y-65443750D01*
X123950000Y-66556250D01*
X123948345Y-66589943D01*
X123943395Y-66623312D01*
X123935198Y-66656035D01*
X123923834Y-66687797D01*
X123909410Y-66718293D01*
X123892068Y-66747227D01*
X123871972Y-66774323D01*
X123849318Y-66799318D01*
X123824323Y-66821972D01*
X123797227Y-66842068D01*
X123768293Y-66859410D01*
X123737797Y-66873834D01*
X123706035Y-66885198D01*
X123673312Y-66893395D01*
X123639943Y-66898345D01*
X123606250Y-66900000D01*
X122918750Y-66900000D01*
X122885057Y-66898345D01*
X122851688Y-66893395D01*
X122818965Y-66885198D01*
X122787203Y-66873834D01*
X122756707Y-66859410D01*
X122727773Y-66842068D01*
X122700677Y-66821972D01*
X122675682Y-66799318D01*
X122653028Y-66774323D01*
X122632932Y-66747227D01*
X122615590Y-66718293D01*
X122601166Y-66687797D01*
X122589802Y-66656035D01*
X122581605Y-66623312D01*
X122576655Y-66589943D01*
X122575000Y-66556250D01*
X122575000Y-65443750D01*
X122576655Y-65410057D01*
X122581605Y-65376688D01*
X122589802Y-65343965D01*
X122601166Y-65312203D01*
X122615590Y-65281707D01*
X122632932Y-65252773D01*
X122653028Y-65225677D01*
X122675682Y-65200682D01*
X122700677Y-65178028D01*
X122727773Y-65157932D01*
X122756707Y-65140590D01*
X122787203Y-65126166D01*
X122818965Y-65114802D01*
X122851688Y-65106605D01*
X122885057Y-65101655D01*
X122918750Y-65100000D01*
X123606250Y-65100000D01*
X123639943Y-65101655D01*
X123639943Y-65101655D01*
G37*
D29*
X123262500Y-66000000D03*
D28*
G36*
X125514943Y-65101655D02*
X125548312Y-65106605D01*
X125581035Y-65114802D01*
X125612797Y-65126166D01*
X125643293Y-65140590D01*
X125672227Y-65157932D01*
X125699323Y-65178028D01*
X125724318Y-65200682D01*
X125746972Y-65225677D01*
X125767068Y-65252773D01*
X125784410Y-65281707D01*
X125798834Y-65312203D01*
X125810198Y-65343965D01*
X125818395Y-65376688D01*
X125823345Y-65410057D01*
X125825000Y-65443750D01*
X125825000Y-66556250D01*
X125823345Y-66589943D01*
X125818395Y-66623312D01*
X125810198Y-66656035D01*
X125798834Y-66687797D01*
X125784410Y-66718293D01*
X125767068Y-66747227D01*
X125746972Y-66774323D01*
X125724318Y-66799318D01*
X125699323Y-66821972D01*
X125672227Y-66842068D01*
X125643293Y-66859410D01*
X125612797Y-66873834D01*
X125581035Y-66885198D01*
X125548312Y-66893395D01*
X125514943Y-66898345D01*
X125481250Y-66900000D01*
X124793750Y-66900000D01*
X124760057Y-66898345D01*
X124726688Y-66893395D01*
X124693965Y-66885198D01*
X124662203Y-66873834D01*
X124631707Y-66859410D01*
X124602773Y-66842068D01*
X124575677Y-66821972D01*
X124550682Y-66799318D01*
X124528028Y-66774323D01*
X124507932Y-66747227D01*
X124490590Y-66718293D01*
X124476166Y-66687797D01*
X124464802Y-66656035D01*
X124456605Y-66623312D01*
X124451655Y-66589943D01*
X124450000Y-66556250D01*
X124450000Y-65443750D01*
X124451655Y-65410057D01*
X124456605Y-65376688D01*
X124464802Y-65343965D01*
X124476166Y-65312203D01*
X124490590Y-65281707D01*
X124507932Y-65252773D01*
X124528028Y-65225677D01*
X124550682Y-65200682D01*
X124575677Y-65178028D01*
X124602773Y-65157932D01*
X124631707Y-65140590D01*
X124662203Y-65126166D01*
X124693965Y-65114802D01*
X124726688Y-65106605D01*
X124760057Y-65101655D01*
X124793750Y-65100000D01*
X125481250Y-65100000D01*
X125514943Y-65101655D01*
X125514943Y-65101655D01*
G37*
D29*
X125137500Y-66000000D03*
D28*
G36*
X68452435Y-129477731D02*
X68485804Y-129482681D01*
X68518527Y-129490878D01*
X68550289Y-129502242D01*
X68580785Y-129516666D01*
X68609719Y-129534008D01*
X68636815Y-129554104D01*
X68661810Y-129576758D01*
X68684464Y-129601753D01*
X68704560Y-129628849D01*
X68721902Y-129657783D01*
X68736326Y-129688279D01*
X68747690Y-129720041D01*
X68755887Y-129752764D01*
X68760837Y-129786133D01*
X68762492Y-129819826D01*
X68762492Y-130932326D01*
X68760837Y-130966019D01*
X68755887Y-130999388D01*
X68747690Y-131032111D01*
X68736326Y-131063873D01*
X68721902Y-131094369D01*
X68704560Y-131123303D01*
X68684464Y-131150399D01*
X68661810Y-131175394D01*
X68636815Y-131198048D01*
X68609719Y-131218144D01*
X68580785Y-131235486D01*
X68550289Y-131249910D01*
X68518527Y-131261274D01*
X68485804Y-131269471D01*
X68452435Y-131274421D01*
X68418742Y-131276076D01*
X67731242Y-131276076D01*
X67697549Y-131274421D01*
X67664180Y-131269471D01*
X67631457Y-131261274D01*
X67599695Y-131249910D01*
X67569199Y-131235486D01*
X67540265Y-131218144D01*
X67513169Y-131198048D01*
X67488174Y-131175394D01*
X67465520Y-131150399D01*
X67445424Y-131123303D01*
X67428082Y-131094369D01*
X67413658Y-131063873D01*
X67402294Y-131032111D01*
X67394097Y-130999388D01*
X67389147Y-130966019D01*
X67387492Y-130932326D01*
X67387492Y-129819826D01*
X67389147Y-129786133D01*
X67394097Y-129752764D01*
X67402294Y-129720041D01*
X67413658Y-129688279D01*
X67428082Y-129657783D01*
X67445424Y-129628849D01*
X67465520Y-129601753D01*
X67488174Y-129576758D01*
X67513169Y-129554104D01*
X67540265Y-129534008D01*
X67569199Y-129516666D01*
X67599695Y-129502242D01*
X67631457Y-129490878D01*
X67664180Y-129482681D01*
X67697549Y-129477731D01*
X67731242Y-129476076D01*
X68418742Y-129476076D01*
X68452435Y-129477731D01*
X68452435Y-129477731D01*
G37*
D29*
X68074992Y-130376076D03*
D28*
G36*
X70327435Y-129477731D02*
X70360804Y-129482681D01*
X70393527Y-129490878D01*
X70425289Y-129502242D01*
X70455785Y-129516666D01*
X70484719Y-129534008D01*
X70511815Y-129554104D01*
X70536810Y-129576758D01*
X70559464Y-129601753D01*
X70579560Y-129628849D01*
X70596902Y-129657783D01*
X70611326Y-129688279D01*
X70622690Y-129720041D01*
X70630887Y-129752764D01*
X70635837Y-129786133D01*
X70637492Y-129819826D01*
X70637492Y-130932326D01*
X70635837Y-130966019D01*
X70630887Y-130999388D01*
X70622690Y-131032111D01*
X70611326Y-131063873D01*
X70596902Y-131094369D01*
X70579560Y-131123303D01*
X70559464Y-131150399D01*
X70536810Y-131175394D01*
X70511815Y-131198048D01*
X70484719Y-131218144D01*
X70455785Y-131235486D01*
X70425289Y-131249910D01*
X70393527Y-131261274D01*
X70360804Y-131269471D01*
X70327435Y-131274421D01*
X70293742Y-131276076D01*
X69606242Y-131276076D01*
X69572549Y-131274421D01*
X69539180Y-131269471D01*
X69506457Y-131261274D01*
X69474695Y-131249910D01*
X69444199Y-131235486D01*
X69415265Y-131218144D01*
X69388169Y-131198048D01*
X69363174Y-131175394D01*
X69340520Y-131150399D01*
X69320424Y-131123303D01*
X69303082Y-131094369D01*
X69288658Y-131063873D01*
X69277294Y-131032111D01*
X69269097Y-130999388D01*
X69264147Y-130966019D01*
X69262492Y-130932326D01*
X69262492Y-129819826D01*
X69264147Y-129786133D01*
X69269097Y-129752764D01*
X69277294Y-129720041D01*
X69288658Y-129688279D01*
X69303082Y-129657783D01*
X69320424Y-129628849D01*
X69340520Y-129601753D01*
X69363174Y-129576758D01*
X69388169Y-129554104D01*
X69415265Y-129534008D01*
X69444199Y-129516666D01*
X69474695Y-129502242D01*
X69506457Y-129490878D01*
X69539180Y-129482681D01*
X69572549Y-129477731D01*
X69606242Y-129476076D01*
X70293742Y-129476076D01*
X70327435Y-129477731D01*
X70327435Y-129477731D01*
G37*
D29*
X69949992Y-130376076D03*
D28*
G36*
X203839943Y-133001655D02*
X203873312Y-133006605D01*
X203906035Y-133014802D01*
X203937797Y-133026166D01*
X203968293Y-133040590D01*
X203997227Y-133057932D01*
X204024323Y-133078028D01*
X204049318Y-133100682D01*
X204071972Y-133125677D01*
X204092068Y-133152773D01*
X204109410Y-133181707D01*
X204123834Y-133212203D01*
X204135198Y-133243965D01*
X204143395Y-133276688D01*
X204148345Y-133310057D01*
X204150000Y-133343750D01*
X204150000Y-134456250D01*
X204148345Y-134489943D01*
X204143395Y-134523312D01*
X204135198Y-134556035D01*
X204123834Y-134587797D01*
X204109410Y-134618293D01*
X204092068Y-134647227D01*
X204071972Y-134674323D01*
X204049318Y-134699318D01*
X204024323Y-134721972D01*
X203997227Y-134742068D01*
X203968293Y-134759410D01*
X203937797Y-134773834D01*
X203906035Y-134785198D01*
X203873312Y-134793395D01*
X203839943Y-134798345D01*
X203806250Y-134800000D01*
X203118750Y-134800000D01*
X203085057Y-134798345D01*
X203051688Y-134793395D01*
X203018965Y-134785198D01*
X202987203Y-134773834D01*
X202956707Y-134759410D01*
X202927773Y-134742068D01*
X202900677Y-134721972D01*
X202875682Y-134699318D01*
X202853028Y-134674323D01*
X202832932Y-134647227D01*
X202815590Y-134618293D01*
X202801166Y-134587797D01*
X202789802Y-134556035D01*
X202781605Y-134523312D01*
X202776655Y-134489943D01*
X202775000Y-134456250D01*
X202775000Y-133343750D01*
X202776655Y-133310057D01*
X202781605Y-133276688D01*
X202789802Y-133243965D01*
X202801166Y-133212203D01*
X202815590Y-133181707D01*
X202832932Y-133152773D01*
X202853028Y-133125677D01*
X202875682Y-133100682D01*
X202900677Y-133078028D01*
X202927773Y-133057932D01*
X202956707Y-133040590D01*
X202987203Y-133026166D01*
X203018965Y-133014802D01*
X203051688Y-133006605D01*
X203085057Y-133001655D01*
X203118750Y-133000000D01*
X203806250Y-133000000D01*
X203839943Y-133001655D01*
X203839943Y-133001655D01*
G37*
D29*
X203462500Y-133900000D03*
D28*
G36*
X205714943Y-133001655D02*
X205748312Y-133006605D01*
X205781035Y-133014802D01*
X205812797Y-133026166D01*
X205843293Y-133040590D01*
X205872227Y-133057932D01*
X205899323Y-133078028D01*
X205924318Y-133100682D01*
X205946972Y-133125677D01*
X205967068Y-133152773D01*
X205984410Y-133181707D01*
X205998834Y-133212203D01*
X206010198Y-133243965D01*
X206018395Y-133276688D01*
X206023345Y-133310057D01*
X206025000Y-133343750D01*
X206025000Y-134456250D01*
X206023345Y-134489943D01*
X206018395Y-134523312D01*
X206010198Y-134556035D01*
X205998834Y-134587797D01*
X205984410Y-134618293D01*
X205967068Y-134647227D01*
X205946972Y-134674323D01*
X205924318Y-134699318D01*
X205899323Y-134721972D01*
X205872227Y-134742068D01*
X205843293Y-134759410D01*
X205812797Y-134773834D01*
X205781035Y-134785198D01*
X205748312Y-134793395D01*
X205714943Y-134798345D01*
X205681250Y-134800000D01*
X204993750Y-134800000D01*
X204960057Y-134798345D01*
X204926688Y-134793395D01*
X204893965Y-134785198D01*
X204862203Y-134773834D01*
X204831707Y-134759410D01*
X204802773Y-134742068D01*
X204775677Y-134721972D01*
X204750682Y-134699318D01*
X204728028Y-134674323D01*
X204707932Y-134647227D01*
X204690590Y-134618293D01*
X204676166Y-134587797D01*
X204664802Y-134556035D01*
X204656605Y-134523312D01*
X204651655Y-134489943D01*
X204650000Y-134456250D01*
X204650000Y-133343750D01*
X204651655Y-133310057D01*
X204656605Y-133276688D01*
X204664802Y-133243965D01*
X204676166Y-133212203D01*
X204690590Y-133181707D01*
X204707932Y-133152773D01*
X204728028Y-133125677D01*
X204750682Y-133100682D01*
X204775677Y-133078028D01*
X204802773Y-133057932D01*
X204831707Y-133040590D01*
X204862203Y-133026166D01*
X204893965Y-133014802D01*
X204926688Y-133006605D01*
X204960057Y-133001655D01*
X204993750Y-133000000D01*
X205681250Y-133000000D01*
X205714943Y-133001655D01*
X205714943Y-133001655D01*
G37*
D29*
X205337500Y-133900000D03*
D28*
G36*
X203421040Y-44658596D02*
X203454409Y-44663546D01*
X203487132Y-44671743D01*
X203518894Y-44683107D01*
X203549390Y-44697531D01*
X203578324Y-44714873D01*
X203605420Y-44734969D01*
X203630415Y-44757623D01*
X204116551Y-45243759D01*
X204139205Y-45268754D01*
X204159301Y-45295850D01*
X204176643Y-45324784D01*
X204191067Y-45355280D01*
X204202431Y-45387042D01*
X204210628Y-45419765D01*
X204215578Y-45453134D01*
X204217233Y-45486827D01*
X204215578Y-45520520D01*
X204210628Y-45553889D01*
X204202431Y-45586612D01*
X204191067Y-45618374D01*
X204176643Y-45648870D01*
X204159301Y-45677804D01*
X204139205Y-45704900D01*
X204116551Y-45729895D01*
X203329895Y-46516551D01*
X203304900Y-46539205D01*
X203277804Y-46559301D01*
X203248870Y-46576643D01*
X203218374Y-46591067D01*
X203186612Y-46602431D01*
X203153889Y-46610628D01*
X203120520Y-46615578D01*
X203086827Y-46617233D01*
X203053134Y-46615578D01*
X203019765Y-46610628D01*
X202987042Y-46602431D01*
X202955280Y-46591067D01*
X202924784Y-46576643D01*
X202895850Y-46559301D01*
X202868754Y-46539205D01*
X202843759Y-46516551D01*
X202357623Y-46030415D01*
X202334969Y-46005420D01*
X202314873Y-45978324D01*
X202297531Y-45949390D01*
X202283107Y-45918894D01*
X202271743Y-45887132D01*
X202263546Y-45854409D01*
X202258596Y-45821040D01*
X202256941Y-45787347D01*
X202258596Y-45753654D01*
X202263546Y-45720285D01*
X202271743Y-45687562D01*
X202283107Y-45655800D01*
X202297531Y-45625304D01*
X202314873Y-45596370D01*
X202334969Y-45569274D01*
X202357623Y-45544279D01*
X203144279Y-44757623D01*
X203169274Y-44734969D01*
X203196370Y-44714873D01*
X203225304Y-44697531D01*
X203255800Y-44683107D01*
X203287562Y-44671743D01*
X203320285Y-44663546D01*
X203353654Y-44658596D01*
X203387347Y-44656941D01*
X203421040Y-44658596D01*
X203421040Y-44658596D01*
G37*
D29*
X203237087Y-45637087D03*
D28*
G36*
X204746866Y-45984422D02*
X204780235Y-45989372D01*
X204812958Y-45997569D01*
X204844720Y-46008933D01*
X204875216Y-46023357D01*
X204904150Y-46040699D01*
X204931246Y-46060795D01*
X204956241Y-46083449D01*
X205442377Y-46569585D01*
X205465031Y-46594580D01*
X205485127Y-46621676D01*
X205502469Y-46650610D01*
X205516893Y-46681106D01*
X205528257Y-46712868D01*
X205536454Y-46745591D01*
X205541404Y-46778960D01*
X205543059Y-46812653D01*
X205541404Y-46846346D01*
X205536454Y-46879715D01*
X205528257Y-46912438D01*
X205516893Y-46944200D01*
X205502469Y-46974696D01*
X205485127Y-47003630D01*
X205465031Y-47030726D01*
X205442377Y-47055721D01*
X204655721Y-47842377D01*
X204630726Y-47865031D01*
X204603630Y-47885127D01*
X204574696Y-47902469D01*
X204544200Y-47916893D01*
X204512438Y-47928257D01*
X204479715Y-47936454D01*
X204446346Y-47941404D01*
X204412653Y-47943059D01*
X204378960Y-47941404D01*
X204345591Y-47936454D01*
X204312868Y-47928257D01*
X204281106Y-47916893D01*
X204250610Y-47902469D01*
X204221676Y-47885127D01*
X204194580Y-47865031D01*
X204169585Y-47842377D01*
X203683449Y-47356241D01*
X203660795Y-47331246D01*
X203640699Y-47304150D01*
X203623357Y-47275216D01*
X203608933Y-47244720D01*
X203597569Y-47212958D01*
X203589372Y-47180235D01*
X203584422Y-47146866D01*
X203582767Y-47113173D01*
X203584422Y-47079480D01*
X203589372Y-47046111D01*
X203597569Y-47013388D01*
X203608933Y-46981626D01*
X203623357Y-46951130D01*
X203640699Y-46922196D01*
X203660795Y-46895100D01*
X203683449Y-46870105D01*
X204470105Y-46083449D01*
X204495100Y-46060795D01*
X204522196Y-46040699D01*
X204551130Y-46023357D01*
X204581626Y-46008933D01*
X204613388Y-45997569D01*
X204646111Y-45989372D01*
X204679480Y-45984422D01*
X204713173Y-45982767D01*
X204746866Y-45984422D01*
X204746866Y-45984422D01*
G37*
D29*
X204562913Y-46962913D03*
D28*
G36*
X49621040Y-44658596D02*
X49654409Y-44663546D01*
X49687132Y-44671743D01*
X49718894Y-44683107D01*
X49749390Y-44697531D01*
X49778324Y-44714873D01*
X49805420Y-44734969D01*
X49830415Y-44757623D01*
X50316551Y-45243759D01*
X50339205Y-45268754D01*
X50359301Y-45295850D01*
X50376643Y-45324784D01*
X50391067Y-45355280D01*
X50402431Y-45387042D01*
X50410628Y-45419765D01*
X50415578Y-45453134D01*
X50417233Y-45486827D01*
X50415578Y-45520520D01*
X50410628Y-45553889D01*
X50402431Y-45586612D01*
X50391067Y-45618374D01*
X50376643Y-45648870D01*
X50359301Y-45677804D01*
X50339205Y-45704900D01*
X50316551Y-45729895D01*
X49529895Y-46516551D01*
X49504900Y-46539205D01*
X49477804Y-46559301D01*
X49448870Y-46576643D01*
X49418374Y-46591067D01*
X49386612Y-46602431D01*
X49353889Y-46610628D01*
X49320520Y-46615578D01*
X49286827Y-46617233D01*
X49253134Y-46615578D01*
X49219765Y-46610628D01*
X49187042Y-46602431D01*
X49155280Y-46591067D01*
X49124784Y-46576643D01*
X49095850Y-46559301D01*
X49068754Y-46539205D01*
X49043759Y-46516551D01*
X48557623Y-46030415D01*
X48534969Y-46005420D01*
X48514873Y-45978324D01*
X48497531Y-45949390D01*
X48483107Y-45918894D01*
X48471743Y-45887132D01*
X48463546Y-45854409D01*
X48458596Y-45821040D01*
X48456941Y-45787347D01*
X48458596Y-45753654D01*
X48463546Y-45720285D01*
X48471743Y-45687562D01*
X48483107Y-45655800D01*
X48497531Y-45625304D01*
X48514873Y-45596370D01*
X48534969Y-45569274D01*
X48557623Y-45544279D01*
X49344279Y-44757623D01*
X49369274Y-44734969D01*
X49396370Y-44714873D01*
X49425304Y-44697531D01*
X49455800Y-44683107D01*
X49487562Y-44671743D01*
X49520285Y-44663546D01*
X49553654Y-44658596D01*
X49587347Y-44656941D01*
X49621040Y-44658596D01*
X49621040Y-44658596D01*
G37*
D29*
X49437087Y-45637087D03*
D28*
G36*
X50946866Y-45984422D02*
X50980235Y-45989372D01*
X51012958Y-45997569D01*
X51044720Y-46008933D01*
X51075216Y-46023357D01*
X51104150Y-46040699D01*
X51131246Y-46060795D01*
X51156241Y-46083449D01*
X51642377Y-46569585D01*
X51665031Y-46594580D01*
X51685127Y-46621676D01*
X51702469Y-46650610D01*
X51716893Y-46681106D01*
X51728257Y-46712868D01*
X51736454Y-46745591D01*
X51741404Y-46778960D01*
X51743059Y-46812653D01*
X51741404Y-46846346D01*
X51736454Y-46879715D01*
X51728257Y-46912438D01*
X51716893Y-46944200D01*
X51702469Y-46974696D01*
X51685127Y-47003630D01*
X51665031Y-47030726D01*
X51642377Y-47055721D01*
X50855721Y-47842377D01*
X50830726Y-47865031D01*
X50803630Y-47885127D01*
X50774696Y-47902469D01*
X50744200Y-47916893D01*
X50712438Y-47928257D01*
X50679715Y-47936454D01*
X50646346Y-47941404D01*
X50612653Y-47943059D01*
X50578960Y-47941404D01*
X50545591Y-47936454D01*
X50512868Y-47928257D01*
X50481106Y-47916893D01*
X50450610Y-47902469D01*
X50421676Y-47885127D01*
X50394580Y-47865031D01*
X50369585Y-47842377D01*
X49883449Y-47356241D01*
X49860795Y-47331246D01*
X49840699Y-47304150D01*
X49823357Y-47275216D01*
X49808933Y-47244720D01*
X49797569Y-47212958D01*
X49789372Y-47180235D01*
X49784422Y-47146866D01*
X49782767Y-47113173D01*
X49784422Y-47079480D01*
X49789372Y-47046111D01*
X49797569Y-47013388D01*
X49808933Y-46981626D01*
X49823357Y-46951130D01*
X49840699Y-46922196D01*
X49860795Y-46895100D01*
X49883449Y-46870105D01*
X50670105Y-46083449D01*
X50695100Y-46060795D01*
X50722196Y-46040699D01*
X50751130Y-46023357D01*
X50781626Y-46008933D01*
X50813388Y-45997569D01*
X50846111Y-45989372D01*
X50879480Y-45984422D01*
X50913173Y-45982767D01*
X50946866Y-45984422D01*
X50946866Y-45984422D01*
G37*
D29*
X50762913Y-46962913D03*
D28*
G36*
X28524395Y-55551471D02*
X28554056Y-55555871D01*
X28583143Y-55563157D01*
X28611376Y-55573259D01*
X28638483Y-55586080D01*
X28664202Y-55601495D01*
X28688287Y-55619358D01*
X28710505Y-55639495D01*
X28730642Y-55661713D01*
X28748505Y-55685798D01*
X28763920Y-55711517D01*
X28776741Y-55738624D01*
X28786843Y-55766857D01*
X28794129Y-55795944D01*
X28798529Y-55825605D01*
X28800000Y-55855555D01*
X28800000Y-57444445D01*
X28798529Y-57474395D01*
X28794129Y-57504056D01*
X28786843Y-57533143D01*
X28776741Y-57561376D01*
X28763920Y-57588483D01*
X28748505Y-57614202D01*
X28730642Y-57638287D01*
X28710505Y-57660505D01*
X28688287Y-57680642D01*
X28664202Y-57698505D01*
X28638483Y-57713920D01*
X28611376Y-57726741D01*
X28583143Y-57736843D01*
X28554056Y-57744129D01*
X28524395Y-57748529D01*
X28494445Y-57750000D01*
X23305555Y-57750000D01*
X23275605Y-57748529D01*
X23245944Y-57744129D01*
X23216857Y-57736843D01*
X23188624Y-57726741D01*
X23161517Y-57713920D01*
X23135798Y-57698505D01*
X23111713Y-57680642D01*
X23089495Y-57660505D01*
X23069358Y-57638287D01*
X23051495Y-57614202D01*
X23036080Y-57588483D01*
X23023259Y-57561376D01*
X23013157Y-57533143D01*
X23005871Y-57504056D01*
X23001471Y-57474395D01*
X23000000Y-57444445D01*
X23000000Y-55855555D01*
X23001471Y-55825605D01*
X23005871Y-55795944D01*
X23013157Y-55766857D01*
X23023259Y-55738624D01*
X23036080Y-55711517D01*
X23051495Y-55685798D01*
X23069358Y-55661713D01*
X23089495Y-55639495D01*
X23111713Y-55619358D01*
X23135798Y-55601495D01*
X23161517Y-55586080D01*
X23188624Y-55573259D01*
X23216857Y-55563157D01*
X23245944Y-55555871D01*
X23275605Y-55551471D01*
X23305555Y-55550000D01*
X28494445Y-55550000D01*
X28524395Y-55551471D01*
X28524395Y-55551471D01*
G37*
D30*
X25900000Y-56650000D03*
D28*
G36*
X28524395Y-50451471D02*
X28554056Y-50455871D01*
X28583143Y-50463157D01*
X28611376Y-50473259D01*
X28638483Y-50486080D01*
X28664202Y-50501495D01*
X28688287Y-50519358D01*
X28710505Y-50539495D01*
X28730642Y-50561713D01*
X28748505Y-50585798D01*
X28763920Y-50611517D01*
X28776741Y-50638624D01*
X28786843Y-50666857D01*
X28794129Y-50695944D01*
X28798529Y-50725605D01*
X28800000Y-50755555D01*
X28800000Y-52344445D01*
X28798529Y-52374395D01*
X28794129Y-52404056D01*
X28786843Y-52433143D01*
X28776741Y-52461376D01*
X28763920Y-52488483D01*
X28748505Y-52514202D01*
X28730642Y-52538287D01*
X28710505Y-52560505D01*
X28688287Y-52580642D01*
X28664202Y-52598505D01*
X28638483Y-52613920D01*
X28611376Y-52626741D01*
X28583143Y-52636843D01*
X28554056Y-52644129D01*
X28524395Y-52648529D01*
X28494445Y-52650000D01*
X23305555Y-52650000D01*
X23275605Y-52648529D01*
X23245944Y-52644129D01*
X23216857Y-52636843D01*
X23188624Y-52626741D01*
X23161517Y-52613920D01*
X23135798Y-52598505D01*
X23111713Y-52580642D01*
X23089495Y-52560505D01*
X23069358Y-52538287D01*
X23051495Y-52514202D01*
X23036080Y-52488483D01*
X23023259Y-52461376D01*
X23013157Y-52433143D01*
X23005871Y-52404056D01*
X23001471Y-52374395D01*
X23000000Y-52344445D01*
X23000000Y-50755555D01*
X23001471Y-50725605D01*
X23005871Y-50695944D01*
X23013157Y-50666857D01*
X23023259Y-50638624D01*
X23036080Y-50611517D01*
X23051495Y-50585798D01*
X23069358Y-50561713D01*
X23089495Y-50539495D01*
X23111713Y-50519358D01*
X23135798Y-50501495D01*
X23161517Y-50486080D01*
X23188624Y-50473259D01*
X23216857Y-50463157D01*
X23245944Y-50455871D01*
X23275605Y-50451471D01*
X23305555Y-50450000D01*
X28494445Y-50450000D01*
X28524395Y-50451471D01*
X28524395Y-50451471D01*
G37*
D30*
X25900000Y-51550000D03*
D28*
G36*
X125524395Y-55501471D02*
X125554056Y-55505871D01*
X125583143Y-55513157D01*
X125611376Y-55523259D01*
X125638483Y-55536080D01*
X125664202Y-55551495D01*
X125688287Y-55569358D01*
X125710505Y-55589495D01*
X125730642Y-55611713D01*
X125748505Y-55635798D01*
X125763920Y-55661517D01*
X125776741Y-55688624D01*
X125786843Y-55716857D01*
X125794129Y-55745944D01*
X125798529Y-55775605D01*
X125800000Y-55805555D01*
X125800000Y-57394445D01*
X125798529Y-57424395D01*
X125794129Y-57454056D01*
X125786843Y-57483143D01*
X125776741Y-57511376D01*
X125763920Y-57538483D01*
X125748505Y-57564202D01*
X125730642Y-57588287D01*
X125710505Y-57610505D01*
X125688287Y-57630642D01*
X125664202Y-57648505D01*
X125638483Y-57663920D01*
X125611376Y-57676741D01*
X125583143Y-57686843D01*
X125554056Y-57694129D01*
X125524395Y-57698529D01*
X125494445Y-57700000D01*
X120305555Y-57700000D01*
X120275605Y-57698529D01*
X120245944Y-57694129D01*
X120216857Y-57686843D01*
X120188624Y-57676741D01*
X120161517Y-57663920D01*
X120135798Y-57648505D01*
X120111713Y-57630642D01*
X120089495Y-57610505D01*
X120069358Y-57588287D01*
X120051495Y-57564202D01*
X120036080Y-57538483D01*
X120023259Y-57511376D01*
X120013157Y-57483143D01*
X120005871Y-57454056D01*
X120001471Y-57424395D01*
X120000000Y-57394445D01*
X120000000Y-55805555D01*
X120001471Y-55775605D01*
X120005871Y-55745944D01*
X120013157Y-55716857D01*
X120023259Y-55688624D01*
X120036080Y-55661517D01*
X120051495Y-55635798D01*
X120069358Y-55611713D01*
X120089495Y-55589495D01*
X120111713Y-55569358D01*
X120135798Y-55551495D01*
X120161517Y-55536080D01*
X120188624Y-55523259D01*
X120216857Y-55513157D01*
X120245944Y-55505871D01*
X120275605Y-55501471D01*
X120305555Y-55500000D01*
X125494445Y-55500000D01*
X125524395Y-55501471D01*
X125524395Y-55501471D01*
G37*
D30*
X122900000Y-56600000D03*
D28*
G36*
X125524395Y-50401471D02*
X125554056Y-50405871D01*
X125583143Y-50413157D01*
X125611376Y-50423259D01*
X125638483Y-50436080D01*
X125664202Y-50451495D01*
X125688287Y-50469358D01*
X125710505Y-50489495D01*
X125730642Y-50511713D01*
X125748505Y-50535798D01*
X125763920Y-50561517D01*
X125776741Y-50588624D01*
X125786843Y-50616857D01*
X125794129Y-50645944D01*
X125798529Y-50675605D01*
X125800000Y-50705555D01*
X125800000Y-52294445D01*
X125798529Y-52324395D01*
X125794129Y-52354056D01*
X125786843Y-52383143D01*
X125776741Y-52411376D01*
X125763920Y-52438483D01*
X125748505Y-52464202D01*
X125730642Y-52488287D01*
X125710505Y-52510505D01*
X125688287Y-52530642D01*
X125664202Y-52548505D01*
X125638483Y-52563920D01*
X125611376Y-52576741D01*
X125583143Y-52586843D01*
X125554056Y-52594129D01*
X125524395Y-52598529D01*
X125494445Y-52600000D01*
X120305555Y-52600000D01*
X120275605Y-52598529D01*
X120245944Y-52594129D01*
X120216857Y-52586843D01*
X120188624Y-52576741D01*
X120161517Y-52563920D01*
X120135798Y-52548505D01*
X120111713Y-52530642D01*
X120089495Y-52510505D01*
X120069358Y-52488287D01*
X120051495Y-52464202D01*
X120036080Y-52438483D01*
X120023259Y-52411376D01*
X120013157Y-52383143D01*
X120005871Y-52354056D01*
X120001471Y-52324395D01*
X120000000Y-52294445D01*
X120000000Y-50705555D01*
X120001471Y-50675605D01*
X120005871Y-50645944D01*
X120013157Y-50616857D01*
X120023259Y-50588624D01*
X120036080Y-50561517D01*
X120051495Y-50535798D01*
X120069358Y-50511713D01*
X120089495Y-50489495D01*
X120111713Y-50469358D01*
X120135798Y-50451495D01*
X120161517Y-50436080D01*
X120188624Y-50423259D01*
X120216857Y-50413157D01*
X120245944Y-50405871D01*
X120275605Y-50401471D01*
X120305555Y-50400000D01*
X125494445Y-50400000D01*
X125524395Y-50401471D01*
X125524395Y-50401471D01*
G37*
D30*
X122900000Y-51500000D03*
D28*
G36*
X107524395Y-50251471D02*
X107554056Y-50255871D01*
X107583143Y-50263157D01*
X107611376Y-50273259D01*
X107638483Y-50286080D01*
X107664202Y-50301495D01*
X107688287Y-50319358D01*
X107710505Y-50339495D01*
X107730642Y-50361713D01*
X107748505Y-50385798D01*
X107763920Y-50411517D01*
X107776741Y-50438624D01*
X107786843Y-50466857D01*
X107794129Y-50495944D01*
X107798529Y-50525605D01*
X107800000Y-50555555D01*
X107800000Y-52144445D01*
X107798529Y-52174395D01*
X107794129Y-52204056D01*
X107786843Y-52233143D01*
X107776741Y-52261376D01*
X107763920Y-52288483D01*
X107748505Y-52314202D01*
X107730642Y-52338287D01*
X107710505Y-52360505D01*
X107688287Y-52380642D01*
X107664202Y-52398505D01*
X107638483Y-52413920D01*
X107611376Y-52426741D01*
X107583143Y-52436843D01*
X107554056Y-52444129D01*
X107524395Y-52448529D01*
X107494445Y-52450000D01*
X102305555Y-52450000D01*
X102275605Y-52448529D01*
X102245944Y-52444129D01*
X102216857Y-52436843D01*
X102188624Y-52426741D01*
X102161517Y-52413920D01*
X102135798Y-52398505D01*
X102111713Y-52380642D01*
X102089495Y-52360505D01*
X102069358Y-52338287D01*
X102051495Y-52314202D01*
X102036080Y-52288483D01*
X102023259Y-52261376D01*
X102013157Y-52233143D01*
X102005871Y-52204056D01*
X102001471Y-52174395D01*
X102000000Y-52144445D01*
X102000000Y-50555555D01*
X102001471Y-50525605D01*
X102005871Y-50495944D01*
X102013157Y-50466857D01*
X102023259Y-50438624D01*
X102036080Y-50411517D01*
X102051495Y-50385798D01*
X102069358Y-50361713D01*
X102089495Y-50339495D01*
X102111713Y-50319358D01*
X102135798Y-50301495D01*
X102161517Y-50286080D01*
X102188624Y-50273259D01*
X102216857Y-50263157D01*
X102245944Y-50255871D01*
X102275605Y-50251471D01*
X102305555Y-50250000D01*
X107494445Y-50250000D01*
X107524395Y-50251471D01*
X107524395Y-50251471D01*
G37*
D30*
X104900000Y-51350000D03*
D28*
G36*
X107524395Y-55351471D02*
X107554056Y-55355871D01*
X107583143Y-55363157D01*
X107611376Y-55373259D01*
X107638483Y-55386080D01*
X107664202Y-55401495D01*
X107688287Y-55419358D01*
X107710505Y-55439495D01*
X107730642Y-55461713D01*
X107748505Y-55485798D01*
X107763920Y-55511517D01*
X107776741Y-55538624D01*
X107786843Y-55566857D01*
X107794129Y-55595944D01*
X107798529Y-55625605D01*
X107800000Y-55655555D01*
X107800000Y-57244445D01*
X107798529Y-57274395D01*
X107794129Y-57304056D01*
X107786843Y-57333143D01*
X107776741Y-57361376D01*
X107763920Y-57388483D01*
X107748505Y-57414202D01*
X107730642Y-57438287D01*
X107710505Y-57460505D01*
X107688287Y-57480642D01*
X107664202Y-57498505D01*
X107638483Y-57513920D01*
X107611376Y-57526741D01*
X107583143Y-57536843D01*
X107554056Y-57544129D01*
X107524395Y-57548529D01*
X107494445Y-57550000D01*
X102305555Y-57550000D01*
X102275605Y-57548529D01*
X102245944Y-57544129D01*
X102216857Y-57536843D01*
X102188624Y-57526741D01*
X102161517Y-57513920D01*
X102135798Y-57498505D01*
X102111713Y-57480642D01*
X102089495Y-57460505D01*
X102069358Y-57438287D01*
X102051495Y-57414202D01*
X102036080Y-57388483D01*
X102023259Y-57361376D01*
X102013157Y-57333143D01*
X102005871Y-57304056D01*
X102001471Y-57274395D01*
X102000000Y-57244445D01*
X102000000Y-55655555D01*
X102001471Y-55625605D01*
X102005871Y-55595944D01*
X102013157Y-55566857D01*
X102023259Y-55538624D01*
X102036080Y-55511517D01*
X102051495Y-55485798D01*
X102069358Y-55461713D01*
X102089495Y-55439495D01*
X102111713Y-55419358D01*
X102135798Y-55401495D01*
X102161517Y-55386080D01*
X102188624Y-55373259D01*
X102216857Y-55363157D01*
X102245944Y-55355871D01*
X102275605Y-55351471D01*
X102305555Y-55350000D01*
X107494445Y-55350000D01*
X107524395Y-55351471D01*
X107524395Y-55351471D01*
G37*
D30*
X104900000Y-56450000D03*
D28*
G36*
X202724395Y-55551471D02*
X202754056Y-55555871D01*
X202783143Y-55563157D01*
X202811376Y-55573259D01*
X202838483Y-55586080D01*
X202864202Y-55601495D01*
X202888287Y-55619358D01*
X202910505Y-55639495D01*
X202930642Y-55661713D01*
X202948505Y-55685798D01*
X202963920Y-55711517D01*
X202976741Y-55738624D01*
X202986843Y-55766857D01*
X202994129Y-55795944D01*
X202998529Y-55825605D01*
X203000000Y-55855555D01*
X203000000Y-57444445D01*
X202998529Y-57474395D01*
X202994129Y-57504056D01*
X202986843Y-57533143D01*
X202976741Y-57561376D01*
X202963920Y-57588483D01*
X202948505Y-57614202D01*
X202930642Y-57638287D01*
X202910505Y-57660505D01*
X202888287Y-57680642D01*
X202864202Y-57698505D01*
X202838483Y-57713920D01*
X202811376Y-57726741D01*
X202783143Y-57736843D01*
X202754056Y-57744129D01*
X202724395Y-57748529D01*
X202694445Y-57750000D01*
X197505555Y-57750000D01*
X197475605Y-57748529D01*
X197445944Y-57744129D01*
X197416857Y-57736843D01*
X197388624Y-57726741D01*
X197361517Y-57713920D01*
X197335798Y-57698505D01*
X197311713Y-57680642D01*
X197289495Y-57660505D01*
X197269358Y-57638287D01*
X197251495Y-57614202D01*
X197236080Y-57588483D01*
X197223259Y-57561376D01*
X197213157Y-57533143D01*
X197205871Y-57504056D01*
X197201471Y-57474395D01*
X197200000Y-57444445D01*
X197200000Y-55855555D01*
X197201471Y-55825605D01*
X197205871Y-55795944D01*
X197213157Y-55766857D01*
X197223259Y-55738624D01*
X197236080Y-55711517D01*
X197251495Y-55685798D01*
X197269358Y-55661713D01*
X197289495Y-55639495D01*
X197311713Y-55619358D01*
X197335798Y-55601495D01*
X197361517Y-55586080D01*
X197388624Y-55573259D01*
X197416857Y-55563157D01*
X197445944Y-55555871D01*
X197475605Y-55551471D01*
X197505555Y-55550000D01*
X202694445Y-55550000D01*
X202724395Y-55551471D01*
X202724395Y-55551471D01*
G37*
D30*
X200100000Y-56650000D03*
D28*
G36*
X202724395Y-50451471D02*
X202754056Y-50455871D01*
X202783143Y-50463157D01*
X202811376Y-50473259D01*
X202838483Y-50486080D01*
X202864202Y-50501495D01*
X202888287Y-50519358D01*
X202910505Y-50539495D01*
X202930642Y-50561713D01*
X202948505Y-50585798D01*
X202963920Y-50611517D01*
X202976741Y-50638624D01*
X202986843Y-50666857D01*
X202994129Y-50695944D01*
X202998529Y-50725605D01*
X203000000Y-50755555D01*
X203000000Y-52344445D01*
X202998529Y-52374395D01*
X202994129Y-52404056D01*
X202986843Y-52433143D01*
X202976741Y-52461376D01*
X202963920Y-52488483D01*
X202948505Y-52514202D01*
X202930642Y-52538287D01*
X202910505Y-52560505D01*
X202888287Y-52580642D01*
X202864202Y-52598505D01*
X202838483Y-52613920D01*
X202811376Y-52626741D01*
X202783143Y-52636843D01*
X202754056Y-52644129D01*
X202724395Y-52648529D01*
X202694445Y-52650000D01*
X197505555Y-52650000D01*
X197475605Y-52648529D01*
X197445944Y-52644129D01*
X197416857Y-52636843D01*
X197388624Y-52626741D01*
X197361517Y-52613920D01*
X197335798Y-52598505D01*
X197311713Y-52580642D01*
X197289495Y-52560505D01*
X197269358Y-52538287D01*
X197251495Y-52514202D01*
X197236080Y-52488483D01*
X197223259Y-52461376D01*
X197213157Y-52433143D01*
X197205871Y-52404056D01*
X197201471Y-52374395D01*
X197200000Y-52344445D01*
X197200000Y-50755555D01*
X197201471Y-50725605D01*
X197205871Y-50695944D01*
X197213157Y-50666857D01*
X197223259Y-50638624D01*
X197236080Y-50611517D01*
X197251495Y-50585798D01*
X197269358Y-50561713D01*
X197289495Y-50539495D01*
X197311713Y-50519358D01*
X197335798Y-50501495D01*
X197361517Y-50486080D01*
X197388624Y-50473259D01*
X197416857Y-50463157D01*
X197445944Y-50455871D01*
X197475605Y-50451471D01*
X197505555Y-50450000D01*
X202694445Y-50450000D01*
X202724395Y-50451471D01*
X202724395Y-50451471D01*
G37*
D30*
X200100000Y-51550000D03*
D28*
G36*
X119524395Y-55501471D02*
X119554056Y-55505871D01*
X119583143Y-55513157D01*
X119611376Y-55523259D01*
X119638483Y-55536080D01*
X119664202Y-55551495D01*
X119688287Y-55569358D01*
X119710505Y-55589495D01*
X119730642Y-55611713D01*
X119748505Y-55635798D01*
X119763920Y-55661517D01*
X119776741Y-55688624D01*
X119786843Y-55716857D01*
X119794129Y-55745944D01*
X119798529Y-55775605D01*
X119800000Y-55805555D01*
X119800000Y-57394445D01*
X119798529Y-57424395D01*
X119794129Y-57454056D01*
X119786843Y-57483143D01*
X119776741Y-57511376D01*
X119763920Y-57538483D01*
X119748505Y-57564202D01*
X119730642Y-57588287D01*
X119710505Y-57610505D01*
X119688287Y-57630642D01*
X119664202Y-57648505D01*
X119638483Y-57663920D01*
X119611376Y-57676741D01*
X119583143Y-57686843D01*
X119554056Y-57694129D01*
X119524395Y-57698529D01*
X119494445Y-57700000D01*
X114305555Y-57700000D01*
X114275605Y-57698529D01*
X114245944Y-57694129D01*
X114216857Y-57686843D01*
X114188624Y-57676741D01*
X114161517Y-57663920D01*
X114135798Y-57648505D01*
X114111713Y-57630642D01*
X114089495Y-57610505D01*
X114069358Y-57588287D01*
X114051495Y-57564202D01*
X114036080Y-57538483D01*
X114023259Y-57511376D01*
X114013157Y-57483143D01*
X114005871Y-57454056D01*
X114001471Y-57424395D01*
X114000000Y-57394445D01*
X114000000Y-55805555D01*
X114001471Y-55775605D01*
X114005871Y-55745944D01*
X114013157Y-55716857D01*
X114023259Y-55688624D01*
X114036080Y-55661517D01*
X114051495Y-55635798D01*
X114069358Y-55611713D01*
X114089495Y-55589495D01*
X114111713Y-55569358D01*
X114135798Y-55551495D01*
X114161517Y-55536080D01*
X114188624Y-55523259D01*
X114216857Y-55513157D01*
X114245944Y-55505871D01*
X114275605Y-55501471D01*
X114305555Y-55500000D01*
X119494445Y-55500000D01*
X119524395Y-55501471D01*
X119524395Y-55501471D01*
G37*
D30*
X116900000Y-56600000D03*
D28*
G36*
X119524395Y-50401471D02*
X119554056Y-50405871D01*
X119583143Y-50413157D01*
X119611376Y-50423259D01*
X119638483Y-50436080D01*
X119664202Y-50451495D01*
X119688287Y-50469358D01*
X119710505Y-50489495D01*
X119730642Y-50511713D01*
X119748505Y-50535798D01*
X119763920Y-50561517D01*
X119776741Y-50588624D01*
X119786843Y-50616857D01*
X119794129Y-50645944D01*
X119798529Y-50675605D01*
X119800000Y-50705555D01*
X119800000Y-52294445D01*
X119798529Y-52324395D01*
X119794129Y-52354056D01*
X119786843Y-52383143D01*
X119776741Y-52411376D01*
X119763920Y-52438483D01*
X119748505Y-52464202D01*
X119730642Y-52488287D01*
X119710505Y-52510505D01*
X119688287Y-52530642D01*
X119664202Y-52548505D01*
X119638483Y-52563920D01*
X119611376Y-52576741D01*
X119583143Y-52586843D01*
X119554056Y-52594129D01*
X119524395Y-52598529D01*
X119494445Y-52600000D01*
X114305555Y-52600000D01*
X114275605Y-52598529D01*
X114245944Y-52594129D01*
X114216857Y-52586843D01*
X114188624Y-52576741D01*
X114161517Y-52563920D01*
X114135798Y-52548505D01*
X114111713Y-52530642D01*
X114089495Y-52510505D01*
X114069358Y-52488287D01*
X114051495Y-52464202D01*
X114036080Y-52438483D01*
X114023259Y-52411376D01*
X114013157Y-52383143D01*
X114005871Y-52354056D01*
X114001471Y-52324395D01*
X114000000Y-52294445D01*
X114000000Y-50705555D01*
X114001471Y-50675605D01*
X114005871Y-50645944D01*
X114013157Y-50616857D01*
X114023259Y-50588624D01*
X114036080Y-50561517D01*
X114051495Y-50535798D01*
X114069358Y-50511713D01*
X114089495Y-50489495D01*
X114111713Y-50469358D01*
X114135798Y-50451495D01*
X114161517Y-50436080D01*
X114188624Y-50423259D01*
X114216857Y-50413157D01*
X114245944Y-50405871D01*
X114275605Y-50401471D01*
X114305555Y-50400000D01*
X119494445Y-50400000D01*
X119524395Y-50401471D01*
X119524395Y-50401471D01*
G37*
D30*
X116900000Y-51500000D03*
D28*
G36*
X184524395Y-50251471D02*
X184554056Y-50255871D01*
X184583143Y-50263157D01*
X184611376Y-50273259D01*
X184638483Y-50286080D01*
X184664202Y-50301495D01*
X184688287Y-50319358D01*
X184710505Y-50339495D01*
X184730642Y-50361713D01*
X184748505Y-50385798D01*
X184763920Y-50411517D01*
X184776741Y-50438624D01*
X184786843Y-50466857D01*
X184794129Y-50495944D01*
X184798529Y-50525605D01*
X184800000Y-50555555D01*
X184800000Y-52144445D01*
X184798529Y-52174395D01*
X184794129Y-52204056D01*
X184786843Y-52233143D01*
X184776741Y-52261376D01*
X184763920Y-52288483D01*
X184748505Y-52314202D01*
X184730642Y-52338287D01*
X184710505Y-52360505D01*
X184688287Y-52380642D01*
X184664202Y-52398505D01*
X184638483Y-52413920D01*
X184611376Y-52426741D01*
X184583143Y-52436843D01*
X184554056Y-52444129D01*
X184524395Y-52448529D01*
X184494445Y-52450000D01*
X179305555Y-52450000D01*
X179275605Y-52448529D01*
X179245944Y-52444129D01*
X179216857Y-52436843D01*
X179188624Y-52426741D01*
X179161517Y-52413920D01*
X179135798Y-52398505D01*
X179111713Y-52380642D01*
X179089495Y-52360505D01*
X179069358Y-52338287D01*
X179051495Y-52314202D01*
X179036080Y-52288483D01*
X179023259Y-52261376D01*
X179013157Y-52233143D01*
X179005871Y-52204056D01*
X179001471Y-52174395D01*
X179000000Y-52144445D01*
X179000000Y-50555555D01*
X179001471Y-50525605D01*
X179005871Y-50495944D01*
X179013157Y-50466857D01*
X179023259Y-50438624D01*
X179036080Y-50411517D01*
X179051495Y-50385798D01*
X179069358Y-50361713D01*
X179089495Y-50339495D01*
X179111713Y-50319358D01*
X179135798Y-50301495D01*
X179161517Y-50286080D01*
X179188624Y-50273259D01*
X179216857Y-50263157D01*
X179245944Y-50255871D01*
X179275605Y-50251471D01*
X179305555Y-50250000D01*
X184494445Y-50250000D01*
X184524395Y-50251471D01*
X184524395Y-50251471D01*
G37*
D30*
X181900000Y-51350000D03*
D28*
G36*
X184524395Y-55351471D02*
X184554056Y-55355871D01*
X184583143Y-55363157D01*
X184611376Y-55373259D01*
X184638483Y-55386080D01*
X184664202Y-55401495D01*
X184688287Y-55419358D01*
X184710505Y-55439495D01*
X184730642Y-55461713D01*
X184748505Y-55485798D01*
X184763920Y-55511517D01*
X184776741Y-55538624D01*
X184786843Y-55566857D01*
X184794129Y-55595944D01*
X184798529Y-55625605D01*
X184800000Y-55655555D01*
X184800000Y-57244445D01*
X184798529Y-57274395D01*
X184794129Y-57304056D01*
X184786843Y-57333143D01*
X184776741Y-57361376D01*
X184763920Y-57388483D01*
X184748505Y-57414202D01*
X184730642Y-57438287D01*
X184710505Y-57460505D01*
X184688287Y-57480642D01*
X184664202Y-57498505D01*
X184638483Y-57513920D01*
X184611376Y-57526741D01*
X184583143Y-57536843D01*
X184554056Y-57544129D01*
X184524395Y-57548529D01*
X184494445Y-57550000D01*
X179305555Y-57550000D01*
X179275605Y-57548529D01*
X179245944Y-57544129D01*
X179216857Y-57536843D01*
X179188624Y-57526741D01*
X179161517Y-57513920D01*
X179135798Y-57498505D01*
X179111713Y-57480642D01*
X179089495Y-57460505D01*
X179069358Y-57438287D01*
X179051495Y-57414202D01*
X179036080Y-57388483D01*
X179023259Y-57361376D01*
X179013157Y-57333143D01*
X179005871Y-57304056D01*
X179001471Y-57274395D01*
X179000000Y-57244445D01*
X179000000Y-55655555D01*
X179001471Y-55625605D01*
X179005871Y-55595944D01*
X179013157Y-55566857D01*
X179023259Y-55538624D01*
X179036080Y-55511517D01*
X179051495Y-55485798D01*
X179069358Y-55461713D01*
X179089495Y-55439495D01*
X179111713Y-55419358D01*
X179135798Y-55401495D01*
X179161517Y-55386080D01*
X179188624Y-55373259D01*
X179216857Y-55363157D01*
X179245944Y-55355871D01*
X179275605Y-55351471D01*
X179305555Y-55350000D01*
X184494445Y-55350000D01*
X184524395Y-55351471D01*
X184524395Y-55351471D01*
G37*
D30*
X181900000Y-56450000D03*
D28*
G36*
X196524395Y-50451471D02*
X196554056Y-50455871D01*
X196583143Y-50463157D01*
X196611376Y-50473259D01*
X196638483Y-50486080D01*
X196664202Y-50501495D01*
X196688287Y-50519358D01*
X196710505Y-50539495D01*
X196730642Y-50561713D01*
X196748505Y-50585798D01*
X196763920Y-50611517D01*
X196776741Y-50638624D01*
X196786843Y-50666857D01*
X196794129Y-50695944D01*
X196798529Y-50725605D01*
X196800000Y-50755555D01*
X196800000Y-52344445D01*
X196798529Y-52374395D01*
X196794129Y-52404056D01*
X196786843Y-52433143D01*
X196776741Y-52461376D01*
X196763920Y-52488483D01*
X196748505Y-52514202D01*
X196730642Y-52538287D01*
X196710505Y-52560505D01*
X196688287Y-52580642D01*
X196664202Y-52598505D01*
X196638483Y-52613920D01*
X196611376Y-52626741D01*
X196583143Y-52636843D01*
X196554056Y-52644129D01*
X196524395Y-52648529D01*
X196494445Y-52650000D01*
X191305555Y-52650000D01*
X191275605Y-52648529D01*
X191245944Y-52644129D01*
X191216857Y-52636843D01*
X191188624Y-52626741D01*
X191161517Y-52613920D01*
X191135798Y-52598505D01*
X191111713Y-52580642D01*
X191089495Y-52560505D01*
X191069358Y-52538287D01*
X191051495Y-52514202D01*
X191036080Y-52488483D01*
X191023259Y-52461376D01*
X191013157Y-52433143D01*
X191005871Y-52404056D01*
X191001471Y-52374395D01*
X191000000Y-52344445D01*
X191000000Y-50755555D01*
X191001471Y-50725605D01*
X191005871Y-50695944D01*
X191013157Y-50666857D01*
X191023259Y-50638624D01*
X191036080Y-50611517D01*
X191051495Y-50585798D01*
X191069358Y-50561713D01*
X191089495Y-50539495D01*
X191111713Y-50519358D01*
X191135798Y-50501495D01*
X191161517Y-50486080D01*
X191188624Y-50473259D01*
X191216857Y-50463157D01*
X191245944Y-50455871D01*
X191275605Y-50451471D01*
X191305555Y-50450000D01*
X196494445Y-50450000D01*
X196524395Y-50451471D01*
X196524395Y-50451471D01*
G37*
D30*
X193900000Y-51550000D03*
D28*
G36*
X196524395Y-55551471D02*
X196554056Y-55555871D01*
X196583143Y-55563157D01*
X196611376Y-55573259D01*
X196638483Y-55586080D01*
X196664202Y-55601495D01*
X196688287Y-55619358D01*
X196710505Y-55639495D01*
X196730642Y-55661713D01*
X196748505Y-55685798D01*
X196763920Y-55711517D01*
X196776741Y-55738624D01*
X196786843Y-55766857D01*
X196794129Y-55795944D01*
X196798529Y-55825605D01*
X196800000Y-55855555D01*
X196800000Y-57444445D01*
X196798529Y-57474395D01*
X196794129Y-57504056D01*
X196786843Y-57533143D01*
X196776741Y-57561376D01*
X196763920Y-57588483D01*
X196748505Y-57614202D01*
X196730642Y-57638287D01*
X196710505Y-57660505D01*
X196688287Y-57680642D01*
X196664202Y-57698505D01*
X196638483Y-57713920D01*
X196611376Y-57726741D01*
X196583143Y-57736843D01*
X196554056Y-57744129D01*
X196524395Y-57748529D01*
X196494445Y-57750000D01*
X191305555Y-57750000D01*
X191275605Y-57748529D01*
X191245944Y-57744129D01*
X191216857Y-57736843D01*
X191188624Y-57726741D01*
X191161517Y-57713920D01*
X191135798Y-57698505D01*
X191111713Y-57680642D01*
X191089495Y-57660505D01*
X191069358Y-57638287D01*
X191051495Y-57614202D01*
X191036080Y-57588483D01*
X191023259Y-57561376D01*
X191013157Y-57533143D01*
X191005871Y-57504056D01*
X191001471Y-57474395D01*
X191000000Y-57444445D01*
X191000000Y-55855555D01*
X191001471Y-55825605D01*
X191005871Y-55795944D01*
X191013157Y-55766857D01*
X191023259Y-55738624D01*
X191036080Y-55711517D01*
X191051495Y-55685798D01*
X191069358Y-55661713D01*
X191089495Y-55639495D01*
X191111713Y-55619358D01*
X191135798Y-55601495D01*
X191161517Y-55586080D01*
X191188624Y-55573259D01*
X191216857Y-55563157D01*
X191245944Y-55555871D01*
X191275605Y-55551471D01*
X191305555Y-55550000D01*
X196494445Y-55550000D01*
X196524395Y-55551471D01*
X196524395Y-55551471D01*
G37*
D30*
X193900000Y-56650000D03*
D12*
X168200000Y-71125000D03*
X163620000Y-71125000D03*
D13*
X165900000Y-63725000D03*
D38*
X83400000Y-163500000D03*
D39*
X86900000Y-163500000D03*
X90400000Y-163500000D03*
X93900000Y-163500000D03*
X97400000Y-163500000D03*
X100900000Y-163500000D03*
D36*
X201997351Y-71945711D03*
X200727351Y-71945711D03*
X199457351Y-71945711D03*
X198187351Y-71945711D03*
X198187351Y-77345711D03*
X199457351Y-77345711D03*
X200727351Y-77345711D03*
X201997351Y-77345711D03*
X47997351Y-72445711D03*
X46727351Y-72445711D03*
X45457351Y-72445711D03*
X44187351Y-72445711D03*
X44187351Y-77845711D03*
X45457351Y-77845711D03*
X46727351Y-77845711D03*
X47997351Y-77845711D03*
D28*
G36*
X158599943Y-143644155D02*
X158633312Y-143649105D01*
X158666035Y-143657302D01*
X158697797Y-143668666D01*
X158728293Y-143683090D01*
X158757227Y-143700432D01*
X158784323Y-143720528D01*
X158809318Y-143743182D01*
X158831972Y-143768177D01*
X158852068Y-143795273D01*
X158869410Y-143824207D01*
X158883834Y-143854703D01*
X158895198Y-143886465D01*
X158903395Y-143919188D01*
X158908345Y-143952557D01*
X158910000Y-143986250D01*
X158910000Y-144673750D01*
X158908345Y-144707443D01*
X158903395Y-144740812D01*
X158895198Y-144773535D01*
X158883834Y-144805297D01*
X158869410Y-144835793D01*
X158852068Y-144864727D01*
X158831972Y-144891823D01*
X158809318Y-144916818D01*
X158784323Y-144939472D01*
X158757227Y-144959568D01*
X158728293Y-144976910D01*
X158697797Y-144991334D01*
X158666035Y-145002698D01*
X158633312Y-145010895D01*
X158599943Y-145015845D01*
X158566250Y-145017500D01*
X157453750Y-145017500D01*
X157420057Y-145015845D01*
X157386688Y-145010895D01*
X157353965Y-145002698D01*
X157322203Y-144991334D01*
X157291707Y-144976910D01*
X157262773Y-144959568D01*
X157235677Y-144939472D01*
X157210682Y-144916818D01*
X157188028Y-144891823D01*
X157167932Y-144864727D01*
X157150590Y-144835793D01*
X157136166Y-144805297D01*
X157124802Y-144773535D01*
X157116605Y-144740812D01*
X157111655Y-144707443D01*
X157110000Y-144673750D01*
X157110000Y-143986250D01*
X157111655Y-143952557D01*
X157116605Y-143919188D01*
X157124802Y-143886465D01*
X157136166Y-143854703D01*
X157150590Y-143824207D01*
X157167932Y-143795273D01*
X157188028Y-143768177D01*
X157210682Y-143743182D01*
X157235677Y-143720528D01*
X157262773Y-143700432D01*
X157291707Y-143683090D01*
X157322203Y-143668666D01*
X157353965Y-143657302D01*
X157386688Y-143649105D01*
X157420057Y-143644155D01*
X157453750Y-143642500D01*
X158566250Y-143642500D01*
X158599943Y-143644155D01*
X158599943Y-143644155D01*
G37*
D29*
X158010000Y-144330000D03*
D28*
G36*
X158599943Y-141769155D02*
X158633312Y-141774105D01*
X158666035Y-141782302D01*
X158697797Y-141793666D01*
X158728293Y-141808090D01*
X158757227Y-141825432D01*
X158784323Y-141845528D01*
X158809318Y-141868182D01*
X158831972Y-141893177D01*
X158852068Y-141920273D01*
X158869410Y-141949207D01*
X158883834Y-141979703D01*
X158895198Y-142011465D01*
X158903395Y-142044188D01*
X158908345Y-142077557D01*
X158910000Y-142111250D01*
X158910000Y-142798750D01*
X158908345Y-142832443D01*
X158903395Y-142865812D01*
X158895198Y-142898535D01*
X158883834Y-142930297D01*
X158869410Y-142960793D01*
X158852068Y-142989727D01*
X158831972Y-143016823D01*
X158809318Y-143041818D01*
X158784323Y-143064472D01*
X158757227Y-143084568D01*
X158728293Y-143101910D01*
X158697797Y-143116334D01*
X158666035Y-143127698D01*
X158633312Y-143135895D01*
X158599943Y-143140845D01*
X158566250Y-143142500D01*
X157453750Y-143142500D01*
X157420057Y-143140845D01*
X157386688Y-143135895D01*
X157353965Y-143127698D01*
X157322203Y-143116334D01*
X157291707Y-143101910D01*
X157262773Y-143084568D01*
X157235677Y-143064472D01*
X157210682Y-143041818D01*
X157188028Y-143016823D01*
X157167932Y-142989727D01*
X157150590Y-142960793D01*
X157136166Y-142930297D01*
X157124802Y-142898535D01*
X157116605Y-142865812D01*
X157111655Y-142832443D01*
X157110000Y-142798750D01*
X157110000Y-142111250D01*
X157111655Y-142077557D01*
X157116605Y-142044188D01*
X157124802Y-142011465D01*
X157136166Y-141979703D01*
X157150590Y-141949207D01*
X157167932Y-141920273D01*
X157188028Y-141893177D01*
X157210682Y-141868182D01*
X157235677Y-141845528D01*
X157262773Y-141825432D01*
X157291707Y-141808090D01*
X157322203Y-141793666D01*
X157353965Y-141782302D01*
X157386688Y-141774105D01*
X157420057Y-141769155D01*
X157453750Y-141767500D01*
X158566250Y-141767500D01*
X158599943Y-141769155D01*
X158599943Y-141769155D01*
G37*
D29*
X158010000Y-142455000D03*
D28*
G36*
X173214943Y-139101655D02*
X173248312Y-139106605D01*
X173281035Y-139114802D01*
X173312797Y-139126166D01*
X173343293Y-139140590D01*
X173372227Y-139157932D01*
X173399323Y-139178028D01*
X173424318Y-139200682D01*
X173446972Y-139225677D01*
X173467068Y-139252773D01*
X173484410Y-139281707D01*
X173498834Y-139312203D01*
X173510198Y-139343965D01*
X173518395Y-139376688D01*
X173523345Y-139410057D01*
X173525000Y-139443750D01*
X173525000Y-140556250D01*
X173523345Y-140589943D01*
X173518395Y-140623312D01*
X173510198Y-140656035D01*
X173498834Y-140687797D01*
X173484410Y-140718293D01*
X173467068Y-140747227D01*
X173446972Y-140774323D01*
X173424318Y-140799318D01*
X173399323Y-140821972D01*
X173372227Y-140842068D01*
X173343293Y-140859410D01*
X173312797Y-140873834D01*
X173281035Y-140885198D01*
X173248312Y-140893395D01*
X173214943Y-140898345D01*
X173181250Y-140900000D01*
X172493750Y-140900000D01*
X172460057Y-140898345D01*
X172426688Y-140893395D01*
X172393965Y-140885198D01*
X172362203Y-140873834D01*
X172331707Y-140859410D01*
X172302773Y-140842068D01*
X172275677Y-140821972D01*
X172250682Y-140799318D01*
X172228028Y-140774323D01*
X172207932Y-140747227D01*
X172190590Y-140718293D01*
X172176166Y-140687797D01*
X172164802Y-140656035D01*
X172156605Y-140623312D01*
X172151655Y-140589943D01*
X172150000Y-140556250D01*
X172150000Y-139443750D01*
X172151655Y-139410057D01*
X172156605Y-139376688D01*
X172164802Y-139343965D01*
X172176166Y-139312203D01*
X172190590Y-139281707D01*
X172207932Y-139252773D01*
X172228028Y-139225677D01*
X172250682Y-139200682D01*
X172275677Y-139178028D01*
X172302773Y-139157932D01*
X172331707Y-139140590D01*
X172362203Y-139126166D01*
X172393965Y-139114802D01*
X172426688Y-139106605D01*
X172460057Y-139101655D01*
X172493750Y-139100000D01*
X173181250Y-139100000D01*
X173214943Y-139101655D01*
X173214943Y-139101655D01*
G37*
D29*
X172837500Y-140000000D03*
D28*
G36*
X171339943Y-139101655D02*
X171373312Y-139106605D01*
X171406035Y-139114802D01*
X171437797Y-139126166D01*
X171468293Y-139140590D01*
X171497227Y-139157932D01*
X171524323Y-139178028D01*
X171549318Y-139200682D01*
X171571972Y-139225677D01*
X171592068Y-139252773D01*
X171609410Y-139281707D01*
X171623834Y-139312203D01*
X171635198Y-139343965D01*
X171643395Y-139376688D01*
X171648345Y-139410057D01*
X171650000Y-139443750D01*
X171650000Y-140556250D01*
X171648345Y-140589943D01*
X171643395Y-140623312D01*
X171635198Y-140656035D01*
X171623834Y-140687797D01*
X171609410Y-140718293D01*
X171592068Y-140747227D01*
X171571972Y-140774323D01*
X171549318Y-140799318D01*
X171524323Y-140821972D01*
X171497227Y-140842068D01*
X171468293Y-140859410D01*
X171437797Y-140873834D01*
X171406035Y-140885198D01*
X171373312Y-140893395D01*
X171339943Y-140898345D01*
X171306250Y-140900000D01*
X170618750Y-140900000D01*
X170585057Y-140898345D01*
X170551688Y-140893395D01*
X170518965Y-140885198D01*
X170487203Y-140873834D01*
X170456707Y-140859410D01*
X170427773Y-140842068D01*
X170400677Y-140821972D01*
X170375682Y-140799318D01*
X170353028Y-140774323D01*
X170332932Y-140747227D01*
X170315590Y-140718293D01*
X170301166Y-140687797D01*
X170289802Y-140656035D01*
X170281605Y-140623312D01*
X170276655Y-140589943D01*
X170275000Y-140556250D01*
X170275000Y-139443750D01*
X170276655Y-139410057D01*
X170281605Y-139376688D01*
X170289802Y-139343965D01*
X170301166Y-139312203D01*
X170315590Y-139281707D01*
X170332932Y-139252773D01*
X170353028Y-139225677D01*
X170375682Y-139200682D01*
X170400677Y-139178028D01*
X170427773Y-139157932D01*
X170456707Y-139140590D01*
X170487203Y-139126166D01*
X170518965Y-139114802D01*
X170551688Y-139106605D01*
X170585057Y-139101655D01*
X170618750Y-139100000D01*
X171306250Y-139100000D01*
X171339943Y-139101655D01*
X171339943Y-139101655D01*
G37*
D29*
X170962500Y-140000000D03*
D28*
G36*
X168689943Y-146714155D02*
X168723312Y-146719105D01*
X168756035Y-146727302D01*
X168787797Y-146738666D01*
X168818293Y-146753090D01*
X168847227Y-146770432D01*
X168874323Y-146790528D01*
X168899318Y-146813182D01*
X168921972Y-146838177D01*
X168942068Y-146865273D01*
X168959410Y-146894207D01*
X168973834Y-146924703D01*
X168985198Y-146956465D01*
X168993395Y-146989188D01*
X168998345Y-147022557D01*
X169000000Y-147056250D01*
X169000000Y-147743750D01*
X168998345Y-147777443D01*
X168993395Y-147810812D01*
X168985198Y-147843535D01*
X168973834Y-147875297D01*
X168959410Y-147905793D01*
X168942068Y-147934727D01*
X168921972Y-147961823D01*
X168899318Y-147986818D01*
X168874323Y-148009472D01*
X168847227Y-148029568D01*
X168818293Y-148046910D01*
X168787797Y-148061334D01*
X168756035Y-148072698D01*
X168723312Y-148080895D01*
X168689943Y-148085845D01*
X168656250Y-148087500D01*
X167543750Y-148087500D01*
X167510057Y-148085845D01*
X167476688Y-148080895D01*
X167443965Y-148072698D01*
X167412203Y-148061334D01*
X167381707Y-148046910D01*
X167352773Y-148029568D01*
X167325677Y-148009472D01*
X167300682Y-147986818D01*
X167278028Y-147961823D01*
X167257932Y-147934727D01*
X167240590Y-147905793D01*
X167226166Y-147875297D01*
X167214802Y-147843535D01*
X167206605Y-147810812D01*
X167201655Y-147777443D01*
X167200000Y-147743750D01*
X167200000Y-147056250D01*
X167201655Y-147022557D01*
X167206605Y-146989188D01*
X167214802Y-146956465D01*
X167226166Y-146924703D01*
X167240590Y-146894207D01*
X167257932Y-146865273D01*
X167278028Y-146838177D01*
X167300682Y-146813182D01*
X167325677Y-146790528D01*
X167352773Y-146770432D01*
X167381707Y-146753090D01*
X167412203Y-146738666D01*
X167443965Y-146727302D01*
X167476688Y-146719105D01*
X167510057Y-146714155D01*
X167543750Y-146712500D01*
X168656250Y-146712500D01*
X168689943Y-146714155D01*
X168689943Y-146714155D01*
G37*
D29*
X168100000Y-147400000D03*
D28*
G36*
X168689943Y-144839155D02*
X168723312Y-144844105D01*
X168756035Y-144852302D01*
X168787797Y-144863666D01*
X168818293Y-144878090D01*
X168847227Y-144895432D01*
X168874323Y-144915528D01*
X168899318Y-144938182D01*
X168921972Y-144963177D01*
X168942068Y-144990273D01*
X168959410Y-145019207D01*
X168973834Y-145049703D01*
X168985198Y-145081465D01*
X168993395Y-145114188D01*
X168998345Y-145147557D01*
X169000000Y-145181250D01*
X169000000Y-145868750D01*
X168998345Y-145902443D01*
X168993395Y-145935812D01*
X168985198Y-145968535D01*
X168973834Y-146000297D01*
X168959410Y-146030793D01*
X168942068Y-146059727D01*
X168921972Y-146086823D01*
X168899318Y-146111818D01*
X168874323Y-146134472D01*
X168847227Y-146154568D01*
X168818293Y-146171910D01*
X168787797Y-146186334D01*
X168756035Y-146197698D01*
X168723312Y-146205895D01*
X168689943Y-146210845D01*
X168656250Y-146212500D01*
X167543750Y-146212500D01*
X167510057Y-146210845D01*
X167476688Y-146205895D01*
X167443965Y-146197698D01*
X167412203Y-146186334D01*
X167381707Y-146171910D01*
X167352773Y-146154568D01*
X167325677Y-146134472D01*
X167300682Y-146111818D01*
X167278028Y-146086823D01*
X167257932Y-146059727D01*
X167240590Y-146030793D01*
X167226166Y-146000297D01*
X167214802Y-145968535D01*
X167206605Y-145935812D01*
X167201655Y-145902443D01*
X167200000Y-145868750D01*
X167200000Y-145181250D01*
X167201655Y-145147557D01*
X167206605Y-145114188D01*
X167214802Y-145081465D01*
X167226166Y-145049703D01*
X167240590Y-145019207D01*
X167257932Y-144990273D01*
X167278028Y-144963177D01*
X167300682Y-144938182D01*
X167325677Y-144915528D01*
X167352773Y-144895432D01*
X167381707Y-144878090D01*
X167412203Y-144863666D01*
X167443965Y-144852302D01*
X167476688Y-144844105D01*
X167510057Y-144839155D01*
X167543750Y-144837500D01*
X168656250Y-144837500D01*
X168689943Y-144839155D01*
X168689943Y-144839155D01*
G37*
D29*
X168100000Y-145525000D03*
D28*
G36*
X168489943Y-134376655D02*
X168523312Y-134381605D01*
X168556035Y-134389802D01*
X168587797Y-134401166D01*
X168618293Y-134415590D01*
X168647227Y-134432932D01*
X168674323Y-134453028D01*
X168699318Y-134475682D01*
X168721972Y-134500677D01*
X168742068Y-134527773D01*
X168759410Y-134556707D01*
X168773834Y-134587203D01*
X168785198Y-134618965D01*
X168793395Y-134651688D01*
X168798345Y-134685057D01*
X168800000Y-134718750D01*
X168800000Y-135406250D01*
X168798345Y-135439943D01*
X168793395Y-135473312D01*
X168785198Y-135506035D01*
X168773834Y-135537797D01*
X168759410Y-135568293D01*
X168742068Y-135597227D01*
X168721972Y-135624323D01*
X168699318Y-135649318D01*
X168674323Y-135671972D01*
X168647227Y-135692068D01*
X168618293Y-135709410D01*
X168587797Y-135723834D01*
X168556035Y-135735198D01*
X168523312Y-135743395D01*
X168489943Y-135748345D01*
X168456250Y-135750000D01*
X167343750Y-135750000D01*
X167310057Y-135748345D01*
X167276688Y-135743395D01*
X167243965Y-135735198D01*
X167212203Y-135723834D01*
X167181707Y-135709410D01*
X167152773Y-135692068D01*
X167125677Y-135671972D01*
X167100682Y-135649318D01*
X167078028Y-135624323D01*
X167057932Y-135597227D01*
X167040590Y-135568293D01*
X167026166Y-135537797D01*
X167014802Y-135506035D01*
X167006605Y-135473312D01*
X167001655Y-135439943D01*
X167000000Y-135406250D01*
X167000000Y-134718750D01*
X167001655Y-134685057D01*
X167006605Y-134651688D01*
X167014802Y-134618965D01*
X167026166Y-134587203D01*
X167040590Y-134556707D01*
X167057932Y-134527773D01*
X167078028Y-134500677D01*
X167100682Y-134475682D01*
X167125677Y-134453028D01*
X167152773Y-134432932D01*
X167181707Y-134415590D01*
X167212203Y-134401166D01*
X167243965Y-134389802D01*
X167276688Y-134381605D01*
X167310057Y-134376655D01*
X167343750Y-134375000D01*
X168456250Y-134375000D01*
X168489943Y-134376655D01*
X168489943Y-134376655D01*
G37*
D29*
X167900000Y-135062500D03*
D28*
G36*
X168489943Y-136251655D02*
X168523312Y-136256605D01*
X168556035Y-136264802D01*
X168587797Y-136276166D01*
X168618293Y-136290590D01*
X168647227Y-136307932D01*
X168674323Y-136328028D01*
X168699318Y-136350682D01*
X168721972Y-136375677D01*
X168742068Y-136402773D01*
X168759410Y-136431707D01*
X168773834Y-136462203D01*
X168785198Y-136493965D01*
X168793395Y-136526688D01*
X168798345Y-136560057D01*
X168800000Y-136593750D01*
X168800000Y-137281250D01*
X168798345Y-137314943D01*
X168793395Y-137348312D01*
X168785198Y-137381035D01*
X168773834Y-137412797D01*
X168759410Y-137443293D01*
X168742068Y-137472227D01*
X168721972Y-137499323D01*
X168699318Y-137524318D01*
X168674323Y-137546972D01*
X168647227Y-137567068D01*
X168618293Y-137584410D01*
X168587797Y-137598834D01*
X168556035Y-137610198D01*
X168523312Y-137618395D01*
X168489943Y-137623345D01*
X168456250Y-137625000D01*
X167343750Y-137625000D01*
X167310057Y-137623345D01*
X167276688Y-137618395D01*
X167243965Y-137610198D01*
X167212203Y-137598834D01*
X167181707Y-137584410D01*
X167152773Y-137567068D01*
X167125677Y-137546972D01*
X167100682Y-137524318D01*
X167078028Y-137499323D01*
X167057932Y-137472227D01*
X167040590Y-137443293D01*
X167026166Y-137412797D01*
X167014802Y-137381035D01*
X167006605Y-137348312D01*
X167001655Y-137314943D01*
X167000000Y-137281250D01*
X167000000Y-136593750D01*
X167001655Y-136560057D01*
X167006605Y-136526688D01*
X167014802Y-136493965D01*
X167026166Y-136462203D01*
X167040590Y-136431707D01*
X167057932Y-136402773D01*
X167078028Y-136375677D01*
X167100682Y-136350682D01*
X167125677Y-136328028D01*
X167152773Y-136307932D01*
X167181707Y-136290590D01*
X167212203Y-136276166D01*
X167243965Y-136264802D01*
X167276688Y-136256605D01*
X167310057Y-136251655D01*
X167343750Y-136250000D01*
X168456250Y-136250000D01*
X168489943Y-136251655D01*
X168489943Y-136251655D01*
G37*
D29*
X167900000Y-136937500D03*
D28*
G36*
X163214943Y-142601655D02*
X163248312Y-142606605D01*
X163281035Y-142614802D01*
X163312797Y-142626166D01*
X163343293Y-142640590D01*
X163372227Y-142657932D01*
X163399323Y-142678028D01*
X163424318Y-142700682D01*
X163446972Y-142725677D01*
X163467068Y-142752773D01*
X163484410Y-142781707D01*
X163498834Y-142812203D01*
X163510198Y-142843965D01*
X163518395Y-142876688D01*
X163523345Y-142910057D01*
X163525000Y-142943750D01*
X163525000Y-144056250D01*
X163523345Y-144089943D01*
X163518395Y-144123312D01*
X163510198Y-144156035D01*
X163498834Y-144187797D01*
X163484410Y-144218293D01*
X163467068Y-144247227D01*
X163446972Y-144274323D01*
X163424318Y-144299318D01*
X163399323Y-144321972D01*
X163372227Y-144342068D01*
X163343293Y-144359410D01*
X163312797Y-144373834D01*
X163281035Y-144385198D01*
X163248312Y-144393395D01*
X163214943Y-144398345D01*
X163181250Y-144400000D01*
X162493750Y-144400000D01*
X162460057Y-144398345D01*
X162426688Y-144393395D01*
X162393965Y-144385198D01*
X162362203Y-144373834D01*
X162331707Y-144359410D01*
X162302773Y-144342068D01*
X162275677Y-144321972D01*
X162250682Y-144299318D01*
X162228028Y-144274323D01*
X162207932Y-144247227D01*
X162190590Y-144218293D01*
X162176166Y-144187797D01*
X162164802Y-144156035D01*
X162156605Y-144123312D01*
X162151655Y-144089943D01*
X162150000Y-144056250D01*
X162150000Y-142943750D01*
X162151655Y-142910057D01*
X162156605Y-142876688D01*
X162164802Y-142843965D01*
X162176166Y-142812203D01*
X162190590Y-142781707D01*
X162207932Y-142752773D01*
X162228028Y-142725677D01*
X162250682Y-142700682D01*
X162275677Y-142678028D01*
X162302773Y-142657932D01*
X162331707Y-142640590D01*
X162362203Y-142626166D01*
X162393965Y-142614802D01*
X162426688Y-142606605D01*
X162460057Y-142601655D01*
X162493750Y-142600000D01*
X163181250Y-142600000D01*
X163214943Y-142601655D01*
X163214943Y-142601655D01*
G37*
D29*
X162837500Y-143500000D03*
D28*
G36*
X161339943Y-142601655D02*
X161373312Y-142606605D01*
X161406035Y-142614802D01*
X161437797Y-142626166D01*
X161468293Y-142640590D01*
X161497227Y-142657932D01*
X161524323Y-142678028D01*
X161549318Y-142700682D01*
X161571972Y-142725677D01*
X161592068Y-142752773D01*
X161609410Y-142781707D01*
X161623834Y-142812203D01*
X161635198Y-142843965D01*
X161643395Y-142876688D01*
X161648345Y-142910057D01*
X161650000Y-142943750D01*
X161650000Y-144056250D01*
X161648345Y-144089943D01*
X161643395Y-144123312D01*
X161635198Y-144156035D01*
X161623834Y-144187797D01*
X161609410Y-144218293D01*
X161592068Y-144247227D01*
X161571972Y-144274323D01*
X161549318Y-144299318D01*
X161524323Y-144321972D01*
X161497227Y-144342068D01*
X161468293Y-144359410D01*
X161437797Y-144373834D01*
X161406035Y-144385198D01*
X161373312Y-144393395D01*
X161339943Y-144398345D01*
X161306250Y-144400000D01*
X160618750Y-144400000D01*
X160585057Y-144398345D01*
X160551688Y-144393395D01*
X160518965Y-144385198D01*
X160487203Y-144373834D01*
X160456707Y-144359410D01*
X160427773Y-144342068D01*
X160400677Y-144321972D01*
X160375682Y-144299318D01*
X160353028Y-144274323D01*
X160332932Y-144247227D01*
X160315590Y-144218293D01*
X160301166Y-144187797D01*
X160289802Y-144156035D01*
X160281605Y-144123312D01*
X160276655Y-144089943D01*
X160275000Y-144056250D01*
X160275000Y-142943750D01*
X160276655Y-142910057D01*
X160281605Y-142876688D01*
X160289802Y-142843965D01*
X160301166Y-142812203D01*
X160315590Y-142781707D01*
X160332932Y-142752773D01*
X160353028Y-142725677D01*
X160375682Y-142700682D01*
X160400677Y-142678028D01*
X160427773Y-142657932D01*
X160456707Y-142640590D01*
X160487203Y-142626166D01*
X160518965Y-142614802D01*
X160551688Y-142606605D01*
X160585057Y-142601655D01*
X160618750Y-142600000D01*
X161306250Y-142600000D01*
X161339943Y-142601655D01*
X161339943Y-142601655D01*
G37*
D29*
X160962500Y-143500000D03*
M02*
