%TF.GenerationSoftware,KiCad,Pcbnew,(5.0.0)*%
%TF.CreationDate,2019-04-29T14:38:46+02:00*%
%TF.ProjectId,Amalga_100,416D616C67615F3130302E6B69636164,rev?*%
%TF.SameCoordinates,Original*%
%TF.FileFunction,Paste,Bot*%
%TF.FilePolarity,Positive*%
%FSLAX46Y46*%
G04 Gerber Fmt 4.6, Leading zero omitted, Abs format (unit mm)*
G04 Created by KiCad (PCBNEW (5.0.0)) date 04/29/19 14:38:46*
%MOMM*%
%LPD*%
G01*
G04 APERTURE LIST*
%ADD10R,2.000000X2.000000*%
%ADD11R,3.300000X3.300000*%
%ADD12C,0.100000*%
%ADD13C,0.975000*%
%ADD14C,1.800000*%
%ADD15R,0.600000X1.550000*%
%ADD16R,2.500000X1.800000*%
G04 APERTURE END LIST*
D10*
X214300000Y-67700000D03*
X209720000Y-67700000D03*
D11*
X213800000Y-62075000D03*
X213800000Y-58525000D03*
X210200000Y-62075000D03*
X210200000Y-58525000D03*
D12*
G36*
X128337065Y-46325362D02*
X128360726Y-46328872D01*
X128383930Y-46334684D01*
X128406452Y-46342742D01*
X128428076Y-46352970D01*
X128448593Y-46365267D01*
X128467806Y-46379517D01*
X128485530Y-46395581D01*
X128830245Y-46740296D01*
X128846309Y-46758020D01*
X128860559Y-46777233D01*
X128872856Y-46797750D01*
X128883084Y-46819374D01*
X128891142Y-46841896D01*
X128896954Y-46865100D01*
X128900464Y-46888761D01*
X128901638Y-46912653D01*
X128900464Y-46936545D01*
X128896954Y-46960206D01*
X128891142Y-46983410D01*
X128883084Y-47005932D01*
X128872856Y-47027556D01*
X128860559Y-47048073D01*
X128846309Y-47067286D01*
X128830245Y-47085010D01*
X128185010Y-47730245D01*
X128167286Y-47746309D01*
X128148073Y-47760559D01*
X128127556Y-47772856D01*
X128105932Y-47783084D01*
X128083410Y-47791142D01*
X128060206Y-47796954D01*
X128036545Y-47800464D01*
X128012653Y-47801638D01*
X127988761Y-47800464D01*
X127965100Y-47796954D01*
X127941896Y-47791142D01*
X127919374Y-47783084D01*
X127897750Y-47772856D01*
X127877233Y-47760559D01*
X127858020Y-47746309D01*
X127840296Y-47730245D01*
X127495581Y-47385530D01*
X127479517Y-47367806D01*
X127465267Y-47348593D01*
X127452970Y-47328076D01*
X127442742Y-47306452D01*
X127434684Y-47283930D01*
X127428872Y-47260726D01*
X127425362Y-47237065D01*
X127424188Y-47213173D01*
X127425362Y-47189281D01*
X127428872Y-47165620D01*
X127434684Y-47142416D01*
X127442742Y-47119894D01*
X127452970Y-47098270D01*
X127465267Y-47077753D01*
X127479517Y-47058540D01*
X127495581Y-47040816D01*
X128140816Y-46395581D01*
X128158540Y-46379517D01*
X128177753Y-46365267D01*
X128198270Y-46352970D01*
X128219894Y-46342742D01*
X128242416Y-46334684D01*
X128265620Y-46328872D01*
X128289281Y-46325362D01*
X128313173Y-46324188D01*
X128337065Y-46325362D01*
X128337065Y-46325362D01*
G37*
D13*
X128162913Y-47062913D03*
D12*
G36*
X127011239Y-44999536D02*
X127034900Y-45003046D01*
X127058104Y-45008858D01*
X127080626Y-45016916D01*
X127102250Y-45027144D01*
X127122767Y-45039441D01*
X127141980Y-45053691D01*
X127159704Y-45069755D01*
X127504419Y-45414470D01*
X127520483Y-45432194D01*
X127534733Y-45451407D01*
X127547030Y-45471924D01*
X127557258Y-45493548D01*
X127565316Y-45516070D01*
X127571128Y-45539274D01*
X127574638Y-45562935D01*
X127575812Y-45586827D01*
X127574638Y-45610719D01*
X127571128Y-45634380D01*
X127565316Y-45657584D01*
X127557258Y-45680106D01*
X127547030Y-45701730D01*
X127534733Y-45722247D01*
X127520483Y-45741460D01*
X127504419Y-45759184D01*
X126859184Y-46404419D01*
X126841460Y-46420483D01*
X126822247Y-46434733D01*
X126801730Y-46447030D01*
X126780106Y-46457258D01*
X126757584Y-46465316D01*
X126734380Y-46471128D01*
X126710719Y-46474638D01*
X126686827Y-46475812D01*
X126662935Y-46474638D01*
X126639274Y-46471128D01*
X126616070Y-46465316D01*
X126593548Y-46457258D01*
X126571924Y-46447030D01*
X126551407Y-46434733D01*
X126532194Y-46420483D01*
X126514470Y-46404419D01*
X126169755Y-46059704D01*
X126153691Y-46041980D01*
X126139441Y-46022767D01*
X126127144Y-46002250D01*
X126116916Y-45980626D01*
X126108858Y-45958104D01*
X126103046Y-45934900D01*
X126099536Y-45911239D01*
X126098362Y-45887347D01*
X126099536Y-45863455D01*
X126103046Y-45839794D01*
X126108858Y-45816590D01*
X126116916Y-45794068D01*
X126127144Y-45772444D01*
X126139441Y-45751927D01*
X126153691Y-45732714D01*
X126169755Y-45714990D01*
X126814990Y-45069755D01*
X126832714Y-45053691D01*
X126851927Y-45039441D01*
X126872444Y-45027144D01*
X126894068Y-45016916D01*
X126916590Y-45008858D01*
X126939794Y-45003046D01*
X126963455Y-44999536D01*
X126987347Y-44998362D01*
X127011239Y-44999536D01*
X127011239Y-44999536D01*
G37*
D13*
X126837087Y-45737087D03*
D12*
G36*
X282374504Y-50501204D02*
X282398773Y-50504804D01*
X282422571Y-50510765D01*
X282445671Y-50519030D01*
X282467849Y-50529520D01*
X282488893Y-50542133D01*
X282508598Y-50556747D01*
X282526777Y-50573223D01*
X282543253Y-50591402D01*
X282557867Y-50611107D01*
X282570480Y-50632151D01*
X282580970Y-50654329D01*
X282589235Y-50677429D01*
X282595196Y-50701227D01*
X282598796Y-50725496D01*
X282600000Y-50750000D01*
X282600000Y-52050000D01*
X282598796Y-52074504D01*
X282595196Y-52098773D01*
X282589235Y-52122571D01*
X282580970Y-52145671D01*
X282570480Y-52167849D01*
X282557867Y-52188893D01*
X282543253Y-52208598D01*
X282526777Y-52226777D01*
X282508598Y-52243253D01*
X282488893Y-52257867D01*
X282467849Y-52270480D01*
X282445671Y-52280970D01*
X282422571Y-52289235D01*
X282398773Y-52295196D01*
X282374504Y-52298796D01*
X282350000Y-52300000D01*
X277450000Y-52300000D01*
X277425496Y-52298796D01*
X277401227Y-52295196D01*
X277377429Y-52289235D01*
X277354329Y-52280970D01*
X277332151Y-52270480D01*
X277311107Y-52257867D01*
X277291402Y-52243253D01*
X277273223Y-52226777D01*
X277256747Y-52208598D01*
X277242133Y-52188893D01*
X277229520Y-52167849D01*
X277219030Y-52145671D01*
X277210765Y-52122571D01*
X277204804Y-52098773D01*
X277201204Y-52074504D01*
X277200000Y-52050000D01*
X277200000Y-50750000D01*
X277201204Y-50725496D01*
X277204804Y-50701227D01*
X277210765Y-50677429D01*
X277219030Y-50654329D01*
X277229520Y-50632151D01*
X277242133Y-50611107D01*
X277256747Y-50591402D01*
X277273223Y-50573223D01*
X277291402Y-50556747D01*
X277311107Y-50542133D01*
X277332151Y-50529520D01*
X277354329Y-50519030D01*
X277377429Y-50510765D01*
X277401227Y-50504804D01*
X277425496Y-50501204D01*
X277450000Y-50500000D01*
X282350000Y-50500000D01*
X282374504Y-50501204D01*
X282374504Y-50501204D01*
G37*
D14*
X279900000Y-51400000D03*
D12*
G36*
X282374504Y-55601204D02*
X282398773Y-55604804D01*
X282422571Y-55610765D01*
X282445671Y-55619030D01*
X282467849Y-55629520D01*
X282488893Y-55642133D01*
X282508598Y-55656747D01*
X282526777Y-55673223D01*
X282543253Y-55691402D01*
X282557867Y-55711107D01*
X282570480Y-55732151D01*
X282580970Y-55754329D01*
X282589235Y-55777429D01*
X282595196Y-55801227D01*
X282598796Y-55825496D01*
X282600000Y-55850000D01*
X282600000Y-57150000D01*
X282598796Y-57174504D01*
X282595196Y-57198773D01*
X282589235Y-57222571D01*
X282580970Y-57245671D01*
X282570480Y-57267849D01*
X282557867Y-57288893D01*
X282543253Y-57308598D01*
X282526777Y-57326777D01*
X282508598Y-57343253D01*
X282488893Y-57357867D01*
X282467849Y-57370480D01*
X282445671Y-57380970D01*
X282422571Y-57389235D01*
X282398773Y-57395196D01*
X282374504Y-57398796D01*
X282350000Y-57400000D01*
X277450000Y-57400000D01*
X277425496Y-57398796D01*
X277401227Y-57395196D01*
X277377429Y-57389235D01*
X277354329Y-57380970D01*
X277332151Y-57370480D01*
X277311107Y-57357867D01*
X277291402Y-57343253D01*
X277273223Y-57326777D01*
X277256747Y-57308598D01*
X277242133Y-57288893D01*
X277229520Y-57267849D01*
X277219030Y-57245671D01*
X277210765Y-57222571D01*
X277204804Y-57198773D01*
X277201204Y-57174504D01*
X277200000Y-57150000D01*
X277200000Y-55850000D01*
X277201204Y-55825496D01*
X277204804Y-55801227D01*
X277210765Y-55777429D01*
X277219030Y-55754329D01*
X277229520Y-55732151D01*
X277242133Y-55711107D01*
X277256747Y-55691402D01*
X277273223Y-55673223D01*
X277291402Y-55656747D01*
X277311107Y-55642133D01*
X277332151Y-55629520D01*
X277354329Y-55619030D01*
X277377429Y-55610765D01*
X277401227Y-55604804D01*
X277425496Y-55601204D01*
X277450000Y-55600000D01*
X282350000Y-55600000D01*
X282374504Y-55601204D01*
X282374504Y-55601204D01*
G37*
D14*
X279900000Y-56500000D03*
D12*
G36*
X275374504Y-50501204D02*
X275398773Y-50504804D01*
X275422571Y-50510765D01*
X275445671Y-50519030D01*
X275467849Y-50529520D01*
X275488893Y-50542133D01*
X275508598Y-50556747D01*
X275526777Y-50573223D01*
X275543253Y-50591402D01*
X275557867Y-50611107D01*
X275570480Y-50632151D01*
X275580970Y-50654329D01*
X275589235Y-50677429D01*
X275595196Y-50701227D01*
X275598796Y-50725496D01*
X275600000Y-50750000D01*
X275600000Y-52050000D01*
X275598796Y-52074504D01*
X275595196Y-52098773D01*
X275589235Y-52122571D01*
X275580970Y-52145671D01*
X275570480Y-52167849D01*
X275557867Y-52188893D01*
X275543253Y-52208598D01*
X275526777Y-52226777D01*
X275508598Y-52243253D01*
X275488893Y-52257867D01*
X275467849Y-52270480D01*
X275445671Y-52280970D01*
X275422571Y-52289235D01*
X275398773Y-52295196D01*
X275374504Y-52298796D01*
X275350000Y-52300000D01*
X270450000Y-52300000D01*
X270425496Y-52298796D01*
X270401227Y-52295196D01*
X270377429Y-52289235D01*
X270354329Y-52280970D01*
X270332151Y-52270480D01*
X270311107Y-52257867D01*
X270291402Y-52243253D01*
X270273223Y-52226777D01*
X270256747Y-52208598D01*
X270242133Y-52188893D01*
X270229520Y-52167849D01*
X270219030Y-52145671D01*
X270210765Y-52122571D01*
X270204804Y-52098773D01*
X270201204Y-52074504D01*
X270200000Y-52050000D01*
X270200000Y-50750000D01*
X270201204Y-50725496D01*
X270204804Y-50701227D01*
X270210765Y-50677429D01*
X270219030Y-50654329D01*
X270229520Y-50632151D01*
X270242133Y-50611107D01*
X270256747Y-50591402D01*
X270273223Y-50573223D01*
X270291402Y-50556747D01*
X270311107Y-50542133D01*
X270332151Y-50529520D01*
X270354329Y-50519030D01*
X270377429Y-50510765D01*
X270401227Y-50504804D01*
X270425496Y-50501204D01*
X270450000Y-50500000D01*
X275350000Y-50500000D01*
X275374504Y-50501204D01*
X275374504Y-50501204D01*
G37*
D14*
X272900000Y-51400000D03*
D12*
G36*
X275374504Y-55601204D02*
X275398773Y-55604804D01*
X275422571Y-55610765D01*
X275445671Y-55619030D01*
X275467849Y-55629520D01*
X275488893Y-55642133D01*
X275508598Y-55656747D01*
X275526777Y-55673223D01*
X275543253Y-55691402D01*
X275557867Y-55711107D01*
X275570480Y-55732151D01*
X275580970Y-55754329D01*
X275589235Y-55777429D01*
X275595196Y-55801227D01*
X275598796Y-55825496D01*
X275600000Y-55850000D01*
X275600000Y-57150000D01*
X275598796Y-57174504D01*
X275595196Y-57198773D01*
X275589235Y-57222571D01*
X275580970Y-57245671D01*
X275570480Y-57267849D01*
X275557867Y-57288893D01*
X275543253Y-57308598D01*
X275526777Y-57326777D01*
X275508598Y-57343253D01*
X275488893Y-57357867D01*
X275467849Y-57370480D01*
X275445671Y-57380970D01*
X275422571Y-57389235D01*
X275398773Y-57395196D01*
X275374504Y-57398796D01*
X275350000Y-57400000D01*
X270450000Y-57400000D01*
X270425496Y-57398796D01*
X270401227Y-57395196D01*
X270377429Y-57389235D01*
X270354329Y-57380970D01*
X270332151Y-57370480D01*
X270311107Y-57357867D01*
X270291402Y-57343253D01*
X270273223Y-57326777D01*
X270256747Y-57308598D01*
X270242133Y-57288893D01*
X270229520Y-57267849D01*
X270219030Y-57245671D01*
X270210765Y-57222571D01*
X270204804Y-57198773D01*
X270201204Y-57174504D01*
X270200000Y-57150000D01*
X270200000Y-55850000D01*
X270201204Y-55825496D01*
X270204804Y-55801227D01*
X270210765Y-55777429D01*
X270219030Y-55754329D01*
X270229520Y-55732151D01*
X270242133Y-55711107D01*
X270256747Y-55691402D01*
X270273223Y-55673223D01*
X270291402Y-55656747D01*
X270311107Y-55642133D01*
X270332151Y-55629520D01*
X270354329Y-55619030D01*
X270377429Y-55610765D01*
X270401227Y-55604804D01*
X270425496Y-55601204D01*
X270450000Y-55600000D01*
X275350000Y-55600000D01*
X275374504Y-55601204D01*
X275374504Y-55601204D01*
G37*
D14*
X272900000Y-56500000D03*
D12*
G36*
X261374504Y-55601204D02*
X261398773Y-55604804D01*
X261422571Y-55610765D01*
X261445671Y-55619030D01*
X261467849Y-55629520D01*
X261488893Y-55642133D01*
X261508598Y-55656747D01*
X261526777Y-55673223D01*
X261543253Y-55691402D01*
X261557867Y-55711107D01*
X261570480Y-55732151D01*
X261580970Y-55754329D01*
X261589235Y-55777429D01*
X261595196Y-55801227D01*
X261598796Y-55825496D01*
X261600000Y-55850000D01*
X261600000Y-57150000D01*
X261598796Y-57174504D01*
X261595196Y-57198773D01*
X261589235Y-57222571D01*
X261580970Y-57245671D01*
X261570480Y-57267849D01*
X261557867Y-57288893D01*
X261543253Y-57308598D01*
X261526777Y-57326777D01*
X261508598Y-57343253D01*
X261488893Y-57357867D01*
X261467849Y-57370480D01*
X261445671Y-57380970D01*
X261422571Y-57389235D01*
X261398773Y-57395196D01*
X261374504Y-57398796D01*
X261350000Y-57400000D01*
X256450000Y-57400000D01*
X256425496Y-57398796D01*
X256401227Y-57395196D01*
X256377429Y-57389235D01*
X256354329Y-57380970D01*
X256332151Y-57370480D01*
X256311107Y-57357867D01*
X256291402Y-57343253D01*
X256273223Y-57326777D01*
X256256747Y-57308598D01*
X256242133Y-57288893D01*
X256229520Y-57267849D01*
X256219030Y-57245671D01*
X256210765Y-57222571D01*
X256204804Y-57198773D01*
X256201204Y-57174504D01*
X256200000Y-57150000D01*
X256200000Y-55850000D01*
X256201204Y-55825496D01*
X256204804Y-55801227D01*
X256210765Y-55777429D01*
X256219030Y-55754329D01*
X256229520Y-55732151D01*
X256242133Y-55711107D01*
X256256747Y-55691402D01*
X256273223Y-55673223D01*
X256291402Y-55656747D01*
X256311107Y-55642133D01*
X256332151Y-55629520D01*
X256354329Y-55619030D01*
X256377429Y-55610765D01*
X256401227Y-55604804D01*
X256425496Y-55601204D01*
X256450000Y-55600000D01*
X261350000Y-55600000D01*
X261374504Y-55601204D01*
X261374504Y-55601204D01*
G37*
D14*
X258900000Y-56500000D03*
D12*
G36*
X261374504Y-50501204D02*
X261398773Y-50504804D01*
X261422571Y-50510765D01*
X261445671Y-50519030D01*
X261467849Y-50529520D01*
X261488893Y-50542133D01*
X261508598Y-50556747D01*
X261526777Y-50573223D01*
X261543253Y-50591402D01*
X261557867Y-50611107D01*
X261570480Y-50632151D01*
X261580970Y-50654329D01*
X261589235Y-50677429D01*
X261595196Y-50701227D01*
X261598796Y-50725496D01*
X261600000Y-50750000D01*
X261600000Y-52050000D01*
X261598796Y-52074504D01*
X261595196Y-52098773D01*
X261589235Y-52122571D01*
X261580970Y-52145671D01*
X261570480Y-52167849D01*
X261557867Y-52188893D01*
X261543253Y-52208598D01*
X261526777Y-52226777D01*
X261508598Y-52243253D01*
X261488893Y-52257867D01*
X261467849Y-52270480D01*
X261445671Y-52280970D01*
X261422571Y-52289235D01*
X261398773Y-52295196D01*
X261374504Y-52298796D01*
X261350000Y-52300000D01*
X256450000Y-52300000D01*
X256425496Y-52298796D01*
X256401227Y-52295196D01*
X256377429Y-52289235D01*
X256354329Y-52280970D01*
X256332151Y-52270480D01*
X256311107Y-52257867D01*
X256291402Y-52243253D01*
X256273223Y-52226777D01*
X256256747Y-52208598D01*
X256242133Y-52188893D01*
X256229520Y-52167849D01*
X256219030Y-52145671D01*
X256210765Y-52122571D01*
X256204804Y-52098773D01*
X256201204Y-52074504D01*
X256200000Y-52050000D01*
X256200000Y-50750000D01*
X256201204Y-50725496D01*
X256204804Y-50701227D01*
X256210765Y-50677429D01*
X256219030Y-50654329D01*
X256229520Y-50632151D01*
X256242133Y-50611107D01*
X256256747Y-50591402D01*
X256273223Y-50573223D01*
X256291402Y-50556747D01*
X256311107Y-50542133D01*
X256332151Y-50529520D01*
X256354329Y-50519030D01*
X256377429Y-50510765D01*
X256401227Y-50504804D01*
X256425496Y-50501204D01*
X256450000Y-50500000D01*
X261350000Y-50500000D01*
X261374504Y-50501204D01*
X261374504Y-50501204D01*
G37*
D14*
X258900000Y-51400000D03*
D12*
G36*
X171167643Y-142801174D02*
X171191304Y-142804684D01*
X171214508Y-142810496D01*
X171237030Y-142818554D01*
X171258654Y-142828782D01*
X171279171Y-142841079D01*
X171298384Y-142855329D01*
X171316108Y-142871393D01*
X171332172Y-142889117D01*
X171346422Y-142908330D01*
X171358719Y-142928847D01*
X171368947Y-142950471D01*
X171377005Y-142972993D01*
X171382817Y-142996197D01*
X171386327Y-143019858D01*
X171387501Y-143043750D01*
X171387501Y-143956250D01*
X171386327Y-143980142D01*
X171382817Y-144003803D01*
X171377005Y-144027007D01*
X171368947Y-144049529D01*
X171358719Y-144071153D01*
X171346422Y-144091670D01*
X171332172Y-144110883D01*
X171316108Y-144128607D01*
X171298384Y-144144671D01*
X171279171Y-144158921D01*
X171258654Y-144171218D01*
X171237030Y-144181446D01*
X171214508Y-144189504D01*
X171191304Y-144195316D01*
X171167643Y-144198826D01*
X171143751Y-144200000D01*
X170656251Y-144200000D01*
X170632359Y-144198826D01*
X170608698Y-144195316D01*
X170585494Y-144189504D01*
X170562972Y-144181446D01*
X170541348Y-144171218D01*
X170520831Y-144158921D01*
X170501618Y-144144671D01*
X170483894Y-144128607D01*
X170467830Y-144110883D01*
X170453580Y-144091670D01*
X170441283Y-144071153D01*
X170431055Y-144049529D01*
X170422997Y-144027007D01*
X170417185Y-144003803D01*
X170413675Y-143980142D01*
X170412501Y-143956250D01*
X170412501Y-143043750D01*
X170413675Y-143019858D01*
X170417185Y-142996197D01*
X170422997Y-142972993D01*
X170431055Y-142950471D01*
X170441283Y-142928847D01*
X170453580Y-142908330D01*
X170467830Y-142889117D01*
X170483894Y-142871393D01*
X170501618Y-142855329D01*
X170520831Y-142841079D01*
X170541348Y-142828782D01*
X170562972Y-142818554D01*
X170585494Y-142810496D01*
X170608698Y-142804684D01*
X170632359Y-142801174D01*
X170656251Y-142800000D01*
X171143751Y-142800000D01*
X171167643Y-142801174D01*
X171167643Y-142801174D01*
G37*
D13*
X170900001Y-143500000D03*
D12*
G36*
X173042643Y-142801174D02*
X173066304Y-142804684D01*
X173089508Y-142810496D01*
X173112030Y-142818554D01*
X173133654Y-142828782D01*
X173154171Y-142841079D01*
X173173384Y-142855329D01*
X173191108Y-142871393D01*
X173207172Y-142889117D01*
X173221422Y-142908330D01*
X173233719Y-142928847D01*
X173243947Y-142950471D01*
X173252005Y-142972993D01*
X173257817Y-142996197D01*
X173261327Y-143019858D01*
X173262501Y-143043750D01*
X173262501Y-143956250D01*
X173261327Y-143980142D01*
X173257817Y-144003803D01*
X173252005Y-144027007D01*
X173243947Y-144049529D01*
X173233719Y-144071153D01*
X173221422Y-144091670D01*
X173207172Y-144110883D01*
X173191108Y-144128607D01*
X173173384Y-144144671D01*
X173154171Y-144158921D01*
X173133654Y-144171218D01*
X173112030Y-144181446D01*
X173089508Y-144189504D01*
X173066304Y-144195316D01*
X173042643Y-144198826D01*
X173018751Y-144200000D01*
X172531251Y-144200000D01*
X172507359Y-144198826D01*
X172483698Y-144195316D01*
X172460494Y-144189504D01*
X172437972Y-144181446D01*
X172416348Y-144171218D01*
X172395831Y-144158921D01*
X172376618Y-144144671D01*
X172358894Y-144128607D01*
X172342830Y-144110883D01*
X172328580Y-144091670D01*
X172316283Y-144071153D01*
X172306055Y-144049529D01*
X172297997Y-144027007D01*
X172292185Y-144003803D01*
X172288675Y-143980142D01*
X172287501Y-143956250D01*
X172287501Y-143043750D01*
X172288675Y-143019858D01*
X172292185Y-142996197D01*
X172297997Y-142972993D01*
X172306055Y-142950471D01*
X172316283Y-142928847D01*
X172328580Y-142908330D01*
X172342830Y-142889117D01*
X172358894Y-142871393D01*
X172376618Y-142855329D01*
X172395831Y-142841079D01*
X172416348Y-142828782D01*
X172437972Y-142818554D01*
X172460494Y-142810496D01*
X172483698Y-142804684D01*
X172507359Y-142801174D01*
X172531251Y-142800000D01*
X173018751Y-142800000D01*
X173042643Y-142801174D01*
X173042643Y-142801174D01*
G37*
D13*
X172775001Y-143500000D03*
D12*
G36*
X165380142Y-136451174D02*
X165403803Y-136454684D01*
X165427007Y-136460496D01*
X165449529Y-136468554D01*
X165471153Y-136478782D01*
X165491670Y-136491079D01*
X165510883Y-136505329D01*
X165528607Y-136521393D01*
X165544671Y-136539117D01*
X165558921Y-136558330D01*
X165571218Y-136578847D01*
X165581446Y-136600471D01*
X165589504Y-136622993D01*
X165595316Y-136646197D01*
X165598826Y-136669858D01*
X165600000Y-136693750D01*
X165600000Y-137181250D01*
X165598826Y-137205142D01*
X165595316Y-137228803D01*
X165589504Y-137252007D01*
X165581446Y-137274529D01*
X165571218Y-137296153D01*
X165558921Y-137316670D01*
X165544671Y-137335883D01*
X165528607Y-137353607D01*
X165510883Y-137369671D01*
X165491670Y-137383921D01*
X165471153Y-137396218D01*
X165449529Y-137406446D01*
X165427007Y-137414504D01*
X165403803Y-137420316D01*
X165380142Y-137423826D01*
X165356250Y-137425000D01*
X164443750Y-137425000D01*
X164419858Y-137423826D01*
X164396197Y-137420316D01*
X164372993Y-137414504D01*
X164350471Y-137406446D01*
X164328847Y-137396218D01*
X164308330Y-137383921D01*
X164289117Y-137369671D01*
X164271393Y-137353607D01*
X164255329Y-137335883D01*
X164241079Y-137316670D01*
X164228782Y-137296153D01*
X164218554Y-137274529D01*
X164210496Y-137252007D01*
X164204684Y-137228803D01*
X164201174Y-137205142D01*
X164200000Y-137181250D01*
X164200000Y-136693750D01*
X164201174Y-136669858D01*
X164204684Y-136646197D01*
X164210496Y-136622993D01*
X164218554Y-136600471D01*
X164228782Y-136578847D01*
X164241079Y-136558330D01*
X164255329Y-136539117D01*
X164271393Y-136521393D01*
X164289117Y-136505329D01*
X164308330Y-136491079D01*
X164328847Y-136478782D01*
X164350471Y-136468554D01*
X164372993Y-136460496D01*
X164396197Y-136454684D01*
X164419858Y-136451174D01*
X164443750Y-136450000D01*
X165356250Y-136450000D01*
X165380142Y-136451174D01*
X165380142Y-136451174D01*
G37*
D13*
X164900000Y-136937500D03*
D12*
G36*
X165380142Y-134576174D02*
X165403803Y-134579684D01*
X165427007Y-134585496D01*
X165449529Y-134593554D01*
X165471153Y-134603782D01*
X165491670Y-134616079D01*
X165510883Y-134630329D01*
X165528607Y-134646393D01*
X165544671Y-134664117D01*
X165558921Y-134683330D01*
X165571218Y-134703847D01*
X165581446Y-134725471D01*
X165589504Y-134747993D01*
X165595316Y-134771197D01*
X165598826Y-134794858D01*
X165600000Y-134818750D01*
X165600000Y-135306250D01*
X165598826Y-135330142D01*
X165595316Y-135353803D01*
X165589504Y-135377007D01*
X165581446Y-135399529D01*
X165571218Y-135421153D01*
X165558921Y-135441670D01*
X165544671Y-135460883D01*
X165528607Y-135478607D01*
X165510883Y-135494671D01*
X165491670Y-135508921D01*
X165471153Y-135521218D01*
X165449529Y-135531446D01*
X165427007Y-135539504D01*
X165403803Y-135545316D01*
X165380142Y-135548826D01*
X165356250Y-135550000D01*
X164443750Y-135550000D01*
X164419858Y-135548826D01*
X164396197Y-135545316D01*
X164372993Y-135539504D01*
X164350471Y-135531446D01*
X164328847Y-135521218D01*
X164308330Y-135508921D01*
X164289117Y-135494671D01*
X164271393Y-135478607D01*
X164255329Y-135460883D01*
X164241079Y-135441670D01*
X164228782Y-135421153D01*
X164218554Y-135399529D01*
X164210496Y-135377007D01*
X164204684Y-135353803D01*
X164201174Y-135330142D01*
X164200000Y-135306250D01*
X164200000Y-134818750D01*
X164201174Y-134794858D01*
X164204684Y-134771197D01*
X164210496Y-134747993D01*
X164218554Y-134725471D01*
X164228782Y-134703847D01*
X164241079Y-134683330D01*
X164255329Y-134664117D01*
X164271393Y-134646393D01*
X164289117Y-134630329D01*
X164308330Y-134616079D01*
X164328847Y-134603782D01*
X164350471Y-134593554D01*
X164372993Y-134585496D01*
X164396197Y-134579684D01*
X164419858Y-134576174D01*
X164443750Y-134575000D01*
X165356250Y-134575000D01*
X165380142Y-134576174D01*
X165380142Y-134576174D01*
G37*
D13*
X164900000Y-135062500D03*
D11*
X133580000Y-58525000D03*
X133580000Y-62075000D03*
X137180000Y-58525000D03*
X137180000Y-62075000D03*
D10*
X133100000Y-67700000D03*
X137680000Y-67700000D03*
D15*
X125005000Y-77400000D03*
X123735000Y-77400000D03*
X122465000Y-77400000D03*
X121195000Y-77400000D03*
X121195000Y-72000000D03*
X122465000Y-72000000D03*
X123735000Y-72000000D03*
X125005000Y-72000000D03*
D16*
X47400000Y-69500000D03*
X43400000Y-69500000D03*
D12*
G36*
X43080142Y-75576174D02*
X43103803Y-75579684D01*
X43127007Y-75585496D01*
X43149529Y-75593554D01*
X43171153Y-75603782D01*
X43191670Y-75616079D01*
X43210883Y-75630329D01*
X43228607Y-75646393D01*
X43244671Y-75664117D01*
X43258921Y-75683330D01*
X43271218Y-75703847D01*
X43281446Y-75725471D01*
X43289504Y-75747993D01*
X43295316Y-75771197D01*
X43298826Y-75794858D01*
X43300000Y-75818750D01*
X43300000Y-76306250D01*
X43298826Y-76330142D01*
X43295316Y-76353803D01*
X43289504Y-76377007D01*
X43281446Y-76399529D01*
X43271218Y-76421153D01*
X43258921Y-76441670D01*
X43244671Y-76460883D01*
X43228607Y-76478607D01*
X43210883Y-76494671D01*
X43191670Y-76508921D01*
X43171153Y-76521218D01*
X43149529Y-76531446D01*
X43127007Y-76539504D01*
X43103803Y-76545316D01*
X43080142Y-76548826D01*
X43056250Y-76550000D01*
X42143750Y-76550000D01*
X42119858Y-76548826D01*
X42096197Y-76545316D01*
X42072993Y-76539504D01*
X42050471Y-76531446D01*
X42028847Y-76521218D01*
X42008330Y-76508921D01*
X41989117Y-76494671D01*
X41971393Y-76478607D01*
X41955329Y-76460883D01*
X41941079Y-76441670D01*
X41928782Y-76421153D01*
X41918554Y-76399529D01*
X41910496Y-76377007D01*
X41904684Y-76353803D01*
X41901174Y-76330142D01*
X41900000Y-76306250D01*
X41900000Y-75818750D01*
X41901174Y-75794858D01*
X41904684Y-75771197D01*
X41910496Y-75747993D01*
X41918554Y-75725471D01*
X41928782Y-75703847D01*
X41941079Y-75683330D01*
X41955329Y-75664117D01*
X41971393Y-75646393D01*
X41989117Y-75630329D01*
X42008330Y-75616079D01*
X42028847Y-75603782D01*
X42050471Y-75593554D01*
X42072993Y-75585496D01*
X42096197Y-75579684D01*
X42119858Y-75576174D01*
X42143750Y-75575000D01*
X43056250Y-75575000D01*
X43080142Y-75576174D01*
X43080142Y-75576174D01*
G37*
D13*
X42600000Y-76062500D03*
D12*
G36*
X43080142Y-77451174D02*
X43103803Y-77454684D01*
X43127007Y-77460496D01*
X43149529Y-77468554D01*
X43171153Y-77478782D01*
X43191670Y-77491079D01*
X43210883Y-77505329D01*
X43228607Y-77521393D01*
X43244671Y-77539117D01*
X43258921Y-77558330D01*
X43271218Y-77578847D01*
X43281446Y-77600471D01*
X43289504Y-77622993D01*
X43295316Y-77646197D01*
X43298826Y-77669858D01*
X43300000Y-77693750D01*
X43300000Y-78181250D01*
X43298826Y-78205142D01*
X43295316Y-78228803D01*
X43289504Y-78252007D01*
X43281446Y-78274529D01*
X43271218Y-78296153D01*
X43258921Y-78316670D01*
X43244671Y-78335883D01*
X43228607Y-78353607D01*
X43210883Y-78369671D01*
X43191670Y-78383921D01*
X43171153Y-78396218D01*
X43149529Y-78406446D01*
X43127007Y-78414504D01*
X43103803Y-78420316D01*
X43080142Y-78423826D01*
X43056250Y-78425000D01*
X42143750Y-78425000D01*
X42119858Y-78423826D01*
X42096197Y-78420316D01*
X42072993Y-78414504D01*
X42050471Y-78406446D01*
X42028847Y-78396218D01*
X42008330Y-78383921D01*
X41989117Y-78369671D01*
X41971393Y-78353607D01*
X41955329Y-78335883D01*
X41941079Y-78316670D01*
X41928782Y-78296153D01*
X41918554Y-78274529D01*
X41910496Y-78252007D01*
X41904684Y-78228803D01*
X41901174Y-78205142D01*
X41900000Y-78181250D01*
X41900000Y-77693750D01*
X41901174Y-77669858D01*
X41904684Y-77646197D01*
X41910496Y-77622993D01*
X41918554Y-77600471D01*
X41928782Y-77578847D01*
X41941079Y-77558330D01*
X41955329Y-77539117D01*
X41971393Y-77521393D01*
X41989117Y-77505329D01*
X42008330Y-77491079D01*
X42028847Y-77478782D01*
X42050471Y-77468554D01*
X42072993Y-77460496D01*
X42096197Y-77454684D01*
X42119858Y-77451174D01*
X42143750Y-77450000D01*
X43056250Y-77450000D01*
X43080142Y-77451174D01*
X43080142Y-77451174D01*
G37*
D13*
X42600000Y-77937500D03*
D12*
G36*
X46292642Y-65801174D02*
X46316303Y-65804684D01*
X46339507Y-65810496D01*
X46362029Y-65818554D01*
X46383653Y-65828782D01*
X46404170Y-65841079D01*
X46423383Y-65855329D01*
X46441107Y-65871393D01*
X46457171Y-65889117D01*
X46471421Y-65908330D01*
X46483718Y-65928847D01*
X46493946Y-65950471D01*
X46502004Y-65972993D01*
X46507816Y-65996197D01*
X46511326Y-66019858D01*
X46512500Y-66043750D01*
X46512500Y-66956250D01*
X46511326Y-66980142D01*
X46507816Y-67003803D01*
X46502004Y-67027007D01*
X46493946Y-67049529D01*
X46483718Y-67071153D01*
X46471421Y-67091670D01*
X46457171Y-67110883D01*
X46441107Y-67128607D01*
X46423383Y-67144671D01*
X46404170Y-67158921D01*
X46383653Y-67171218D01*
X46362029Y-67181446D01*
X46339507Y-67189504D01*
X46316303Y-67195316D01*
X46292642Y-67198826D01*
X46268750Y-67200000D01*
X45781250Y-67200000D01*
X45757358Y-67198826D01*
X45733697Y-67195316D01*
X45710493Y-67189504D01*
X45687971Y-67181446D01*
X45666347Y-67171218D01*
X45645830Y-67158921D01*
X45626617Y-67144671D01*
X45608893Y-67128607D01*
X45592829Y-67110883D01*
X45578579Y-67091670D01*
X45566282Y-67071153D01*
X45556054Y-67049529D01*
X45547996Y-67027007D01*
X45542184Y-67003803D01*
X45538674Y-66980142D01*
X45537500Y-66956250D01*
X45537500Y-66043750D01*
X45538674Y-66019858D01*
X45542184Y-65996197D01*
X45547996Y-65972993D01*
X45556054Y-65950471D01*
X45566282Y-65928847D01*
X45578579Y-65908330D01*
X45592829Y-65889117D01*
X45608893Y-65871393D01*
X45626617Y-65855329D01*
X45645830Y-65841079D01*
X45666347Y-65828782D01*
X45687971Y-65818554D01*
X45710493Y-65810496D01*
X45733697Y-65804684D01*
X45757358Y-65801174D01*
X45781250Y-65800000D01*
X46268750Y-65800000D01*
X46292642Y-65801174D01*
X46292642Y-65801174D01*
G37*
D13*
X46025000Y-66500000D03*
D12*
G36*
X48167642Y-65801174D02*
X48191303Y-65804684D01*
X48214507Y-65810496D01*
X48237029Y-65818554D01*
X48258653Y-65828782D01*
X48279170Y-65841079D01*
X48298383Y-65855329D01*
X48316107Y-65871393D01*
X48332171Y-65889117D01*
X48346421Y-65908330D01*
X48358718Y-65928847D01*
X48368946Y-65950471D01*
X48377004Y-65972993D01*
X48382816Y-65996197D01*
X48386326Y-66019858D01*
X48387500Y-66043750D01*
X48387500Y-66956250D01*
X48386326Y-66980142D01*
X48382816Y-67003803D01*
X48377004Y-67027007D01*
X48368946Y-67049529D01*
X48358718Y-67071153D01*
X48346421Y-67091670D01*
X48332171Y-67110883D01*
X48316107Y-67128607D01*
X48298383Y-67144671D01*
X48279170Y-67158921D01*
X48258653Y-67171218D01*
X48237029Y-67181446D01*
X48214507Y-67189504D01*
X48191303Y-67195316D01*
X48167642Y-67198826D01*
X48143750Y-67200000D01*
X47656250Y-67200000D01*
X47632358Y-67198826D01*
X47608697Y-67195316D01*
X47585493Y-67189504D01*
X47562971Y-67181446D01*
X47541347Y-67171218D01*
X47520830Y-67158921D01*
X47501617Y-67144671D01*
X47483893Y-67128607D01*
X47467829Y-67110883D01*
X47453579Y-67091670D01*
X47441282Y-67071153D01*
X47431054Y-67049529D01*
X47422996Y-67027007D01*
X47417184Y-67003803D01*
X47413674Y-66980142D01*
X47412500Y-66956250D01*
X47412500Y-66043750D01*
X47413674Y-66019858D01*
X47417184Y-65996197D01*
X47422996Y-65972993D01*
X47431054Y-65950471D01*
X47441282Y-65928847D01*
X47453579Y-65908330D01*
X47467829Y-65889117D01*
X47483893Y-65871393D01*
X47501617Y-65855329D01*
X47520830Y-65841079D01*
X47541347Y-65828782D01*
X47562971Y-65818554D01*
X47585493Y-65810496D01*
X47608697Y-65804684D01*
X47632358Y-65801174D01*
X47656250Y-65800000D01*
X48143750Y-65800000D01*
X48167642Y-65801174D01*
X48167642Y-65801174D01*
G37*
D13*
X47900000Y-66500000D03*
D12*
G36*
X120080142Y-75138673D02*
X120103803Y-75142183D01*
X120127007Y-75147995D01*
X120149529Y-75156053D01*
X120171153Y-75166281D01*
X120191670Y-75178578D01*
X120210883Y-75192828D01*
X120228607Y-75208892D01*
X120244671Y-75226616D01*
X120258921Y-75245829D01*
X120271218Y-75266346D01*
X120281446Y-75287970D01*
X120289504Y-75310492D01*
X120295316Y-75333696D01*
X120298826Y-75357357D01*
X120300000Y-75381249D01*
X120300000Y-75868749D01*
X120298826Y-75892641D01*
X120295316Y-75916302D01*
X120289504Y-75939506D01*
X120281446Y-75962028D01*
X120271218Y-75983652D01*
X120258921Y-76004169D01*
X120244671Y-76023382D01*
X120228607Y-76041106D01*
X120210883Y-76057170D01*
X120191670Y-76071420D01*
X120171153Y-76083717D01*
X120149529Y-76093945D01*
X120127007Y-76102003D01*
X120103803Y-76107815D01*
X120080142Y-76111325D01*
X120056250Y-76112499D01*
X119143750Y-76112499D01*
X119119858Y-76111325D01*
X119096197Y-76107815D01*
X119072993Y-76102003D01*
X119050471Y-76093945D01*
X119028847Y-76083717D01*
X119008330Y-76071420D01*
X118989117Y-76057170D01*
X118971393Y-76041106D01*
X118955329Y-76023382D01*
X118941079Y-76004169D01*
X118928782Y-75983652D01*
X118918554Y-75962028D01*
X118910496Y-75939506D01*
X118904684Y-75916302D01*
X118901174Y-75892641D01*
X118900000Y-75868749D01*
X118900000Y-75381249D01*
X118901174Y-75357357D01*
X118904684Y-75333696D01*
X118910496Y-75310492D01*
X118918554Y-75287970D01*
X118928782Y-75266346D01*
X118941079Y-75245829D01*
X118955329Y-75226616D01*
X118971393Y-75208892D01*
X118989117Y-75192828D01*
X119008330Y-75178578D01*
X119028847Y-75166281D01*
X119050471Y-75156053D01*
X119072993Y-75147995D01*
X119096197Y-75142183D01*
X119119858Y-75138673D01*
X119143750Y-75137499D01*
X120056250Y-75137499D01*
X120080142Y-75138673D01*
X120080142Y-75138673D01*
G37*
D13*
X119600000Y-75624999D03*
D12*
G36*
X120080142Y-77013673D02*
X120103803Y-77017183D01*
X120127007Y-77022995D01*
X120149529Y-77031053D01*
X120171153Y-77041281D01*
X120191670Y-77053578D01*
X120210883Y-77067828D01*
X120228607Y-77083892D01*
X120244671Y-77101616D01*
X120258921Y-77120829D01*
X120271218Y-77141346D01*
X120281446Y-77162970D01*
X120289504Y-77185492D01*
X120295316Y-77208696D01*
X120298826Y-77232357D01*
X120300000Y-77256249D01*
X120300000Y-77743749D01*
X120298826Y-77767641D01*
X120295316Y-77791302D01*
X120289504Y-77814506D01*
X120281446Y-77837028D01*
X120271218Y-77858652D01*
X120258921Y-77879169D01*
X120244671Y-77898382D01*
X120228607Y-77916106D01*
X120210883Y-77932170D01*
X120191670Y-77946420D01*
X120171153Y-77958717D01*
X120149529Y-77968945D01*
X120127007Y-77977003D01*
X120103803Y-77982815D01*
X120080142Y-77986325D01*
X120056250Y-77987499D01*
X119143750Y-77987499D01*
X119119858Y-77986325D01*
X119096197Y-77982815D01*
X119072993Y-77977003D01*
X119050471Y-77968945D01*
X119028847Y-77958717D01*
X119008330Y-77946420D01*
X118989117Y-77932170D01*
X118971393Y-77916106D01*
X118955329Y-77898382D01*
X118941079Y-77879169D01*
X118928782Y-77858652D01*
X118918554Y-77837028D01*
X118910496Y-77814506D01*
X118904684Y-77791302D01*
X118901174Y-77767641D01*
X118900000Y-77743749D01*
X118900000Y-77256249D01*
X118901174Y-77232357D01*
X118904684Y-77208696D01*
X118910496Y-77185492D01*
X118918554Y-77162970D01*
X118928782Y-77141346D01*
X118941079Y-77120829D01*
X118955329Y-77101616D01*
X118971393Y-77083892D01*
X118989117Y-77067828D01*
X119008330Y-77053578D01*
X119028847Y-77041281D01*
X119050471Y-77031053D01*
X119072993Y-77022995D01*
X119096197Y-77017183D01*
X119119858Y-77013673D01*
X119143750Y-77012499D01*
X120056250Y-77012499D01*
X120080142Y-77013673D01*
X120080142Y-77013673D01*
G37*
D13*
X119600000Y-77499999D03*
D16*
X120400000Y-69000000D03*
X124400000Y-69000000D03*
X201400000Y-69000000D03*
X197400000Y-69000000D03*
D11*
X241300000Y-61925000D03*
X241300000Y-65475000D03*
X244900000Y-61925000D03*
X244900000Y-65475000D03*
D10*
X240820000Y-71100000D03*
X245400000Y-71100000D03*
D12*
G36*
X21374504Y-55751204D02*
X21398773Y-55754804D01*
X21422571Y-55760765D01*
X21445671Y-55769030D01*
X21467849Y-55779520D01*
X21488893Y-55792133D01*
X21508598Y-55806747D01*
X21526777Y-55823223D01*
X21543253Y-55841402D01*
X21557867Y-55861107D01*
X21570480Y-55882151D01*
X21580970Y-55904329D01*
X21589235Y-55927429D01*
X21595196Y-55951227D01*
X21598796Y-55975496D01*
X21600000Y-56000000D01*
X21600000Y-57300000D01*
X21598796Y-57324504D01*
X21595196Y-57348773D01*
X21589235Y-57372571D01*
X21580970Y-57395671D01*
X21570480Y-57417849D01*
X21557867Y-57438893D01*
X21543253Y-57458598D01*
X21526777Y-57476777D01*
X21508598Y-57493253D01*
X21488893Y-57507867D01*
X21467849Y-57520480D01*
X21445671Y-57530970D01*
X21422571Y-57539235D01*
X21398773Y-57545196D01*
X21374504Y-57548796D01*
X21350000Y-57550000D01*
X16450000Y-57550000D01*
X16425496Y-57548796D01*
X16401227Y-57545196D01*
X16377429Y-57539235D01*
X16354329Y-57530970D01*
X16332151Y-57520480D01*
X16311107Y-57507867D01*
X16291402Y-57493253D01*
X16273223Y-57476777D01*
X16256747Y-57458598D01*
X16242133Y-57438893D01*
X16229520Y-57417849D01*
X16219030Y-57395671D01*
X16210765Y-57372571D01*
X16204804Y-57348773D01*
X16201204Y-57324504D01*
X16200000Y-57300000D01*
X16200000Y-56000000D01*
X16201204Y-55975496D01*
X16204804Y-55951227D01*
X16210765Y-55927429D01*
X16219030Y-55904329D01*
X16229520Y-55882151D01*
X16242133Y-55861107D01*
X16256747Y-55841402D01*
X16273223Y-55823223D01*
X16291402Y-55806747D01*
X16311107Y-55792133D01*
X16332151Y-55779520D01*
X16354329Y-55769030D01*
X16377429Y-55760765D01*
X16401227Y-55754804D01*
X16425496Y-55751204D01*
X16450000Y-55750000D01*
X21350000Y-55750000D01*
X21374504Y-55751204D01*
X21374504Y-55751204D01*
G37*
D14*
X18900000Y-56650000D03*
D12*
G36*
X21374504Y-50651204D02*
X21398773Y-50654804D01*
X21422571Y-50660765D01*
X21445671Y-50669030D01*
X21467849Y-50679520D01*
X21488893Y-50692133D01*
X21508598Y-50706747D01*
X21526777Y-50723223D01*
X21543253Y-50741402D01*
X21557867Y-50761107D01*
X21570480Y-50782151D01*
X21580970Y-50804329D01*
X21589235Y-50827429D01*
X21595196Y-50851227D01*
X21598796Y-50875496D01*
X21600000Y-50900000D01*
X21600000Y-52200000D01*
X21598796Y-52224504D01*
X21595196Y-52248773D01*
X21589235Y-52272571D01*
X21580970Y-52295671D01*
X21570480Y-52317849D01*
X21557867Y-52338893D01*
X21543253Y-52358598D01*
X21526777Y-52376777D01*
X21508598Y-52393253D01*
X21488893Y-52407867D01*
X21467849Y-52420480D01*
X21445671Y-52430970D01*
X21422571Y-52439235D01*
X21398773Y-52445196D01*
X21374504Y-52448796D01*
X21350000Y-52450000D01*
X16450000Y-52450000D01*
X16425496Y-52448796D01*
X16401227Y-52445196D01*
X16377429Y-52439235D01*
X16354329Y-52430970D01*
X16332151Y-52420480D01*
X16311107Y-52407867D01*
X16291402Y-52393253D01*
X16273223Y-52376777D01*
X16256747Y-52358598D01*
X16242133Y-52338893D01*
X16229520Y-52317849D01*
X16219030Y-52295671D01*
X16210765Y-52272571D01*
X16204804Y-52248773D01*
X16201204Y-52224504D01*
X16200000Y-52200000D01*
X16200000Y-50900000D01*
X16201204Y-50875496D01*
X16204804Y-50851227D01*
X16210765Y-50827429D01*
X16219030Y-50804329D01*
X16229520Y-50782151D01*
X16242133Y-50761107D01*
X16256747Y-50741402D01*
X16273223Y-50723223D01*
X16291402Y-50706747D01*
X16311107Y-50692133D01*
X16332151Y-50679520D01*
X16354329Y-50669030D01*
X16377429Y-50660765D01*
X16401227Y-50654804D01*
X16425496Y-50651204D01*
X16450000Y-50650000D01*
X21350000Y-50650000D01*
X21374504Y-50651204D01*
X21374504Y-50651204D01*
G37*
D14*
X18900000Y-51550000D03*
D12*
G36*
X41374504Y-55751204D02*
X41398773Y-55754804D01*
X41422571Y-55760765D01*
X41445671Y-55769030D01*
X41467849Y-55779520D01*
X41488893Y-55792133D01*
X41508598Y-55806747D01*
X41526777Y-55823223D01*
X41543253Y-55841402D01*
X41557867Y-55861107D01*
X41570480Y-55882151D01*
X41580970Y-55904329D01*
X41589235Y-55927429D01*
X41595196Y-55951227D01*
X41598796Y-55975496D01*
X41600000Y-56000000D01*
X41600000Y-57300000D01*
X41598796Y-57324504D01*
X41595196Y-57348773D01*
X41589235Y-57372571D01*
X41580970Y-57395671D01*
X41570480Y-57417849D01*
X41557867Y-57438893D01*
X41543253Y-57458598D01*
X41526777Y-57476777D01*
X41508598Y-57493253D01*
X41488893Y-57507867D01*
X41467849Y-57520480D01*
X41445671Y-57530970D01*
X41422571Y-57539235D01*
X41398773Y-57545196D01*
X41374504Y-57548796D01*
X41350000Y-57550000D01*
X36450000Y-57550000D01*
X36425496Y-57548796D01*
X36401227Y-57545196D01*
X36377429Y-57539235D01*
X36354329Y-57530970D01*
X36332151Y-57520480D01*
X36311107Y-57507867D01*
X36291402Y-57493253D01*
X36273223Y-57476777D01*
X36256747Y-57458598D01*
X36242133Y-57438893D01*
X36229520Y-57417849D01*
X36219030Y-57395671D01*
X36210765Y-57372571D01*
X36204804Y-57348773D01*
X36201204Y-57324504D01*
X36200000Y-57300000D01*
X36200000Y-56000000D01*
X36201204Y-55975496D01*
X36204804Y-55951227D01*
X36210765Y-55927429D01*
X36219030Y-55904329D01*
X36229520Y-55882151D01*
X36242133Y-55861107D01*
X36256747Y-55841402D01*
X36273223Y-55823223D01*
X36291402Y-55806747D01*
X36311107Y-55792133D01*
X36332151Y-55779520D01*
X36354329Y-55769030D01*
X36377429Y-55760765D01*
X36401227Y-55754804D01*
X36425496Y-55751204D01*
X36450000Y-55750000D01*
X41350000Y-55750000D01*
X41374504Y-55751204D01*
X41374504Y-55751204D01*
G37*
D14*
X38900000Y-56650000D03*
D12*
G36*
X41374504Y-50651204D02*
X41398773Y-50654804D01*
X41422571Y-50660765D01*
X41445671Y-50669030D01*
X41467849Y-50679520D01*
X41488893Y-50692133D01*
X41508598Y-50706747D01*
X41526777Y-50723223D01*
X41543253Y-50741402D01*
X41557867Y-50761107D01*
X41570480Y-50782151D01*
X41580970Y-50804329D01*
X41589235Y-50827429D01*
X41595196Y-50851227D01*
X41598796Y-50875496D01*
X41600000Y-50900000D01*
X41600000Y-52200000D01*
X41598796Y-52224504D01*
X41595196Y-52248773D01*
X41589235Y-52272571D01*
X41580970Y-52295671D01*
X41570480Y-52317849D01*
X41557867Y-52338893D01*
X41543253Y-52358598D01*
X41526777Y-52376777D01*
X41508598Y-52393253D01*
X41488893Y-52407867D01*
X41467849Y-52420480D01*
X41445671Y-52430970D01*
X41422571Y-52439235D01*
X41398773Y-52445196D01*
X41374504Y-52448796D01*
X41350000Y-52450000D01*
X36450000Y-52450000D01*
X36425496Y-52448796D01*
X36401227Y-52445196D01*
X36377429Y-52439235D01*
X36354329Y-52430970D01*
X36332151Y-52420480D01*
X36311107Y-52407867D01*
X36291402Y-52393253D01*
X36273223Y-52376777D01*
X36256747Y-52358598D01*
X36242133Y-52338893D01*
X36229520Y-52317849D01*
X36219030Y-52295671D01*
X36210765Y-52272571D01*
X36204804Y-52248773D01*
X36201204Y-52224504D01*
X36200000Y-52200000D01*
X36200000Y-50900000D01*
X36201204Y-50875496D01*
X36204804Y-50851227D01*
X36210765Y-50827429D01*
X36219030Y-50804329D01*
X36229520Y-50782151D01*
X36242133Y-50761107D01*
X36256747Y-50741402D01*
X36273223Y-50723223D01*
X36291402Y-50706747D01*
X36311107Y-50692133D01*
X36332151Y-50679520D01*
X36354329Y-50669030D01*
X36377429Y-50660765D01*
X36401227Y-50654804D01*
X36425496Y-50651204D01*
X36450000Y-50650000D01*
X41350000Y-50650000D01*
X41374504Y-50651204D01*
X41374504Y-50651204D01*
G37*
D14*
X38900000Y-51550000D03*
D10*
X60500000Y-67675000D03*
X55920000Y-67675000D03*
D11*
X60000000Y-62050000D03*
X60000000Y-58500000D03*
X56400000Y-62050000D03*
X56400000Y-58500000D03*
X87380000Y-62125000D03*
X87380000Y-65675000D03*
X90980000Y-62125000D03*
X90980000Y-65675000D03*
D10*
X86900000Y-71300000D03*
X91480000Y-71300000D03*
D12*
G36*
X197080142Y-77051174D02*
X197103803Y-77054684D01*
X197127007Y-77060496D01*
X197149529Y-77068554D01*
X197171153Y-77078782D01*
X197191670Y-77091079D01*
X197210883Y-77105329D01*
X197228607Y-77121393D01*
X197244671Y-77139117D01*
X197258921Y-77158330D01*
X197271218Y-77178847D01*
X197281446Y-77200471D01*
X197289504Y-77222993D01*
X197295316Y-77246197D01*
X197298826Y-77269858D01*
X197300000Y-77293750D01*
X197300000Y-77781250D01*
X197298826Y-77805142D01*
X197295316Y-77828803D01*
X197289504Y-77852007D01*
X197281446Y-77874529D01*
X197271218Y-77896153D01*
X197258921Y-77916670D01*
X197244671Y-77935883D01*
X197228607Y-77953607D01*
X197210883Y-77969671D01*
X197191670Y-77983921D01*
X197171153Y-77996218D01*
X197149529Y-78006446D01*
X197127007Y-78014504D01*
X197103803Y-78020316D01*
X197080142Y-78023826D01*
X197056250Y-78025000D01*
X196143750Y-78025000D01*
X196119858Y-78023826D01*
X196096197Y-78020316D01*
X196072993Y-78014504D01*
X196050471Y-78006446D01*
X196028847Y-77996218D01*
X196008330Y-77983921D01*
X195989117Y-77969671D01*
X195971393Y-77953607D01*
X195955329Y-77935883D01*
X195941079Y-77916670D01*
X195928782Y-77896153D01*
X195918554Y-77874529D01*
X195910496Y-77852007D01*
X195904684Y-77828803D01*
X195901174Y-77805142D01*
X195900000Y-77781250D01*
X195900000Y-77293750D01*
X195901174Y-77269858D01*
X195904684Y-77246197D01*
X195910496Y-77222993D01*
X195918554Y-77200471D01*
X195928782Y-77178847D01*
X195941079Y-77158330D01*
X195955329Y-77139117D01*
X195971393Y-77121393D01*
X195989117Y-77105329D01*
X196008330Y-77091079D01*
X196028847Y-77078782D01*
X196050471Y-77068554D01*
X196072993Y-77060496D01*
X196096197Y-77054684D01*
X196119858Y-77051174D01*
X196143750Y-77050000D01*
X197056250Y-77050000D01*
X197080142Y-77051174D01*
X197080142Y-77051174D01*
G37*
D13*
X196600000Y-77537500D03*
D12*
G36*
X197080142Y-75176174D02*
X197103803Y-75179684D01*
X197127007Y-75185496D01*
X197149529Y-75193554D01*
X197171153Y-75203782D01*
X197191670Y-75216079D01*
X197210883Y-75230329D01*
X197228607Y-75246393D01*
X197244671Y-75264117D01*
X197258921Y-75283330D01*
X197271218Y-75303847D01*
X197281446Y-75325471D01*
X197289504Y-75347993D01*
X197295316Y-75371197D01*
X197298826Y-75394858D01*
X197300000Y-75418750D01*
X197300000Y-75906250D01*
X197298826Y-75930142D01*
X197295316Y-75953803D01*
X197289504Y-75977007D01*
X197281446Y-75999529D01*
X197271218Y-76021153D01*
X197258921Y-76041670D01*
X197244671Y-76060883D01*
X197228607Y-76078607D01*
X197210883Y-76094671D01*
X197191670Y-76108921D01*
X197171153Y-76121218D01*
X197149529Y-76131446D01*
X197127007Y-76139504D01*
X197103803Y-76145316D01*
X197080142Y-76148826D01*
X197056250Y-76150000D01*
X196143750Y-76150000D01*
X196119858Y-76148826D01*
X196096197Y-76145316D01*
X196072993Y-76139504D01*
X196050471Y-76131446D01*
X196028847Y-76121218D01*
X196008330Y-76108921D01*
X195989117Y-76094671D01*
X195971393Y-76078607D01*
X195955329Y-76060883D01*
X195941079Y-76041670D01*
X195928782Y-76021153D01*
X195918554Y-75999529D01*
X195910496Y-75977007D01*
X195904684Y-75953803D01*
X195901174Y-75930142D01*
X195900000Y-75906250D01*
X195900000Y-75418750D01*
X195901174Y-75394858D01*
X195904684Y-75371197D01*
X195910496Y-75347993D01*
X195918554Y-75325471D01*
X195928782Y-75303847D01*
X195941079Y-75283330D01*
X195955329Y-75264117D01*
X195971393Y-75246393D01*
X195989117Y-75230329D01*
X196008330Y-75216079D01*
X196028847Y-75203782D01*
X196050471Y-75193554D01*
X196072993Y-75185496D01*
X196096197Y-75179684D01*
X196119858Y-75176174D01*
X196143750Y-75175000D01*
X197056250Y-75175000D01*
X197080142Y-75176174D01*
X197080142Y-75176174D01*
G37*
D13*
X196600000Y-75662500D03*
D12*
G36*
X202297493Y-64946885D02*
X202321154Y-64950395D01*
X202344358Y-64956207D01*
X202366880Y-64964265D01*
X202388504Y-64974493D01*
X202409021Y-64986790D01*
X202428234Y-65001040D01*
X202445958Y-65017104D01*
X202462022Y-65034828D01*
X202476272Y-65054041D01*
X202488569Y-65074558D01*
X202498797Y-65096182D01*
X202506855Y-65118704D01*
X202512667Y-65141908D01*
X202516177Y-65165569D01*
X202517351Y-65189461D01*
X202517351Y-66101961D01*
X202516177Y-66125853D01*
X202512667Y-66149514D01*
X202506855Y-66172718D01*
X202498797Y-66195240D01*
X202488569Y-66216864D01*
X202476272Y-66237381D01*
X202462022Y-66256594D01*
X202445958Y-66274318D01*
X202428234Y-66290382D01*
X202409021Y-66304632D01*
X202388504Y-66316929D01*
X202366880Y-66327157D01*
X202344358Y-66335215D01*
X202321154Y-66341027D01*
X202297493Y-66344537D01*
X202273601Y-66345711D01*
X201786101Y-66345711D01*
X201762209Y-66344537D01*
X201738548Y-66341027D01*
X201715344Y-66335215D01*
X201692822Y-66327157D01*
X201671198Y-66316929D01*
X201650681Y-66304632D01*
X201631468Y-66290382D01*
X201613744Y-66274318D01*
X201597680Y-66256594D01*
X201583430Y-66237381D01*
X201571133Y-66216864D01*
X201560905Y-66195240D01*
X201552847Y-66172718D01*
X201547035Y-66149514D01*
X201543525Y-66125853D01*
X201542351Y-66101961D01*
X201542351Y-65189461D01*
X201543525Y-65165569D01*
X201547035Y-65141908D01*
X201552847Y-65118704D01*
X201560905Y-65096182D01*
X201571133Y-65074558D01*
X201583430Y-65054041D01*
X201597680Y-65034828D01*
X201613744Y-65017104D01*
X201631468Y-65001040D01*
X201650681Y-64986790D01*
X201671198Y-64974493D01*
X201692822Y-64964265D01*
X201715344Y-64956207D01*
X201738548Y-64950395D01*
X201762209Y-64946885D01*
X201786101Y-64945711D01*
X202273601Y-64945711D01*
X202297493Y-64946885D01*
X202297493Y-64946885D01*
G37*
D13*
X202029851Y-65645711D03*
D12*
G36*
X200422493Y-64946885D02*
X200446154Y-64950395D01*
X200469358Y-64956207D01*
X200491880Y-64964265D01*
X200513504Y-64974493D01*
X200534021Y-64986790D01*
X200553234Y-65001040D01*
X200570958Y-65017104D01*
X200587022Y-65034828D01*
X200601272Y-65054041D01*
X200613569Y-65074558D01*
X200623797Y-65096182D01*
X200631855Y-65118704D01*
X200637667Y-65141908D01*
X200641177Y-65165569D01*
X200642351Y-65189461D01*
X200642351Y-66101961D01*
X200641177Y-66125853D01*
X200637667Y-66149514D01*
X200631855Y-66172718D01*
X200623797Y-66195240D01*
X200613569Y-66216864D01*
X200601272Y-66237381D01*
X200587022Y-66256594D01*
X200570958Y-66274318D01*
X200553234Y-66290382D01*
X200534021Y-66304632D01*
X200513504Y-66316929D01*
X200491880Y-66327157D01*
X200469358Y-66335215D01*
X200446154Y-66341027D01*
X200422493Y-66344537D01*
X200398601Y-66345711D01*
X199911101Y-66345711D01*
X199887209Y-66344537D01*
X199863548Y-66341027D01*
X199840344Y-66335215D01*
X199817822Y-66327157D01*
X199796198Y-66316929D01*
X199775681Y-66304632D01*
X199756468Y-66290382D01*
X199738744Y-66274318D01*
X199722680Y-66256594D01*
X199708430Y-66237381D01*
X199696133Y-66216864D01*
X199685905Y-66195240D01*
X199677847Y-66172718D01*
X199672035Y-66149514D01*
X199668525Y-66125853D01*
X199667351Y-66101961D01*
X199667351Y-65189461D01*
X199668525Y-65165569D01*
X199672035Y-65141908D01*
X199677847Y-65118704D01*
X199685905Y-65096182D01*
X199696133Y-65074558D01*
X199708430Y-65054041D01*
X199722680Y-65034828D01*
X199738744Y-65017104D01*
X199756468Y-65001040D01*
X199775681Y-64986790D01*
X199796198Y-64974493D01*
X199817822Y-64964265D01*
X199840344Y-64956207D01*
X199863548Y-64950395D01*
X199887209Y-64946885D01*
X199911101Y-64945711D01*
X200398601Y-64945711D01*
X200422493Y-64946885D01*
X200422493Y-64946885D01*
G37*
D13*
X200154851Y-65645711D03*
D12*
G36*
X123530142Y-65301174D02*
X123553803Y-65304684D01*
X123577007Y-65310496D01*
X123599529Y-65318554D01*
X123621153Y-65328782D01*
X123641670Y-65341079D01*
X123660883Y-65355329D01*
X123678607Y-65371393D01*
X123694671Y-65389117D01*
X123708921Y-65408330D01*
X123721218Y-65428847D01*
X123731446Y-65450471D01*
X123739504Y-65472993D01*
X123745316Y-65496197D01*
X123748826Y-65519858D01*
X123750000Y-65543750D01*
X123750000Y-66456250D01*
X123748826Y-66480142D01*
X123745316Y-66503803D01*
X123739504Y-66527007D01*
X123731446Y-66549529D01*
X123721218Y-66571153D01*
X123708921Y-66591670D01*
X123694671Y-66610883D01*
X123678607Y-66628607D01*
X123660883Y-66644671D01*
X123641670Y-66658921D01*
X123621153Y-66671218D01*
X123599529Y-66681446D01*
X123577007Y-66689504D01*
X123553803Y-66695316D01*
X123530142Y-66698826D01*
X123506250Y-66700000D01*
X123018750Y-66700000D01*
X122994858Y-66698826D01*
X122971197Y-66695316D01*
X122947993Y-66689504D01*
X122925471Y-66681446D01*
X122903847Y-66671218D01*
X122883330Y-66658921D01*
X122864117Y-66644671D01*
X122846393Y-66628607D01*
X122830329Y-66610883D01*
X122816079Y-66591670D01*
X122803782Y-66571153D01*
X122793554Y-66549529D01*
X122785496Y-66527007D01*
X122779684Y-66503803D01*
X122776174Y-66480142D01*
X122775000Y-66456250D01*
X122775000Y-65543750D01*
X122776174Y-65519858D01*
X122779684Y-65496197D01*
X122785496Y-65472993D01*
X122793554Y-65450471D01*
X122803782Y-65428847D01*
X122816079Y-65408330D01*
X122830329Y-65389117D01*
X122846393Y-65371393D01*
X122864117Y-65355329D01*
X122883330Y-65341079D01*
X122903847Y-65328782D01*
X122925471Y-65318554D01*
X122947993Y-65310496D01*
X122971197Y-65304684D01*
X122994858Y-65301174D01*
X123018750Y-65300000D01*
X123506250Y-65300000D01*
X123530142Y-65301174D01*
X123530142Y-65301174D01*
G37*
D13*
X123262500Y-66000000D03*
D12*
G36*
X125405142Y-65301174D02*
X125428803Y-65304684D01*
X125452007Y-65310496D01*
X125474529Y-65318554D01*
X125496153Y-65328782D01*
X125516670Y-65341079D01*
X125535883Y-65355329D01*
X125553607Y-65371393D01*
X125569671Y-65389117D01*
X125583921Y-65408330D01*
X125596218Y-65428847D01*
X125606446Y-65450471D01*
X125614504Y-65472993D01*
X125620316Y-65496197D01*
X125623826Y-65519858D01*
X125625000Y-65543750D01*
X125625000Y-66456250D01*
X125623826Y-66480142D01*
X125620316Y-66503803D01*
X125614504Y-66527007D01*
X125606446Y-66549529D01*
X125596218Y-66571153D01*
X125583921Y-66591670D01*
X125569671Y-66610883D01*
X125553607Y-66628607D01*
X125535883Y-66644671D01*
X125516670Y-66658921D01*
X125496153Y-66671218D01*
X125474529Y-66681446D01*
X125452007Y-66689504D01*
X125428803Y-66695316D01*
X125405142Y-66698826D01*
X125381250Y-66700000D01*
X124893750Y-66700000D01*
X124869858Y-66698826D01*
X124846197Y-66695316D01*
X124822993Y-66689504D01*
X124800471Y-66681446D01*
X124778847Y-66671218D01*
X124758330Y-66658921D01*
X124739117Y-66644671D01*
X124721393Y-66628607D01*
X124705329Y-66610883D01*
X124691079Y-66591670D01*
X124678782Y-66571153D01*
X124668554Y-66549529D01*
X124660496Y-66527007D01*
X124654684Y-66503803D01*
X124651174Y-66480142D01*
X124650000Y-66456250D01*
X124650000Y-65543750D01*
X124651174Y-65519858D01*
X124654684Y-65496197D01*
X124660496Y-65472993D01*
X124668554Y-65450471D01*
X124678782Y-65428847D01*
X124691079Y-65408330D01*
X124705329Y-65389117D01*
X124721393Y-65371393D01*
X124739117Y-65355329D01*
X124758330Y-65341079D01*
X124778847Y-65328782D01*
X124800471Y-65318554D01*
X124822993Y-65310496D01*
X124846197Y-65304684D01*
X124869858Y-65301174D01*
X124893750Y-65300000D01*
X125381250Y-65300000D01*
X125405142Y-65301174D01*
X125405142Y-65301174D01*
G37*
D13*
X125137500Y-66000000D03*
D12*
G36*
X68342634Y-129677250D02*
X68366295Y-129680760D01*
X68389499Y-129686572D01*
X68412021Y-129694630D01*
X68433645Y-129704858D01*
X68454162Y-129717155D01*
X68473375Y-129731405D01*
X68491099Y-129747469D01*
X68507163Y-129765193D01*
X68521413Y-129784406D01*
X68533710Y-129804923D01*
X68543938Y-129826547D01*
X68551996Y-129849069D01*
X68557808Y-129872273D01*
X68561318Y-129895934D01*
X68562492Y-129919826D01*
X68562492Y-130832326D01*
X68561318Y-130856218D01*
X68557808Y-130879879D01*
X68551996Y-130903083D01*
X68543938Y-130925605D01*
X68533710Y-130947229D01*
X68521413Y-130967746D01*
X68507163Y-130986959D01*
X68491099Y-131004683D01*
X68473375Y-131020747D01*
X68454162Y-131034997D01*
X68433645Y-131047294D01*
X68412021Y-131057522D01*
X68389499Y-131065580D01*
X68366295Y-131071392D01*
X68342634Y-131074902D01*
X68318742Y-131076076D01*
X67831242Y-131076076D01*
X67807350Y-131074902D01*
X67783689Y-131071392D01*
X67760485Y-131065580D01*
X67737963Y-131057522D01*
X67716339Y-131047294D01*
X67695822Y-131034997D01*
X67676609Y-131020747D01*
X67658885Y-131004683D01*
X67642821Y-130986959D01*
X67628571Y-130967746D01*
X67616274Y-130947229D01*
X67606046Y-130925605D01*
X67597988Y-130903083D01*
X67592176Y-130879879D01*
X67588666Y-130856218D01*
X67587492Y-130832326D01*
X67587492Y-129919826D01*
X67588666Y-129895934D01*
X67592176Y-129872273D01*
X67597988Y-129849069D01*
X67606046Y-129826547D01*
X67616274Y-129804923D01*
X67628571Y-129784406D01*
X67642821Y-129765193D01*
X67658885Y-129747469D01*
X67676609Y-129731405D01*
X67695822Y-129717155D01*
X67716339Y-129704858D01*
X67737963Y-129694630D01*
X67760485Y-129686572D01*
X67783689Y-129680760D01*
X67807350Y-129677250D01*
X67831242Y-129676076D01*
X68318742Y-129676076D01*
X68342634Y-129677250D01*
X68342634Y-129677250D01*
G37*
D13*
X68074992Y-130376076D03*
D12*
G36*
X70217634Y-129677250D02*
X70241295Y-129680760D01*
X70264499Y-129686572D01*
X70287021Y-129694630D01*
X70308645Y-129704858D01*
X70329162Y-129717155D01*
X70348375Y-129731405D01*
X70366099Y-129747469D01*
X70382163Y-129765193D01*
X70396413Y-129784406D01*
X70408710Y-129804923D01*
X70418938Y-129826547D01*
X70426996Y-129849069D01*
X70432808Y-129872273D01*
X70436318Y-129895934D01*
X70437492Y-129919826D01*
X70437492Y-130832326D01*
X70436318Y-130856218D01*
X70432808Y-130879879D01*
X70426996Y-130903083D01*
X70418938Y-130925605D01*
X70408710Y-130947229D01*
X70396413Y-130967746D01*
X70382163Y-130986959D01*
X70366099Y-131004683D01*
X70348375Y-131020747D01*
X70329162Y-131034997D01*
X70308645Y-131047294D01*
X70287021Y-131057522D01*
X70264499Y-131065580D01*
X70241295Y-131071392D01*
X70217634Y-131074902D01*
X70193742Y-131076076D01*
X69706242Y-131076076D01*
X69682350Y-131074902D01*
X69658689Y-131071392D01*
X69635485Y-131065580D01*
X69612963Y-131057522D01*
X69591339Y-131047294D01*
X69570822Y-131034997D01*
X69551609Y-131020747D01*
X69533885Y-131004683D01*
X69517821Y-130986959D01*
X69503571Y-130967746D01*
X69491274Y-130947229D01*
X69481046Y-130925605D01*
X69472988Y-130903083D01*
X69467176Y-130879879D01*
X69463666Y-130856218D01*
X69462492Y-130832326D01*
X69462492Y-129919826D01*
X69463666Y-129895934D01*
X69467176Y-129872273D01*
X69472988Y-129849069D01*
X69481046Y-129826547D01*
X69491274Y-129804923D01*
X69503571Y-129784406D01*
X69517821Y-129765193D01*
X69533885Y-129747469D01*
X69551609Y-129731405D01*
X69570822Y-129717155D01*
X69591339Y-129704858D01*
X69612963Y-129694630D01*
X69635485Y-129686572D01*
X69658689Y-129680760D01*
X69682350Y-129677250D01*
X69706242Y-129676076D01*
X70193742Y-129676076D01*
X70217634Y-129677250D01*
X70217634Y-129677250D01*
G37*
D13*
X69949992Y-130376076D03*
D12*
G36*
X203730142Y-133201174D02*
X203753803Y-133204684D01*
X203777007Y-133210496D01*
X203799529Y-133218554D01*
X203821153Y-133228782D01*
X203841670Y-133241079D01*
X203860883Y-133255329D01*
X203878607Y-133271393D01*
X203894671Y-133289117D01*
X203908921Y-133308330D01*
X203921218Y-133328847D01*
X203931446Y-133350471D01*
X203939504Y-133372993D01*
X203945316Y-133396197D01*
X203948826Y-133419858D01*
X203950000Y-133443750D01*
X203950000Y-134356250D01*
X203948826Y-134380142D01*
X203945316Y-134403803D01*
X203939504Y-134427007D01*
X203931446Y-134449529D01*
X203921218Y-134471153D01*
X203908921Y-134491670D01*
X203894671Y-134510883D01*
X203878607Y-134528607D01*
X203860883Y-134544671D01*
X203841670Y-134558921D01*
X203821153Y-134571218D01*
X203799529Y-134581446D01*
X203777007Y-134589504D01*
X203753803Y-134595316D01*
X203730142Y-134598826D01*
X203706250Y-134600000D01*
X203218750Y-134600000D01*
X203194858Y-134598826D01*
X203171197Y-134595316D01*
X203147993Y-134589504D01*
X203125471Y-134581446D01*
X203103847Y-134571218D01*
X203083330Y-134558921D01*
X203064117Y-134544671D01*
X203046393Y-134528607D01*
X203030329Y-134510883D01*
X203016079Y-134491670D01*
X203003782Y-134471153D01*
X202993554Y-134449529D01*
X202985496Y-134427007D01*
X202979684Y-134403803D01*
X202976174Y-134380142D01*
X202975000Y-134356250D01*
X202975000Y-133443750D01*
X202976174Y-133419858D01*
X202979684Y-133396197D01*
X202985496Y-133372993D01*
X202993554Y-133350471D01*
X203003782Y-133328847D01*
X203016079Y-133308330D01*
X203030329Y-133289117D01*
X203046393Y-133271393D01*
X203064117Y-133255329D01*
X203083330Y-133241079D01*
X203103847Y-133228782D01*
X203125471Y-133218554D01*
X203147993Y-133210496D01*
X203171197Y-133204684D01*
X203194858Y-133201174D01*
X203218750Y-133200000D01*
X203706250Y-133200000D01*
X203730142Y-133201174D01*
X203730142Y-133201174D01*
G37*
D13*
X203462500Y-133900000D03*
D12*
G36*
X205605142Y-133201174D02*
X205628803Y-133204684D01*
X205652007Y-133210496D01*
X205674529Y-133218554D01*
X205696153Y-133228782D01*
X205716670Y-133241079D01*
X205735883Y-133255329D01*
X205753607Y-133271393D01*
X205769671Y-133289117D01*
X205783921Y-133308330D01*
X205796218Y-133328847D01*
X205806446Y-133350471D01*
X205814504Y-133372993D01*
X205820316Y-133396197D01*
X205823826Y-133419858D01*
X205825000Y-133443750D01*
X205825000Y-134356250D01*
X205823826Y-134380142D01*
X205820316Y-134403803D01*
X205814504Y-134427007D01*
X205806446Y-134449529D01*
X205796218Y-134471153D01*
X205783921Y-134491670D01*
X205769671Y-134510883D01*
X205753607Y-134528607D01*
X205735883Y-134544671D01*
X205716670Y-134558921D01*
X205696153Y-134571218D01*
X205674529Y-134581446D01*
X205652007Y-134589504D01*
X205628803Y-134595316D01*
X205605142Y-134598826D01*
X205581250Y-134600000D01*
X205093750Y-134600000D01*
X205069858Y-134598826D01*
X205046197Y-134595316D01*
X205022993Y-134589504D01*
X205000471Y-134581446D01*
X204978847Y-134571218D01*
X204958330Y-134558921D01*
X204939117Y-134544671D01*
X204921393Y-134528607D01*
X204905329Y-134510883D01*
X204891079Y-134491670D01*
X204878782Y-134471153D01*
X204868554Y-134449529D01*
X204860496Y-134427007D01*
X204854684Y-134403803D01*
X204851174Y-134380142D01*
X204850000Y-134356250D01*
X204850000Y-133443750D01*
X204851174Y-133419858D01*
X204854684Y-133396197D01*
X204860496Y-133372993D01*
X204868554Y-133350471D01*
X204878782Y-133328847D01*
X204891079Y-133308330D01*
X204905329Y-133289117D01*
X204921393Y-133271393D01*
X204939117Y-133255329D01*
X204958330Y-133241079D01*
X204978847Y-133228782D01*
X205000471Y-133218554D01*
X205022993Y-133210496D01*
X205046197Y-133204684D01*
X205069858Y-133201174D01*
X205093750Y-133200000D01*
X205581250Y-133200000D01*
X205605142Y-133201174D01*
X205605142Y-133201174D01*
G37*
D13*
X205337500Y-133900000D03*
D12*
G36*
X203411239Y-44899536D02*
X203434900Y-44903046D01*
X203458104Y-44908858D01*
X203480626Y-44916916D01*
X203502250Y-44927144D01*
X203522767Y-44939441D01*
X203541980Y-44953691D01*
X203559704Y-44969755D01*
X203904419Y-45314470D01*
X203920483Y-45332194D01*
X203934733Y-45351407D01*
X203947030Y-45371924D01*
X203957258Y-45393548D01*
X203965316Y-45416070D01*
X203971128Y-45439274D01*
X203974638Y-45462935D01*
X203975812Y-45486827D01*
X203974638Y-45510719D01*
X203971128Y-45534380D01*
X203965316Y-45557584D01*
X203957258Y-45580106D01*
X203947030Y-45601730D01*
X203934733Y-45622247D01*
X203920483Y-45641460D01*
X203904419Y-45659184D01*
X203259184Y-46304419D01*
X203241460Y-46320483D01*
X203222247Y-46334733D01*
X203201730Y-46347030D01*
X203180106Y-46357258D01*
X203157584Y-46365316D01*
X203134380Y-46371128D01*
X203110719Y-46374638D01*
X203086827Y-46375812D01*
X203062935Y-46374638D01*
X203039274Y-46371128D01*
X203016070Y-46365316D01*
X202993548Y-46357258D01*
X202971924Y-46347030D01*
X202951407Y-46334733D01*
X202932194Y-46320483D01*
X202914470Y-46304419D01*
X202569755Y-45959704D01*
X202553691Y-45941980D01*
X202539441Y-45922767D01*
X202527144Y-45902250D01*
X202516916Y-45880626D01*
X202508858Y-45858104D01*
X202503046Y-45834900D01*
X202499536Y-45811239D01*
X202498362Y-45787347D01*
X202499536Y-45763455D01*
X202503046Y-45739794D01*
X202508858Y-45716590D01*
X202516916Y-45694068D01*
X202527144Y-45672444D01*
X202539441Y-45651927D01*
X202553691Y-45632714D01*
X202569755Y-45614990D01*
X203214990Y-44969755D01*
X203232714Y-44953691D01*
X203251927Y-44939441D01*
X203272444Y-44927144D01*
X203294068Y-44916916D01*
X203316590Y-44908858D01*
X203339794Y-44903046D01*
X203363455Y-44899536D01*
X203387347Y-44898362D01*
X203411239Y-44899536D01*
X203411239Y-44899536D01*
G37*
D13*
X203237087Y-45637087D03*
D12*
G36*
X204737065Y-46225362D02*
X204760726Y-46228872D01*
X204783930Y-46234684D01*
X204806452Y-46242742D01*
X204828076Y-46252970D01*
X204848593Y-46265267D01*
X204867806Y-46279517D01*
X204885530Y-46295581D01*
X205230245Y-46640296D01*
X205246309Y-46658020D01*
X205260559Y-46677233D01*
X205272856Y-46697750D01*
X205283084Y-46719374D01*
X205291142Y-46741896D01*
X205296954Y-46765100D01*
X205300464Y-46788761D01*
X205301638Y-46812653D01*
X205300464Y-46836545D01*
X205296954Y-46860206D01*
X205291142Y-46883410D01*
X205283084Y-46905932D01*
X205272856Y-46927556D01*
X205260559Y-46948073D01*
X205246309Y-46967286D01*
X205230245Y-46985010D01*
X204585010Y-47630245D01*
X204567286Y-47646309D01*
X204548073Y-47660559D01*
X204527556Y-47672856D01*
X204505932Y-47683084D01*
X204483410Y-47691142D01*
X204460206Y-47696954D01*
X204436545Y-47700464D01*
X204412653Y-47701638D01*
X204388761Y-47700464D01*
X204365100Y-47696954D01*
X204341896Y-47691142D01*
X204319374Y-47683084D01*
X204297750Y-47672856D01*
X204277233Y-47660559D01*
X204258020Y-47646309D01*
X204240296Y-47630245D01*
X203895581Y-47285530D01*
X203879517Y-47267806D01*
X203865267Y-47248593D01*
X203852970Y-47228076D01*
X203842742Y-47206452D01*
X203834684Y-47183930D01*
X203828872Y-47160726D01*
X203825362Y-47137065D01*
X203824188Y-47113173D01*
X203825362Y-47089281D01*
X203828872Y-47065620D01*
X203834684Y-47042416D01*
X203842742Y-47019894D01*
X203852970Y-46998270D01*
X203865267Y-46977753D01*
X203879517Y-46958540D01*
X203895581Y-46940816D01*
X204540816Y-46295581D01*
X204558540Y-46279517D01*
X204577753Y-46265267D01*
X204598270Y-46252970D01*
X204619894Y-46242742D01*
X204642416Y-46234684D01*
X204665620Y-46228872D01*
X204689281Y-46225362D01*
X204713173Y-46224188D01*
X204737065Y-46225362D01*
X204737065Y-46225362D01*
G37*
D13*
X204562913Y-46962913D03*
D12*
G36*
X49611239Y-44899536D02*
X49634900Y-44903046D01*
X49658104Y-44908858D01*
X49680626Y-44916916D01*
X49702250Y-44927144D01*
X49722767Y-44939441D01*
X49741980Y-44953691D01*
X49759704Y-44969755D01*
X50104419Y-45314470D01*
X50120483Y-45332194D01*
X50134733Y-45351407D01*
X50147030Y-45371924D01*
X50157258Y-45393548D01*
X50165316Y-45416070D01*
X50171128Y-45439274D01*
X50174638Y-45462935D01*
X50175812Y-45486827D01*
X50174638Y-45510719D01*
X50171128Y-45534380D01*
X50165316Y-45557584D01*
X50157258Y-45580106D01*
X50147030Y-45601730D01*
X50134733Y-45622247D01*
X50120483Y-45641460D01*
X50104419Y-45659184D01*
X49459184Y-46304419D01*
X49441460Y-46320483D01*
X49422247Y-46334733D01*
X49401730Y-46347030D01*
X49380106Y-46357258D01*
X49357584Y-46365316D01*
X49334380Y-46371128D01*
X49310719Y-46374638D01*
X49286827Y-46375812D01*
X49262935Y-46374638D01*
X49239274Y-46371128D01*
X49216070Y-46365316D01*
X49193548Y-46357258D01*
X49171924Y-46347030D01*
X49151407Y-46334733D01*
X49132194Y-46320483D01*
X49114470Y-46304419D01*
X48769755Y-45959704D01*
X48753691Y-45941980D01*
X48739441Y-45922767D01*
X48727144Y-45902250D01*
X48716916Y-45880626D01*
X48708858Y-45858104D01*
X48703046Y-45834900D01*
X48699536Y-45811239D01*
X48698362Y-45787347D01*
X48699536Y-45763455D01*
X48703046Y-45739794D01*
X48708858Y-45716590D01*
X48716916Y-45694068D01*
X48727144Y-45672444D01*
X48739441Y-45651927D01*
X48753691Y-45632714D01*
X48769755Y-45614990D01*
X49414990Y-44969755D01*
X49432714Y-44953691D01*
X49451927Y-44939441D01*
X49472444Y-44927144D01*
X49494068Y-44916916D01*
X49516590Y-44908858D01*
X49539794Y-44903046D01*
X49563455Y-44899536D01*
X49587347Y-44898362D01*
X49611239Y-44899536D01*
X49611239Y-44899536D01*
G37*
D13*
X49437087Y-45637087D03*
D12*
G36*
X50937065Y-46225362D02*
X50960726Y-46228872D01*
X50983930Y-46234684D01*
X51006452Y-46242742D01*
X51028076Y-46252970D01*
X51048593Y-46265267D01*
X51067806Y-46279517D01*
X51085530Y-46295581D01*
X51430245Y-46640296D01*
X51446309Y-46658020D01*
X51460559Y-46677233D01*
X51472856Y-46697750D01*
X51483084Y-46719374D01*
X51491142Y-46741896D01*
X51496954Y-46765100D01*
X51500464Y-46788761D01*
X51501638Y-46812653D01*
X51500464Y-46836545D01*
X51496954Y-46860206D01*
X51491142Y-46883410D01*
X51483084Y-46905932D01*
X51472856Y-46927556D01*
X51460559Y-46948073D01*
X51446309Y-46967286D01*
X51430245Y-46985010D01*
X50785010Y-47630245D01*
X50767286Y-47646309D01*
X50748073Y-47660559D01*
X50727556Y-47672856D01*
X50705932Y-47683084D01*
X50683410Y-47691142D01*
X50660206Y-47696954D01*
X50636545Y-47700464D01*
X50612653Y-47701638D01*
X50588761Y-47700464D01*
X50565100Y-47696954D01*
X50541896Y-47691142D01*
X50519374Y-47683084D01*
X50497750Y-47672856D01*
X50477233Y-47660559D01*
X50458020Y-47646309D01*
X50440296Y-47630245D01*
X50095581Y-47285530D01*
X50079517Y-47267806D01*
X50065267Y-47248593D01*
X50052970Y-47228076D01*
X50042742Y-47206452D01*
X50034684Y-47183930D01*
X50028872Y-47160726D01*
X50025362Y-47137065D01*
X50024188Y-47113173D01*
X50025362Y-47089281D01*
X50028872Y-47065620D01*
X50034684Y-47042416D01*
X50042742Y-47019894D01*
X50052970Y-46998270D01*
X50065267Y-46977753D01*
X50079517Y-46958540D01*
X50095581Y-46940816D01*
X50740816Y-46295581D01*
X50758540Y-46279517D01*
X50777753Y-46265267D01*
X50798270Y-46252970D01*
X50819894Y-46242742D01*
X50842416Y-46234684D01*
X50865620Y-46228872D01*
X50889281Y-46225362D01*
X50913173Y-46224188D01*
X50937065Y-46225362D01*
X50937065Y-46225362D01*
G37*
D13*
X50762913Y-46962913D03*
D12*
G36*
X28374504Y-55751204D02*
X28398773Y-55754804D01*
X28422571Y-55760765D01*
X28445671Y-55769030D01*
X28467849Y-55779520D01*
X28488893Y-55792133D01*
X28508598Y-55806747D01*
X28526777Y-55823223D01*
X28543253Y-55841402D01*
X28557867Y-55861107D01*
X28570480Y-55882151D01*
X28580970Y-55904329D01*
X28589235Y-55927429D01*
X28595196Y-55951227D01*
X28598796Y-55975496D01*
X28600000Y-56000000D01*
X28600000Y-57300000D01*
X28598796Y-57324504D01*
X28595196Y-57348773D01*
X28589235Y-57372571D01*
X28580970Y-57395671D01*
X28570480Y-57417849D01*
X28557867Y-57438893D01*
X28543253Y-57458598D01*
X28526777Y-57476777D01*
X28508598Y-57493253D01*
X28488893Y-57507867D01*
X28467849Y-57520480D01*
X28445671Y-57530970D01*
X28422571Y-57539235D01*
X28398773Y-57545196D01*
X28374504Y-57548796D01*
X28350000Y-57550000D01*
X23450000Y-57550000D01*
X23425496Y-57548796D01*
X23401227Y-57545196D01*
X23377429Y-57539235D01*
X23354329Y-57530970D01*
X23332151Y-57520480D01*
X23311107Y-57507867D01*
X23291402Y-57493253D01*
X23273223Y-57476777D01*
X23256747Y-57458598D01*
X23242133Y-57438893D01*
X23229520Y-57417849D01*
X23219030Y-57395671D01*
X23210765Y-57372571D01*
X23204804Y-57348773D01*
X23201204Y-57324504D01*
X23200000Y-57300000D01*
X23200000Y-56000000D01*
X23201204Y-55975496D01*
X23204804Y-55951227D01*
X23210765Y-55927429D01*
X23219030Y-55904329D01*
X23229520Y-55882151D01*
X23242133Y-55861107D01*
X23256747Y-55841402D01*
X23273223Y-55823223D01*
X23291402Y-55806747D01*
X23311107Y-55792133D01*
X23332151Y-55779520D01*
X23354329Y-55769030D01*
X23377429Y-55760765D01*
X23401227Y-55754804D01*
X23425496Y-55751204D01*
X23450000Y-55750000D01*
X28350000Y-55750000D01*
X28374504Y-55751204D01*
X28374504Y-55751204D01*
G37*
D14*
X25900000Y-56650000D03*
D12*
G36*
X28374504Y-50651204D02*
X28398773Y-50654804D01*
X28422571Y-50660765D01*
X28445671Y-50669030D01*
X28467849Y-50679520D01*
X28488893Y-50692133D01*
X28508598Y-50706747D01*
X28526777Y-50723223D01*
X28543253Y-50741402D01*
X28557867Y-50761107D01*
X28570480Y-50782151D01*
X28580970Y-50804329D01*
X28589235Y-50827429D01*
X28595196Y-50851227D01*
X28598796Y-50875496D01*
X28600000Y-50900000D01*
X28600000Y-52200000D01*
X28598796Y-52224504D01*
X28595196Y-52248773D01*
X28589235Y-52272571D01*
X28580970Y-52295671D01*
X28570480Y-52317849D01*
X28557867Y-52338893D01*
X28543253Y-52358598D01*
X28526777Y-52376777D01*
X28508598Y-52393253D01*
X28488893Y-52407867D01*
X28467849Y-52420480D01*
X28445671Y-52430970D01*
X28422571Y-52439235D01*
X28398773Y-52445196D01*
X28374504Y-52448796D01*
X28350000Y-52450000D01*
X23450000Y-52450000D01*
X23425496Y-52448796D01*
X23401227Y-52445196D01*
X23377429Y-52439235D01*
X23354329Y-52430970D01*
X23332151Y-52420480D01*
X23311107Y-52407867D01*
X23291402Y-52393253D01*
X23273223Y-52376777D01*
X23256747Y-52358598D01*
X23242133Y-52338893D01*
X23229520Y-52317849D01*
X23219030Y-52295671D01*
X23210765Y-52272571D01*
X23204804Y-52248773D01*
X23201204Y-52224504D01*
X23200000Y-52200000D01*
X23200000Y-50900000D01*
X23201204Y-50875496D01*
X23204804Y-50851227D01*
X23210765Y-50827429D01*
X23219030Y-50804329D01*
X23229520Y-50782151D01*
X23242133Y-50761107D01*
X23256747Y-50741402D01*
X23273223Y-50723223D01*
X23291402Y-50706747D01*
X23311107Y-50692133D01*
X23332151Y-50679520D01*
X23354329Y-50669030D01*
X23377429Y-50660765D01*
X23401227Y-50654804D01*
X23425496Y-50651204D01*
X23450000Y-50650000D01*
X28350000Y-50650000D01*
X28374504Y-50651204D01*
X28374504Y-50651204D01*
G37*
D14*
X25900000Y-51550000D03*
D12*
G36*
X125374504Y-55701204D02*
X125398773Y-55704804D01*
X125422571Y-55710765D01*
X125445671Y-55719030D01*
X125467849Y-55729520D01*
X125488893Y-55742133D01*
X125508598Y-55756747D01*
X125526777Y-55773223D01*
X125543253Y-55791402D01*
X125557867Y-55811107D01*
X125570480Y-55832151D01*
X125580970Y-55854329D01*
X125589235Y-55877429D01*
X125595196Y-55901227D01*
X125598796Y-55925496D01*
X125600000Y-55950000D01*
X125600000Y-57250000D01*
X125598796Y-57274504D01*
X125595196Y-57298773D01*
X125589235Y-57322571D01*
X125580970Y-57345671D01*
X125570480Y-57367849D01*
X125557867Y-57388893D01*
X125543253Y-57408598D01*
X125526777Y-57426777D01*
X125508598Y-57443253D01*
X125488893Y-57457867D01*
X125467849Y-57470480D01*
X125445671Y-57480970D01*
X125422571Y-57489235D01*
X125398773Y-57495196D01*
X125374504Y-57498796D01*
X125350000Y-57500000D01*
X120450000Y-57500000D01*
X120425496Y-57498796D01*
X120401227Y-57495196D01*
X120377429Y-57489235D01*
X120354329Y-57480970D01*
X120332151Y-57470480D01*
X120311107Y-57457867D01*
X120291402Y-57443253D01*
X120273223Y-57426777D01*
X120256747Y-57408598D01*
X120242133Y-57388893D01*
X120229520Y-57367849D01*
X120219030Y-57345671D01*
X120210765Y-57322571D01*
X120204804Y-57298773D01*
X120201204Y-57274504D01*
X120200000Y-57250000D01*
X120200000Y-55950000D01*
X120201204Y-55925496D01*
X120204804Y-55901227D01*
X120210765Y-55877429D01*
X120219030Y-55854329D01*
X120229520Y-55832151D01*
X120242133Y-55811107D01*
X120256747Y-55791402D01*
X120273223Y-55773223D01*
X120291402Y-55756747D01*
X120311107Y-55742133D01*
X120332151Y-55729520D01*
X120354329Y-55719030D01*
X120377429Y-55710765D01*
X120401227Y-55704804D01*
X120425496Y-55701204D01*
X120450000Y-55700000D01*
X125350000Y-55700000D01*
X125374504Y-55701204D01*
X125374504Y-55701204D01*
G37*
D14*
X122900000Y-56600000D03*
D12*
G36*
X125374504Y-50601204D02*
X125398773Y-50604804D01*
X125422571Y-50610765D01*
X125445671Y-50619030D01*
X125467849Y-50629520D01*
X125488893Y-50642133D01*
X125508598Y-50656747D01*
X125526777Y-50673223D01*
X125543253Y-50691402D01*
X125557867Y-50711107D01*
X125570480Y-50732151D01*
X125580970Y-50754329D01*
X125589235Y-50777429D01*
X125595196Y-50801227D01*
X125598796Y-50825496D01*
X125600000Y-50850000D01*
X125600000Y-52150000D01*
X125598796Y-52174504D01*
X125595196Y-52198773D01*
X125589235Y-52222571D01*
X125580970Y-52245671D01*
X125570480Y-52267849D01*
X125557867Y-52288893D01*
X125543253Y-52308598D01*
X125526777Y-52326777D01*
X125508598Y-52343253D01*
X125488893Y-52357867D01*
X125467849Y-52370480D01*
X125445671Y-52380970D01*
X125422571Y-52389235D01*
X125398773Y-52395196D01*
X125374504Y-52398796D01*
X125350000Y-52400000D01*
X120450000Y-52400000D01*
X120425496Y-52398796D01*
X120401227Y-52395196D01*
X120377429Y-52389235D01*
X120354329Y-52380970D01*
X120332151Y-52370480D01*
X120311107Y-52357867D01*
X120291402Y-52343253D01*
X120273223Y-52326777D01*
X120256747Y-52308598D01*
X120242133Y-52288893D01*
X120229520Y-52267849D01*
X120219030Y-52245671D01*
X120210765Y-52222571D01*
X120204804Y-52198773D01*
X120201204Y-52174504D01*
X120200000Y-52150000D01*
X120200000Y-50850000D01*
X120201204Y-50825496D01*
X120204804Y-50801227D01*
X120210765Y-50777429D01*
X120219030Y-50754329D01*
X120229520Y-50732151D01*
X120242133Y-50711107D01*
X120256747Y-50691402D01*
X120273223Y-50673223D01*
X120291402Y-50656747D01*
X120311107Y-50642133D01*
X120332151Y-50629520D01*
X120354329Y-50619030D01*
X120377429Y-50610765D01*
X120401227Y-50604804D01*
X120425496Y-50601204D01*
X120450000Y-50600000D01*
X125350000Y-50600000D01*
X125374504Y-50601204D01*
X125374504Y-50601204D01*
G37*
D14*
X122900000Y-51500000D03*
D12*
G36*
X107374504Y-50451204D02*
X107398773Y-50454804D01*
X107422571Y-50460765D01*
X107445671Y-50469030D01*
X107467849Y-50479520D01*
X107488893Y-50492133D01*
X107508598Y-50506747D01*
X107526777Y-50523223D01*
X107543253Y-50541402D01*
X107557867Y-50561107D01*
X107570480Y-50582151D01*
X107580970Y-50604329D01*
X107589235Y-50627429D01*
X107595196Y-50651227D01*
X107598796Y-50675496D01*
X107600000Y-50700000D01*
X107600000Y-52000000D01*
X107598796Y-52024504D01*
X107595196Y-52048773D01*
X107589235Y-52072571D01*
X107580970Y-52095671D01*
X107570480Y-52117849D01*
X107557867Y-52138893D01*
X107543253Y-52158598D01*
X107526777Y-52176777D01*
X107508598Y-52193253D01*
X107488893Y-52207867D01*
X107467849Y-52220480D01*
X107445671Y-52230970D01*
X107422571Y-52239235D01*
X107398773Y-52245196D01*
X107374504Y-52248796D01*
X107350000Y-52250000D01*
X102450000Y-52250000D01*
X102425496Y-52248796D01*
X102401227Y-52245196D01*
X102377429Y-52239235D01*
X102354329Y-52230970D01*
X102332151Y-52220480D01*
X102311107Y-52207867D01*
X102291402Y-52193253D01*
X102273223Y-52176777D01*
X102256747Y-52158598D01*
X102242133Y-52138893D01*
X102229520Y-52117849D01*
X102219030Y-52095671D01*
X102210765Y-52072571D01*
X102204804Y-52048773D01*
X102201204Y-52024504D01*
X102200000Y-52000000D01*
X102200000Y-50700000D01*
X102201204Y-50675496D01*
X102204804Y-50651227D01*
X102210765Y-50627429D01*
X102219030Y-50604329D01*
X102229520Y-50582151D01*
X102242133Y-50561107D01*
X102256747Y-50541402D01*
X102273223Y-50523223D01*
X102291402Y-50506747D01*
X102311107Y-50492133D01*
X102332151Y-50479520D01*
X102354329Y-50469030D01*
X102377429Y-50460765D01*
X102401227Y-50454804D01*
X102425496Y-50451204D01*
X102450000Y-50450000D01*
X107350000Y-50450000D01*
X107374504Y-50451204D01*
X107374504Y-50451204D01*
G37*
D14*
X104900000Y-51350000D03*
D12*
G36*
X107374504Y-55551204D02*
X107398773Y-55554804D01*
X107422571Y-55560765D01*
X107445671Y-55569030D01*
X107467849Y-55579520D01*
X107488893Y-55592133D01*
X107508598Y-55606747D01*
X107526777Y-55623223D01*
X107543253Y-55641402D01*
X107557867Y-55661107D01*
X107570480Y-55682151D01*
X107580970Y-55704329D01*
X107589235Y-55727429D01*
X107595196Y-55751227D01*
X107598796Y-55775496D01*
X107600000Y-55800000D01*
X107600000Y-57100000D01*
X107598796Y-57124504D01*
X107595196Y-57148773D01*
X107589235Y-57172571D01*
X107580970Y-57195671D01*
X107570480Y-57217849D01*
X107557867Y-57238893D01*
X107543253Y-57258598D01*
X107526777Y-57276777D01*
X107508598Y-57293253D01*
X107488893Y-57307867D01*
X107467849Y-57320480D01*
X107445671Y-57330970D01*
X107422571Y-57339235D01*
X107398773Y-57345196D01*
X107374504Y-57348796D01*
X107350000Y-57350000D01*
X102450000Y-57350000D01*
X102425496Y-57348796D01*
X102401227Y-57345196D01*
X102377429Y-57339235D01*
X102354329Y-57330970D01*
X102332151Y-57320480D01*
X102311107Y-57307867D01*
X102291402Y-57293253D01*
X102273223Y-57276777D01*
X102256747Y-57258598D01*
X102242133Y-57238893D01*
X102229520Y-57217849D01*
X102219030Y-57195671D01*
X102210765Y-57172571D01*
X102204804Y-57148773D01*
X102201204Y-57124504D01*
X102200000Y-57100000D01*
X102200000Y-55800000D01*
X102201204Y-55775496D01*
X102204804Y-55751227D01*
X102210765Y-55727429D01*
X102219030Y-55704329D01*
X102229520Y-55682151D01*
X102242133Y-55661107D01*
X102256747Y-55641402D01*
X102273223Y-55623223D01*
X102291402Y-55606747D01*
X102311107Y-55592133D01*
X102332151Y-55579520D01*
X102354329Y-55569030D01*
X102377429Y-55560765D01*
X102401227Y-55554804D01*
X102425496Y-55551204D01*
X102450000Y-55550000D01*
X107350000Y-55550000D01*
X107374504Y-55551204D01*
X107374504Y-55551204D01*
G37*
D14*
X104900000Y-56450000D03*
D12*
G36*
X202574504Y-55751204D02*
X202598773Y-55754804D01*
X202622571Y-55760765D01*
X202645671Y-55769030D01*
X202667849Y-55779520D01*
X202688893Y-55792133D01*
X202708598Y-55806747D01*
X202726777Y-55823223D01*
X202743253Y-55841402D01*
X202757867Y-55861107D01*
X202770480Y-55882151D01*
X202780970Y-55904329D01*
X202789235Y-55927429D01*
X202795196Y-55951227D01*
X202798796Y-55975496D01*
X202800000Y-56000000D01*
X202800000Y-57300000D01*
X202798796Y-57324504D01*
X202795196Y-57348773D01*
X202789235Y-57372571D01*
X202780970Y-57395671D01*
X202770480Y-57417849D01*
X202757867Y-57438893D01*
X202743253Y-57458598D01*
X202726777Y-57476777D01*
X202708598Y-57493253D01*
X202688893Y-57507867D01*
X202667849Y-57520480D01*
X202645671Y-57530970D01*
X202622571Y-57539235D01*
X202598773Y-57545196D01*
X202574504Y-57548796D01*
X202550000Y-57550000D01*
X197650000Y-57550000D01*
X197625496Y-57548796D01*
X197601227Y-57545196D01*
X197577429Y-57539235D01*
X197554329Y-57530970D01*
X197532151Y-57520480D01*
X197511107Y-57507867D01*
X197491402Y-57493253D01*
X197473223Y-57476777D01*
X197456747Y-57458598D01*
X197442133Y-57438893D01*
X197429520Y-57417849D01*
X197419030Y-57395671D01*
X197410765Y-57372571D01*
X197404804Y-57348773D01*
X197401204Y-57324504D01*
X197400000Y-57300000D01*
X197400000Y-56000000D01*
X197401204Y-55975496D01*
X197404804Y-55951227D01*
X197410765Y-55927429D01*
X197419030Y-55904329D01*
X197429520Y-55882151D01*
X197442133Y-55861107D01*
X197456747Y-55841402D01*
X197473223Y-55823223D01*
X197491402Y-55806747D01*
X197511107Y-55792133D01*
X197532151Y-55779520D01*
X197554329Y-55769030D01*
X197577429Y-55760765D01*
X197601227Y-55754804D01*
X197625496Y-55751204D01*
X197650000Y-55750000D01*
X202550000Y-55750000D01*
X202574504Y-55751204D01*
X202574504Y-55751204D01*
G37*
D14*
X200100000Y-56650000D03*
D12*
G36*
X202574504Y-50651204D02*
X202598773Y-50654804D01*
X202622571Y-50660765D01*
X202645671Y-50669030D01*
X202667849Y-50679520D01*
X202688893Y-50692133D01*
X202708598Y-50706747D01*
X202726777Y-50723223D01*
X202743253Y-50741402D01*
X202757867Y-50761107D01*
X202770480Y-50782151D01*
X202780970Y-50804329D01*
X202789235Y-50827429D01*
X202795196Y-50851227D01*
X202798796Y-50875496D01*
X202800000Y-50900000D01*
X202800000Y-52200000D01*
X202798796Y-52224504D01*
X202795196Y-52248773D01*
X202789235Y-52272571D01*
X202780970Y-52295671D01*
X202770480Y-52317849D01*
X202757867Y-52338893D01*
X202743253Y-52358598D01*
X202726777Y-52376777D01*
X202708598Y-52393253D01*
X202688893Y-52407867D01*
X202667849Y-52420480D01*
X202645671Y-52430970D01*
X202622571Y-52439235D01*
X202598773Y-52445196D01*
X202574504Y-52448796D01*
X202550000Y-52450000D01*
X197650000Y-52450000D01*
X197625496Y-52448796D01*
X197601227Y-52445196D01*
X197577429Y-52439235D01*
X197554329Y-52430970D01*
X197532151Y-52420480D01*
X197511107Y-52407867D01*
X197491402Y-52393253D01*
X197473223Y-52376777D01*
X197456747Y-52358598D01*
X197442133Y-52338893D01*
X197429520Y-52317849D01*
X197419030Y-52295671D01*
X197410765Y-52272571D01*
X197404804Y-52248773D01*
X197401204Y-52224504D01*
X197400000Y-52200000D01*
X197400000Y-50900000D01*
X197401204Y-50875496D01*
X197404804Y-50851227D01*
X197410765Y-50827429D01*
X197419030Y-50804329D01*
X197429520Y-50782151D01*
X197442133Y-50761107D01*
X197456747Y-50741402D01*
X197473223Y-50723223D01*
X197491402Y-50706747D01*
X197511107Y-50692133D01*
X197532151Y-50679520D01*
X197554329Y-50669030D01*
X197577429Y-50660765D01*
X197601227Y-50654804D01*
X197625496Y-50651204D01*
X197650000Y-50650000D01*
X202550000Y-50650000D01*
X202574504Y-50651204D01*
X202574504Y-50651204D01*
G37*
D14*
X200100000Y-51550000D03*
D12*
G36*
X119374504Y-55701204D02*
X119398773Y-55704804D01*
X119422571Y-55710765D01*
X119445671Y-55719030D01*
X119467849Y-55729520D01*
X119488893Y-55742133D01*
X119508598Y-55756747D01*
X119526777Y-55773223D01*
X119543253Y-55791402D01*
X119557867Y-55811107D01*
X119570480Y-55832151D01*
X119580970Y-55854329D01*
X119589235Y-55877429D01*
X119595196Y-55901227D01*
X119598796Y-55925496D01*
X119600000Y-55950000D01*
X119600000Y-57250000D01*
X119598796Y-57274504D01*
X119595196Y-57298773D01*
X119589235Y-57322571D01*
X119580970Y-57345671D01*
X119570480Y-57367849D01*
X119557867Y-57388893D01*
X119543253Y-57408598D01*
X119526777Y-57426777D01*
X119508598Y-57443253D01*
X119488893Y-57457867D01*
X119467849Y-57470480D01*
X119445671Y-57480970D01*
X119422571Y-57489235D01*
X119398773Y-57495196D01*
X119374504Y-57498796D01*
X119350000Y-57500000D01*
X114450000Y-57500000D01*
X114425496Y-57498796D01*
X114401227Y-57495196D01*
X114377429Y-57489235D01*
X114354329Y-57480970D01*
X114332151Y-57470480D01*
X114311107Y-57457867D01*
X114291402Y-57443253D01*
X114273223Y-57426777D01*
X114256747Y-57408598D01*
X114242133Y-57388893D01*
X114229520Y-57367849D01*
X114219030Y-57345671D01*
X114210765Y-57322571D01*
X114204804Y-57298773D01*
X114201204Y-57274504D01*
X114200000Y-57250000D01*
X114200000Y-55950000D01*
X114201204Y-55925496D01*
X114204804Y-55901227D01*
X114210765Y-55877429D01*
X114219030Y-55854329D01*
X114229520Y-55832151D01*
X114242133Y-55811107D01*
X114256747Y-55791402D01*
X114273223Y-55773223D01*
X114291402Y-55756747D01*
X114311107Y-55742133D01*
X114332151Y-55729520D01*
X114354329Y-55719030D01*
X114377429Y-55710765D01*
X114401227Y-55704804D01*
X114425496Y-55701204D01*
X114450000Y-55700000D01*
X119350000Y-55700000D01*
X119374504Y-55701204D01*
X119374504Y-55701204D01*
G37*
D14*
X116900000Y-56600000D03*
D12*
G36*
X119374504Y-50601204D02*
X119398773Y-50604804D01*
X119422571Y-50610765D01*
X119445671Y-50619030D01*
X119467849Y-50629520D01*
X119488893Y-50642133D01*
X119508598Y-50656747D01*
X119526777Y-50673223D01*
X119543253Y-50691402D01*
X119557867Y-50711107D01*
X119570480Y-50732151D01*
X119580970Y-50754329D01*
X119589235Y-50777429D01*
X119595196Y-50801227D01*
X119598796Y-50825496D01*
X119600000Y-50850000D01*
X119600000Y-52150000D01*
X119598796Y-52174504D01*
X119595196Y-52198773D01*
X119589235Y-52222571D01*
X119580970Y-52245671D01*
X119570480Y-52267849D01*
X119557867Y-52288893D01*
X119543253Y-52308598D01*
X119526777Y-52326777D01*
X119508598Y-52343253D01*
X119488893Y-52357867D01*
X119467849Y-52370480D01*
X119445671Y-52380970D01*
X119422571Y-52389235D01*
X119398773Y-52395196D01*
X119374504Y-52398796D01*
X119350000Y-52400000D01*
X114450000Y-52400000D01*
X114425496Y-52398796D01*
X114401227Y-52395196D01*
X114377429Y-52389235D01*
X114354329Y-52380970D01*
X114332151Y-52370480D01*
X114311107Y-52357867D01*
X114291402Y-52343253D01*
X114273223Y-52326777D01*
X114256747Y-52308598D01*
X114242133Y-52288893D01*
X114229520Y-52267849D01*
X114219030Y-52245671D01*
X114210765Y-52222571D01*
X114204804Y-52198773D01*
X114201204Y-52174504D01*
X114200000Y-52150000D01*
X114200000Y-50850000D01*
X114201204Y-50825496D01*
X114204804Y-50801227D01*
X114210765Y-50777429D01*
X114219030Y-50754329D01*
X114229520Y-50732151D01*
X114242133Y-50711107D01*
X114256747Y-50691402D01*
X114273223Y-50673223D01*
X114291402Y-50656747D01*
X114311107Y-50642133D01*
X114332151Y-50629520D01*
X114354329Y-50619030D01*
X114377429Y-50610765D01*
X114401227Y-50604804D01*
X114425496Y-50601204D01*
X114450000Y-50600000D01*
X119350000Y-50600000D01*
X119374504Y-50601204D01*
X119374504Y-50601204D01*
G37*
D14*
X116900000Y-51500000D03*
D12*
G36*
X184374504Y-50451204D02*
X184398773Y-50454804D01*
X184422571Y-50460765D01*
X184445671Y-50469030D01*
X184467849Y-50479520D01*
X184488893Y-50492133D01*
X184508598Y-50506747D01*
X184526777Y-50523223D01*
X184543253Y-50541402D01*
X184557867Y-50561107D01*
X184570480Y-50582151D01*
X184580970Y-50604329D01*
X184589235Y-50627429D01*
X184595196Y-50651227D01*
X184598796Y-50675496D01*
X184600000Y-50700000D01*
X184600000Y-52000000D01*
X184598796Y-52024504D01*
X184595196Y-52048773D01*
X184589235Y-52072571D01*
X184580970Y-52095671D01*
X184570480Y-52117849D01*
X184557867Y-52138893D01*
X184543253Y-52158598D01*
X184526777Y-52176777D01*
X184508598Y-52193253D01*
X184488893Y-52207867D01*
X184467849Y-52220480D01*
X184445671Y-52230970D01*
X184422571Y-52239235D01*
X184398773Y-52245196D01*
X184374504Y-52248796D01*
X184350000Y-52250000D01*
X179450000Y-52250000D01*
X179425496Y-52248796D01*
X179401227Y-52245196D01*
X179377429Y-52239235D01*
X179354329Y-52230970D01*
X179332151Y-52220480D01*
X179311107Y-52207867D01*
X179291402Y-52193253D01*
X179273223Y-52176777D01*
X179256747Y-52158598D01*
X179242133Y-52138893D01*
X179229520Y-52117849D01*
X179219030Y-52095671D01*
X179210765Y-52072571D01*
X179204804Y-52048773D01*
X179201204Y-52024504D01*
X179200000Y-52000000D01*
X179200000Y-50700000D01*
X179201204Y-50675496D01*
X179204804Y-50651227D01*
X179210765Y-50627429D01*
X179219030Y-50604329D01*
X179229520Y-50582151D01*
X179242133Y-50561107D01*
X179256747Y-50541402D01*
X179273223Y-50523223D01*
X179291402Y-50506747D01*
X179311107Y-50492133D01*
X179332151Y-50479520D01*
X179354329Y-50469030D01*
X179377429Y-50460765D01*
X179401227Y-50454804D01*
X179425496Y-50451204D01*
X179450000Y-50450000D01*
X184350000Y-50450000D01*
X184374504Y-50451204D01*
X184374504Y-50451204D01*
G37*
D14*
X181900000Y-51350000D03*
D12*
G36*
X184374504Y-55551204D02*
X184398773Y-55554804D01*
X184422571Y-55560765D01*
X184445671Y-55569030D01*
X184467849Y-55579520D01*
X184488893Y-55592133D01*
X184508598Y-55606747D01*
X184526777Y-55623223D01*
X184543253Y-55641402D01*
X184557867Y-55661107D01*
X184570480Y-55682151D01*
X184580970Y-55704329D01*
X184589235Y-55727429D01*
X184595196Y-55751227D01*
X184598796Y-55775496D01*
X184600000Y-55800000D01*
X184600000Y-57100000D01*
X184598796Y-57124504D01*
X184595196Y-57148773D01*
X184589235Y-57172571D01*
X184580970Y-57195671D01*
X184570480Y-57217849D01*
X184557867Y-57238893D01*
X184543253Y-57258598D01*
X184526777Y-57276777D01*
X184508598Y-57293253D01*
X184488893Y-57307867D01*
X184467849Y-57320480D01*
X184445671Y-57330970D01*
X184422571Y-57339235D01*
X184398773Y-57345196D01*
X184374504Y-57348796D01*
X184350000Y-57350000D01*
X179450000Y-57350000D01*
X179425496Y-57348796D01*
X179401227Y-57345196D01*
X179377429Y-57339235D01*
X179354329Y-57330970D01*
X179332151Y-57320480D01*
X179311107Y-57307867D01*
X179291402Y-57293253D01*
X179273223Y-57276777D01*
X179256747Y-57258598D01*
X179242133Y-57238893D01*
X179229520Y-57217849D01*
X179219030Y-57195671D01*
X179210765Y-57172571D01*
X179204804Y-57148773D01*
X179201204Y-57124504D01*
X179200000Y-57100000D01*
X179200000Y-55800000D01*
X179201204Y-55775496D01*
X179204804Y-55751227D01*
X179210765Y-55727429D01*
X179219030Y-55704329D01*
X179229520Y-55682151D01*
X179242133Y-55661107D01*
X179256747Y-55641402D01*
X179273223Y-55623223D01*
X179291402Y-55606747D01*
X179311107Y-55592133D01*
X179332151Y-55579520D01*
X179354329Y-55569030D01*
X179377429Y-55560765D01*
X179401227Y-55554804D01*
X179425496Y-55551204D01*
X179450000Y-55550000D01*
X184350000Y-55550000D01*
X184374504Y-55551204D01*
X184374504Y-55551204D01*
G37*
D14*
X181900000Y-56450000D03*
D12*
G36*
X196374504Y-50651204D02*
X196398773Y-50654804D01*
X196422571Y-50660765D01*
X196445671Y-50669030D01*
X196467849Y-50679520D01*
X196488893Y-50692133D01*
X196508598Y-50706747D01*
X196526777Y-50723223D01*
X196543253Y-50741402D01*
X196557867Y-50761107D01*
X196570480Y-50782151D01*
X196580970Y-50804329D01*
X196589235Y-50827429D01*
X196595196Y-50851227D01*
X196598796Y-50875496D01*
X196600000Y-50900000D01*
X196600000Y-52200000D01*
X196598796Y-52224504D01*
X196595196Y-52248773D01*
X196589235Y-52272571D01*
X196580970Y-52295671D01*
X196570480Y-52317849D01*
X196557867Y-52338893D01*
X196543253Y-52358598D01*
X196526777Y-52376777D01*
X196508598Y-52393253D01*
X196488893Y-52407867D01*
X196467849Y-52420480D01*
X196445671Y-52430970D01*
X196422571Y-52439235D01*
X196398773Y-52445196D01*
X196374504Y-52448796D01*
X196350000Y-52450000D01*
X191450000Y-52450000D01*
X191425496Y-52448796D01*
X191401227Y-52445196D01*
X191377429Y-52439235D01*
X191354329Y-52430970D01*
X191332151Y-52420480D01*
X191311107Y-52407867D01*
X191291402Y-52393253D01*
X191273223Y-52376777D01*
X191256747Y-52358598D01*
X191242133Y-52338893D01*
X191229520Y-52317849D01*
X191219030Y-52295671D01*
X191210765Y-52272571D01*
X191204804Y-52248773D01*
X191201204Y-52224504D01*
X191200000Y-52200000D01*
X191200000Y-50900000D01*
X191201204Y-50875496D01*
X191204804Y-50851227D01*
X191210765Y-50827429D01*
X191219030Y-50804329D01*
X191229520Y-50782151D01*
X191242133Y-50761107D01*
X191256747Y-50741402D01*
X191273223Y-50723223D01*
X191291402Y-50706747D01*
X191311107Y-50692133D01*
X191332151Y-50679520D01*
X191354329Y-50669030D01*
X191377429Y-50660765D01*
X191401227Y-50654804D01*
X191425496Y-50651204D01*
X191450000Y-50650000D01*
X196350000Y-50650000D01*
X196374504Y-50651204D01*
X196374504Y-50651204D01*
G37*
D14*
X193900000Y-51550000D03*
D12*
G36*
X196374504Y-55751204D02*
X196398773Y-55754804D01*
X196422571Y-55760765D01*
X196445671Y-55769030D01*
X196467849Y-55779520D01*
X196488893Y-55792133D01*
X196508598Y-55806747D01*
X196526777Y-55823223D01*
X196543253Y-55841402D01*
X196557867Y-55861107D01*
X196570480Y-55882151D01*
X196580970Y-55904329D01*
X196589235Y-55927429D01*
X196595196Y-55951227D01*
X196598796Y-55975496D01*
X196600000Y-56000000D01*
X196600000Y-57300000D01*
X196598796Y-57324504D01*
X196595196Y-57348773D01*
X196589235Y-57372571D01*
X196580970Y-57395671D01*
X196570480Y-57417849D01*
X196557867Y-57438893D01*
X196543253Y-57458598D01*
X196526777Y-57476777D01*
X196508598Y-57493253D01*
X196488893Y-57507867D01*
X196467849Y-57520480D01*
X196445671Y-57530970D01*
X196422571Y-57539235D01*
X196398773Y-57545196D01*
X196374504Y-57548796D01*
X196350000Y-57550000D01*
X191450000Y-57550000D01*
X191425496Y-57548796D01*
X191401227Y-57545196D01*
X191377429Y-57539235D01*
X191354329Y-57530970D01*
X191332151Y-57520480D01*
X191311107Y-57507867D01*
X191291402Y-57493253D01*
X191273223Y-57476777D01*
X191256747Y-57458598D01*
X191242133Y-57438893D01*
X191229520Y-57417849D01*
X191219030Y-57395671D01*
X191210765Y-57372571D01*
X191204804Y-57348773D01*
X191201204Y-57324504D01*
X191200000Y-57300000D01*
X191200000Y-56000000D01*
X191201204Y-55975496D01*
X191204804Y-55951227D01*
X191210765Y-55927429D01*
X191219030Y-55904329D01*
X191229520Y-55882151D01*
X191242133Y-55861107D01*
X191256747Y-55841402D01*
X191273223Y-55823223D01*
X191291402Y-55806747D01*
X191311107Y-55792133D01*
X191332151Y-55779520D01*
X191354329Y-55769030D01*
X191377429Y-55760765D01*
X191401227Y-55754804D01*
X191425496Y-55751204D01*
X191450000Y-55750000D01*
X196350000Y-55750000D01*
X196374504Y-55751204D01*
X196374504Y-55751204D01*
G37*
D14*
X193900000Y-56650000D03*
D10*
X168200000Y-71125000D03*
X163620000Y-71125000D03*
D11*
X167700000Y-65500000D03*
X167700000Y-61950000D03*
X164100000Y-65500000D03*
X164100000Y-61950000D03*
D15*
X201997351Y-71945711D03*
X200727351Y-71945711D03*
X199457351Y-71945711D03*
X198187351Y-71945711D03*
X198187351Y-77345711D03*
X199457351Y-77345711D03*
X200727351Y-77345711D03*
X201997351Y-77345711D03*
X47997351Y-72445711D03*
X46727351Y-72445711D03*
X45457351Y-72445711D03*
X44187351Y-72445711D03*
X44187351Y-77845711D03*
X45457351Y-77845711D03*
X46727351Y-77845711D03*
X47997351Y-77845711D03*
D12*
G36*
X158490142Y-143843674D02*
X158513803Y-143847184D01*
X158537007Y-143852996D01*
X158559529Y-143861054D01*
X158581153Y-143871282D01*
X158601670Y-143883579D01*
X158620883Y-143897829D01*
X158638607Y-143913893D01*
X158654671Y-143931617D01*
X158668921Y-143950830D01*
X158681218Y-143971347D01*
X158691446Y-143992971D01*
X158699504Y-144015493D01*
X158705316Y-144038697D01*
X158708826Y-144062358D01*
X158710000Y-144086250D01*
X158710000Y-144573750D01*
X158708826Y-144597642D01*
X158705316Y-144621303D01*
X158699504Y-144644507D01*
X158691446Y-144667029D01*
X158681218Y-144688653D01*
X158668921Y-144709170D01*
X158654671Y-144728383D01*
X158638607Y-144746107D01*
X158620883Y-144762171D01*
X158601670Y-144776421D01*
X158581153Y-144788718D01*
X158559529Y-144798946D01*
X158537007Y-144807004D01*
X158513803Y-144812816D01*
X158490142Y-144816326D01*
X158466250Y-144817500D01*
X157553750Y-144817500D01*
X157529858Y-144816326D01*
X157506197Y-144812816D01*
X157482993Y-144807004D01*
X157460471Y-144798946D01*
X157438847Y-144788718D01*
X157418330Y-144776421D01*
X157399117Y-144762171D01*
X157381393Y-144746107D01*
X157365329Y-144728383D01*
X157351079Y-144709170D01*
X157338782Y-144688653D01*
X157328554Y-144667029D01*
X157320496Y-144644507D01*
X157314684Y-144621303D01*
X157311174Y-144597642D01*
X157310000Y-144573750D01*
X157310000Y-144086250D01*
X157311174Y-144062358D01*
X157314684Y-144038697D01*
X157320496Y-144015493D01*
X157328554Y-143992971D01*
X157338782Y-143971347D01*
X157351079Y-143950830D01*
X157365329Y-143931617D01*
X157381393Y-143913893D01*
X157399117Y-143897829D01*
X157418330Y-143883579D01*
X157438847Y-143871282D01*
X157460471Y-143861054D01*
X157482993Y-143852996D01*
X157506197Y-143847184D01*
X157529858Y-143843674D01*
X157553750Y-143842500D01*
X158466250Y-143842500D01*
X158490142Y-143843674D01*
X158490142Y-143843674D01*
G37*
D13*
X158010000Y-144330000D03*
D12*
G36*
X158490142Y-141968674D02*
X158513803Y-141972184D01*
X158537007Y-141977996D01*
X158559529Y-141986054D01*
X158581153Y-141996282D01*
X158601670Y-142008579D01*
X158620883Y-142022829D01*
X158638607Y-142038893D01*
X158654671Y-142056617D01*
X158668921Y-142075830D01*
X158681218Y-142096347D01*
X158691446Y-142117971D01*
X158699504Y-142140493D01*
X158705316Y-142163697D01*
X158708826Y-142187358D01*
X158710000Y-142211250D01*
X158710000Y-142698750D01*
X158708826Y-142722642D01*
X158705316Y-142746303D01*
X158699504Y-142769507D01*
X158691446Y-142792029D01*
X158681218Y-142813653D01*
X158668921Y-142834170D01*
X158654671Y-142853383D01*
X158638607Y-142871107D01*
X158620883Y-142887171D01*
X158601670Y-142901421D01*
X158581153Y-142913718D01*
X158559529Y-142923946D01*
X158537007Y-142932004D01*
X158513803Y-142937816D01*
X158490142Y-142941326D01*
X158466250Y-142942500D01*
X157553750Y-142942500D01*
X157529858Y-142941326D01*
X157506197Y-142937816D01*
X157482993Y-142932004D01*
X157460471Y-142923946D01*
X157438847Y-142913718D01*
X157418330Y-142901421D01*
X157399117Y-142887171D01*
X157381393Y-142871107D01*
X157365329Y-142853383D01*
X157351079Y-142834170D01*
X157338782Y-142813653D01*
X157328554Y-142792029D01*
X157320496Y-142769507D01*
X157314684Y-142746303D01*
X157311174Y-142722642D01*
X157310000Y-142698750D01*
X157310000Y-142211250D01*
X157311174Y-142187358D01*
X157314684Y-142163697D01*
X157320496Y-142140493D01*
X157328554Y-142117971D01*
X157338782Y-142096347D01*
X157351079Y-142075830D01*
X157365329Y-142056617D01*
X157381393Y-142038893D01*
X157399117Y-142022829D01*
X157418330Y-142008579D01*
X157438847Y-141996282D01*
X157460471Y-141986054D01*
X157482993Y-141977996D01*
X157506197Y-141972184D01*
X157529858Y-141968674D01*
X157553750Y-141967500D01*
X158466250Y-141967500D01*
X158490142Y-141968674D01*
X158490142Y-141968674D01*
G37*
D13*
X158010000Y-142455000D03*
D12*
G36*
X173105142Y-139301174D02*
X173128803Y-139304684D01*
X173152007Y-139310496D01*
X173174529Y-139318554D01*
X173196153Y-139328782D01*
X173216670Y-139341079D01*
X173235883Y-139355329D01*
X173253607Y-139371393D01*
X173269671Y-139389117D01*
X173283921Y-139408330D01*
X173296218Y-139428847D01*
X173306446Y-139450471D01*
X173314504Y-139472993D01*
X173320316Y-139496197D01*
X173323826Y-139519858D01*
X173325000Y-139543750D01*
X173325000Y-140456250D01*
X173323826Y-140480142D01*
X173320316Y-140503803D01*
X173314504Y-140527007D01*
X173306446Y-140549529D01*
X173296218Y-140571153D01*
X173283921Y-140591670D01*
X173269671Y-140610883D01*
X173253607Y-140628607D01*
X173235883Y-140644671D01*
X173216670Y-140658921D01*
X173196153Y-140671218D01*
X173174529Y-140681446D01*
X173152007Y-140689504D01*
X173128803Y-140695316D01*
X173105142Y-140698826D01*
X173081250Y-140700000D01*
X172593750Y-140700000D01*
X172569858Y-140698826D01*
X172546197Y-140695316D01*
X172522993Y-140689504D01*
X172500471Y-140681446D01*
X172478847Y-140671218D01*
X172458330Y-140658921D01*
X172439117Y-140644671D01*
X172421393Y-140628607D01*
X172405329Y-140610883D01*
X172391079Y-140591670D01*
X172378782Y-140571153D01*
X172368554Y-140549529D01*
X172360496Y-140527007D01*
X172354684Y-140503803D01*
X172351174Y-140480142D01*
X172350000Y-140456250D01*
X172350000Y-139543750D01*
X172351174Y-139519858D01*
X172354684Y-139496197D01*
X172360496Y-139472993D01*
X172368554Y-139450471D01*
X172378782Y-139428847D01*
X172391079Y-139408330D01*
X172405329Y-139389117D01*
X172421393Y-139371393D01*
X172439117Y-139355329D01*
X172458330Y-139341079D01*
X172478847Y-139328782D01*
X172500471Y-139318554D01*
X172522993Y-139310496D01*
X172546197Y-139304684D01*
X172569858Y-139301174D01*
X172593750Y-139300000D01*
X173081250Y-139300000D01*
X173105142Y-139301174D01*
X173105142Y-139301174D01*
G37*
D13*
X172837500Y-140000000D03*
D12*
G36*
X171230142Y-139301174D02*
X171253803Y-139304684D01*
X171277007Y-139310496D01*
X171299529Y-139318554D01*
X171321153Y-139328782D01*
X171341670Y-139341079D01*
X171360883Y-139355329D01*
X171378607Y-139371393D01*
X171394671Y-139389117D01*
X171408921Y-139408330D01*
X171421218Y-139428847D01*
X171431446Y-139450471D01*
X171439504Y-139472993D01*
X171445316Y-139496197D01*
X171448826Y-139519858D01*
X171450000Y-139543750D01*
X171450000Y-140456250D01*
X171448826Y-140480142D01*
X171445316Y-140503803D01*
X171439504Y-140527007D01*
X171431446Y-140549529D01*
X171421218Y-140571153D01*
X171408921Y-140591670D01*
X171394671Y-140610883D01*
X171378607Y-140628607D01*
X171360883Y-140644671D01*
X171341670Y-140658921D01*
X171321153Y-140671218D01*
X171299529Y-140681446D01*
X171277007Y-140689504D01*
X171253803Y-140695316D01*
X171230142Y-140698826D01*
X171206250Y-140700000D01*
X170718750Y-140700000D01*
X170694858Y-140698826D01*
X170671197Y-140695316D01*
X170647993Y-140689504D01*
X170625471Y-140681446D01*
X170603847Y-140671218D01*
X170583330Y-140658921D01*
X170564117Y-140644671D01*
X170546393Y-140628607D01*
X170530329Y-140610883D01*
X170516079Y-140591670D01*
X170503782Y-140571153D01*
X170493554Y-140549529D01*
X170485496Y-140527007D01*
X170479684Y-140503803D01*
X170476174Y-140480142D01*
X170475000Y-140456250D01*
X170475000Y-139543750D01*
X170476174Y-139519858D01*
X170479684Y-139496197D01*
X170485496Y-139472993D01*
X170493554Y-139450471D01*
X170503782Y-139428847D01*
X170516079Y-139408330D01*
X170530329Y-139389117D01*
X170546393Y-139371393D01*
X170564117Y-139355329D01*
X170583330Y-139341079D01*
X170603847Y-139328782D01*
X170625471Y-139318554D01*
X170647993Y-139310496D01*
X170671197Y-139304684D01*
X170694858Y-139301174D01*
X170718750Y-139300000D01*
X171206250Y-139300000D01*
X171230142Y-139301174D01*
X171230142Y-139301174D01*
G37*
D13*
X170962500Y-140000000D03*
D12*
G36*
X168580142Y-146913674D02*
X168603803Y-146917184D01*
X168627007Y-146922996D01*
X168649529Y-146931054D01*
X168671153Y-146941282D01*
X168691670Y-146953579D01*
X168710883Y-146967829D01*
X168728607Y-146983893D01*
X168744671Y-147001617D01*
X168758921Y-147020830D01*
X168771218Y-147041347D01*
X168781446Y-147062971D01*
X168789504Y-147085493D01*
X168795316Y-147108697D01*
X168798826Y-147132358D01*
X168800000Y-147156250D01*
X168800000Y-147643750D01*
X168798826Y-147667642D01*
X168795316Y-147691303D01*
X168789504Y-147714507D01*
X168781446Y-147737029D01*
X168771218Y-147758653D01*
X168758921Y-147779170D01*
X168744671Y-147798383D01*
X168728607Y-147816107D01*
X168710883Y-147832171D01*
X168691670Y-147846421D01*
X168671153Y-147858718D01*
X168649529Y-147868946D01*
X168627007Y-147877004D01*
X168603803Y-147882816D01*
X168580142Y-147886326D01*
X168556250Y-147887500D01*
X167643750Y-147887500D01*
X167619858Y-147886326D01*
X167596197Y-147882816D01*
X167572993Y-147877004D01*
X167550471Y-147868946D01*
X167528847Y-147858718D01*
X167508330Y-147846421D01*
X167489117Y-147832171D01*
X167471393Y-147816107D01*
X167455329Y-147798383D01*
X167441079Y-147779170D01*
X167428782Y-147758653D01*
X167418554Y-147737029D01*
X167410496Y-147714507D01*
X167404684Y-147691303D01*
X167401174Y-147667642D01*
X167400000Y-147643750D01*
X167400000Y-147156250D01*
X167401174Y-147132358D01*
X167404684Y-147108697D01*
X167410496Y-147085493D01*
X167418554Y-147062971D01*
X167428782Y-147041347D01*
X167441079Y-147020830D01*
X167455329Y-147001617D01*
X167471393Y-146983893D01*
X167489117Y-146967829D01*
X167508330Y-146953579D01*
X167528847Y-146941282D01*
X167550471Y-146931054D01*
X167572993Y-146922996D01*
X167596197Y-146917184D01*
X167619858Y-146913674D01*
X167643750Y-146912500D01*
X168556250Y-146912500D01*
X168580142Y-146913674D01*
X168580142Y-146913674D01*
G37*
D13*
X168100000Y-147400000D03*
D12*
G36*
X168580142Y-145038674D02*
X168603803Y-145042184D01*
X168627007Y-145047996D01*
X168649529Y-145056054D01*
X168671153Y-145066282D01*
X168691670Y-145078579D01*
X168710883Y-145092829D01*
X168728607Y-145108893D01*
X168744671Y-145126617D01*
X168758921Y-145145830D01*
X168771218Y-145166347D01*
X168781446Y-145187971D01*
X168789504Y-145210493D01*
X168795316Y-145233697D01*
X168798826Y-145257358D01*
X168800000Y-145281250D01*
X168800000Y-145768750D01*
X168798826Y-145792642D01*
X168795316Y-145816303D01*
X168789504Y-145839507D01*
X168781446Y-145862029D01*
X168771218Y-145883653D01*
X168758921Y-145904170D01*
X168744671Y-145923383D01*
X168728607Y-145941107D01*
X168710883Y-145957171D01*
X168691670Y-145971421D01*
X168671153Y-145983718D01*
X168649529Y-145993946D01*
X168627007Y-146002004D01*
X168603803Y-146007816D01*
X168580142Y-146011326D01*
X168556250Y-146012500D01*
X167643750Y-146012500D01*
X167619858Y-146011326D01*
X167596197Y-146007816D01*
X167572993Y-146002004D01*
X167550471Y-145993946D01*
X167528847Y-145983718D01*
X167508330Y-145971421D01*
X167489117Y-145957171D01*
X167471393Y-145941107D01*
X167455329Y-145923383D01*
X167441079Y-145904170D01*
X167428782Y-145883653D01*
X167418554Y-145862029D01*
X167410496Y-145839507D01*
X167404684Y-145816303D01*
X167401174Y-145792642D01*
X167400000Y-145768750D01*
X167400000Y-145281250D01*
X167401174Y-145257358D01*
X167404684Y-145233697D01*
X167410496Y-145210493D01*
X167418554Y-145187971D01*
X167428782Y-145166347D01*
X167441079Y-145145830D01*
X167455329Y-145126617D01*
X167471393Y-145108893D01*
X167489117Y-145092829D01*
X167508330Y-145078579D01*
X167528847Y-145066282D01*
X167550471Y-145056054D01*
X167572993Y-145047996D01*
X167596197Y-145042184D01*
X167619858Y-145038674D01*
X167643750Y-145037500D01*
X168556250Y-145037500D01*
X168580142Y-145038674D01*
X168580142Y-145038674D01*
G37*
D13*
X168100000Y-145525000D03*
D12*
G36*
X168380142Y-134576174D02*
X168403803Y-134579684D01*
X168427007Y-134585496D01*
X168449529Y-134593554D01*
X168471153Y-134603782D01*
X168491670Y-134616079D01*
X168510883Y-134630329D01*
X168528607Y-134646393D01*
X168544671Y-134664117D01*
X168558921Y-134683330D01*
X168571218Y-134703847D01*
X168581446Y-134725471D01*
X168589504Y-134747993D01*
X168595316Y-134771197D01*
X168598826Y-134794858D01*
X168600000Y-134818750D01*
X168600000Y-135306250D01*
X168598826Y-135330142D01*
X168595316Y-135353803D01*
X168589504Y-135377007D01*
X168581446Y-135399529D01*
X168571218Y-135421153D01*
X168558921Y-135441670D01*
X168544671Y-135460883D01*
X168528607Y-135478607D01*
X168510883Y-135494671D01*
X168491670Y-135508921D01*
X168471153Y-135521218D01*
X168449529Y-135531446D01*
X168427007Y-135539504D01*
X168403803Y-135545316D01*
X168380142Y-135548826D01*
X168356250Y-135550000D01*
X167443750Y-135550000D01*
X167419858Y-135548826D01*
X167396197Y-135545316D01*
X167372993Y-135539504D01*
X167350471Y-135531446D01*
X167328847Y-135521218D01*
X167308330Y-135508921D01*
X167289117Y-135494671D01*
X167271393Y-135478607D01*
X167255329Y-135460883D01*
X167241079Y-135441670D01*
X167228782Y-135421153D01*
X167218554Y-135399529D01*
X167210496Y-135377007D01*
X167204684Y-135353803D01*
X167201174Y-135330142D01*
X167200000Y-135306250D01*
X167200000Y-134818750D01*
X167201174Y-134794858D01*
X167204684Y-134771197D01*
X167210496Y-134747993D01*
X167218554Y-134725471D01*
X167228782Y-134703847D01*
X167241079Y-134683330D01*
X167255329Y-134664117D01*
X167271393Y-134646393D01*
X167289117Y-134630329D01*
X167308330Y-134616079D01*
X167328847Y-134603782D01*
X167350471Y-134593554D01*
X167372993Y-134585496D01*
X167396197Y-134579684D01*
X167419858Y-134576174D01*
X167443750Y-134575000D01*
X168356250Y-134575000D01*
X168380142Y-134576174D01*
X168380142Y-134576174D01*
G37*
D13*
X167900000Y-135062500D03*
D12*
G36*
X168380142Y-136451174D02*
X168403803Y-136454684D01*
X168427007Y-136460496D01*
X168449529Y-136468554D01*
X168471153Y-136478782D01*
X168491670Y-136491079D01*
X168510883Y-136505329D01*
X168528607Y-136521393D01*
X168544671Y-136539117D01*
X168558921Y-136558330D01*
X168571218Y-136578847D01*
X168581446Y-136600471D01*
X168589504Y-136622993D01*
X168595316Y-136646197D01*
X168598826Y-136669858D01*
X168600000Y-136693750D01*
X168600000Y-137181250D01*
X168598826Y-137205142D01*
X168595316Y-137228803D01*
X168589504Y-137252007D01*
X168581446Y-137274529D01*
X168571218Y-137296153D01*
X168558921Y-137316670D01*
X168544671Y-137335883D01*
X168528607Y-137353607D01*
X168510883Y-137369671D01*
X168491670Y-137383921D01*
X168471153Y-137396218D01*
X168449529Y-137406446D01*
X168427007Y-137414504D01*
X168403803Y-137420316D01*
X168380142Y-137423826D01*
X168356250Y-137425000D01*
X167443750Y-137425000D01*
X167419858Y-137423826D01*
X167396197Y-137420316D01*
X167372993Y-137414504D01*
X167350471Y-137406446D01*
X167328847Y-137396218D01*
X167308330Y-137383921D01*
X167289117Y-137369671D01*
X167271393Y-137353607D01*
X167255329Y-137335883D01*
X167241079Y-137316670D01*
X167228782Y-137296153D01*
X167218554Y-137274529D01*
X167210496Y-137252007D01*
X167204684Y-137228803D01*
X167201174Y-137205142D01*
X167200000Y-137181250D01*
X167200000Y-136693750D01*
X167201174Y-136669858D01*
X167204684Y-136646197D01*
X167210496Y-136622993D01*
X167218554Y-136600471D01*
X167228782Y-136578847D01*
X167241079Y-136558330D01*
X167255329Y-136539117D01*
X167271393Y-136521393D01*
X167289117Y-136505329D01*
X167308330Y-136491079D01*
X167328847Y-136478782D01*
X167350471Y-136468554D01*
X167372993Y-136460496D01*
X167396197Y-136454684D01*
X167419858Y-136451174D01*
X167443750Y-136450000D01*
X168356250Y-136450000D01*
X168380142Y-136451174D01*
X168380142Y-136451174D01*
G37*
D13*
X167900000Y-136937500D03*
D12*
G36*
X163105142Y-142801174D02*
X163128803Y-142804684D01*
X163152007Y-142810496D01*
X163174529Y-142818554D01*
X163196153Y-142828782D01*
X163216670Y-142841079D01*
X163235883Y-142855329D01*
X163253607Y-142871393D01*
X163269671Y-142889117D01*
X163283921Y-142908330D01*
X163296218Y-142928847D01*
X163306446Y-142950471D01*
X163314504Y-142972993D01*
X163320316Y-142996197D01*
X163323826Y-143019858D01*
X163325000Y-143043750D01*
X163325000Y-143956250D01*
X163323826Y-143980142D01*
X163320316Y-144003803D01*
X163314504Y-144027007D01*
X163306446Y-144049529D01*
X163296218Y-144071153D01*
X163283921Y-144091670D01*
X163269671Y-144110883D01*
X163253607Y-144128607D01*
X163235883Y-144144671D01*
X163216670Y-144158921D01*
X163196153Y-144171218D01*
X163174529Y-144181446D01*
X163152007Y-144189504D01*
X163128803Y-144195316D01*
X163105142Y-144198826D01*
X163081250Y-144200000D01*
X162593750Y-144200000D01*
X162569858Y-144198826D01*
X162546197Y-144195316D01*
X162522993Y-144189504D01*
X162500471Y-144181446D01*
X162478847Y-144171218D01*
X162458330Y-144158921D01*
X162439117Y-144144671D01*
X162421393Y-144128607D01*
X162405329Y-144110883D01*
X162391079Y-144091670D01*
X162378782Y-144071153D01*
X162368554Y-144049529D01*
X162360496Y-144027007D01*
X162354684Y-144003803D01*
X162351174Y-143980142D01*
X162350000Y-143956250D01*
X162350000Y-143043750D01*
X162351174Y-143019858D01*
X162354684Y-142996197D01*
X162360496Y-142972993D01*
X162368554Y-142950471D01*
X162378782Y-142928847D01*
X162391079Y-142908330D01*
X162405329Y-142889117D01*
X162421393Y-142871393D01*
X162439117Y-142855329D01*
X162458330Y-142841079D01*
X162478847Y-142828782D01*
X162500471Y-142818554D01*
X162522993Y-142810496D01*
X162546197Y-142804684D01*
X162569858Y-142801174D01*
X162593750Y-142800000D01*
X163081250Y-142800000D01*
X163105142Y-142801174D01*
X163105142Y-142801174D01*
G37*
D13*
X162837500Y-143500000D03*
D12*
G36*
X161230142Y-142801174D02*
X161253803Y-142804684D01*
X161277007Y-142810496D01*
X161299529Y-142818554D01*
X161321153Y-142828782D01*
X161341670Y-142841079D01*
X161360883Y-142855329D01*
X161378607Y-142871393D01*
X161394671Y-142889117D01*
X161408921Y-142908330D01*
X161421218Y-142928847D01*
X161431446Y-142950471D01*
X161439504Y-142972993D01*
X161445316Y-142996197D01*
X161448826Y-143019858D01*
X161450000Y-143043750D01*
X161450000Y-143956250D01*
X161448826Y-143980142D01*
X161445316Y-144003803D01*
X161439504Y-144027007D01*
X161431446Y-144049529D01*
X161421218Y-144071153D01*
X161408921Y-144091670D01*
X161394671Y-144110883D01*
X161378607Y-144128607D01*
X161360883Y-144144671D01*
X161341670Y-144158921D01*
X161321153Y-144171218D01*
X161299529Y-144181446D01*
X161277007Y-144189504D01*
X161253803Y-144195316D01*
X161230142Y-144198826D01*
X161206250Y-144200000D01*
X160718750Y-144200000D01*
X160694858Y-144198826D01*
X160671197Y-144195316D01*
X160647993Y-144189504D01*
X160625471Y-144181446D01*
X160603847Y-144171218D01*
X160583330Y-144158921D01*
X160564117Y-144144671D01*
X160546393Y-144128607D01*
X160530329Y-144110883D01*
X160516079Y-144091670D01*
X160503782Y-144071153D01*
X160493554Y-144049529D01*
X160485496Y-144027007D01*
X160479684Y-144003803D01*
X160476174Y-143980142D01*
X160475000Y-143956250D01*
X160475000Y-143043750D01*
X160476174Y-143019858D01*
X160479684Y-142996197D01*
X160485496Y-142972993D01*
X160493554Y-142950471D01*
X160503782Y-142928847D01*
X160516079Y-142908330D01*
X160530329Y-142889117D01*
X160546393Y-142871393D01*
X160564117Y-142855329D01*
X160583330Y-142841079D01*
X160603847Y-142828782D01*
X160625471Y-142818554D01*
X160647993Y-142810496D01*
X160671197Y-142804684D01*
X160694858Y-142801174D01*
X160718750Y-142800000D01*
X161206250Y-142800000D01*
X161230142Y-142801174D01*
X161230142Y-142801174D01*
G37*
D13*
X160962500Y-143500000D03*
M02*
