%TF.GenerationSoftware,KiCad,Pcbnew,(5.0.0)*%
%TF.CreationDate,2019-04-29T14:40:25+02:00*%
%TF.ProjectId,Amalga_100,416D616C67615F3130302E6B69636164,rev?*%
%TF.SameCoordinates,Original*%
%TF.FileFunction,Plated,1,6,PTH,Drill*%
%TF.FilePolarity,Positive*%
%FSLAX46Y46*%
G04 Gerber Fmt 4.6, Leading zero omitted, Abs format (unit mm)*
G04 Created by KiCad (PCBNEW (5.0.0)) date 04/29/19 14:40:25*
%MOMM*%
%LPD*%
G01*
G04 APERTURE LIST*
%TA.AperFunction,ViaDrill*%
%ADD10C,0.400000*%
%TD*%
%TA.AperFunction,ViaDrill*%
%ADD11C,0.600000*%
%TD*%
%TA.AperFunction,ComponentDrill*%
%ADD12C,0.600000*%
%TD*%
%TA.AperFunction,ComponentDrill*%
%ADD13C,0.800000*%
%TD*%
%TA.AperFunction,ComponentDrill*%
%ADD14C,0.920000*%
%TD*%
%TA.AperFunction,ComponentDrill*%
%ADD15C,1.000000*%
%TD*%
%TA.AperFunction,ComponentDrill*%
%ADD16C,1.100000*%
%TD*%
%TA.AperFunction,ComponentDrill*%
%ADD17C,1.200000*%
%TD*%
%TA.AperFunction,ComponentDrill*%
%ADD18C,1.420000*%
%TD*%
%TA.AperFunction,ComponentDrill*%
%ADD19C,1.475000*%
%TD*%
%TA.AperFunction,ComponentDrill*%
%ADD20C,2.000000*%
%TD*%
%TA.AperFunction,ComponentDrill*%
%ADD21C,2.300000*%
%TD*%
%TA.AperFunction,ComponentDrill*%
%ADD22C,3.200000*%
%TD*%
%TA.AperFunction,ComponentDrill*%
%ADD23C,5.000000*%
%TD*%
G04 APERTURE END LIST*
D10*
X28240000Y-138020000D03*
X29800000Y-134300000D03*
X30900000Y-124000000D03*
X38400000Y-123000000D03*
X40940000Y-134170000D03*
X41130000Y-138460000D03*
X43460000Y-137580000D03*
X47400000Y-75100000D03*
X48200000Y-82850000D03*
X49509999Y-80710001D03*
X49774990Y-64500000D03*
X49791187Y-79644757D03*
X49860000Y-124870000D03*
X49900000Y-75000000D03*
X50100000Y-73200000D03*
X51700000Y-46300000D03*
X52500000Y-56300000D03*
X53650000Y-58250000D03*
X54830000Y-134420000D03*
X67012492Y-130376076D03*
X67725010Y-146695000D03*
X67725010Y-147965000D03*
X67725010Y-149235000D03*
X67887500Y-145425000D03*
X67900002Y-143780000D03*
X68120000Y-125270000D03*
X69040000Y-143420000D03*
X70400000Y-43500000D03*
X71012492Y-130376076D03*
X71900000Y-71500000D03*
X73500000Y-145499982D03*
X74300000Y-157300000D03*
X74949992Y-137030008D03*
X76900000Y-84500000D03*
X76900000Y-88500000D03*
X77000000Y-153200000D03*
X78800000Y-139700000D03*
X78800000Y-144100000D03*
X78900000Y-141900000D03*
X82380000Y-135490000D03*
X85700000Y-151900000D03*
X86400000Y-134750000D03*
X86400000Y-143500000D03*
X86699996Y-151030004D03*
X88962500Y-156837500D03*
X89000000Y-144500000D03*
X90900000Y-121500000D03*
X92000000Y-154600000D03*
X92000000Y-159900000D03*
X92100000Y-85700000D03*
X93400000Y-144500000D03*
X93500000Y-87415134D03*
X93680000Y-85465134D03*
X93900000Y-123500000D03*
X98300000Y-78400000D03*
X98960000Y-154470000D03*
X99400000Y-159700000D03*
X100900000Y-133000000D03*
X101280000Y-140805010D03*
X102390000Y-140150000D03*
X103400000Y-139690000D03*
X104400000Y-139000000D03*
X104800000Y-145300000D03*
X105700000Y-154900000D03*
X108000000Y-159100000D03*
X109700000Y-150200000D03*
X110400000Y-144500000D03*
X113300000Y-154900000D03*
X113600000Y-148400000D03*
X114900000Y-158000000D03*
X115900000Y-135000000D03*
X123900000Y-121500000D03*
X124400000Y-74600000D03*
X124700000Y-81900000D03*
X124900000Y-122500000D03*
X126400000Y-80500000D03*
X126700000Y-79700000D03*
X126900000Y-64600000D03*
X126900000Y-74500000D03*
X127100000Y-72700000D03*
X129200000Y-46300000D03*
X130100000Y-56400000D03*
X130300000Y-58150000D03*
X133400000Y-135000000D03*
X146000000Y-135000000D03*
X147900000Y-43500000D03*
X148400000Y-153000000D03*
X148400000Y-163000000D03*
X148900000Y-71500000D03*
X149840000Y-143250000D03*
X151010000Y-142540000D03*
X153300014Y-143400000D03*
X153400000Y-85000000D03*
X153400000Y-88500000D03*
X154400000Y-143500000D03*
X155600000Y-142500000D03*
X159000000Y-133200000D03*
X159381212Y-148360918D03*
X159411944Y-145528046D03*
X159460000Y-141670000D03*
X159640000Y-144390000D03*
X160300000Y-148400000D03*
X161200000Y-148300000D03*
X162239845Y-144639845D03*
X162400000Y-136700000D03*
X162400000Y-141700000D03*
X162660002Y-148940000D03*
X163357090Y-140805454D03*
X163391303Y-136499978D03*
X163400000Y-138800000D03*
X163650000Y-149090000D03*
X163710000Y-148210000D03*
X163810000Y-133800000D03*
X164100000Y-141200000D03*
X164300000Y-131500000D03*
X164970000Y-132130000D03*
X165199440Y-133748785D03*
X165224332Y-130879988D03*
X165475368Y-144306158D03*
X165490000Y-129060000D03*
X165949919Y-134025916D03*
X166504770Y-144025010D03*
X166600000Y-145500000D03*
X167370000Y-131220000D03*
X168343763Y-149356237D03*
X168700000Y-141600000D03*
X168900000Y-121500000D03*
X169020000Y-128270000D03*
X169175010Y-148793826D03*
X169548746Y-140937698D03*
X169700000Y-139159553D03*
X169800000Y-85600000D03*
X169819998Y-149590000D03*
X170082317Y-141533785D03*
X170100000Y-145000000D03*
X170101533Y-137568374D03*
X170880000Y-149330000D03*
X170900000Y-85661857D03*
X170900000Y-87610000D03*
X170900000Y-160500000D03*
X171150000Y-144750000D03*
X171323411Y-138791808D03*
X171474968Y-127654990D03*
X171900000Y-123500000D03*
X173900000Y-140000000D03*
X174100000Y-144400000D03*
X175300000Y-142650000D03*
X175900000Y-77800000D03*
X179900000Y-135500000D03*
X183200000Y-157700000D03*
X186900000Y-137500000D03*
X187100000Y-156625010D03*
X195900000Y-140500000D03*
X195900000Y-163000000D03*
X196200000Y-123500000D03*
X197099989Y-152399989D03*
X197100000Y-154500000D03*
X200900000Y-121500000D03*
X201400000Y-74600000D03*
X201900000Y-82100000D03*
X201999994Y-122500000D03*
X202400000Y-133900000D03*
X202900000Y-80000000D03*
X203900000Y-74500000D03*
X204000000Y-64200000D03*
X204000004Y-79800000D03*
X204100000Y-72700000D03*
X205400000Y-46300000D03*
X206600000Y-56300000D03*
X206800000Y-133900000D03*
X207500000Y-58200000D03*
X215900000Y-140500000D03*
X224900000Y-43500000D03*
X225900000Y-71500000D03*
X228400000Y-130500000D03*
X230500000Y-84511855D03*
X230500000Y-88000000D03*
X238400000Y-140500000D03*
X245900000Y-121500000D03*
X246800000Y-85200000D03*
X247750009Y-123500000D03*
X247900000Y-85261857D03*
X247900000Y-87210000D03*
X252600000Y-78100000D03*
X258400000Y-148000000D03*
X260900000Y-163000000D03*
X274900000Y-124500000D03*
D11*
X17150000Y-59250000D03*
X17150000Y-61750000D03*
X18400000Y-25500000D03*
X18400000Y-30500000D03*
X18400000Y-35500000D03*
X18400000Y-40500000D03*
X18400000Y-45500000D03*
X18400000Y-48000000D03*
X18400000Y-60500000D03*
X18400000Y-68000000D03*
X18400000Y-73000000D03*
X18400000Y-78000000D03*
X18400000Y-83000000D03*
X18400000Y-88000000D03*
X18400000Y-93000000D03*
X18400000Y-108000000D03*
X19650000Y-59250000D03*
X19650000Y-61750000D03*
X20900000Y-33000000D03*
X20900000Y-38000000D03*
X20900000Y-43000000D03*
X20900000Y-48000000D03*
X20900000Y-60500000D03*
X20900000Y-65500000D03*
X20900000Y-70500000D03*
X20900000Y-75500000D03*
X20900000Y-90500000D03*
X20900000Y-90500000D03*
X20900000Y-110500000D03*
X22150000Y-59250000D03*
X22150000Y-61750000D03*
X23400000Y-15500000D03*
X23400000Y-35500000D03*
X23400000Y-40500000D03*
X23400000Y-45500000D03*
X23400000Y-48000000D03*
X23400000Y-60500000D03*
X23400000Y-68000000D03*
X23400000Y-73000000D03*
X23400000Y-93000000D03*
X23400000Y-93000000D03*
X23400000Y-108000000D03*
X23400000Y-113000000D03*
X24650000Y-59250000D03*
X24650000Y-61750000D03*
X25900000Y-18000000D03*
X25900000Y-38000000D03*
X25900000Y-43000000D03*
X25900000Y-48000000D03*
X25900000Y-60500000D03*
X25900000Y-63000000D03*
X25900000Y-65500000D03*
X25900000Y-70500000D03*
X25900000Y-75500000D03*
X25900000Y-90500000D03*
X25900000Y-90500000D03*
X25900000Y-110500000D03*
X25900000Y-115500000D03*
X27150000Y-59250000D03*
X27150000Y-61750000D03*
X28400000Y-15500000D03*
X28400000Y-35500000D03*
X28400000Y-40500000D03*
X28400000Y-45500000D03*
X28400000Y-48000000D03*
X28400000Y-60500000D03*
X28400000Y-63000000D03*
X28400000Y-68000000D03*
X28400000Y-73000000D03*
X28400000Y-88000000D03*
X28400000Y-88000000D03*
X28400000Y-93000000D03*
X28400000Y-93000000D03*
X28400000Y-108000000D03*
X28400000Y-113000000D03*
X29650000Y-59250000D03*
X29650000Y-61750000D03*
X30900000Y-18000000D03*
X30900000Y-33000000D03*
X30900000Y-38000000D03*
X30900000Y-43000000D03*
X30900000Y-63000000D03*
X30900000Y-65500000D03*
X30900000Y-70500000D03*
X30900000Y-75500000D03*
X30900000Y-80500000D03*
X30900000Y-80500000D03*
X30900000Y-85500000D03*
X30900000Y-85500000D03*
X30900000Y-90500000D03*
X30900000Y-90500000D03*
X30900000Y-110500000D03*
X30900000Y-115500000D03*
X33400000Y-15500000D03*
X33400000Y-20500000D03*
X33400000Y-25500000D03*
X33400000Y-30500000D03*
X33400000Y-35500000D03*
X33400000Y-40500000D03*
X33400000Y-45500000D03*
X33400000Y-63000000D03*
X33400000Y-68000000D03*
X33400000Y-73000000D03*
X33400000Y-78000000D03*
X33400000Y-83000000D03*
X33400000Y-88000000D03*
X33400000Y-93000000D03*
X33400000Y-93000000D03*
X33400000Y-98000000D03*
X33400000Y-103000000D03*
X33400000Y-108000000D03*
X33400000Y-113000000D03*
X35900000Y-18000000D03*
X35900000Y-23000000D03*
X35900000Y-28000000D03*
X35900000Y-33000000D03*
X35900000Y-38000000D03*
X35900000Y-43000000D03*
X35900000Y-48000000D03*
X35900000Y-60500000D03*
X35900000Y-63000000D03*
X35900000Y-65500000D03*
X35900000Y-70500000D03*
X35900000Y-75500000D03*
X35900000Y-80500000D03*
X35900000Y-85500000D03*
X35900000Y-90500000D03*
X35900000Y-95500000D03*
X35900000Y-100500000D03*
X35900000Y-105500000D03*
X35900000Y-110500000D03*
X35900000Y-115500000D03*
X37150000Y-59250000D03*
X37150000Y-61750000D03*
X38400000Y-15500000D03*
X38400000Y-25500000D03*
X38400000Y-30500000D03*
X38400000Y-35500000D03*
X38400000Y-40500000D03*
X38400000Y-45500000D03*
X38400000Y-48000000D03*
X38400000Y-60500000D03*
X38400000Y-63000000D03*
X38400000Y-68000000D03*
X38400000Y-73000000D03*
X38400000Y-78000000D03*
X38400000Y-83000000D03*
X38400000Y-88000000D03*
X38400000Y-103000000D03*
X38400000Y-108000000D03*
X38400000Y-113000000D03*
X39650000Y-59250000D03*
X39650000Y-61750000D03*
X40900000Y-28000000D03*
X40900000Y-33000000D03*
X40900000Y-38000000D03*
X40900000Y-43000000D03*
X40900000Y-48000000D03*
X40900000Y-60500000D03*
X40900000Y-63000000D03*
X40900000Y-65500000D03*
X40900000Y-85500000D03*
X40900000Y-90500000D03*
X40900000Y-100500000D03*
X40900000Y-105500000D03*
X40900000Y-110500000D03*
X40900000Y-115500000D03*
X42150000Y-59250000D03*
X42150000Y-61750000D03*
X43400000Y-15500000D03*
X43400000Y-25500000D03*
X43400000Y-30500000D03*
X43400000Y-35500000D03*
X43400000Y-60500000D03*
X43400000Y-63000000D03*
X43400000Y-83000000D03*
X43400000Y-88000000D03*
X43400000Y-103000000D03*
X43400000Y-108000000D03*
X43400000Y-113000000D03*
X44650000Y-59250000D03*
X44650000Y-59250000D03*
X44650000Y-61750000D03*
X45900000Y-18000000D03*
X45900000Y-23000000D03*
X45900000Y-28000000D03*
X45900000Y-33000000D03*
X45900000Y-60500000D03*
X45900000Y-63000000D03*
X45900000Y-85500000D03*
X45900000Y-88000000D03*
X45900000Y-90500000D03*
X45900000Y-93000000D03*
X45900000Y-93000000D03*
X45900000Y-95500000D03*
X45900000Y-95500000D03*
X45900000Y-98000000D03*
X45900000Y-100500000D03*
X45900000Y-103000000D03*
X45900000Y-105500000D03*
X45900000Y-108000000D03*
X45900000Y-110500000D03*
X45900000Y-113000000D03*
X45900000Y-115500000D03*
X46650000Y-51250000D03*
X47150000Y-59250000D03*
X47150000Y-59250000D03*
X47150000Y-61750000D03*
X48400000Y-15500000D03*
X48400000Y-20500000D03*
X48400000Y-25500000D03*
X48400000Y-30500000D03*
X48400000Y-35500000D03*
X48400000Y-60500000D03*
X50900000Y-18000000D03*
X50900000Y-23000000D03*
X50900000Y-28000000D03*
X50900000Y-33000000D03*
X50900000Y-38000000D03*
X53400000Y-15500000D03*
X53400000Y-20500000D03*
X53400000Y-25500000D03*
X53400000Y-30500000D03*
X53400000Y-35500000D03*
X53400000Y-38000000D03*
X53400000Y-90500000D03*
X53400000Y-93000000D03*
X53400000Y-95500000D03*
X53400000Y-98000000D03*
X53400000Y-98000000D03*
X53400000Y-100500000D03*
X53400000Y-100500000D03*
X53400000Y-103000000D03*
X53400000Y-105500000D03*
X53400000Y-108000000D03*
X53400000Y-110500000D03*
X53400000Y-113000000D03*
X53400000Y-115500000D03*
X54400000Y-48900000D03*
X55900000Y-18000000D03*
X55900000Y-23000000D03*
X55900000Y-28000000D03*
X55900000Y-38000000D03*
X55900000Y-75500000D03*
X55900000Y-80500000D03*
X55900000Y-90500000D03*
X55900000Y-95500000D03*
X55900000Y-100500000D03*
X55900000Y-105500000D03*
X55900000Y-110500000D03*
X55900000Y-115500000D03*
X58400000Y-15500000D03*
X58400000Y-20500000D03*
X58400000Y-78000000D03*
X58400000Y-83000000D03*
X58400000Y-93000000D03*
X58400000Y-98000000D03*
X58400000Y-103000000D03*
X58400000Y-108000000D03*
X58400000Y-113000000D03*
X60900000Y-18000000D03*
X60900000Y-23000000D03*
X60900000Y-28000000D03*
X60900000Y-48000000D03*
X60900000Y-53000000D03*
X60900000Y-58000000D03*
X60900000Y-63000000D03*
X60900000Y-68000000D03*
X60900000Y-80500000D03*
X60900000Y-90500000D03*
X60900000Y-95500000D03*
X60900000Y-100500000D03*
X60900000Y-105500000D03*
X60900000Y-110500000D03*
X60900000Y-115500000D03*
X63400000Y-15500000D03*
X63400000Y-20500000D03*
X63400000Y-25500000D03*
X63400000Y-30500000D03*
X63400000Y-35500000D03*
X63400000Y-40500000D03*
X63400000Y-45500000D03*
X63400000Y-50500000D03*
X63400000Y-55500000D03*
X63400000Y-60500000D03*
X63400000Y-65500000D03*
X63400000Y-78000000D03*
X63400000Y-83000000D03*
X63400000Y-93000000D03*
X63400000Y-98000000D03*
X63400000Y-103000000D03*
X63400000Y-108000000D03*
X63400000Y-113000000D03*
X65900000Y-18000000D03*
X65900000Y-23000000D03*
X65900000Y-28000000D03*
X65900000Y-33000000D03*
X65900000Y-48000000D03*
X65900000Y-53000000D03*
X65900000Y-58000000D03*
X65900000Y-63000000D03*
X65900000Y-80500000D03*
X65900000Y-90500000D03*
X65900000Y-95500000D03*
X65900000Y-100500000D03*
X65900000Y-105500000D03*
X65900000Y-110500000D03*
X65900000Y-115500000D03*
X68400000Y-15500000D03*
X68400000Y-20500000D03*
X68400000Y-25500000D03*
X68400000Y-30500000D03*
X68400000Y-35500000D03*
X68400000Y-50500000D03*
X68400000Y-55500000D03*
X68400000Y-60500000D03*
X68400000Y-65500000D03*
X68400000Y-78000000D03*
X68400000Y-83000000D03*
X68400000Y-93000000D03*
X68400000Y-98000000D03*
X68400000Y-103000000D03*
X68400000Y-108000000D03*
X68400000Y-113000000D03*
X70900000Y-18000000D03*
X70900000Y-23000000D03*
X70900000Y-28000000D03*
X70900000Y-33000000D03*
X70900000Y-48000000D03*
X70900000Y-78000000D03*
X70900000Y-78000000D03*
X70900000Y-78000000D03*
X70900000Y-80500000D03*
X70900000Y-80500000D03*
X70900000Y-80500000D03*
X70900000Y-80500000D03*
X70900000Y-83000000D03*
X70900000Y-90500000D03*
X70900000Y-93000000D03*
X70900000Y-95500000D03*
X70900000Y-100500000D03*
X70900000Y-105500000D03*
X70900000Y-110500000D03*
X70900000Y-115500000D03*
X72150000Y-79250000D03*
X72150000Y-81750000D03*
X73400000Y-15500000D03*
X73400000Y-20500000D03*
X73400000Y-25500000D03*
X73400000Y-30500000D03*
X73400000Y-35500000D03*
X73400000Y-50500000D03*
X73400000Y-65500000D03*
X73400000Y-78000000D03*
X73400000Y-78000000D03*
X73400000Y-78000000D03*
X73400000Y-80500000D03*
X73400000Y-93000000D03*
X73400000Y-95500000D03*
X73400000Y-98000000D03*
X73400000Y-103000000D03*
X73400000Y-108000000D03*
X73400000Y-113000000D03*
X74650000Y-79250000D03*
X74650000Y-79250000D03*
X74650000Y-94250000D03*
X75900000Y-18000000D03*
X75900000Y-23000000D03*
X75900000Y-28000000D03*
X75900000Y-33000000D03*
X75900000Y-48000000D03*
X75900000Y-70500000D03*
X75900000Y-75500000D03*
X75900000Y-78000000D03*
X75900000Y-78000000D03*
X75900000Y-78000000D03*
X75900000Y-78000000D03*
X75900000Y-80500000D03*
X75900000Y-80500000D03*
X75900000Y-80500000D03*
X75900000Y-93000000D03*
X75900000Y-95500000D03*
X75900000Y-100500000D03*
X75900000Y-105500000D03*
X75900000Y-110500000D03*
X75900000Y-115500000D03*
X77150000Y-79250000D03*
X77150000Y-79250000D03*
X77150000Y-94250000D03*
X78400000Y-15500000D03*
X78400000Y-20500000D03*
X78400000Y-25500000D03*
X78400000Y-30500000D03*
X78400000Y-35500000D03*
X78400000Y-38000000D03*
X78400000Y-50500000D03*
X78400000Y-65500000D03*
X78400000Y-73000000D03*
X78400000Y-78000000D03*
X78400000Y-78000000D03*
X78400000Y-78000000D03*
X78400000Y-80500000D03*
X78400000Y-80500000D03*
X78400000Y-93000000D03*
X78400000Y-95500000D03*
X78400000Y-98000000D03*
X78400000Y-103000000D03*
X78400000Y-108000000D03*
X78400000Y-113000000D03*
X79650000Y-79250000D03*
X79650000Y-94250000D03*
X80900000Y-18000000D03*
X80900000Y-23000000D03*
X80900000Y-28000000D03*
X80900000Y-38000000D03*
X80900000Y-48000000D03*
X80900000Y-70500000D03*
X80900000Y-75500000D03*
X80900000Y-78000000D03*
X80900000Y-78000000D03*
X80900000Y-80500000D03*
X80900000Y-80500000D03*
X80900000Y-80500000D03*
X80900000Y-80500000D03*
X80900000Y-80500000D03*
X80900000Y-80500000D03*
X80900000Y-80500000D03*
X80900000Y-83000000D03*
X80900000Y-90500000D03*
X80900000Y-93000000D03*
X80900000Y-95500000D03*
X80900000Y-100500000D03*
X80900000Y-105500000D03*
X80900000Y-110500000D03*
X80900000Y-115500000D03*
X83400000Y-15500000D03*
X83400000Y-20500000D03*
X83400000Y-25500000D03*
X83400000Y-50500000D03*
X83400000Y-55500000D03*
X83400000Y-60500000D03*
X83400000Y-65500000D03*
X83400000Y-73000000D03*
X83400000Y-78000000D03*
X83400000Y-83000000D03*
X83400000Y-93000000D03*
X83400000Y-98000000D03*
X83400000Y-103000000D03*
X83400000Y-108000000D03*
X83400000Y-113000000D03*
X85900000Y-18000000D03*
X85900000Y-23000000D03*
X85900000Y-28000000D03*
X85900000Y-48000000D03*
X85900000Y-53000000D03*
X85900000Y-58000000D03*
X85900000Y-63000000D03*
X85900000Y-78000000D03*
X85900000Y-80500000D03*
X85900000Y-90500000D03*
X85900000Y-95500000D03*
X85900000Y-100500000D03*
X85900000Y-105500000D03*
X85900000Y-110500000D03*
X85900000Y-115500000D03*
X88400000Y-15500000D03*
X88400000Y-15500000D03*
X88400000Y-20500000D03*
X88400000Y-20500000D03*
X88400000Y-25500000D03*
X88400000Y-25500000D03*
X88400000Y-30500000D03*
X88400000Y-30500000D03*
X88400000Y-35500000D03*
X88400000Y-50500000D03*
X88400000Y-55500000D03*
X88400000Y-60500000D03*
X88400000Y-65500000D03*
X88400000Y-93000000D03*
X88400000Y-98000000D03*
X88400000Y-103000000D03*
X88400000Y-108000000D03*
X88400000Y-113000000D03*
X90900000Y-18000000D03*
X90900000Y-18000000D03*
X90900000Y-23000000D03*
X90900000Y-23000000D03*
X90900000Y-28000000D03*
X90900000Y-28000000D03*
X90900000Y-33000000D03*
X90900000Y-33000000D03*
X90900000Y-43000000D03*
X90900000Y-48000000D03*
X90900000Y-53000000D03*
X90900000Y-58000000D03*
X90900000Y-63000000D03*
X90900000Y-90500000D03*
X90900000Y-93000000D03*
X90900000Y-95500000D03*
X90900000Y-98000000D03*
X90900000Y-100500000D03*
X90900000Y-103000000D03*
X90900000Y-105500000D03*
X90900000Y-108000000D03*
X90900000Y-110500000D03*
X90900000Y-113000000D03*
X90900000Y-115500000D03*
X91500000Y-68800000D03*
X93400000Y-15500000D03*
X93400000Y-20500000D03*
X93400000Y-25500000D03*
X93400000Y-30500000D03*
X93400000Y-35500000D03*
X95900000Y-18000000D03*
X95900000Y-23000000D03*
X95900000Y-28000000D03*
X95900000Y-33000000D03*
X95900000Y-90500000D03*
X95900000Y-93000000D03*
X95900000Y-95500000D03*
X95900000Y-98000000D03*
X95900000Y-100500000D03*
X95900000Y-103000000D03*
X95900000Y-105500000D03*
X95900000Y-108000000D03*
X95900000Y-110500000D03*
X95900000Y-113000000D03*
X95900000Y-115500000D03*
X98400000Y-15500000D03*
X98400000Y-20500000D03*
X98400000Y-25500000D03*
X98400000Y-30500000D03*
X98400000Y-35500000D03*
X98400000Y-90500000D03*
X98400000Y-95500000D03*
X98400000Y-100500000D03*
X98400000Y-105500000D03*
X98400000Y-110500000D03*
X98400000Y-115500000D03*
X100900000Y-28000000D03*
X100900000Y-33000000D03*
X100900000Y-88000000D03*
X100900000Y-93000000D03*
X100900000Y-98000000D03*
X100900000Y-103000000D03*
X100900000Y-108000000D03*
X100900000Y-113000000D03*
X103400000Y-25500000D03*
X103400000Y-30500000D03*
X103400000Y-35500000D03*
X103400000Y-40500000D03*
X103400000Y-45500000D03*
X103400000Y-48000000D03*
X103400000Y-60500000D03*
X103400000Y-63000000D03*
X103400000Y-65500000D03*
X103400000Y-70500000D03*
X103400000Y-75500000D03*
X103400000Y-80500000D03*
X103400000Y-85500000D03*
X103400000Y-90500000D03*
X103400000Y-95500000D03*
X103400000Y-100500000D03*
X103400000Y-105500000D03*
X103400000Y-110500000D03*
X103400000Y-115500000D03*
X104650000Y-59250000D03*
X104650000Y-61750000D03*
X105900000Y-28000000D03*
X105900000Y-33000000D03*
X105900000Y-38000000D03*
X105900000Y-43000000D03*
X105900000Y-48000000D03*
X105900000Y-60500000D03*
X105900000Y-63000000D03*
X105900000Y-68000000D03*
X105900000Y-73000000D03*
X105900000Y-78000000D03*
X105900000Y-83000000D03*
X105900000Y-88000000D03*
X105900000Y-93000000D03*
X105900000Y-98000000D03*
X105900000Y-103000000D03*
X105900000Y-108000000D03*
X105900000Y-113000000D03*
X107150000Y-59250000D03*
X107150000Y-61750000D03*
X108400000Y-15500000D03*
X108400000Y-20500000D03*
X108400000Y-25500000D03*
X108400000Y-30500000D03*
X108400000Y-35500000D03*
X108400000Y-40500000D03*
X108400000Y-45500000D03*
X108400000Y-63000000D03*
X108400000Y-65500000D03*
X108400000Y-70500000D03*
X108400000Y-75500000D03*
X108400000Y-80500000D03*
X108400000Y-90500000D03*
X108400000Y-95500000D03*
X108400000Y-100500000D03*
X108400000Y-105500000D03*
X108400000Y-110500000D03*
X108400000Y-115500000D03*
X110900000Y-18000000D03*
X110900000Y-23000000D03*
X110900000Y-28000000D03*
X110900000Y-33000000D03*
X110900000Y-38000000D03*
X110900000Y-43000000D03*
X110900000Y-48000000D03*
X110900000Y-63200000D03*
X110900000Y-68000000D03*
X110900000Y-73000000D03*
X110900000Y-78000000D03*
X110900000Y-83000000D03*
X110900000Y-88000000D03*
X110900000Y-93000000D03*
X110900000Y-98000000D03*
X110900000Y-103000000D03*
X110900000Y-108000000D03*
X110900000Y-113000000D03*
X113400000Y-15500000D03*
X113400000Y-20500000D03*
X113400000Y-25500000D03*
X113400000Y-30500000D03*
X113400000Y-35500000D03*
X113400000Y-40500000D03*
X113400000Y-45500000D03*
X113400000Y-60500000D03*
X113400000Y-63000000D03*
X113400000Y-65500000D03*
X113400000Y-70500000D03*
X113400000Y-75500000D03*
X113400000Y-80500000D03*
X113400000Y-85500000D03*
X113400000Y-90500000D03*
X113400000Y-100500000D03*
X113400000Y-105500000D03*
X113400000Y-110500000D03*
X113400000Y-115500000D03*
X114650000Y-59250000D03*
X114650000Y-61750000D03*
X115900000Y-18000000D03*
X115900000Y-23000000D03*
X115900000Y-28000000D03*
X115900000Y-33000000D03*
X115900000Y-38000000D03*
X115900000Y-43000000D03*
X115900000Y-48000000D03*
X115900000Y-60500000D03*
X115900000Y-63000000D03*
X115900000Y-68000000D03*
X115900000Y-73000000D03*
X115900000Y-78000000D03*
X115900000Y-83000000D03*
X115900000Y-88000000D03*
X115900000Y-103000000D03*
X115900000Y-108000000D03*
X115900000Y-113000000D03*
X117150000Y-59250000D03*
X117150000Y-61750000D03*
X118400000Y-15500000D03*
X118400000Y-20500000D03*
X118400000Y-30500000D03*
X118400000Y-35500000D03*
X118400000Y-40500000D03*
X118400000Y-45500000D03*
X118400000Y-48000000D03*
X118400000Y-60500000D03*
X118400000Y-63000000D03*
X118400000Y-65500000D03*
X118400000Y-80500000D03*
X118400000Y-85500000D03*
X118400000Y-90500000D03*
X118400000Y-95500000D03*
X118400000Y-100500000D03*
X118400000Y-105500000D03*
X118400000Y-110500000D03*
X118400000Y-115500000D03*
X119650000Y-59250000D03*
X119650000Y-61750000D03*
X120900000Y-18000000D03*
X120900000Y-23000000D03*
X120900000Y-28000000D03*
X120900000Y-33000000D03*
X120900000Y-38000000D03*
X120900000Y-43000000D03*
X120900000Y-48000000D03*
X120900000Y-60500000D03*
X120900000Y-63000000D03*
X120900000Y-83000000D03*
X120900000Y-88000000D03*
X120900000Y-93000000D03*
X120900000Y-98000000D03*
X120900000Y-103000000D03*
X120900000Y-108000000D03*
X120900000Y-113000000D03*
X122150000Y-59250000D03*
X122150000Y-59250000D03*
X122150000Y-61750000D03*
X123400000Y-15500000D03*
X123400000Y-20500000D03*
X123400000Y-25500000D03*
X123400000Y-30500000D03*
X123400000Y-35500000D03*
X123400000Y-40500000D03*
X123400000Y-48000000D03*
X123400000Y-60500000D03*
X123400000Y-63000000D03*
X123400000Y-83000000D03*
X123400000Y-85500000D03*
X123400000Y-85500000D03*
X123400000Y-88000000D03*
X123400000Y-88000000D03*
X123400000Y-90500000D03*
X123400000Y-93000000D03*
X123400000Y-95500000D03*
X123400000Y-98000000D03*
X123400000Y-100500000D03*
X123400000Y-103000000D03*
X123400000Y-105500000D03*
X123400000Y-108000000D03*
X123400000Y-110500000D03*
X123400000Y-113000000D03*
X123400000Y-115500000D03*
X124650000Y-59250000D03*
X124650000Y-61750000D03*
X125900000Y-18000000D03*
X125900000Y-23000000D03*
X125900000Y-28000000D03*
X125900000Y-33000000D03*
X125900000Y-38000000D03*
X127350000Y-51150000D03*
X128400000Y-15500000D03*
X128400000Y-20500000D03*
X128400000Y-25500000D03*
X128400000Y-30500000D03*
X128400000Y-35500000D03*
X128400000Y-90500000D03*
X128400000Y-93000000D03*
X128400000Y-95500000D03*
X128400000Y-98000000D03*
X128400000Y-100500000D03*
X128400000Y-103000000D03*
X128400000Y-105500000D03*
X128400000Y-108000000D03*
X128400000Y-110500000D03*
X128400000Y-113000000D03*
X128400000Y-115500000D03*
X130900000Y-18000000D03*
X130900000Y-23000000D03*
X130900000Y-28000000D03*
X130900000Y-33000000D03*
X130900000Y-38000000D03*
X130900000Y-90500000D03*
X130900000Y-95500000D03*
X130900000Y-100500000D03*
X130900000Y-105500000D03*
X130900000Y-110500000D03*
X130900000Y-115500000D03*
X131300000Y-48850000D03*
X133400000Y-15500000D03*
X133400000Y-20500000D03*
X133400000Y-25500000D03*
X133400000Y-38000000D03*
X133400000Y-75500000D03*
X133400000Y-80500000D03*
X133400000Y-93000000D03*
X133400000Y-98000000D03*
X133400000Y-103000000D03*
X133400000Y-108000000D03*
X133400000Y-113000000D03*
X135900000Y-18000000D03*
X135900000Y-23000000D03*
X135900000Y-28000000D03*
X135900000Y-78000000D03*
X135900000Y-83000000D03*
X135900000Y-90500000D03*
X135900000Y-95500000D03*
X135900000Y-100500000D03*
X135900000Y-105500000D03*
X135900000Y-110500000D03*
X135900000Y-115500000D03*
X138400000Y-15500000D03*
X138400000Y-20500000D03*
X138400000Y-25500000D03*
X138400000Y-50500000D03*
X138400000Y-55500000D03*
X138400000Y-60500000D03*
X138400000Y-65500000D03*
X138400000Y-80500000D03*
X138400000Y-93000000D03*
X138400000Y-98000000D03*
X138400000Y-103000000D03*
X138400000Y-108000000D03*
X138400000Y-113000000D03*
X140900000Y-18000000D03*
X140900000Y-23000000D03*
X140900000Y-28000000D03*
X140900000Y-33000000D03*
X140900000Y-43000000D03*
X140900000Y-48000000D03*
X140900000Y-53000000D03*
X140900000Y-58000000D03*
X140900000Y-63000000D03*
X140900000Y-68000000D03*
X140900000Y-78000000D03*
X140900000Y-83000000D03*
X140900000Y-90500000D03*
X140900000Y-95500000D03*
X140900000Y-100500000D03*
X140900000Y-105500000D03*
X140900000Y-110500000D03*
X140900000Y-115500000D03*
X143400000Y-15500000D03*
X143400000Y-20500000D03*
X143400000Y-25500000D03*
X143400000Y-30500000D03*
X143400000Y-35500000D03*
X143400000Y-50500000D03*
X143400000Y-55500000D03*
X143400000Y-60500000D03*
X143400000Y-65500000D03*
X143400000Y-80500000D03*
X143400000Y-93000000D03*
X143400000Y-98000000D03*
X143400000Y-103000000D03*
X143400000Y-108000000D03*
X143400000Y-113000000D03*
X145900000Y-18000000D03*
X145900000Y-23000000D03*
X145900000Y-28000000D03*
X145900000Y-33000000D03*
X145900000Y-48000000D03*
X145900000Y-53000000D03*
X145900000Y-58000000D03*
X145900000Y-63000000D03*
X145900000Y-78000000D03*
X145900000Y-83000000D03*
X145900000Y-90500000D03*
X145900000Y-95500000D03*
X145900000Y-100500000D03*
X145900000Y-105500000D03*
X145900000Y-110500000D03*
X145900000Y-115500000D03*
X147150000Y-91750000D03*
X147150000Y-94250000D03*
X148400000Y-15500000D03*
X148400000Y-20500000D03*
X148400000Y-25500000D03*
X148400000Y-30500000D03*
X148400000Y-35500000D03*
X148400000Y-50500000D03*
X148400000Y-65500000D03*
X148400000Y-78000000D03*
X148400000Y-78000000D03*
X148400000Y-78000000D03*
X148400000Y-80500000D03*
X148400000Y-80500000D03*
X148400000Y-80500000D03*
X148400000Y-80500000D03*
X148400000Y-83000000D03*
X148400000Y-90500000D03*
X148400000Y-93000000D03*
X148400000Y-93000000D03*
X148400000Y-95500000D03*
X148400000Y-98000000D03*
X148400000Y-103000000D03*
X148400000Y-108000000D03*
X148400000Y-113000000D03*
X149650000Y-79250000D03*
X149650000Y-81750000D03*
X149650000Y-94250000D03*
X150900000Y-18000000D03*
X150900000Y-23000000D03*
X150900000Y-28000000D03*
X150900000Y-33000000D03*
X150900000Y-48000000D03*
X150900000Y-78000000D03*
X150900000Y-78000000D03*
X150900000Y-78000000D03*
X150900000Y-80500000D03*
X150900000Y-93000000D03*
X150900000Y-93000000D03*
X150900000Y-95500000D03*
X150900000Y-95500000D03*
X150900000Y-100500000D03*
X150900000Y-105500000D03*
X150900000Y-110500000D03*
X150900000Y-115500000D03*
X152150000Y-79250000D03*
X152150000Y-79250000D03*
X152150000Y-94250000D03*
X153400000Y-15500000D03*
X153400000Y-20500000D03*
X153400000Y-25500000D03*
X153400000Y-30500000D03*
X153400000Y-35500000D03*
X153400000Y-50500000D03*
X153400000Y-65500000D03*
X153400000Y-70500000D03*
X153400000Y-75500000D03*
X153400000Y-78000000D03*
X153400000Y-78000000D03*
X153400000Y-78000000D03*
X153400000Y-78000000D03*
X153400000Y-80500000D03*
X153400000Y-80500000D03*
X153400000Y-80500000D03*
X153400000Y-93000000D03*
X153400000Y-93000000D03*
X153400000Y-95500000D03*
X153400000Y-98000000D03*
X153400000Y-103000000D03*
X153400000Y-108000000D03*
X153400000Y-113000000D03*
X154650000Y-79250000D03*
X154650000Y-79250000D03*
X154650000Y-94250000D03*
X154650000Y-94250000D03*
X155900000Y-18000000D03*
X155900000Y-23000000D03*
X155900000Y-28000000D03*
X155900000Y-33000000D03*
X155900000Y-38000000D03*
X155900000Y-48000000D03*
X155900000Y-73000000D03*
X155900000Y-78000000D03*
X155900000Y-78000000D03*
X155900000Y-78000000D03*
X155900000Y-80500000D03*
X155900000Y-80500000D03*
X155900000Y-93000000D03*
X155900000Y-93000000D03*
X155900000Y-95500000D03*
X155900000Y-95500000D03*
X155900000Y-100500000D03*
X155900000Y-105500000D03*
X155900000Y-110500000D03*
X155900000Y-115500000D03*
X157150000Y-79250000D03*
X157150000Y-81750000D03*
X157150000Y-94250000D03*
X158400000Y-15500000D03*
X158400000Y-20500000D03*
X158400000Y-25500000D03*
X158400000Y-38000000D03*
X158400000Y-50500000D03*
X158400000Y-65500000D03*
X158400000Y-70500000D03*
X158400000Y-75500000D03*
X158400000Y-78000000D03*
X158400000Y-78000000D03*
X158400000Y-78000000D03*
X158400000Y-80500000D03*
X158400000Y-83000000D03*
X158400000Y-90500000D03*
X158400000Y-93000000D03*
X158400000Y-93000000D03*
X158400000Y-95500000D03*
X158400000Y-98000000D03*
X158400000Y-103000000D03*
X158400000Y-108000000D03*
X158400000Y-113000000D03*
X159650000Y-94250000D03*
X160900000Y-18000000D03*
X160900000Y-23000000D03*
X160900000Y-28000000D03*
X160900000Y-48000000D03*
X160900000Y-53000000D03*
X160900000Y-58000000D03*
X160900000Y-63000000D03*
X160900000Y-73000000D03*
X160900000Y-78000000D03*
X160900000Y-80500000D03*
X160900000Y-90500000D03*
X160900000Y-95500000D03*
X160900000Y-95500000D03*
X160900000Y-100500000D03*
X160900000Y-105500000D03*
X160900000Y-110500000D03*
X160900000Y-115500000D03*
X163400000Y-15500000D03*
X163400000Y-20500000D03*
X163400000Y-25500000D03*
X163400000Y-50500000D03*
X163400000Y-55500000D03*
X163400000Y-60500000D03*
X163400000Y-65500000D03*
X163400000Y-78000000D03*
X163400000Y-93000000D03*
X163400000Y-98000000D03*
X163400000Y-103000000D03*
X163400000Y-108000000D03*
X163400000Y-113000000D03*
X165900000Y-18000000D03*
X165900000Y-18000000D03*
X165900000Y-23000000D03*
X165900000Y-23000000D03*
X165900000Y-28000000D03*
X165900000Y-28000000D03*
X165900000Y-33000000D03*
X165900000Y-33000000D03*
X165900000Y-48000000D03*
X165900000Y-53000000D03*
X165900000Y-58000000D03*
X165900000Y-63000000D03*
X165900000Y-90500000D03*
X165900000Y-95500000D03*
X165900000Y-100500000D03*
X165900000Y-105500000D03*
X165900000Y-110500000D03*
X165900000Y-115500000D03*
X168300000Y-68700000D03*
X168400000Y-15500000D03*
X168400000Y-15500000D03*
X168400000Y-20500000D03*
X168400000Y-20500000D03*
X168400000Y-25500000D03*
X168400000Y-25500000D03*
X168400000Y-30500000D03*
X168400000Y-30500000D03*
X168400000Y-35500000D03*
X168400000Y-35500000D03*
X168400000Y-40500000D03*
X168400000Y-45500000D03*
X168400000Y-50500000D03*
X168400000Y-55500000D03*
X168400000Y-60500000D03*
X168400000Y-65500000D03*
X168400000Y-90500000D03*
X168400000Y-93000000D03*
X168400000Y-95500000D03*
X168400000Y-98000000D03*
X168400000Y-100500000D03*
X168400000Y-103000000D03*
X168400000Y-105500000D03*
X168400000Y-108000000D03*
X168400000Y-110500000D03*
X168400000Y-113000000D03*
X168400000Y-115500000D03*
X170900000Y-18000000D03*
X170900000Y-23000000D03*
X170900000Y-28000000D03*
X170900000Y-33000000D03*
X173400000Y-15500000D03*
X173400000Y-20500000D03*
X173400000Y-25500000D03*
X173400000Y-30500000D03*
X173400000Y-35500000D03*
X173400000Y-90500000D03*
X173400000Y-93000000D03*
X173400000Y-95500000D03*
X173400000Y-98000000D03*
X173400000Y-100500000D03*
X173400000Y-103000000D03*
X173400000Y-105500000D03*
X173400000Y-108000000D03*
X173400000Y-110500000D03*
X173400000Y-113000000D03*
X173400000Y-115500000D03*
X175900000Y-18000000D03*
X175900000Y-23000000D03*
X175900000Y-28000000D03*
X175900000Y-33000000D03*
X175900000Y-90500000D03*
X175900000Y-95500000D03*
X175900000Y-100500000D03*
X175900000Y-105500000D03*
X175900000Y-110500000D03*
X175900000Y-115500000D03*
X178400000Y-15500000D03*
X178400000Y-25500000D03*
X178400000Y-30500000D03*
X178400000Y-35500000D03*
X178400000Y-88000000D03*
X178400000Y-93000000D03*
X178400000Y-98000000D03*
X178400000Y-103000000D03*
X178400000Y-108000000D03*
X178400000Y-113000000D03*
X179650000Y-59250000D03*
X179650000Y-61750000D03*
X180900000Y-28000000D03*
X180900000Y-33000000D03*
X180900000Y-38000000D03*
X180900000Y-43000000D03*
X180900000Y-48000000D03*
X180900000Y-60500000D03*
X180900000Y-63000000D03*
X180900000Y-65500000D03*
X180900000Y-70500000D03*
X180900000Y-75500000D03*
X180900000Y-80500000D03*
X180900000Y-85500000D03*
X180900000Y-90500000D03*
X180900000Y-95500000D03*
X180900000Y-100500000D03*
X180900000Y-105500000D03*
X180900000Y-110500000D03*
X180900000Y-115500000D03*
X182150000Y-59250000D03*
X182150000Y-61750000D03*
X183400000Y-15500000D03*
X183400000Y-25500000D03*
X183400000Y-30500000D03*
X183400000Y-35500000D03*
X183400000Y-40500000D03*
X183400000Y-45500000D03*
X183400000Y-48000000D03*
X183400000Y-60500000D03*
X183400000Y-63000000D03*
X183400000Y-68000000D03*
X183400000Y-73000000D03*
X183400000Y-78000000D03*
X183400000Y-83000000D03*
X183400000Y-88000000D03*
X183400000Y-93000000D03*
X183400000Y-98000000D03*
X183400000Y-103000000D03*
X183400000Y-108000000D03*
X183400000Y-113000000D03*
X184650000Y-59250000D03*
X184650000Y-61750000D03*
X185900000Y-23000000D03*
X185900000Y-28000000D03*
X185900000Y-33000000D03*
X185900000Y-38000000D03*
X185900000Y-43000000D03*
X185900000Y-63000000D03*
X185900000Y-65500000D03*
X185900000Y-70500000D03*
X185900000Y-75500000D03*
X185900000Y-80500000D03*
X185900000Y-85500000D03*
X185900000Y-90500000D03*
X185900000Y-95500000D03*
X185900000Y-100500000D03*
X185900000Y-105500000D03*
X185900000Y-110500000D03*
X185900000Y-115500000D03*
X188400000Y-15500000D03*
X188400000Y-20500000D03*
X188400000Y-25500000D03*
X188400000Y-30500000D03*
X188400000Y-35500000D03*
X188400000Y-40500000D03*
X188400000Y-45500000D03*
X188400000Y-63000000D03*
X188400000Y-68000000D03*
X188400000Y-73000000D03*
X188400000Y-78000000D03*
X188400000Y-83000000D03*
X188400000Y-88000000D03*
X188400000Y-103000000D03*
X188400000Y-108000000D03*
X188400000Y-113000000D03*
X190900000Y-18000000D03*
X190900000Y-23000000D03*
X190900000Y-28000000D03*
X190900000Y-33000000D03*
X190900000Y-38000000D03*
X190900000Y-43000000D03*
X190900000Y-48000000D03*
X190900000Y-60500000D03*
X190900000Y-63000000D03*
X190900000Y-65500000D03*
X190900000Y-70500000D03*
X190900000Y-75500000D03*
X190900000Y-80500000D03*
X190900000Y-85500000D03*
X190900000Y-90500000D03*
X190900000Y-100500000D03*
X190900000Y-105500000D03*
X190900000Y-110500000D03*
X190900000Y-115500000D03*
X192150000Y-59250000D03*
X192150000Y-61750000D03*
X193399998Y-48000000D03*
X193400000Y-15500000D03*
X193400000Y-20500000D03*
X193400000Y-25500000D03*
X193400000Y-30500000D03*
X193400000Y-35500000D03*
X193400000Y-40500000D03*
X193400000Y-45500000D03*
X193400000Y-60500000D03*
X193400000Y-63000000D03*
X193400000Y-68000000D03*
X193400000Y-73000000D03*
X193400000Y-78000000D03*
X193400000Y-83000000D03*
X193400000Y-88000000D03*
X193400000Y-93000000D03*
X193400000Y-98000000D03*
X193400000Y-103000000D03*
X193400000Y-108000000D03*
X193400000Y-113000000D03*
X194650000Y-59250000D03*
X194650000Y-61750000D03*
X195900000Y-18000000D03*
X195900000Y-23000000D03*
X195900000Y-28000000D03*
X195900000Y-33000000D03*
X195900000Y-38000000D03*
X195900000Y-43000000D03*
X195900000Y-48000000D03*
X195900000Y-60500000D03*
X195900000Y-63000000D03*
X195900000Y-65500000D03*
X195900000Y-85500000D03*
X195900000Y-90500000D03*
X195900000Y-95500000D03*
X195900000Y-100500000D03*
X195900000Y-105500000D03*
X195900000Y-110500000D03*
X195900000Y-115500000D03*
X197150000Y-59250000D03*
X197150000Y-61750000D03*
X198400000Y-15500000D03*
X198400000Y-20500000D03*
X198400000Y-25500000D03*
X198400000Y-30500000D03*
X198400000Y-35500000D03*
X198400000Y-40500000D03*
X198400000Y-45500000D03*
X198400000Y-48000000D03*
X198400000Y-60500000D03*
X198400000Y-63000000D03*
X198400000Y-83000000D03*
X198400000Y-88000000D03*
X198400000Y-93000000D03*
X198400000Y-98000000D03*
X198400000Y-103000000D03*
X198400000Y-108000000D03*
X198400000Y-113000000D03*
X199650000Y-59250000D03*
X199650000Y-59250000D03*
X199650000Y-61750000D03*
X200900000Y-18000000D03*
X200900000Y-23000000D03*
X200900000Y-28000000D03*
X200900000Y-33000000D03*
X200900000Y-38000000D03*
X200900000Y-48000000D03*
X200900000Y-60500000D03*
X200900000Y-63000000D03*
X200900000Y-85500000D03*
X200900000Y-88000000D03*
X200900000Y-90500000D03*
X200900000Y-93000000D03*
X200900000Y-95500000D03*
X200900000Y-98000000D03*
X200900000Y-100500000D03*
X200900000Y-103000000D03*
X200900000Y-105500000D03*
X200900000Y-108000000D03*
X200900000Y-110500000D03*
X200900000Y-113000000D03*
X200900000Y-115500000D03*
X202150000Y-59250000D03*
X202150000Y-61750000D03*
X203400000Y-15500000D03*
X203400000Y-20500000D03*
X203400000Y-25500000D03*
X203400000Y-30500000D03*
X203400000Y-35500000D03*
X204000000Y-51250000D03*
X205900000Y-18000000D03*
X205900000Y-23000000D03*
X205900000Y-28000000D03*
X205900000Y-33000000D03*
X205900000Y-38000000D03*
X205900000Y-88000000D03*
X205900000Y-90500000D03*
X205900000Y-90500000D03*
X205900000Y-93000000D03*
X205900000Y-95500000D03*
X205900000Y-95500000D03*
X205900000Y-98000000D03*
X205900000Y-100500000D03*
X205900000Y-100500000D03*
X205900000Y-103000000D03*
X205900000Y-105500000D03*
X205900000Y-105500000D03*
X205900000Y-108000000D03*
X205900000Y-110500000D03*
X205900000Y-113000000D03*
X205900000Y-115500000D03*
X205900000Y-115500000D03*
X208300000Y-49350000D03*
X208400000Y-15500000D03*
X208400000Y-20500000D03*
X208400000Y-25500000D03*
X208400000Y-30500000D03*
X208400000Y-35500000D03*
X208400000Y-38000000D03*
X208400000Y-75500000D03*
X208400000Y-80500000D03*
X208400000Y-93000000D03*
X208400000Y-98000000D03*
X208400000Y-103000000D03*
X208400000Y-108000000D03*
X208400000Y-113000000D03*
X210900000Y-18000000D03*
X210900000Y-23000000D03*
X210900000Y-28000000D03*
X210900000Y-73000000D03*
X210900000Y-78000000D03*
X210900000Y-83000000D03*
X210900000Y-90500000D03*
X210900000Y-95500000D03*
X210900000Y-100500000D03*
X210900000Y-105500000D03*
X210900000Y-110500000D03*
X210900000Y-115500000D03*
X213400000Y-15500000D03*
X213400000Y-20500000D03*
X213400000Y-25500000D03*
X213400000Y-75500000D03*
X213400000Y-80500000D03*
X213400000Y-93000000D03*
X213400000Y-98000000D03*
X213400000Y-103000000D03*
X213400000Y-108000000D03*
X213400000Y-113000000D03*
X214300000Y-67700000D03*
X215900000Y-18000000D03*
X215900000Y-23000000D03*
X215900000Y-28000000D03*
X215900000Y-48000000D03*
X215900000Y-53000000D03*
X215900000Y-78000000D03*
X215900000Y-83000000D03*
X215900000Y-90500000D03*
X215900000Y-95500000D03*
X215900000Y-100500000D03*
X215900000Y-105500000D03*
X215900000Y-110500000D03*
X215900000Y-115500000D03*
X216500000Y-58000000D03*
X216500000Y-62900000D03*
X217900000Y-43000000D03*
X218400000Y-15500000D03*
X218400000Y-20500000D03*
X218400000Y-25500000D03*
X218400000Y-30500000D03*
X218400000Y-35500000D03*
X218400000Y-45500000D03*
X218400000Y-50500000D03*
X218400000Y-55500000D03*
X218400000Y-60500000D03*
X218400000Y-65500000D03*
X218400000Y-80500000D03*
X218400000Y-93000000D03*
X218400000Y-98000000D03*
X218400000Y-103000000D03*
X218400000Y-108000000D03*
X218400000Y-113000000D03*
X220900000Y-18000000D03*
X220900000Y-23000000D03*
X220900000Y-28000000D03*
X220900000Y-33000000D03*
X220900000Y-48000000D03*
X220900000Y-53000000D03*
X220900000Y-58000000D03*
X220900000Y-63000000D03*
X220900000Y-78000000D03*
X220900000Y-83000000D03*
X220900000Y-90500000D03*
X220900000Y-95500000D03*
X220900000Y-100500000D03*
X220900000Y-105500000D03*
X220900000Y-110500000D03*
X220900000Y-115500000D03*
X223400000Y-15500000D03*
X223400000Y-20500000D03*
X223400000Y-30500000D03*
X223400000Y-35500000D03*
X223400000Y-50500000D03*
X223400000Y-55500000D03*
X223400000Y-60500000D03*
X223400000Y-65500000D03*
X223400000Y-80500000D03*
X223400000Y-93000000D03*
X223400000Y-98000000D03*
X223400000Y-103000000D03*
X223400000Y-108000000D03*
X223400000Y-113000000D03*
X224650000Y-91750000D03*
X224650000Y-94250000D03*
X225900000Y-18000000D03*
X225900000Y-23000000D03*
X225900000Y-28000000D03*
X225900000Y-33000000D03*
X225900000Y-48000000D03*
X225900000Y-78000000D03*
X225900000Y-80500000D03*
X225900000Y-83000000D03*
X225900000Y-90500000D03*
X225900000Y-90500000D03*
X225900000Y-93000000D03*
X225900000Y-93000000D03*
X225900000Y-95500000D03*
X225900000Y-95500000D03*
X225900000Y-100500000D03*
X225900000Y-105500000D03*
X225900000Y-110500000D03*
X225900000Y-115500000D03*
X227150000Y-79250000D03*
X227150000Y-94250000D03*
X228400000Y-15500000D03*
X228400000Y-20500000D03*
X228400000Y-25500000D03*
X228400000Y-30500000D03*
X228400000Y-35500000D03*
X228400000Y-50500000D03*
X228400000Y-65500000D03*
X228400000Y-75500000D03*
X228400000Y-78000000D03*
X228400000Y-93000000D03*
X228400000Y-93000000D03*
X228400000Y-93000000D03*
X228400000Y-95500000D03*
X228400000Y-95500000D03*
X228400000Y-98000000D03*
X228400000Y-103000000D03*
X228400000Y-108000000D03*
X228400000Y-113000000D03*
X229650000Y-79250000D03*
X229650000Y-94250000D03*
X230900000Y-18000000D03*
X230900000Y-23000000D03*
X230900000Y-28000000D03*
X230900000Y-33000000D03*
X230900000Y-48000000D03*
X230900000Y-73000000D03*
X230900000Y-78000000D03*
X230900000Y-93000000D03*
X230900000Y-93000000D03*
X230900000Y-95500000D03*
X230900000Y-95500000D03*
X230900000Y-100500000D03*
X230900000Y-105500000D03*
X230900000Y-110500000D03*
X230900000Y-115500000D03*
X232150000Y-79250000D03*
X232150000Y-94250000D03*
X232150000Y-94250000D03*
X233400000Y-15500000D03*
X233400000Y-20500000D03*
X233400000Y-25500000D03*
X233400000Y-30500000D03*
X233400000Y-35500000D03*
X233400000Y-38000000D03*
X233400000Y-50500000D03*
X233400000Y-65500000D03*
X233400000Y-70500000D03*
X233400000Y-75500000D03*
X233400000Y-78000000D03*
X233400000Y-93000000D03*
X233400000Y-93000000D03*
X233400000Y-93000000D03*
X233400000Y-95500000D03*
X233400000Y-95500000D03*
X233400000Y-98000000D03*
X233400000Y-103000000D03*
X233400000Y-108000000D03*
X233400000Y-113000000D03*
X234650000Y-79250000D03*
X234650000Y-81750000D03*
X234650000Y-94250000D03*
X235900000Y-18000000D03*
X235900000Y-23000000D03*
X235900000Y-28000000D03*
X235900000Y-38000000D03*
X235900000Y-48000000D03*
X235900000Y-73000000D03*
X235900000Y-78000000D03*
X235900000Y-80500000D03*
X235900000Y-83000000D03*
X235900000Y-90500000D03*
X235900000Y-90500000D03*
X235900000Y-93000000D03*
X235900000Y-93000000D03*
X235900000Y-95500000D03*
X235900000Y-95500000D03*
X235900000Y-100500000D03*
X235900000Y-105500000D03*
X235900000Y-110500000D03*
X235900000Y-115500000D03*
X238400000Y-15500000D03*
X238400000Y-20500000D03*
X238400000Y-25500000D03*
X238400000Y-50500000D03*
X238400000Y-55500000D03*
X238400000Y-60500000D03*
X238400000Y-65500000D03*
X238400000Y-70500000D03*
X238400000Y-75500000D03*
X238400000Y-80500000D03*
X238400000Y-93000000D03*
X238400000Y-98000000D03*
X238400000Y-103000000D03*
X238400000Y-108000000D03*
X238400000Y-113000000D03*
X240900000Y-18000000D03*
X240900000Y-23000000D03*
X240900000Y-28000000D03*
X240900000Y-48000000D03*
X240900000Y-48000000D03*
X240900000Y-53000000D03*
X240900000Y-58000000D03*
X240900000Y-63000000D03*
X240900000Y-78000000D03*
X240900000Y-90500000D03*
X240900000Y-95500000D03*
X240900000Y-100500000D03*
X240900000Y-105500000D03*
X240900000Y-110500000D03*
X240900000Y-115500000D03*
X242900000Y-20500000D03*
X243400000Y-15500000D03*
X243400000Y-25500000D03*
X243400000Y-30500000D03*
X243400000Y-35500000D03*
X243400000Y-45500000D03*
X243400000Y-50500000D03*
X243400000Y-55500000D03*
X243400000Y-60500000D03*
X243400000Y-65500000D03*
X243400000Y-93000000D03*
X243400000Y-98000000D03*
X243400000Y-103000000D03*
X243400000Y-108000000D03*
X243400000Y-113000000D03*
X245400000Y-68700000D03*
X245900000Y-18500000D03*
X245900000Y-23000000D03*
X245900000Y-28000000D03*
X245900000Y-33000000D03*
X245900000Y-43000000D03*
X245900000Y-48000000D03*
X245900000Y-53000000D03*
X245900000Y-58000000D03*
X245900000Y-63000000D03*
X245900000Y-90500000D03*
X245900000Y-93000000D03*
X245900000Y-95500000D03*
X245900000Y-98000000D03*
X245900000Y-100500000D03*
X245900000Y-103000000D03*
X245900000Y-105500000D03*
X245900000Y-108000000D03*
X245900000Y-110500000D03*
X245900000Y-113000000D03*
X245900000Y-115500000D03*
X248400000Y-15500000D03*
X248400000Y-20500000D03*
X248400000Y-25500000D03*
X248400000Y-30500000D03*
X248400000Y-35500000D03*
X250900000Y-28000000D03*
X250900000Y-33000000D03*
X250900000Y-90500000D03*
X250900000Y-93000000D03*
X250900000Y-95500000D03*
X250900000Y-98000000D03*
X250900000Y-100500000D03*
X250900000Y-103000000D03*
X250900000Y-105500000D03*
X250900000Y-108000000D03*
X250900000Y-110500000D03*
X250900000Y-113000000D03*
X250900000Y-115500000D03*
X253400000Y-25500000D03*
X253400000Y-30500000D03*
X253400000Y-35500000D03*
X253400000Y-90500000D03*
X253400000Y-95500000D03*
X253400000Y-105500000D03*
X253400000Y-110500000D03*
X253400000Y-115500000D03*
X255900000Y-28000000D03*
X255900000Y-33000000D03*
X255900000Y-38000000D03*
X255900000Y-88000000D03*
X255900000Y-93000000D03*
X255900000Y-98000000D03*
X255900000Y-103000000D03*
X255900000Y-108000000D03*
X255900000Y-113000000D03*
X258400000Y-15500000D03*
X258400000Y-15500000D03*
X258400000Y-20500000D03*
X258400000Y-20500000D03*
X258400000Y-25500000D03*
X258400000Y-25500000D03*
X258400000Y-30500000D03*
X258400000Y-35500000D03*
X258400000Y-40500000D03*
X258400000Y-45500000D03*
X258400000Y-50500000D03*
X258400000Y-60500000D03*
X258400000Y-65500000D03*
X258400000Y-70500000D03*
X258400000Y-75500000D03*
X258400000Y-75500000D03*
X258400000Y-80500000D03*
X258400000Y-85500000D03*
X258400000Y-90500000D03*
X258400000Y-95500000D03*
X258400000Y-100500000D03*
X258400000Y-105500000D03*
X258400000Y-110500000D03*
X258400000Y-115500000D03*
X260900000Y-18000000D03*
X260900000Y-23000000D03*
X260900000Y-28000000D03*
X260900000Y-33000000D03*
X260900000Y-38000000D03*
X260900000Y-43000000D03*
X260900000Y-48000000D03*
X260900000Y-50500000D03*
X260900000Y-58000000D03*
X260900000Y-63000000D03*
X260900000Y-68000000D03*
X260900000Y-73000000D03*
X260900000Y-78000000D03*
X260900000Y-83000000D03*
X260900000Y-88000000D03*
X260900000Y-93000000D03*
X260900000Y-103000000D03*
X260900000Y-108000000D03*
X260900000Y-113000000D03*
X263400000Y-15500000D03*
X263400000Y-20500000D03*
X263400000Y-25500000D03*
X263400000Y-30500000D03*
X263400000Y-35500000D03*
X263400000Y-40500000D03*
X263400000Y-45500000D03*
X263400000Y-65500000D03*
X263400000Y-70500000D03*
X263400000Y-75500000D03*
X263400000Y-80500000D03*
X263400000Y-85500000D03*
X263400000Y-90500000D03*
X263400000Y-100500000D03*
X263400000Y-105500000D03*
X263400000Y-110500000D03*
X263400000Y-115500000D03*
X265900000Y-18000000D03*
X265900000Y-23000000D03*
X265900000Y-28000000D03*
X265900000Y-33000000D03*
X265900000Y-38000000D03*
X265900000Y-43000000D03*
X265900000Y-63000000D03*
X265900000Y-68000000D03*
X265900000Y-73000000D03*
X265900000Y-78000000D03*
X265900000Y-83000000D03*
X265900000Y-88000000D03*
X265900000Y-98000000D03*
X265900000Y-103000000D03*
X265900000Y-108000000D03*
X265900000Y-113000000D03*
X268400000Y-15500000D03*
X268400000Y-20500000D03*
X268400000Y-25500000D03*
X268400000Y-30500000D03*
X268400000Y-35500000D03*
X268400000Y-40500000D03*
X268400000Y-45500000D03*
X268400000Y-50500000D03*
X268400000Y-60500000D03*
X268400000Y-65500000D03*
X268400000Y-70500000D03*
X268400000Y-75500000D03*
X268400000Y-80500000D03*
X268400000Y-85500000D03*
X268400000Y-90500000D03*
X268400000Y-95500000D03*
X268400000Y-100500000D03*
X268400000Y-105500000D03*
X268400000Y-110500000D03*
X270900000Y-18000000D03*
X270900000Y-23000000D03*
X270900000Y-28000000D03*
X270900000Y-33000000D03*
X270900000Y-38000000D03*
X270900000Y-43000000D03*
X270900000Y-48000000D03*
X270900000Y-50500000D03*
X270900000Y-58000000D03*
X270900000Y-63000000D03*
X270900000Y-68000000D03*
X270900000Y-73000000D03*
X270900000Y-78000000D03*
X270900000Y-83000000D03*
X270900000Y-88000000D03*
X270900000Y-93000000D03*
X270900000Y-98000000D03*
X270900000Y-103000000D03*
X270900000Y-108000000D03*
X270900000Y-113000000D03*
X273400000Y-15500000D03*
X273400000Y-20500000D03*
X273400000Y-25500000D03*
X273400000Y-30500000D03*
X273400000Y-35500000D03*
X273400000Y-40500000D03*
X273400000Y-45500000D03*
X273400000Y-50500000D03*
X273400000Y-60500000D03*
X273400000Y-65500000D03*
X273400000Y-70500000D03*
X273400000Y-75500000D03*
X273400000Y-80500000D03*
X273400000Y-85500000D03*
X273400000Y-90500000D03*
X273400000Y-95500000D03*
X273400000Y-100500000D03*
X273400000Y-105500000D03*
X273400000Y-110500000D03*
X275900000Y-23000000D03*
X275900000Y-28000000D03*
X275900000Y-33000000D03*
X275900000Y-38000000D03*
X275900000Y-43000000D03*
X275900000Y-48000000D03*
X275900000Y-50500000D03*
X275900000Y-58000000D03*
X275900000Y-63000000D03*
X275900000Y-68000000D03*
X275900000Y-73000000D03*
X275900000Y-78000000D03*
X275900000Y-83000000D03*
X275900000Y-88000000D03*
X275900000Y-93000000D03*
X275900000Y-98000000D03*
X275900000Y-103000000D03*
X275900000Y-108000000D03*
X275900000Y-113000000D03*
X278400000Y-25500000D03*
X278400000Y-30500000D03*
X278400000Y-35500000D03*
X278400000Y-40500000D03*
X278400000Y-45500000D03*
X278400000Y-50500000D03*
X278400000Y-60500000D03*
X278400000Y-65500000D03*
X278400000Y-70500000D03*
X278400000Y-75500000D03*
X278400000Y-80500000D03*
X278400000Y-85500000D03*
X278400000Y-90500000D03*
X278400000Y-95500000D03*
X278400000Y-100500000D03*
X278400000Y-105500000D03*
X278400000Y-110500000D03*
X278400000Y-115500000D03*
X278900000Y-121500000D03*
X280900000Y-23000000D03*
X280900000Y-28000000D03*
X280900000Y-33000000D03*
X280900000Y-38000000D03*
X280900000Y-43000000D03*
X280900000Y-48000000D03*
X280900000Y-50500000D03*
D12*
%TO.C,P7*%
X72350000Y-57500000D03*
X73448350Y-54848350D03*
X73448350Y-60151650D03*
X76100000Y-53750000D03*
X76100000Y-61250000D03*
X78751650Y-54848350D03*
X78751650Y-60151650D03*
X79850000Y-57500000D03*
%TO.C,P3*%
X21780000Y-26500000D03*
X22878350Y-23848350D03*
X22878350Y-29151650D03*
X25530000Y-22750000D03*
X25530000Y-30250000D03*
X28181650Y-23848350D03*
X28181650Y-29151650D03*
X29280000Y-26500000D03*
%TO.C,P4*%
X21850000Y-82500000D03*
X22948350Y-79848350D03*
X22948350Y-85151650D03*
X25600000Y-78750000D03*
X25600000Y-86250000D03*
X28251650Y-79848350D03*
X28251650Y-85151650D03*
X29350000Y-82500000D03*
%TO.C,P5*%
X227150000Y-57500000D03*
X228248350Y-54848350D03*
X228248350Y-60151650D03*
X230900000Y-53750000D03*
X230900000Y-61250000D03*
X233551650Y-54848350D03*
X233551650Y-60151650D03*
X234650000Y-57500000D03*
%TO.C,P6*%
X150150000Y-57500000D03*
X151248350Y-54848350D03*
X151248350Y-60151650D03*
X153900000Y-53750000D03*
X153900000Y-61250000D03*
X156551650Y-54848350D03*
X156551650Y-60151650D03*
X157650000Y-57500000D03*
D13*
%TO.C,Y1*%
X180800000Y-140270000D03*
X180800000Y-145150000D03*
%TO.C,Y2*%
X84020000Y-128600000D03*
X88900000Y-128600000D03*
D14*
%TO.C,P1*%
X228250000Y-157320000D03*
X228250000Y-159820000D03*
X231450000Y-157320000D03*
X231450000Y-159820000D03*
D15*
%TO.C,P8*%
X158400000Y-154960000D03*
X158400000Y-157500000D03*
X160940000Y-154960000D03*
X160940000Y-157500000D03*
X163480000Y-154960000D03*
X163480000Y-157500000D03*
%TO.C,U2*%
X56900000Y-160500000D03*
X59440000Y-160500000D03*
X64520000Y-160500000D03*
X69600000Y-160500000D03*
D16*
%TO.C,P2*%
X18380000Y-123910000D03*
X18380000Y-126450000D03*
X18380000Y-128990000D03*
X18380000Y-131530000D03*
X18380000Y-134070000D03*
X18380000Y-136610000D03*
X18380000Y-139150000D03*
X18380000Y-144230000D03*
X18380000Y-146770000D03*
X20920000Y-123910000D03*
X20920000Y-126450000D03*
X20920000Y-128990000D03*
X20920000Y-131530000D03*
X20920000Y-134070000D03*
X20920000Y-136610000D03*
X20920000Y-139150000D03*
X20920000Y-144230000D03*
X20920000Y-146770000D03*
D17*
%TO.C,P9*%
X83400000Y-163500000D03*
X86900000Y-163500000D03*
X90400000Y-163500000D03*
X93900000Y-163500000D03*
X97400000Y-163500000D03*
X100900000Y-163500000D03*
D18*
%TO.C,Q7*%
X127240000Y-43500000D03*
X132700000Y-43500000D03*
X138160000Y-43500000D03*
%TO.C,Q3*%
X204340000Y-43500000D03*
X209800000Y-43500000D03*
X215260000Y-43500000D03*
%TO.C,Q8*%
X132450000Y-71460000D03*
X137910000Y-71460000D03*
X143370000Y-71460000D03*
%TO.C,Q6*%
X162990000Y-73900000D03*
X168450000Y-73900000D03*
X173910000Y-73900000D03*
%TO.C,Q5*%
X153640000Y-43500000D03*
X159100000Y-43500000D03*
X164560000Y-43500000D03*
%TO.C,Q9*%
X76140000Y-43600000D03*
X81600000Y-43600000D03*
X87060000Y-43600000D03*
%TO.C,Q11*%
X50040000Y-43500000D03*
X55500000Y-43500000D03*
X60960000Y-43500000D03*
%TO.C,Q4*%
X209540000Y-71500000D03*
X215000000Y-71500000D03*
X220460000Y-71500000D03*
%TO.C,Q1*%
X230980000Y-43500000D03*
X236440000Y-43500000D03*
X241900000Y-43500000D03*
%TO.C,Q2*%
X239940000Y-74000000D03*
X245400000Y-74000000D03*
X250860000Y-74000000D03*
%TO.C,Q12*%
X86350000Y-73950000D03*
X91810000Y-73950000D03*
X97270000Y-73950000D03*
%TO.C,Q10*%
X55540000Y-71500000D03*
X61000000Y-71500000D03*
X66460000Y-71500000D03*
D19*
%TO.C,P10*%
X20290000Y-95450000D03*
X20290000Y-97950000D03*
X20290000Y-100490000D03*
X20290000Y-103030000D03*
X20290000Y-103030000D03*
X20290000Y-105570000D03*
X22830000Y-95450000D03*
X22830000Y-97950000D03*
X22830000Y-100490000D03*
X22830000Y-100490000D03*
X22830000Y-103030000D03*
X22830000Y-105570000D03*
X25370000Y-95450000D03*
X25370000Y-97950000D03*
X25370000Y-100490000D03*
X25370000Y-100490000D03*
X25370000Y-103030000D03*
X25370000Y-105570000D03*
X27910000Y-95450000D03*
X27910000Y-97950000D03*
X27910000Y-100490000D03*
X27910000Y-103030000D03*
X27910000Y-105570000D03*
X30450000Y-95450000D03*
X30450000Y-97950000D03*
X30450000Y-100500000D03*
X30450000Y-100500000D03*
X30450000Y-103040000D03*
X30450000Y-105580000D03*
D20*
%TO.C,C34*%
X265000000Y-50200000D03*
X265000000Y-60200000D03*
%TO.C,C51*%
X187900000Y-50400000D03*
X187900000Y-60400000D03*
%TO.C,P2*%
X19650000Y-115040000D03*
X19650000Y-155640000D03*
%TO.C,C50*%
X32400000Y-50300000D03*
X32400000Y-60300000D03*
%TO.C,C53*%
X110800000Y-50400000D03*
X110800000Y-60400000D03*
D21*
%TO.C,P1*%
X228740000Y-152550000D03*
X228740000Y-164590000D03*
D22*
%TO.C,MH1*%
X19900000Y-162500000D03*
%TO.C,MH11*%
X19000000Y-17000000D03*
%TO.C,MH2*%
X277900000Y-162500000D03*
%TO.C,MH12*%
X277900000Y-17500000D03*
D23*
%TO.C,P7*%
X76100000Y-57500000D03*
%TO.C,P3*%
X25530000Y-26500000D03*
%TO.C,P4*%
X25600000Y-82500000D03*
%TO.C,P5*%
X230900000Y-57500000D03*
%TO.C,P6*%
X153900000Y-57500000D03*
M02*
